<?xml version="1.0" encoding="UTF-8"?>
<svg version="1.1" xmlns="http://www.w3.org/2000/svg" width="225" height="225">
<path d="M0 0 C74.25 0 148.5 0 225 0 C225 74.25 225 148.5 225 225 C150.75 225 76.5 225 0 225 C0 150.75 0 76.5 0 0 Z " fill="#F6F6F6" transform="translate(0,0)"/>
<path d="M0 0 C3.3 0 6.6 0 10 0 C10 2.97 10 5.94 10 9 C6.7169902 10.6415049 3.57454967 9.51888624 0 9 C0 6.03 0 3.06 0 0 Z M-6.15234375 8.90234375 C-4.1015625 8.93489583 -2.05078125 8.96744792 0 9 C0.33 11.97 0.66 14.94 1 18 C3.97 18.33 6.94 18.66 10 19 C9.9690625 16.8034375 9.9690625 16.8034375 9.9375 14.5625 C9.91607993 13.04167482 9.92820036 11.51928038 10 10 C10.33 9.67 10.66 9.34 11 9 C13.64 9 16.28 9 19 9 C19 55.53 19 102.06 19 150 C-36.77 150 -92.54 150 -150 150 C-150 147.03 -150 144.06 -150 141 C-147.03 140.67 -144.06 140.34 -141 140 C-140.67 137.03 -140.34 134.06 -140 131 C-137.03 131 -134.06 131 -131 131 C-131 134.3 -131 137.6 -131 141 C-128.03 140.67 -125.06 140.34 -122 140 C-122 137.03 -122 134.06 -122 131 C-118.7 131 -115.4 131 -112 131 C-112 128.03 -112 125.06 -112 122 C-114.97 122 -117.94 122 -121 122 C-121 119.03 -121 116.06 -121 113 C-118.36 112.67 -115.72 112.34 -113 112 C-112.67 109.03 -112.34 106.06 -112 103 C-116.455 103.495 -116.455 103.495 -121 104 C-121.33 106.64 -121.66 109.28 -122 112 C-124.97 112 -127.94 112 -131 112 C-131 109.03 -131 106.06 -131 103 C-133.97 103 -136.94 103 -140 103 C-140 100.03 -140 97.06 -140 94 C-142.1965625 94.0309375 -142.1965625 94.0309375 -144.4375 94.0625 C-145.95832518 94.08392007 -147.48071962 94.07179964 -149 94 C-150 93 -150 93 -150.09765625 90.93359375 C-150.06510417 88.62239583 -150.03255208 86.31119792 -150 84 C-147.03 84 -144.06 84 -141 84 C-141 82.35 -141 80.7 -141 79 C-140.21238281 78.98582031 -139.42476562 78.97164063 -138.61328125 78.95703125 C-123.98660093 78.31657306 -112.50477159 72.99017973 -102 63 C-99.11440895 59.8058593 -96.47791538 56.51849012 -94 53 C-90.54586752 56.35254034 -87.39332457 59.8313211 -84.33203125 63.546875 C-83.0420309 65.12779183 -83.0420309 65.12779183 -81 66 C-81 66.66 -81 67.32 -81 68 C-80.2265625 68.38478516 -80.2265625 68.38478516 -79.4375 68.77734375 C-77.51682955 69.74075697 -75.6012103 70.71424049 -73.6875 71.69140625 C-72.45838069 72.31519749 -71.22921283 72.93889307 -70 73.5625 C-69.38382812 73.87896484 -68.76765625 74.19542969 -68.1328125 74.52148438 C-59.04168884 79.11581833 -46.76511515 79.92242314 -36.9375 76.75 C-35.60987254 76.20196774 -34.29603984 75.61904342 -33 75 C-32.28328125 74.68675781 -31.5665625 74.37351562 -30.828125 74.05078125 C-26.79521401 72.18887161 -24.1029295 70.21785281 -21 67 C-20.01 67 -19.02 67 -18 67 C-18 69.64 -18 72.28 -18 75 C-15.03 75 -12.06 75 -9 75 C-9 72.03 -9 69.06 -9 66 C-6.36 65.67 -3.72 65.34 -1 65 C-0.67 62.03 -0.34 59.06 0 56 C4.455 55.505 4.455 55.505 9 55 C9.33 52.36 9.66 49.72 10 47 C6.7 47 3.4 47 0 47 C-0.09765625 40.84765625 -0.09765625 40.84765625 0 39 C2.04698414 36.95301586 6.30411241 37.29954307 9 37 C9.33 34.03 9.66 31.06 10 28 C6.7 28 3.4 28 0 28 C0 25.03 0 22.06 0 19 C-2.97 19 -5.94 19 -9 19 C-9.09765625 12.06640625 -9.09765625 12.06640625 -9 10 C-8 9 -8 9 -6.15234375 8.90234375 Z " fill="#F7F7F7" transform="translate(206,75)"/>
<path d="M0 0 C2.1484375 1.48046875 2.1484375 1.48046875 3.625 2.8125 C3.625 3.4725 3.625 4.1325 3.625 4.8125 C4.19734375 5.03679687 4.7696875 5.26109375 5.359375 5.4921875 C8.27366633 7.1905159 9.82407745 9.27130069 11.875 11.9375 C12.58140625 12.84757812 13.2878125 13.75765625 14.015625 14.6953125 C14.81226562 15.74332031 14.81226562 15.74332031 15.625 16.8125 C18.17998449 14.31293817 20.53933878 11.75585718 22.8125 9 C30.20893523 0.55141794 39.52807483 -5.76887295 50.625 -8.1875 C64.97527911 -9.05505899 76.42265804 -8.05988355 87.625 1.8125 C90.375 4.375 90.375 4.375 92.625 6.8125 C93.305625 7.534375 93.98625 8.25625 94.6875 9 C101.52104976 18.91966901 102.62051315 30.113186 101.625 41.8125 C100.06930879 49.28870746 96.62245978 55.12531817 91.625 60.8125 C91.12355469 61.41835937 90.62210938 62.02421875 90.10546875 62.6484375 C83.28884947 70.24457286 73.88876887 74.42181503 63.8046875 75.05078125 C50.10022328 75.40523445 39.65094537 72.47117276 28.625 63.8125 C28.625 63.1525 28.625 62.4925 28.625 61.8125 C28.05265625 61.58820313 27.4803125 61.36390625 26.890625 61.1328125 C23.97633367 59.4344841 22.42592255 57.35369931 20.375 54.6875 C19.66859375 53.77742188 18.9621875 52.86734375 18.234375 51.9296875 C17.70328125 51.23101562 17.1721875 50.53234375 16.625 49.8125 C13.35654958 52.95182296 13.35654958 52.95182296 10.4140625 56.38671875 C3.70506995 65.10840907 -7.51221111 72.80136247 -18.375 74.8125 C-31.99797517 76.28289659 -42.93499826 74.66778271 -54.25 66.5 C-61.85383814 60.14742636 -68.64361702 50.83456774 -69.56787109 40.69702148 C-70.27486087 20.83489361 -70.27486087 20.83489361 -64.375 11.8125 C-63.74078125 10.74708984 -63.74078125 10.74708984 -63.09375 9.66015625 C-57.59356535 1.32993473 -48.83200183 -4.36699068 -39.375 -7.1875 C-38.79363281 -7.36667969 -38.21226563 -7.54585938 -37.61328125 -7.73046875 C-24.18744674 -10.47186951 -11.43538487 -7.260845 0 0 Z " fill="#0BA1A6" transform="translate(96.375,79.1875)"/>
<path d="M0 0 C5.90949151 3.12765962 10.55036211 6.80178154 14.75 12 C15.77480469 13.24716797 15.77480469 13.24716797 16.8203125 14.51953125 C21.78258534 21.00940573 21.78258534 21.00940573 21.65234375 24.96875 C19.03602201 33.75777888 11.23721395 41.92431201 3.75 47 C-4.4091466 51.20257551 -12.53548962 53.9088073 -21.5859375 51.3359375 C-30.09446356 47.99641362 -36.36944142 42.22678418 -40.25 34 C-42.33333575 27.45438429 -42.57452516 18.91723433 -39.6875 12.625 C-31.20644849 -1.48032777 -15.07179248 -7.50337011 0 0 Z " fill="#F7F9F9" transform="translate(82.25,88)"/>
<path d="M0 0 C8.2601219 -0.44766395 15.0723523 2.27350165 21.421875 7.50390625 C27.68457494 13.41235245 29.95354377 19.44513318 30.359375 27.94140625 C30.25586913 35.68134487 26.99940005 41.96879008 21.8203125 47.62109375 C15.00821393 53.65295195 7.589166 55.58792794 -1.3359375 55.46875 C-11.93659679 54.34539655 -21.21677999 45.92270778 -27.953125 38.19140625 C-30.92270577 34.48126336 -32.82195357 31.60805766 -33.265625 26.81640625 C-29.65138212 16.83421163 -20.0313683 7.64597369 -10.703125 2.75390625 C-7.10796796 1.15056509 -3.91577056 0.38374551 0 0 Z " fill="#FCFDFD" transform="translate(153.953125,84.80859375)"/>
<path d="M0 0 C-0.66 0.33 -1.32 0.66 -2 1 C-2 3.64 -2 6.28 -2 9 C-4.97 9 -7.94 9 -11 9 C-11 10.65 -11 12.3 -11 14 C-8.03 14 -5.06 14 -2 14 C-1.67 12.35 -1.34 10.7 -1 9 C1.97 9 4.94 9 8 9 C8 11.97 8 14.94 8 18 C5.03 18 2.06 18 -1 18 C-1 19.65 -1 21.3 -1 23 C1.64 23 4.28 23 7 23 C7 25.64 7 28.28 7 31 C4.03 31 1.06 31 -2 31 C-2 33.97 -2 36.94 -2 40 C-4.64 40 -7.28 40 -10 40 C-10 37.03 -10 34.06 -10 31 C-12.97 31 -15.94 31 -19 31 C-19 28.36 -19 25.72 -19 23 C-15.04 22.505 -15.04 22.505 -11 22 C-11 20.68 -11 19.36 -11 18 C-13.97 18 -16.94 18 -20 18 C-19.979375 19.464375 -19.95875 20.92875 -19.9375 22.4375 C-19.91607993 23.95832518 -19.92820036 25.48071962 -20 27 C-22.04698414 29.04698414 -26.30411241 28.70045693 -29 29 C-29.33 31.64 -29.66 34.28 -30 37 C-30.99 37 -31.98 37 -33 37 C-33.33 37.66 -33.66 38.32 -34 39 C-39.83134301 31.54602241 -39.83134301 31.54602241 -40.375 26.5625 C-36.30255954 16.01117699 -26.04749894 6.26295631 -15.76171875 1.67578125 C-10.56727274 -0.31676677 -5.48902375 -0.10762792 0 0 Z " fill="#FAFBFC" transform="translate(161,85)"/>
<path d="M0 0 C2.97 0 5.94 0 9 0 C9 2.97 9 5.94 9 9 C11.97 9 14.94 9 18 9 C17.979375 7.700625 17.95875 6.40125 17.9375 5.0625 C17.91600546 3.70834367 17.92851801 2.35243917 18 1 C19 0 19 0 21.06640625 -0.09765625 C22.30197266 -0.08025391 22.30197266 -0.08025391 23.5625 -0.0625 C24.38878906 -0.05347656 25.21507812 -0.04445312 26.06640625 -0.03515625 C26.70449219 -0.02355469 27.34257812 -0.01195312 28 0 C28.02689216 1.47906892 28.04634621 2.95827483 28.0625 4.4375 C28.07410156 5.26121094 28.08570313 6.08492187 28.09765625 6.93359375 C28 9 28 9 27 10 C24.32941149 10.14115161 21.67567762 10.04247107 19 10 C19 12.97 19 15.94 19 19 C21.97 19 24.94 19 28 19 C28 21.97 28 24.94 28 28 C24.7 28 21.4 28 18 28 C18.185625 29.464375 18.37125 30.92875 18.5625 32.4375 C18.75462854 33.95318071 18.91062197 35.47480724 19 37 C18 38 18 38 15.93359375 38.09765625 C12.46679688 38.04882812 12.46679688 38.04882812 9 38 C9 34.7 9 31.4 9 28 C6.03 28 3.06 28 0 28 C0.020625 29.464375 0.04125 30.92875 0.0625 32.4375 C0.08392007 33.95832518 0.07179964 35.48071962 0 37 C-1 38 -1 38 -3.06640625 38.09765625 C-6.53320312 38.04882812 -6.53320312 38.04882812 -10 38 C-10 40.97 -10 43.94 -10 47 C-12.97 47 -15.94 47 -19 47 C-19 44.03 -19 41.06 -19 38 C-16.36 37.67 -13.72 37.34 -11 37 C-10.505 32.545 -10.505 32.545 -10 28 C-7.03 27.67 -4.06 27.34 -1 27 C-0.67 24.36 -0.34 21.72 0 19 C-3.3 19 -6.6 19 -10 19 C-10.09765625 12.84765625 -10.09765625 12.84765625 -10 11 C-7.95301586 8.95301586 -3.69588759 9.29954307 -1 9 C-0.67 6.03 -0.34 3.06 0 0 Z " fill="#FDFDFD" transform="translate(141,178)"/>
<path d="M0 0 C2.97 0 5.94 0 9 0 C9 2.97 9 5.94 9 9 C11.97 9 14.94 9 18 9 C17.979375 7.700625 17.95875 6.40125 17.9375 5.0625 C17.91600546 3.70834367 17.92851801 2.35243917 18 1 C19 0 19 0 21.06640625 -0.09765625 C22.30197266 -0.08025391 22.30197266 -0.08025391 23.5625 -0.0625 C24.38878906 -0.05347656 25.21507812 -0.04445313 26.06640625 -0.03515625 C26.70449219 -0.02355469 27.34257812 -0.01195313 28 0 C28.02689216 1.47906892 28.04634621 2.95827483 28.0625 4.4375 C28.07410156 5.26121094 28.08570313 6.08492187 28.09765625 6.93359375 C28 9 28 9 27 10 C24.32941149 10.14115161 21.67567762 10.04247107 19 10 C19 12.97 19 15.94 19 19 C21.97 19 24.94 19 28 19 C28 21.97 28 24.94 28 28 C24.7 28 21.4 28 18 28 C18.185625 29.464375 18.37125 30.92875 18.5625 32.4375 C18.75462854 33.95318071 18.91062197 35.47480724 19 37 C18 38 18 38 15.93359375 38.09765625 C12.46679688 38.04882812 12.46679688 38.04882812 9 38 C9 34.7 9 31.4 9 28 C6.03 28 3.06 28 0 28 C0.020625 29.464375 0.04125 30.92875 0.0625 32.4375 C0.08392007 33.95832518 0.07179964 35.48071962 0 37 C-1 38 -1 38 -3.06640625 38.09765625 C-6.53320312 38.04882812 -6.53320312 38.04882812 -10 38 C-10 40.97 -10 43.94 -10 47 C-12.97 47 -15.94 47 -19 47 C-19 44.03 -19 41.06 -19 38 C-16.36 37.67 -13.72 37.34 -11 37 C-10.505 32.545 -10.505 32.545 -10 28 C-7.03 27.67 -4.06 27.34 -1 27 C-0.67 24.36 -0.34 21.72 0 19 C-3.3 19 -6.6 19 -10 19 C-10.09765625 12.84765625 -10.09765625 12.84765625 -10 11 C-7.95301586 8.95301586 -3.69588759 9.29954307 -1 9 C-0.67 6.03 -0.34 3.06 0 0 Z " fill="#FDFDFD" transform="translate(141,28)"/>
<path d="M0 0 C2.97 0 5.94 0 9 0 C9 2.97 9 5.94 9 9 C11.97 9 14.94 9 18 9 C17.979375 7.700625 17.95875 6.40125 17.9375 5.0625 C17.91600546 3.70834367 17.92851801 2.35243917 18 1 C19 0 19 0 21.06640625 -0.09765625 C22.30197266 -0.08025391 22.30197266 -0.08025391 23.5625 -0.0625 C24.38878906 -0.05347656 25.21507812 -0.04445313 26.06640625 -0.03515625 C26.70449219 -0.02355469 27.34257813 -0.01195313 28 0 C28.02689216 1.47906892 28.04634621 2.95827483 28.0625 4.4375 C28.07410156 5.26121094 28.08570313 6.08492187 28.09765625 6.93359375 C28 9 28 9 27 10 C24.32941149 10.14115161 21.67567762 10.04247107 19 10 C19 12.97 19 15.94 19 19 C21.97 19 24.94 19 28 19 C28 21.97 28 24.94 28 28 C24.7 28 21.4 28 18 28 C18.185625 29.464375 18.37125 30.92875 18.5625 32.4375 C18.75462854 33.95318071 18.91062197 35.47480724 19 37 C18 38 18 38 15.93359375 38.09765625 C12.46679688 38.04882812 12.46679688 38.04882812 9 38 C9 34.7 9 31.4 9 28 C6.03 28 3.06 28 0 28 C0.020625 29.464375 0.04125 30.92875 0.0625 32.4375 C0.08392007 33.95832518 0.07179964 35.48071962 0 37 C-1 38 -1 38 -3.06640625 38.09765625 C-3.89011719 38.08605469 -4.71382812 38.07445312 -5.5625 38.0625 C-6.38878906 38.05347656 -7.21507812 38.04445312 -8.06640625 38.03515625 C-8.70449219 38.02355469 -9.34257813 38.01195312 -10 38 C-9.67 40.31 -9.34 42.62 -9 45 C-12.3 45.99 -15.6 46.98 -19 48 C-19 44.7 -19 41.4 -19 38 C-16.36 37.67 -13.72 37.34 -11 37 C-10.505 32.545 -10.505 32.545 -10 28 C-7.03 27.67 -4.06 27.34 -1 27 C-0.67 24.36 -0.34 21.72 0 19 C-3.3 19 -6.6 19 -10 19 C-10.09765625 12.84765625 -10.09765625 12.84765625 -10 11 C-7.95301586 8.95301586 -3.69588759 9.29954307 -1 9 C-0.67 6.03 -0.34 3.06 0 0 Z " fill="#FCFDFD" transform="translate(66,28)"/>
<path d="M0 0 C1.63001953 0.01353516 1.63001953 0.01353516 3.29296875 0.02734375 C4.12441406 0.03894531 4.95585938 0.05054687 5.8125 0.0625 C5.8125 3.0325 5.8125 6.0025 5.8125 9.0625 C8.7825 9.0625 11.7525 9.0625 14.8125 9.0625 C14.8125 12.0325 14.8125 15.0025 14.8125 18.0625 C11.8425 18.0625 8.8725 18.0625 5.8125 18.0625 C5.8125 19.3825 5.8125 20.7025 5.8125 22.0625 C2.04949626 23.31683458 -1.45960909 23.16945422 -5.375 23.125 C-6.12458984 23.12048828 -6.87417969 23.11597656 -7.64648438 23.11132812 C-9.49352383 23.09956354 -11.34052213 23.08162865 -13.1875 23.0625 C-13.1875 24.7125 -13.1875 26.3625 -13.1875 28.0625 C-16.1575 28.0625 -19.1275 28.0625 -22.1875 28.0625 C-22.1875 31.0325 -22.1875 34.0025 -22.1875 37.0625 C-19.2175 37.0625 -16.2475 37.0625 -13.1875 37.0625 C-13.1875 40.0325 -13.1875 43.0025 -13.1875 46.0625 C-16.04201268 46.30037606 -18.38740309 46.4763339 -21.1875 46.0625 C-25.96569685 41.93000542 -27.87589379 36.06593339 -28.51171875 29.9375 C-28.82211391 20.68986499 -27.1789528 15.08240532 -20.9375 8.3125 C-14.93932245 2.65042723 -8.20764758 -0.08825428 0 0 Z " fill="#ECEEEE" transform="translate(69.1875,84.9375)"/>
<path d="M0 0 C2.97 0 5.94 0 9 0 C9 2.97 9 5.94 9 9 C6.36 9.33 3.72 9.66 1 10 C0.67 12.97 0.34 15.94 0 19 C2.97 19 5.94 19 9 19 C9 21.97 9 24.94 9 28 C12.3 28 15.6 28 19 28 C19.09765625 34.93359375 19.09765625 34.93359375 19 37 C16.95301586 39.04698414 12.69588759 38.70045693 10 39 C9.67 41.64 9.34 44.28 9 47 C12.3 47 15.6 47 19 47 C19.09765625 53.15234375 19.09765625 53.15234375 19 55 C18 56 18 56 15.93359375 56.09765625 C15.10988281 56.08605469 14.28617188 56.07445312 13.4375 56.0625 C12.61121094 56.05347656 11.78492188 56.04445312 10.93359375 56.03515625 C10.29550781 56.02355469 9.65742188 56.01195312 9 56 C9.01160156 56.63808594 9.02320313 57.27617187 9.03515625 57.93359375 C9.04417969 58.75988281 9.05320313 59.58617187 9.0625 60.4375 C9.07410156 61.26121094 9.08570313 62.08492187 9.09765625 62.93359375 C9 65 9 65 8 66 C5.32941149 66.14115161 2.67567762 66.04247107 0 66 C0 68.97 0 71.94 0 75 C-2.97 75 -5.94 75 -9 75 C-9 72.36 -9 69.72 -9 67 C-9.66 66.67 -10.32 66.34 -11 66 C-9.9171875 64.824375 -9.9171875 64.824375 -8.8125 63.625 C-0.59160238 53.78802849 0.7210058 43.4571394 0.18798828 31.09863281 C-0.46798436 23.77559276 -3.88247446 17.88217935 -8 12 C-8 11.01 -8 10.02 -8 9 C-5.36 9 -2.72 9 0 9 C0 6.03 0 3.06 0 0 Z " fill="#EDEFEF" transform="translate(197,75)"/>
<path d="M0 0 C2.97 0 5.94 0 9 0 C9 2.97 9 5.94 9 9 C6.36 9.33 3.72 9.66 1 10 C0.67 12.97 0.34 15.94 0 19 C2.97 19 5.94 19 9 19 C9 21.97 9 24.94 9 28 C6.03 28 3.06 28 0 28 C0 30.97 0 33.94 0 37 C-2.64 37.33 -5.28 37.66 -8 38 C-8.33 40.97 -8.66 43.94 -9 47 C-11.97 47 -14.94 47 -18 47 C-18 44.03 -18 41.06 -18 38 C-15.36 37.67 -12.72 37.34 -10 37 C-9.67 34.03 -9.34 31.06 -9 28 C-11.97 28.33 -14.94 28.66 -18 29 C-18.33 31.64 -18.66 34.28 -19 37 C-21.97 37 -24.94 37 -28 37 C-28 34.03 -28 31.06 -28 28 C-25.03 28 -22.06 28 -19 28 C-19.020625 26.700625 -19.04125 25.40125 -19.0625 24.0625 C-19.08399454 22.70834367 -19.07148199 21.35243917 -19 20 C-18 19 -18 19 -15.93359375 18.90234375 C-14.69802734 18.91974609 -14.69802734 18.91974609 -13.4375 18.9375 C-12.61121094 18.94652344 -11.78492188 18.95554687 -10.93359375 18.96484375 C-9.97646484 18.98224609 -9.97646484 18.98224609 -9 19 C-9.01160156 18.36191406 -9.02320313 17.72382813 -9.03515625 17.06640625 C-9.04417969 16.24011719 -9.05320313 15.41382813 -9.0625 14.5625 C-9.07410156 13.73878906 -9.08570313 12.91507813 -9.09765625 12.06640625 C-9 10 -9 10 -8 9 C-5.32941149 8.85884839 -2.67567762 8.95752893 0 9 C0 6.03 0 3.06 0 0 Z " fill="#EEEEEE" transform="translate(178,0)"/>
<path d="M0 0 C2.97 0 5.94 0 9 0 C9 2.97 9 5.94 9 9 C6.36 9.33 3.72 9.66 1 10 C0.67 12.97 0.34 15.94 0 19 C2.97 19 5.94 19 9 19 C9 21.97 9 24.94 9 28 C6.03 28 3.06 28 0 28 C0 30.97 0 33.94 0 37 C-2.64 37.33 -5.28 37.66 -8 38 C-8.33 40.97 -8.66 43.94 -9 47 C-11.97 47 -14.94 47 -18 47 C-18 44.03 -18 41.06 -18 38 C-15.36 37.67 -12.72 37.34 -10 37 C-9.67 34.03 -9.34 31.06 -9 28 C-11.97 28.33 -14.94 28.66 -18 29 C-18.33 31.64 -18.66 34.28 -19 37 C-21.97 37 -24.94 37 -28 37 C-28 34.03 -28 31.06 -28 28 C-25.03 28 -22.06 28 -19 28 C-19.020625 26.700625 -19.04125 25.40125 -19.0625 24.0625 C-19.08399454 22.70834367 -19.07148199 21.35243917 -19 20 C-18 19 -18 19 -15.93359375 18.90234375 C-14.69802734 18.91974609 -14.69802734 18.91974609 -13.4375 18.9375 C-12.61121094 18.94652344 -11.78492187 18.95554687 -10.93359375 18.96484375 C-9.97646484 18.98224609 -9.97646484 18.98224609 -9 19 C-9.01160156 18.36191406 -9.02320312 17.72382813 -9.03515625 17.06640625 C-9.04417969 16.24011719 -9.05320312 15.41382813 -9.0625 14.5625 C-9.07410156 13.73878906 -9.08570312 12.91507813 -9.09765625 12.06640625 C-9 10 -9 10 -8 9 C-5.32941149 8.85884839 -2.67567762 8.95752893 0 9 C0 6.03 0 3.06 0 0 Z " fill="#EEEEEE" transform="translate(103,0)"/>
<path d="M0 0 C2.05078125 0.03255208 4.1015625 0.06510417 6.15234375 0.09765625 C6.15234375 3.06765625 6.15234375 6.03765625 6.15234375 9.09765625 C8.10140625 8.81921875 8.10140625 8.81921875 10.08984375 8.53515625 C12.3046875 8.21875 12.3046875 8.21875 14.15234375 8.09765625 C15.15234375 9.09765625 15.15234375 9.09765625 15.25 11.3828125 C15.23839844 12.29933594 15.22679687 13.21585938 15.21484375 14.16015625 C15.20582031 15.07925781 15.19679687 15.99835938 15.1875 16.9453125 C15.17589844 17.65558594 15.16429687 18.36585938 15.15234375 19.09765625 C12.18234375 19.09765625 9.21234375 19.09765625 6.15234375 19.09765625 C6.15234375 22.06765625 6.15234375 25.03765625 6.15234375 28.09765625 C2.19234375 28.59265625 2.19234375 28.59265625 -1.84765625 29.09765625 C-2.17765625 32.06765625 -2.50765625 35.03765625 -2.84765625 38.09765625 C-7.30265625 38.59265625 -7.30265625 38.59265625 -11.84765625 39.09765625 C-12.17765625 41.73765625 -12.50765625 44.37765625 -12.84765625 47.09765625 C-15.81765625 47.09765625 -18.78765625 47.09765625 -21.84765625 47.09765625 C-21.84765625 44.12765625 -21.84765625 41.15765625 -21.84765625 38.09765625 C-18.87765625 38.09765625 -15.90765625 38.09765625 -12.84765625 38.09765625 C-12.90953125 36.17953125 -12.90953125 36.17953125 -12.97265625 34.22265625 C-13.04296875 32.04296875 -13.04296875 32.04296875 -12.84765625 30.09765625 C-10.84765625 28.09765625 -10.84765625 28.09765625 -8.90234375 27.90234375 C-6.88411458 27.96744792 -4.86588542 28.03255208 -2.84765625 28.09765625 C-2.84765625 25.12765625 -2.84765625 22.15765625 -2.84765625 19.09765625 C-6.14765625 19.09765625 -9.44765625 19.09765625 -12.84765625 19.09765625 C-12.9453125 12.9453125 -12.9453125 12.9453125 -12.84765625 11.09765625 C-10.80067211 9.05067211 -6.54354384 9.39719932 -3.84765625 9.09765625 C-3.70328125 7.79828125 -3.55890625 6.49890625 -3.41015625 5.16015625 C-2.85356362 0.1508226 -2.85356362 0.1508226 0 0 Z " fill="#FDFDFD" transform="translate(21.84765625,130.90234375)"/>
<path d="M0 0 C3.3 0 6.6 0 10 0 C10.09765625 6.93359375 10.09765625 6.93359375 10 9 C7.95301586 11.04698414 3.69588759 10.70045693 1 11 C0.67 13.64 0.34 16.28 0 19 C3.3 19 6.6 19 10 19 C10.09765625 25.15234375 10.09765625 25.15234375 10 27 C9 28 9 28 6.93359375 28.09765625 C6.10988281 28.08605469 5.28617188 28.07445312 4.4375 28.0625 C3.61121094 28.05347656 2.78492187 28.04445312 1.93359375 28.03515625 C0.97646484 28.01775391 0.97646484 28.01775391 0 28 C0.01160156 28.63808594 0.02320312 29.27617187 0.03515625 29.93359375 C0.04417969 30.75988281 0.05320312 31.58617187 0.0625 32.4375 C0.07410156 33.26121094 0.08570312 34.08492187 0.09765625 34.93359375 C0 37 0 37 -1 38 C-3.67058851 38.14115161 -6.32432238 38.04247107 -9 38 C-9 34.7 -9 31.4 -9 28 C-12.3 28 -15.6 28 -19 28 C-18.505 23.545 -18.505 23.545 -18 19 C-15.03 19 -12.06 19 -9 19 C-9 16.03 -9 13.06 -9 10 C-6.36 9.67 -3.72 9.34 -1 9 C-0.67 6.03 -0.34 3.06 0 0 Z M-28 28 C-25.03 28 -22.06 28 -19 28 C-19 30.97 -19 33.94 -19 37 C-21.97 37 -24.94 37 -28 37 C-28 34.03 -28 31.06 -28 28 Z " fill="#EEEEEE" transform="translate(56,178)"/>
<path d="M0 0 C11.41186263 1.74629926 19.42121733 10.35091026 26 19.1875 C27.8125 21.66796875 27.8125 21.66796875 29 24 C28.67 25.32 28.34 26.64 28 28 C25.03 27.67 22.06 27.34 19 27 C19 29.97 19 32.94 19 36 C16.03 36 13.06 36 10 36 C10 33.03 10 30.06 10 27 C13.96 26.505 13.96 26.505 18 26 C18.33 23.03 18.66 20.06 19 17 C16.03 17.33 13.06 17.66 10 18 C9.34 21.96 8.68 25.92 8 30 C-0.58 30 -9.16 30 -18 30 C-18 27.36 -18 24.72 -18 22 C-12.06 21.67 -6.12 21.34 0 21 C0 19.68 0 18.36 0 17 C2.97 17 5.94 17 9 17 C9 14.03 9 11.06 9 8 C6.03 8 3.06 8 0 8 C0 5.36 0 2.72 0 0 Z " fill="#EAEDED" transform="translate(75,86)"/>
<path d="M0 0 C2.97 0 5.94 0 9 0 C9 2.97 9 5.94 9 9 C6.36 9.33 3.72 9.66 1 10 C0.855625 11.299375 0.71125 12.59875 0.5625 13.9375 C0.125 17.875 0.125 17.875 -1 19 C-3.65463121 19.45459858 -6.32189138 19.70243238 -9 20 C-9.33 22.64 -9.66 25.28 -10 28 C-19.24 28 -28.48 28 -38 28 C-38 25.03 -38 22.06 -38 19 C-35.03 18.67 -32.06 18.34 -29 18 C-28.67 15.03 -28.34 12.06 -28 9 C-25.03 9 -22.06 9 -19 9 C-19 12.3 -19 15.6 -19 19 C-16.03 18.67 -13.06 18.34 -10 18 C-10 15.03 -10 12.06 -10 9 C-6.7 9 -3.4 9 0 9 C0 6.03 0 3.06 0 0 Z " fill="#EEEEEE" transform="translate(169,197)"/>
<path d="M0 0 C2.97 0 5.94 0 9 0 C9 2.97 9 5.94 9 9 C6.36 9.33 3.72 9.66 1 10 C0.855625 11.299375 0.71125 12.59875 0.5625 13.9375 C0.125 17.875 0.125 17.875 -1 19 C-3.65463121 19.45459858 -6.32189138 19.70243238 -9 20 C-9.33 22.64 -9.66 25.28 -10 28 C-19.24 28 -28.48 28 -38 28 C-38 25.03 -38 22.06 -38 19 C-35.03 18.67 -32.06 18.34 -29 18 C-28.67 15.03 -28.34 12.06 -28 9 C-25.03 9 -22.06 9 -19 9 C-19 12.3 -19 15.6 -19 19 C-16.03 18.67 -13.06 18.34 -10 18 C-10 15.03 -10 12.06 -10 9 C-6.7 9 -3.4 9 0 9 C0 6.03 0 3.06 0 0 Z " fill="#EEEEEE" transform="translate(94,197)"/>
<path d="M0 0 C3.63 0 7.26 0 11 0 C10.125 8.875 10.125 8.875 9 10 C6.34536879 10.45459858 3.67810862 10.70243238 1 11 C0.67 13.64 0.34 16.28 0 19 C3.3 19 6.6 19 10 19 C10 21.97 10 24.94 10 28 C7.94921875 28.22786458 5.8984375 28.45572917 3.84765625 28.68359375 C1.98859771 28.81886614 1.98859771 28.81886614 1 30 C0.76924918 31.34747084 0.58846937 32.70377565 0.4375 34.0625 C0.293125 35.361875 0.14875 36.66125 0 38 C-2.97 38 -5.94 38 -9 38 C-9 28.76 -9 19.52 -9 10 C-4.545 9.505 -4.545 9.505 0 9 C0 6.03 0 3.06 0 0 Z " fill="#EEEEEE" transform="translate(9,131)"/>
<path d="M0 0 C2.97 0 5.94 0 9 0 C9 9.24 9 18.48 9 28 C5.04 28.495 5.04 28.495 1 29 C0.67 31.97 0.34 34.94 0 38 C-6.93359375 38.09765625 -6.93359375 38.09765625 -9 38 C-10 37 -10 37 -10.09765625 34.93359375 C-10.06510417 32.62239583 -10.03255208 30.31119792 -10 28 C-7.03 28 -4.06 28 -1 28 C-0.505 23.545 -0.505 23.545 0 19 C-3.3 19 -6.6 19 -10 19 C-10 16.03 -10 13.06 -10 10 C-5.545 9.505 -5.545 9.505 -1 9 C-0.67 6.03 -0.34 3.06 0 0 Z " fill="#EEEEEE" transform="translate(216,131)"/>
<path d="M0 0 C2.97 0 5.94 0 9 0 C9 9.24 9 18.48 9 28 C5.04 28.495 5.04 28.495 1 29 C0.67 31.97 0.34 34.94 0 38 C-6.93359375 38.09765625 -6.93359375 38.09765625 -9 38 C-10 37 -10 37 -10.09765625 34.93359375 C-10.06510417 32.62239583 -10.03255208 30.31119792 -10 28 C-7.03 28 -4.06 28 -1 28 C-0.505 23.545 -0.505 23.545 0 19 C-3.3 19 -6.6 19 -10 19 C-10 16.03 -10 13.06 -10 10 C-5.545 9.505 -5.545 9.505 -1 9 C-0.67 6.03 -0.34 3.06 0 0 Z " fill="#EEEEEE" transform="translate(216,56)"/>
<path d="M0 0 C2.97 0 5.94 0 9 0 C9 2.97 9 5.94 9 9 C6.36 9.33 3.72 9.66 1 10 C0.855625 11.299375 0.71125 12.59875 0.5625 13.9375 C0.125 17.875 0.125 17.875 -1 19 C-3.65463121 19.45459858 -6.32189138 19.70243238 -9 20 C-9.33 21.98 -9.66 23.96 -10 26 C-11.41152344 25.7525 -11.41152344 25.7525 -12.8515625 25.5 C-17.69025219 24.80771392 -22.49809287 24.92942247 -27.375 25 C-29.17442079 25.0253797 -30.97390925 25.04645666 -32.7734375 25.0625 C-33.95558838 25.07990234 -33.95558838 25.07990234 -35.16162109 25.09765625 C-37 25 -37 25 -38 24 C-38.04063832 22.33382885 -38.042721 20.66611905 -38 19 C-35.03 18.67 -32.06 18.34 -29 18 C-28.67 15.03 -28.34 12.06 -28 9 C-25.03 9 -22.06 9 -19 9 C-19 12.3 -19 15.6 -19 19 C-16.03 18.67 -13.06 18.34 -10 18 C-10 15.03 -10 12.06 -10 9 C-6.7 9 -3.4 9 0 9 C0 6.03 0 3.06 0 0 Z " fill="#EDEEEE" transform="translate(94,47)"/>
<path d="M0 0 C1.23556641 0.01740234 1.23556641 0.01740234 2.49609375 0.03515625 C3.32238281 0.04417969 4.14867188 0.05320312 5 0.0625 C5.63808594 0.07410156 6.27617188 0.08570312 6.93359375 0.09765625 C6.96048591 1.57672517 6.97993996 3.05593108 6.99609375 4.53515625 C7.00769531 5.35886719 7.01929687 6.18257813 7.03125 7.03125 C6.93359375 9.09765625 6.93359375 9.09765625 5.93359375 10.09765625 C3.26300524 10.23880786 0.60927137 10.14012732 -2.06640625 10.09765625 C-2.06640625 13.06765625 -2.06640625 16.03765625 -2.06640625 19.09765625 C0.90359375 19.09765625 3.87359375 19.09765625 6.93359375 19.09765625 C6.93359375 16.12765625 6.93359375 13.15765625 6.93359375 10.09765625 C9.90359375 10.09765625 12.87359375 10.09765625 15.93359375 10.09765625 C14.85343433 18.64765056 7.25213405 25.38572386 0.8828125 30.69140625 C-3.28742375 33.69999352 -6.83933643 35.09765625 -12.06640625 35.09765625 C-12.06640625 32.78765625 -12.06640625 30.47765625 -12.06640625 28.09765625 C-9.09640625 28.09765625 -6.12640625 28.09765625 -3.06640625 28.09765625 C-3.06640625 25.12765625 -3.06640625 22.15765625 -3.06640625 19.09765625 C-6.03640625 19.09765625 -9.00640625 19.09765625 -12.06640625 19.09765625 C-12.06640625 17.44765625 -12.06640625 15.79765625 -12.06640625 14.09765625 C-8.60140625 13.60265625 -8.60140625 13.60265625 -5.06640625 13.09765625 C-4.93363281 12.24300781 -4.80085938 11.38835937 -4.6640625 10.5078125 C-4.48746094 9.40308594 -4.31085938 8.29835938 -4.12890625 7.16015625 C-3.95488281 6.05800781 -3.78085938 4.95585938 -3.6015625 3.8203125 C-2.87738279 0.13598217 -2.87738279 0.13598217 0 0 Z " fill="#FAFBFB" transform="translate(87.06640625,102.90234375)"/>
<path d="M0 0 C2.64 0 5.28 0 8 0 C8 2.64 8 5.28 8 8 C10.97 8 13.94 8 17 8 C17 10.64 17 13.28 17 16 C14.03 16 11.06 16 8 16 C8 18.97 8 21.94 8 25 C5.36 25 2.72 25 0 25 C0 22.03 0 19.06 0 16 C-2.97 16 -5.94 16 -9 16 C-9 13.36 -9 10.72 -9 8 C-6.03 8 -3.06 8 0 8 C0 5.36 0 2.72 0 0 Z " fill="#11A3A8" transform="translate(151,100)"/>
<path d="M0 0 C3.3 0 6.6 0 10 0 C10 2.97 10 5.94 10 9 C6.7169902 10.6415049 3.57454967 9.51888624 0 9 C0 6.03 0 3.06 0 0 Z M-6.15234375 8.90234375 C-4.1015625 8.93489583 -2.05078125 8.96744792 0 9 C0.33 11.97 0.66 14.94 1 18 C3.97 18.33 6.94 18.66 10 19 C10 21.97 10 24.94 10 28 C6.7 28 3.4 28 0 28 C0 25.03 0 22.06 0 19 C-2.97 19 -5.94 19 -9 19 C-9.09765625 12.06640625 -9.09765625 12.06640625 -9 10 C-8 9 -8 9 -6.15234375 8.90234375 Z " fill="#FDFDFD" transform="translate(206,75)"/>
<path d="M0 0 C2.97 0 5.94 0 9 0 C9 2.97 9 5.94 9 9 C6.03 9 3.06 9 0 9 C0.020625 10.464375 0.04125 11.92875 0.0625 13.4375 C0.08392007 14.95832518 0.07179964 16.48071962 0 18 C-1 19 -1 19 -3.06640625 19.09765625 C-6.53320312 19.04882812 -6.53320312 19.04882812 -10 19 C-10 21.97 -10 24.94 -10 28 C-12.97 28 -15.94 28 -19 28 C-19 25.03 -19 22.06 -19 19 C-15.04 18.505 -15.04 18.505 -11 18 C-10.67 15.03 -10.34 12.06 -10 9 C-5.545 8.505 -5.545 8.505 -1 8 C-0.67 5.36 -0.34 2.72 0 0 Z " fill="#FEFEFE" transform="translate(216,122)"/>
<path d="M0 0 C2.97 0 5.94 0 9 0 C9 2.97 9 5.94 9 9 C6.03 9 3.06 9 0 9 C0.020625 10.464375 0.04125 11.92875 0.0625 13.4375 C0.08392007 14.95832518 0.07179964 16.48071962 0 18 C-1 19 -1 19 -3.06640625 19.09765625 C-6.53320312 19.04882812 -6.53320312 19.04882812 -10 19 C-10 21.97 -10 24.94 -10 28 C-12.97 28 -15.94 28 -19 28 C-19 25.03 -19 22.06 -19 19 C-15.04 18.505 -15.04 18.505 -11 18 C-10.67 15.03 -10.34 12.06 -10 9 C-5.545 8.505 -5.545 8.505 -1 8 C-0.67 5.36 -0.34 2.72 0 0 Z " fill="#FEFEFE" transform="translate(216,47)"/>
<path d="M0 0 C2.97 0 5.94 0 9 0 C9 6.27 9 12.54 9 19 C2.73 19 -3.54 19 -10 19 C-10 16.03 -10 13.06 -10 10 C-5.545 9.505 -5.545 9.505 -1 9 C-0.67 6.03 -0.34 3.06 0 0 Z " fill="#EEEEEE" transform="translate(216,206)"/>
<path d="M0 0 C2.97 0 5.94 0 9 0 C9 2.97 9 5.94 9 9 C6.36 9.33 3.72 9.66 1 10 C0.855625 11.299375 0.71125 12.59875 0.5625 13.9375 C0.125 17.875 0.125 17.875 -1 19 C-3.65463121 19.45459858 -6.32189138 19.70243238 -9 20 C-9.33 22.64 -9.66 25.28 -10 28 C-12.97 28 -15.94 28 -19 28 C-19 25.03 -19 22.06 -19 19 C-16.03 18.67 -13.06 18.34 -10 18 C-10 15.03 -10 12.06 -10 9 C-6.7 9 -3.4 9 0 9 C0 6.03 0 3.06 0 0 Z " fill="#EEEEEE" transform="translate(19,197)"/>
<path d="M0 0 C2.97 0 5.94 0 9 0 C9 2.97 9 5.94 9 9 C6.36 9.33 3.72 9.66 1 10 C0.67 12.97 0.34 15.94 0 19 C-2.97 19.33 -5.94 19.66 -9 20 C-9.33 22.64 -9.66 25.28 -10 28 C-12.97 28 -15.94 28 -19 28 C-19 25.03 -19 22.06 -19 19 C-16.03 19 -13.06 19 -10 19 C-10.04125 17.72125 -10.0825 16.4425 -10.125 15.125 C-10.1953125 12.9453125 -10.1953125 12.9453125 -10 11 C-8 9 -8 9 -6.0546875 8.8046875 C-4.03645833 8.86979167 -2.01822917 8.93489583 0 9 C0 6.03 0 3.06 0 0 Z " fill="#FEFEFE" transform="translate(94,150)"/>
<path d="M0 0 C2.97 0 5.94 0 9 0 C9 2.97 9 5.94 9 9 C6.36 9.33 3.72 9.66 1 10 C0.67 12.97 0.34 15.94 0 19 C-2.97 19.33 -5.94 19.66 -9 20 C-9.33 22.64 -9.66 25.28 -10 28 C-12.97 28 -15.94 28 -19 28 C-19 25.03 -19 22.06 -19 19 C-16.03 19 -13.06 19 -10 19 C-10.04125 17.72125 -10.0825 16.4425 -10.125 15.125 C-10.1953125 12.9453125 -10.1953125 12.9453125 -10 11 C-8 9 -8 9 -6.0546875 8.8046875 C-4.03645833 8.86979167 -2.01822917 8.93489583 0 9 C0 6.03 0 3.06 0 0 Z " fill="#FEFEFE" transform="translate(19,75)"/>
<path d="M0 0 C2.97 0 5.94 0 9 0 C9 2.97 9 5.94 9 9 C6.36 9.33 3.72 9.66 1 10 C0.67 12.97 0.34 15.94 0 19 C-2.97 19.33 -5.94 19.66 -9 20 C-9.33 22.64 -9.66 25.28 -10 28 C-12.97 28 -15.94 28 -19 28 C-19 25.03 -19 22.06 -19 19 C-16.03 19 -13.06 19 -10 19 C-10.04125 17.72125 -10.0825 16.4425 -10.125 15.125 C-10.1953125 12.9453125 -10.1953125 12.9453125 -10 11 C-8 9 -8 9 -6.0546875 8.8046875 C-4.03645833 8.86979167 -2.01822917 8.93489583 0 9 C0 6.03 0 3.06 0 0 Z " fill="#FEFEFE" transform="translate(169,0)"/>
<path d="M0 0 C2.97 0 5.94 0 9 0 C9 2.97 9 5.94 9 9 C6.36 9.33 3.72 9.66 1 10 C0.67 12.97 0.34 15.94 0 19 C-2.97 19.33 -5.94 19.66 -9 20 C-9.33 22.64 -9.66 25.28 -10 28 C-12.97 28 -15.94 28 -19 28 C-19 25.03 -19 22.06 -19 19 C-16.03 19 -13.06 19 -10 19 C-10.04125 17.72125 -10.0825 16.4425 -10.125 15.125 C-10.1953125 12.9453125 -10.1953125 12.9453125 -10 11 C-8 9 -8 9 -6.0546875 8.8046875 C-4.03645833 8.86979167 -2.01822917 8.93489583 0 9 C0 6.03 0 3.06 0 0 Z " fill="#FEFEFE" transform="translate(94,0)"/>
<path d="M0 0 C2.97 0 5.94 0 9 0 C9 2.97 9 5.94 9 9 C6.36 9.33 3.72 9.66 1 10 C0.67 12.97 0.34 15.94 0 19 C-2.97 19.33 -5.94 19.66 -9 20 C-9.33 22.64 -9.66 25.28 -10 28 C-12.97 28 -15.94 28 -19 28 C-19 25.03 -19 22.06 -19 19 C-16.03 19 -13.06 19 -10 19 C-10.04125 17.72125 -10.0825 16.4425 -10.125 15.125 C-10.1953125 12.9453125 -10.1953125 12.9453125 -10 11 C-8 9 -8 9 -6.0546875 8.8046875 C-4.03645833 8.86979167 -2.01822917 8.93489583 0 9 C0 6.03 0 3.06 0 0 Z " fill="#FEFEFE" transform="translate(19,0)"/>
<path d="M0 0 C0.33 0 0.66 0 1 0 C1.67955177 9.04181377 -0.10926904 15.55579127 -5.6875 22.75 C-10.3054716 27.78991824 -16.24363318 31.01857057 -23 32 C-24.76977761 32.06459042 -26.54170152 32.08611065 -28.3125 32.0625 C-29.19550781 32.05347656 -30.07851562 32.04445312 -30.98828125 32.03515625 C-31.65214844 32.02355469 -32.31601563 32.01195312 -33 32 C-33 31.67 -33 31.34 -33 31 C-30.03 31 -27.06 31 -24 31 C-24 28.36 -24 25.72 -24 23 C-20.7 23 -17.4 23 -14 23 C-14 20.03 -14 17.06 -14 14 C-11.03 14 -8.06 14 -5 14 C-5 11.03 -5 8.06 -5 5 C-3.35 5 -1.7 5 0 5 C0 3.35 0 1.7 0 0 Z " fill="#EBEDED" transform="translate(183,108)"/>
<path d="M0 0 C2.33294775 -0.04241723 4.66702567 -0.04092937 7 0 C8 1 8 1 8.09765625 3.72265625 C8.08605469 4.82480469 8.07445313 5.92695312 8.0625 7.0625 C8.05347656 8.16722656 8.04445313 9.27195312 8.03515625 10.41015625 C8.02355469 11.26480469 8.01195313 12.11945313 8 13 C7.67 11.68 7.34 10.36 7 9 C5.02 9.33 3.04 9.66 1 10 C0.67 12.97 0.34 15.94 0 19 C-2.97 19.33 -5.94 19.66 -9 20 C-9.33 22.64 -9.66 25.28 -10 28 C-12.97 28 -15.94 28 -19 28 C-19 25.03 -19 22.06 -19 19 C-16.03 19 -13.06 19 -10 19 C-10 15.7 -10 12.4 -10 9 C-7.03 9 -4.06 9 -1 9 C-0.67 6.03 -0.34 3.06 0 0 Z " fill="#EEEEEE" transform="translate(19,103)"/>
<path d="M0 0 C0 2.97 0 5.94 0 9 C-2.64 9.33 -5.28 9.66 -8 10 C-8.33 12.97 -8.66 15.94 -9 19 C-11.97 19.33 -14.94 19.66 -18 20 C-18.33 22.64 -18.66 25.28 -19 28 C-21.97 28 -24.94 28 -28 28 C-28 25.03 -28 22.06 -28 19 C-25.03 19 -22.06 19 -19 19 C-19.04125 17.72125 -19.0825 16.4425 -19.125 15.125 C-19.1953125 12.9453125 -19.1953125 12.9453125 -19 11 C-17 9 -17 9 -15.0546875 8.8046875 C-13.03645833 8.86979167 -11.01822917 8.93489583 -9 9 C-9.33 7.02 -9.66 5.04 -10 3 C-6.48812804 0.59185923 -4.27343092 -0.36629408 0 0 Z " fill="#FCFDFD" transform="translate(178,150)"/>
<path d="M0 0 C2.97 0 5.94 0 9 0 C9 3.3 9 6.6 9 10 C6.03 10 3.06 10 0 10 C0 12.97 0 15.94 0 19 C2.97 19 5.94 19 9 19 C9 21.97 9 24.94 9 28 C6.14548732 28.23787606 3.80009691 28.4138339 1 28 C-3.31694401 24.2664268 -5.72971341 18.37570705 -6.18359375 12.70703125 C-6.18696247 10.80370637 -6.10181799 8.90060254 -6 7 C-5.67 7.66 -5.34 8.32 -5 9 C-3.35 9 -1.7 9 0 9 C0 6.03 0 3.06 0 0 Z " fill="#FCFDFD" transform="translate(47,103)"/>
<path d="M0 0 C2.97 0.33 5.94 0.66 9 1 C9.33 2.65 9.66 4.3 10 6 C6.7169902 7.6415049 3.57454967 6.51888624 0 6 C0 4.02 0 2.04 0 0 Z M-6.15234375 5.90234375 C-4.1015625 5.93489583 -2.05078125 5.96744792 0 6 C0.33 8.97 0.66 11.94 1 15 C3.97 15.33 6.94 15.66 10 16 C10 18.97 10 21.94 10 25 C6.7 25 3.4 25 0 25 C0 22.03 0 19.06 0 16 C-2.97 16 -5.94 16 -9 16 C-9.09765625 9.06640625 -9.09765625 9.06640625 -9 7 C-8 6 -8 6 -6.15234375 5.90234375 Z " fill="#FDFDFD" transform="translate(56,153)"/>
<path d="M0 0 C7.90589992 0.28748727 13.41796027 3.41796027 19 9 C19.26991906 11.68839385 19.08737357 14.29141936 19 17 C16.03 17 13.06 17 10 17 C10 14.03 10 11.06 10 8 C5.545 8.495 5.545 8.495 1 9 C0.67 10.32 0.34 11.64 0 13 C-2.97 13 -5.94 13 -9 13 C-9 11.35 -9 9.7 -9 8 C-6.03 8 -3.06 8 0 8 C0 5.36 0 2.72 0 0 Z " fill="#FCFCFD" transform="translate(159,86)"/>
<path d="M0 0 C0.99 0.99 1.98 1.98 3 3 C2.34 3.66 1.68 4.32 1 5 C0.59952556 7.32275177 0.2602896 9.65739357 0 12 C-2.64 12.33 -5.28 12.66 -8 13 C-8.33 15.97 -8.66 18.94 -9 22 C-11.97 22 -14.94 22 -18 22 C-18 24.97 -18 27.94 -18 31 C-20.97 31 -23.94 31 -27 31 C-27.33 28.36 -27.66 25.72 -28 23 C-27.39414063 22.731875 -26.78828125 22.46375 -26.1640625 22.1875 C-15.01994975 16.97548419 -7.2479316 9.87986208 0 0 Z " fill="#E9EDED" transform="translate(112,128)"/>
<path d="M0 0 C0.7209082 0.16371094 1.44181641 0.32742187 2.18457031 0.49609375 C4.89187874 0.98064843 7.30257793 1.10007881 10.046875 1.0625 C10.97371094 1.05476562 11.90054688 1.04703125 12.85546875 1.0390625 C13.81066406 1.02617187 14.76585937 1.01328125 15.75 1 C17.66140332 0.97461616 19.57287044 0.9535406 21.484375 0.9375 C22.74846191 0.92009766 22.74846191 0.92009766 24.03808594 0.90234375 C26 1 26 1 27 2 C27.04063832 3.66617115 27.042721 5.33388095 27 7 C24.03 7 21.06 7 18 7 C18 5.68 18 4.36 18 3 C14.7 3 11.4 3 8 3 C8 4.32 8 5.64 8 7 C5.36 7.33 2.72 7.66 0 8 C-0.33 10.97 -0.66 13.94 -1 17 C-7.93359375 17.09765625 -7.93359375 17.09765625 -10 17 C-11 16 -11 16 -11.09765625 13.93359375 C-11.06510417 11.62239583 -11.03255208 9.31119792 -11 7 C-8.03 7 -5.06 7 -2 7 C-1.34 4.69 -0.68 2.38 0 0 Z " fill="#EDEEEE" transform="translate(142,152)"/>
<path d="M0 0 C8.25 0 16.5 0 25 0 C25 2.64 25 5.28 25 8 C16.75 8 8.5 8 0 8 C0 5.36 0 2.72 0 0 Z " fill="#0BA1A6" transform="translate(57,108)"/>
<path d="M0 0 C2.97 0 5.94 0 9 0 C9 1.65 9 3.3 9 5 C11.97 5 14.94 5 18 5 C18.33 3.35 18.66 1.7 19 0 C21.97 0 24.94 0 28 0 C28 2.97 28 5.94 28 9 C25.03 9 22.06 9 19 9 C19 10.65 19 12.3 19 14 C18.67 14 18.34 14 18 14 C18 11.36 18 8.72 18 6 C15.36 6 12.72 6 10 6 C10 8.64 10 11.28 10 14 C8.68 13.67 7.36 13.34 6 13 C6.99 13 7.98 13 9 13 C9 11.68 9 10.36 9 9 C6.03 9 3.06 9 0 9 C0 6.03 0 3.06 0 0 Z " fill="#E8ECEC" transform="translate(141,94)"/>
<path d="M0 0 C3.46679688 0.04882812 3.46679688 0.04882812 6.93359375 0.09765625 C6.93359375 3.06765625 6.93359375 6.03765625 6.93359375 9.09765625 C3.63359375 9.09765625 0.33359375 9.09765625 -3.06640625 9.09765625 C-3.1640625 2.9453125 -3.1640625 2.9453125 -3.06640625 1.09765625 C-2.06640625 0.09765625 -2.06640625 0.09765625 0 0 Z M-12.06640625 9.09765625 C-9.09640625 9.09765625 -6.12640625 9.09765625 -3.06640625 9.09765625 C-2.1875 16.03125 -2.1875 16.03125 -2.06640625 18.09765625 C-3.06640625 19.09765625 -3.06640625 19.09765625 -5.1328125 19.1953125 C-8.59960938 19.14648438 -8.59960938 19.14648438 -12.06640625 19.09765625 C-12.06640625 15.79765625 -12.06640625 12.49765625 -12.06640625 9.09765625 Z " fill="#FDFDFD" transform="translate(12.06640625,196.90234375)"/>
<path d="M0 0 C3.46679688 0.04882812 3.46679688 0.04882812 6.93359375 0.09765625 C6.93359375 3.06765625 6.93359375 6.03765625 6.93359375 9.09765625 C3.65058395 10.73916115 0.50814342 9.61654249 -3.06640625 9.09765625 C-3.1640625 2.9453125 -3.1640625 2.9453125 -3.06640625 1.09765625 C-2.06640625 0.09765625 -2.06640625 0.09765625 0 0 Z M-12.06640625 9.09765625 C-9.09640625 9.09765625 -6.12640625 9.09765625 -3.06640625 9.09765625 C-3.06640625 12.39765625 -3.06640625 15.69765625 -3.06640625 19.09765625 C-6.03640625 19.09765625 -9.00640625 19.09765625 -12.06640625 19.09765625 C-12.06640625 15.79765625 -12.06640625 12.49765625 -12.06640625 9.09765625 Z " fill="#FDFDFD" transform="translate(12.06640625,177.90234375)"/>
<path d="M0 0 C2.97 0 5.94 0 9 0 C9 2.97 9 5.94 9 9 C6.36 9.33 3.72 9.66 1 10 C0.67 12.97 0.34 15.94 0 19 C-2.97 19 -5.94 19 -9 19 C-10.60725635 15.78548731 -10.05748185 12.56387464 -10 9 C-6.7 9 -3.4 9 0 9 C0 6.03 0 3.06 0 0 Z " fill="#EEEEEE" transform="translate(197,150)"/>
<path d="M0 0 C2.97 0 5.94 0 9 0 C9 2.97 9 5.94 9 9 C6.36 9.33 3.72 9.66 1 10 C0.67 12.97 0.34 15.94 0 19 C-2.97 19 -5.94 19 -9 19 C-10.60725635 15.78548731 -10.05748185 12.56387464 -10 9 C-6.7 9 -3.4 9 0 9 C0 6.03 0 3.06 0 0 Z " fill="#EEEEEE" transform="translate(122,150)"/>
<path d="M0 0 C3.46679688 0.04882812 3.46679688 0.04882812 6.93359375 0.09765625 C6.93359375 3.06765625 6.93359375 6.03765625 6.93359375 9.09765625 C3.63359375 9.09765625 0.33359375 9.09765625 -3.06640625 9.09765625 C-3.1640625 2.9453125 -3.1640625 2.9453125 -3.06640625 1.09765625 C-2.06640625 0.09765625 -2.06640625 0.09765625 0 0 Z M-12.06640625 9.09765625 C-9.09640625 9.09765625 -6.12640625 9.09765625 -3.06640625 9.09765625 C-2.1875 16.03125 -2.1875 16.03125 -2.06640625 18.09765625 C-3.06640625 19.09765625 -3.06640625 19.09765625 -5.1328125 19.1953125 C-8.59960938 19.14648438 -8.59960938 19.14648438 -12.06640625 19.09765625 C-12.06640625 15.79765625 -12.06640625 12.49765625 -12.06640625 9.09765625 Z " fill="#FDFDFD" transform="translate(12.06640625,121.90234375)"/>
<path d="M0 0 C3.46679688 0.04882812 3.46679688 0.04882812 6.93359375 0.09765625 C6.93359375 3.06765625 6.93359375 6.03765625 6.93359375 9.09765625 C3.65058395 10.73916115 0.50814342 9.61654249 -3.06640625 9.09765625 C-3.1640625 2.9453125 -3.1640625 2.9453125 -3.06640625 1.09765625 C-2.06640625 0.09765625 -2.06640625 0.09765625 0 0 Z M-12.06640625 9.09765625 C-9.09640625 9.09765625 -6.12640625 9.09765625 -3.06640625 9.09765625 C-3.06640625 12.39765625 -3.06640625 15.69765625 -3.06640625 19.09765625 C-6.03640625 19.09765625 -9.00640625 19.09765625 -12.06640625 19.09765625 C-12.06640625 15.79765625 -12.06640625 12.49765625 -12.06640625 9.09765625 Z " fill="#FDFDFD" transform="translate(12.06640625,102.90234375)"/>
<path d="M0 0 C2.05078125 0.03255208 4.1015625 0.06510417 6.15234375 0.09765625 C6.15234375 3.39765625 6.15234375 6.69765625 6.15234375 10.09765625 C3.18234375 10.09765625 0.21234375 10.09765625 -2.84765625 10.09765625 C-2.84765625 13.06765625 -2.84765625 16.03765625 -2.84765625 19.09765625 C-6.90197317 20.25603251 -9.06577744 19.93456882 -12.84765625 18.09765625 C-12.89007348 15.7647085 -12.88858562 13.43063058 -12.84765625 11.09765625 C-10.80067211 9.05067211 -6.54354384 9.39719932 -3.84765625 9.09765625 C-3.70328125 7.79828125 -3.55890625 6.49890625 -3.41015625 5.16015625 C-2.85356362 0.1508226 -2.85356362 0.1508226 0 0 Z " fill="#FBFCFC" transform="translate(96.84765625,55.90234375)"/>
<path d="M0 0 C3.46679688 0.04882812 3.46679688 0.04882812 6.93359375 0.09765625 C6.93359375 3.06765625 6.93359375 6.03765625 6.93359375 9.09765625 C3.63359375 9.09765625 0.33359375 9.09765625 -3.06640625 9.09765625 C-3.1640625 2.9453125 -3.1640625 2.9453125 -3.06640625 1.09765625 C-2.06640625 0.09765625 -2.06640625 0.09765625 0 0 Z M-12.06640625 9.09765625 C-9.09640625 9.09765625 -6.12640625 9.09765625 -3.06640625 9.09765625 C-2.1875 16.03125 -2.1875 16.03125 -2.06640625 18.09765625 C-3.06640625 19.09765625 -3.06640625 19.09765625 -5.1328125 19.1953125 C-8.59960938 19.14648438 -8.59960938 19.14648438 -12.06640625 19.09765625 C-12.06640625 15.79765625 -12.06640625 12.49765625 -12.06640625 9.09765625 Z " fill="#FDFDFD" transform="translate(12.06640625,46.90234375)"/>
<path d="M0 0 C3.46679688 0.04882812 3.46679688 0.04882812 6.93359375 0.09765625 C6.93359375 3.06765625 6.93359375 6.03765625 6.93359375 9.09765625 C3.65058395 10.73916115 0.50814342 9.61654249 -3.06640625 9.09765625 C-3.1640625 2.9453125 -3.1640625 2.9453125 -3.06640625 1.09765625 C-2.06640625 0.09765625 -2.06640625 0.09765625 0 0 Z M-12.06640625 9.09765625 C-9.09640625 9.09765625 -6.12640625 9.09765625 -3.06640625 9.09765625 C-3.06640625 12.39765625 -3.06640625 15.69765625 -3.06640625 19.09765625 C-6.03640625 19.09765625 -9.00640625 19.09765625 -12.06640625 19.09765625 C-12.06640625 15.79765625 -12.06640625 12.49765625 -12.06640625 9.09765625 Z " fill="#FDFDFD" transform="translate(12.06640625,27.90234375)"/>
<path d="M0 0 C2.97 0 5.94 0 9 0 C9 2.97 9 5.94 9 9 C6.36 9.33 3.72 9.66 1 10 C0.67 12.97 0.34 15.94 0 19 C-6.93359375 19.09765625 -6.93359375 19.09765625 -9 19 C-10 18 -10 18 -10.09765625 15.93359375 C-10.06510417 13.62239583 -10.03255208 11.31119792 -10 9 C-7.03 9 -4.06 9 -1 9 C-0.67 6.03 -0.34 3.06 0 0 Z " fill="#EEEEEE" transform="translate(216,0)"/>
<path d="M0 0 C2.97 0 5.94 0 9 0 C9 2.97 9 5.94 9 9 C6.36 9.33 3.72 9.66 1 10 C0.67 12.97 0.34 15.94 0 19 C-2.97 19 -5.94 19 -9 19 C-10.60725635 15.78548731 -10.05748185 12.56387464 -10 9 C-6.7 9 -3.4 9 0 9 C0 6.03 0 3.06 0 0 Z " fill="#EEEEEE" transform="translate(197,0)"/>
<path d="M0 0 C2.97 0 5.94 0 9 0 C9 2.97 9 5.94 9 9 C6.36 9.33 3.72 9.66 1 10 C0.67 12.97 0.34 15.94 0 19 C-6.93359375 19.09765625 -6.93359375 19.09765625 -9 19 C-10 18 -10 18 -10.09765625 15.93359375 C-10.06510417 13.62239583 -10.03255208 11.31119792 -10 9 C-7.03 9 -4.06 9 -1 9 C-0.67 6.03 -0.34 3.06 0 0 Z " fill="#EEEEEE" transform="translate(141,0)"/>
<path d="M0 0 C2.97 0 5.94 0 9 0 C9 2.97 9 5.94 9 9 C6.36 9.33 3.72 9.66 1 10 C0.67 12.97 0.34 15.94 0 19 C-2.97 19 -5.94 19 -9 19 C-10.60725635 15.78548731 -10.05748185 12.56387464 -10 9 C-6.7 9 -3.4 9 0 9 C0 6.03 0 3.06 0 0 Z " fill="#EEEEEE" transform="translate(122,0)"/>
<path d="M0 0 C2.97 0 5.94 0 9 0 C9 2.97 9 5.94 9 9 C6.36 9.33 3.72 9.66 1 10 C0.67 12.97 0.34 15.94 0 19 C-6.93359375 19.09765625 -6.93359375 19.09765625 -9 19 C-10 18 -10 18 -10.09765625 15.93359375 C-10.06510417 13.62239583 -10.03255208 11.31119792 -10 9 C-7.03 9 -4.06 9 -1 9 C-0.67 6.03 -0.34 3.06 0 0 Z " fill="#EEEEEE" transform="translate(66,0)"/>
<path d="M0 0 C2.97 0 5.94 0 9 0 C9 2.97 9 5.94 9 9 C6.36 9.33 3.72 9.66 1 10 C0.67 12.97 0.34 15.94 0 19 C-2.97 19 -5.94 19 -9 19 C-10.60725635 15.78548731 -10.05748185 12.56387464 -10 9 C-6.7 9 -3.4 9 0 9 C0 6.03 0 3.06 0 0 Z " fill="#EEEEEE" transform="translate(47,0)"/>
<path d="M0 0 C3.3 0 6.6 0 10 0 C10.09765625 6.93359375 10.09765625 6.93359375 10 9 C7.95301586 11.04698414 3.69588759 10.70045693 1 11 C0.67 13.64 0.34 16.28 0 19 C-0.99 19 -1.98 19 -3 19 C-3.33 19.66 -3.66 20.32 -4 21 C-5.01423834 19.61447798 -6.01087002 18.21605712 -7 16.8125 C-7.556875 16.03519531 -8.11375 15.25789063 -8.6875 14.45703125 C-10.151369 11.71663363 -10.26080213 10.05899163 -10 7 C-9.34 7.66 -8.68 8.32 -8 9 C-4.41656024 9.16677282 -4.41656024 9.16677282 -1 9 C-0.67 6.03 -0.34 3.06 0 0 Z " fill="#EDEEEE" transform="translate(131,103)"/>
<path d="M0 0 C2.97 0 5.94 0 9 0 C9 2.97 9 5.94 9 9 C6.36 9.33 3.72 9.66 1 10 C0.67 12.97 0.34 15.94 0 19 C-3.3 19 -6.6 19 -10 19 C-10.09765625 12.84765625 -10.09765625 12.84765625 -10 11 C-7.95301586 8.95301586 -3.69588759 9.29954307 -1 9 C-0.67 6.03 -0.34 3.06 0 0 Z " fill="#FEFEFE" transform="translate(141,178)"/>
<path d="M0 0 C2.97 0 5.94 0 9 0 C9 2.97 9 5.94 9 9 C6.36 9.33 3.72 9.66 1 10 C0.67 12.97 0.34 15.94 0 19 C-3.3 19 -6.6 19 -10 19 C-10.09765625 12.84765625 -10.09765625 12.84765625 -10 11 C-7.95301586 8.95301586 -3.69588759 9.29954307 -1 9 C-0.67 6.03 -0.34 3.06 0 0 Z " fill="#FEFEFE" transform="translate(66,178)"/>
<path d="M0 0 C2.97 0 5.94 0 9 0 C9 2.97 9 5.94 9 9 C6.36 9.33 3.72 9.66 1 10 C0.67 12.97 0.34 15.94 0 19 C-3.3 19 -6.6 19 -10 19 C-10.09765625 12.84765625 -10.09765625 12.84765625 -10 11 C-7.95301586 8.95301586 -3.69588759 9.29954307 -1 9 C-0.67 6.03 -0.34 3.06 0 0 Z " fill="#FEFEFE" transform="translate(141,28)"/>
<path d="M0 0 C2.97 0 5.94 0 9 0 C9 2.97 9 5.94 9 9 C6.36 9.33 3.72 9.66 1 10 C0.67 12.97 0.34 15.94 0 19 C-3.3 19 -6.6 19 -10 19 C-10.09765625 12.84765625 -10.09765625 12.84765625 -10 11 C-7.95301586 8.95301586 -3.69588759 9.29954307 -1 9 C-0.67 6.03 -0.34 3.06 0 0 Z " fill="#FEFEFE" transform="translate(66,28)"/>
<path d="M0 0 C3.46679688 0.04882812 3.46679688 0.04882812 6.93359375 0.09765625 C6.93359375 3.06765625 6.93359375 6.03765625 6.93359375 9.09765625 C2.47859375 9.59265625 2.47859375 9.59265625 -2.06640625 10.09765625 C-2.39640625 12.73765625 -2.72640625 15.37765625 -3.06640625 18.09765625 C-6.03640625 18.09765625 -9.00640625 18.09765625 -12.06640625 18.09765625 C-12.06640625 15.12765625 -12.06640625 12.15765625 -12.06640625 9.09765625 C-9.09640625 9.09765625 -6.12640625 9.09765625 -3.06640625 9.09765625 C-3.08703125 7.79828125 -3.10765625 6.49890625 -3.12890625 5.16015625 C-3.15040079 3.80599992 -3.13788824 2.45009542 -3.06640625 1.09765625 C-2.06640625 0.09765625 -2.06640625 0.09765625 0 0 Z " fill="#EEEEEE" transform="translate(12.06640625,93.90234375)"/>
<path d="M0 0 C2.64 0 5.28 0 8 0 C8 6.27 8 12.54 8 19 C5.03 19 2.06 19 -1 19 C-1.02683987 16.02077407 -1.04676037 13.04178705 -1.0625 10.0625 C-1.07087891 9.21236328 -1.07925781 8.36222656 -1.08789062 7.48632812 C-1.09111328 6.67744141 -1.09433594 5.86855469 -1.09765625 5.03515625 C-1.10289307 4.2862915 -1.10812988 3.53742676 -1.11352539 2.76586914 C-1 1 -1 1 0 0 Z " fill="#FEFEFE" transform="translate(67,159)"/>
<path d="M0 0 C2.97 0 5.94 0 9 0 C9.09765625 6.15234375 9.09765625 6.15234375 9 8 C7.03177114 9.96822886 3.65191291 9.66248381 1 10 C0.67 12.97 0.34 15.94 0 19 C-2.97 19 -5.94 19 -9 19 C-9.09765625 12.06640625 -9.09765625 12.06640625 -9 10 C-8 9 -8 9 -6.15234375 8.90234375 C-4.1015625 8.93489583 -2.05078125 8.96744792 0 9 C0 6.03 0 3.06 0 0 Z " fill="#EEEEEE" transform="translate(28,75)"/>
<path d="M0 0 C2.97 0 5.94 0 9 0 C9 2.97 9 5.94 9 9 C5.7 9 2.4 9 -1 9 C-1.125 2.25 -1.125 2.25 0 0 Z M-10 9 C-7.03 9 -4.06 9 -1 9 C-1 11.64 -1 14.28 -1 17 C-3.97 17 -6.94 17 -10 17 C-10 14.36 -10 11.72 -10 9 Z " fill="#FEFEFE" transform="translate(160,122)"/>
<path d="M0 0 C1.0725 0.2475 2.145 0.495 3.25 0.75 C3.25 3.72 3.25 6.69 3.25 9.75 C0.28 9.75 -2.69 9.75 -5.75 9.75 C-5.75 12.72 -5.75 15.69 -5.75 18.75 C-7.4 18.75 -9.05 18.75 -10.75 18.75 C-12.10259189 13.33963244 -11.68967178 10.40728331 -8.9140625 5.5546875 C-5.11137244 -0.34075816 -5.11137244 -0.34075816 0 0 Z " fill="#EDEFEF" transform="translate(52.75,93.25)"/>
<path d="M0 0 C2.97 0 5.94 0 9 0 C9 4.95 9 9.9 9 15 C6 16 6 16 -1 16 C-0.67 10.72 -0.34 5.44 0 0 Z " fill="#EFEFEF" transform="translate(141,56)"/>
<path d="M0 0 C3.3 0 6.6 0 10 0 C10 1.65 10 3.3 10 5 C7.36 5.33 4.72 5.66 2 6 C1.67 8.97 1.34 11.94 1 15 C-5.93359375 15.09765625 -5.93359375 15.09765625 -8 15 C-9 14 -9 14 -9.09765625 11.93359375 C-9.06510417 9.62239583 -9.03255208 7.31119792 -9 5 C-6.03 5 -3.06 5 0 5 C0 3.35 0 1.7 0 0 Z " fill="#EFEFEF" transform="translate(65,154)"/>
<path d="M0 0 C2.97 0 5.94 0 9 0 C9 4.62 9 9.24 9 14 C5.7 14 2.4 14 -1 14 C-0.67 9.38 -0.34 4.76 0 0 Z " fill="#EFEFEF" transform="translate(66,56)"/>
<path d="M0 0 C3.3 0 6.6 0 10 0 C10 2.97 10 5.94 10 9 C12.64 9 15.28 9 18 9 C18 10.98 18 12.96 18 15 C15.03 15 12.06 15 9 15 C9 12.03 9 9.06 9 6 C6.03 6 3.06 6 0 6 C0 4.02 0 2.04 0 0 Z " fill="#ECEEEE" transform="translate(141,116)"/>
<path d="M0 0 C0.99 0.33 1.98 0.66 3 1 C3 1.99 3 2.98 3 4 C5.97 4.33 8.94 4.66 12 5 C12 7.97 12 10.94 12 14 C8.7 14 5.4 14 2 14 C2 11.03 2 8.06 2 5 C0.02 5 -1.96 5 -4 5 C-2.25 1.125 -2.25 1.125 0 0 Z " fill="#FEFEFE" transform="translate(54,89)"/>
<path d="M0 0 C2.05078125 0.03255208 4.1015625 0.06510417 6.15234375 0.09765625 C6.15234375 3.39765625 6.15234375 6.69765625 6.15234375 10.09765625 C3.18234375 10.09765625 0.21234375 10.09765625 -2.84765625 10.09765625 C-2.9453125 3.1640625 -2.9453125 3.1640625 -2.84765625 1.09765625 C-1.84765625 0.09765625 -1.84765625 0.09765625 0 0 Z " fill="#FEFEFE" transform="translate(171.84765625,205.90234375)"/>
<path d="M0 0 C2.05078125 0.03255208 4.1015625 0.06510417 6.15234375 0.09765625 C6.15234375 3.39765625 6.15234375 6.69765625 6.15234375 10.09765625 C3.18234375 10.09765625 0.21234375 10.09765625 -2.84765625 10.09765625 C-2.9453125 3.1640625 -2.9453125 3.1640625 -2.84765625 1.09765625 C-1.84765625 0.09765625 -1.84765625 0.09765625 0 0 Z " fill="#FEFEFE" transform="translate(96.84765625,205.90234375)"/>
<path d="M0 0 C2.05078125 0.03255208 4.1015625 0.06510417 6.15234375 0.09765625 C6.15234375 3.39765625 6.15234375 6.69765625 6.15234375 10.09765625 C3.18234375 10.09765625 0.21234375 10.09765625 -2.84765625 10.09765625 C-2.9453125 3.1640625 -2.9453125 3.1640625 -2.84765625 1.09765625 C-1.84765625 0.09765625 -1.84765625 0.09765625 0 0 Z " fill="#FEFEFE" transform="translate(21.84765625,205.90234375)"/>
<path d="M0 0 C3.3 0 6.6 0 10 0 C10.09765625 6.15234375 10.09765625 6.15234375 10 8 C9 9 9 9 6.93359375 9.09765625 C3.46679688 9.04882812 3.46679688 9.04882812 0 9 C0 6.03 0 3.06 0 0 Z " fill="#EEEEEE" transform="translate(206,122)"/>
<path d="M0 0 C0.33 0 0.66 0 1 0 C1.08333357 4.8333472 0.95261487 9.23692563 0 14 C-2.97 14 -5.94 14 -9 14 C-9 11.03 -9 8.06 -9 5 C-6.03 5 -3.06 5 0 5 C0 3.35 0 1.7 0 0 Z " fill="#EBEDED" transform="translate(56,108)"/>
<path d="M0 0 C2.05078125 0.03255208 4.1015625 0.06510417 6.15234375 0.09765625 C6.15234375 3.39765625 6.15234375 6.69765625 6.15234375 10.09765625 C3.18234375 10.09765625 0.21234375 10.09765625 -2.84765625 10.09765625 C-2.9453125 3.1640625 -2.9453125 3.1640625 -2.84765625 1.09765625 C-1.84765625 0.09765625 -1.84765625 0.09765625 0 0 Z " fill="#FDFDFD" transform="translate(115.84765625,55.90234375)"/>
<path d="M0 0 C2.05078125 0.03255208 4.1015625 0.06510417 6.15234375 0.09765625 C6.15234375 3.39765625 6.15234375 6.69765625 6.15234375 10.09765625 C3.18234375 10.09765625 0.21234375 10.09765625 -2.84765625 10.09765625 C-2.9453125 3.1640625 -2.9453125 3.1640625 -2.84765625 1.09765625 C-1.84765625 0.09765625 -1.84765625 0.09765625 0 0 Z " fill="#FEFEFE" transform="translate(21.84765625,55.90234375)"/>
<path d="M0 0 C0.66 0.33 1.32 0.66 2 1 C1.67 1.33 1.34 1.66 1 2 C3.31 2.33 5.62 2.66 8 3 C8 5.97 8 8.94 8 12 C5.03 12 2.06 12 -1 12 C-1 9.03 -1 6.06 -1 3 C-1.66 2.67 -2.32 2.34 -3 2 C-2.01 1.34 -1.02 0.68 0 0 Z " fill="#ECEDEE" transform="translate(179,147)"/>
<path d="M0 0 C0 0.33 0 0.66 0 1 C-2.97 1 -5.94 1 -9 1 C-9 3.64 -9 6.28 -9 9 C-11.97 9 -14.94 9 -18 9 C-18.66 7.02 -19.32 5.04 -20 3 C-13.19877155 -0.13902852 -7.43378943 -0.33452052 0 0 Z " fill="#DCE8E8" transform="translate(75,85)"/>
<path d="M0 0 C1.69141656 0.08963062 3.37959602 0.24577676 5.0625 0.4375 C6.44115234 0.59025391 6.44115234 0.59025391 7.84765625 0.74609375 C8.55792969 0.82988281 9.26820313 0.91367188 10 1 C10 3.97 10 6.94 10 10 C7.03 10 4.06 10 1 10 C1 7.36 1 4.72 1 2 C0.34 1.67 -0.32 1.34 -1 1 C-0.67 0.67 -0.34 0.34 0 0 Z " fill="#EBEDED" transform="translate(187,140)"/>
<path d="M0 0 C3.63 0 7.26 0 11 0 C10.67 1.98 10.34 3.96 10 6 C3.51656189 8.63096039 -2.02330843 9.39325819 -9 9 C-9 8.67 -9 8.34 -9 8 C-6.03 8 -3.06 8 0 8 C0 5.36 0 2.72 0 0 Z " fill="#E0E9EA" transform="translate(159,131)"/>
<path d="M0 0 C2.97 0 5.94 0 9 0 C9 2.31 9 4.62 9 7 C9.66 7.33 10.32 7.66 11 8 C7.84493858 8.93619813 5.03413498 9.1057123 1.75 9.0625 C0.85796875 9.05347656 -0.0340625 9.04445312 -0.953125 9.03515625 C-1.62859375 9.02355469 -2.3040625 9.01195312 -3 9 C-2.01 8.67 -1.02 8.34 0 8 C0 5.36 0 2.72 0 0 Z " fill="#E2EAEA" transform="translate(66,131)"/>
<path d="M0 0 C-0.99 0.495 -0.99 0.495 -2 1 C-2 3.64 -2 6.28 -2 9 C-4.97 9 -7.94 9 -11 9 C-11 6.69 -11 4.38 -11 2 C-11.99 1.67 -12.98 1.34 -14 1 C-9.32798795 -0.20568053 -4.78503708 -0.09382426 0 0 Z " fill="#E3EAEA" transform="translate(161,85)"/>
<path d="M0 0 C2.97 0 5.94 0 9 0 C9 2.97 9 5.94 9 9 C4.545 9.495 4.545 9.495 0 10 C-1.231394 6.30581799 -0.64432764 3.7943739 0 0 Z " fill="#FEFEFE" transform="translate(188,75)"/>
<path d="M0 0 C-0.33 2.97 -0.66 5.94 -1 9 C-3.97 9 -6.94 9 -10 9 C-10 6.03 -10 3.06 -10 0 C-2.25 -1.125 -2.25 -1.125 0 0 Z " fill="#FEFEFE" transform="translate(48,150)"/>
<path d="M0 0 C0 3.3 0 6.6 0 10 C-2.97 10 -5.94 10 -9 10 C-9 7.03 -9 4.06 -9 1 C-2.25 0 -2.25 0 0 0 Z " fill="#FEFEFE" transform="translate(37,140)"/>
<path d="M0 0 C2.97 0 5.94 0 9 0 C9 2.97 9 5.94 9 9 C5.7 9.33 2.4 9.66 -1 10 C-0.67 6.7 -0.34 3.4 0 0 Z " fill="#FEFEFE" transform="translate(178,66)"/>
<path d="M0 0 C2.97 0 5.94 0 9 0 C9 3.3 9 6.6 9 10 C6.03 9.67 3.06 9.34 0 9 C0 6.03 0 3.06 0 0 Z " fill="#FEFEFE" transform="translate(47,103)"/>
<path d="M0 0 C2.97 0 5.94 0 9 0 C9 2.97 9 5.94 9 9 C6.03 9 3.06 9 0 9 C0 6.03 0 3.06 0 0 Z " fill="#FFFFFF" transform="translate(216,216)"/>
<path d="M0 0 C2.97 0 5.94 0 9 0 C9 2.97 9 5.94 9 9 C6.03 9 3.06 9 0 9 C0 6.03 0 3.06 0 0 Z " fill="#EDEDED" transform="translate(188,216)"/>
<path d="M0 0 C2.97 0 5.94 0 9 0 C9 2.97 9 5.94 9 9 C6.03 9 3.06 9 0 9 C0 6.03 0 3.06 0 0 Z " fill="#EDEDED" transform="translate(169,216)"/>
<path d="M0 0 C2.97 0 5.94 0 9 0 C9 2.97 9 5.94 9 9 C6.03 9 3.06 9 0 9 C0 6.03 0 3.06 0 0 Z " fill="#FFFFFF" transform="translate(141,216)"/>
<path d="M0 0 C2.97 0 5.94 0 9 0 C9 2.97 9 5.94 9 9 C6.03 9 3.06 9 0 9 C0 6.03 0 3.06 0 0 Z " fill="#EDEDED" transform="translate(113,216)"/>
<path d="M0 0 C2.97 0 5.94 0 9 0 C9 2.97 9 5.94 9 9 C6.03 9 3.06 9 0 9 C0 6.03 0 3.06 0 0 Z " fill="#EDEDED" transform="translate(94,216)"/>
<path d="M0 0 C2.97 0 5.94 0 9 0 C9 2.97 9 5.94 9 9 C6.03 9 3.06 9 0 9 C0 6.03 0 3.06 0 0 Z " fill="#FFFFFF" transform="translate(66,216)"/>
<path d="M0 0 C2.97 0 5.94 0 9 0 C9 2.97 9 5.94 9 9 C6.03 9 3.06 9 0 9 C0 6.03 0 3.06 0 0 Z " fill="#EDEDED" transform="translate(38,216)"/>
<path d="M0 0 C2.97 0 5.94 0 9 0 C9 2.97 9 5.94 9 9 C6.03 9 3.06 9 0 9 C0 6.03 0 3.06 0 0 Z " fill="#EDEDED" transform="translate(19,216)"/>
<path d="M0 0 C2.97 0 5.94 0 9 0 C9 2.97 9 5.94 9 9 C6.03 9 3.06 9 0 9 C0 6.03 0 3.06 0 0 Z " fill="#FFFFFF" transform="translate(197,197)"/>
<path d="M0 0 C2.97 0 5.94 0 9 0 C9 2.97 9 5.94 9 9 C6.03 9 3.06 9 0 9 C0 6.03 0 3.06 0 0 Z " fill="#EDEDED" transform="translate(150,197)"/>
<path d="M0 0 C2.97 0 5.94 0 9 0 C9 2.97 9 5.94 9 9 C6.03 9 3.06 9 0 9 C0 6.03 0 3.06 0 0 Z " fill="#FFFFFF" transform="translate(122,197)"/>
<path d="M0 0 C2.97 0 5.94 0 9 0 C9 2.97 9 5.94 9 9 C6.03 9 3.06 9 0 9 C0 6.03 0 3.06 0 0 Z " fill="#EDEDED" transform="translate(75,197)"/>
<path d="M0 0 C2.97 0 5.94 0 9 0 C9 2.97 9 5.94 9 9 C6.03 9 3.06 9 0 9 C0 6.03 0 3.06 0 0 Z " fill="#FFFFFF" transform="translate(47,197)"/>
<path d="M0 0 C2.97 0 5.94 0 9 0 C9 2.97 9 5.94 9 9 C6.03 9 3.06 9 0 9 C0 6.03 0 3.06 0 0 Z " fill="#FEFEFE" transform="translate(28,197)"/>
<path d="M0 0 C2.97 0 5.94 0 9 0 C9 2.97 9 5.94 9 9 C6.03 9 3.06 9 0 9 C0 6.03 0 3.06 0 0 Z " fill="#EDEDED" transform="translate(216,188)"/>
<path d="M0 0 C2.97 0 5.94 0 9 0 C9 2.97 9 5.94 9 9 C6.03 9 3.06 9 0 9 C0 6.03 0 3.06 0 0 Z " fill="#EEEEEE" transform="translate(178,188)"/>
<path d="M0 0 C2.97 0 5.94 0 9 0 C9 2.97 9 5.94 9 9 C6.03 9 3.06 9 0 9 C0 6.03 0 3.06 0 0 Z " fill="#FEFEFE" transform="translate(150,188)"/>
<path d="M0 0 C2.97 0 5.94 0 9 0 C9 2.97 9 5.94 9 9 C6.03 9 3.06 9 0 9 C0 6.03 0 3.06 0 0 Z " fill="#EDEDED" transform="translate(141,188)"/>
<path d="M0 0 C2.97 0 5.94 0 9 0 C9 2.97 9 5.94 9 9 C6.03 9 3.06 9 0 9 C0 6.03 0 3.06 0 0 Z " fill="#FEFEFE" transform="translate(113,188)"/>
<path d="M0 0 C2.97 0 5.94 0 9 0 C9 2.97 9 5.94 9 9 C6.03 9 3.06 9 0 9 C0 6.03 0 3.06 0 0 Z " fill="#EEEEEE" transform="translate(103,188)"/>
<path d="M0 0 C2.97 0 5.94 0 9 0 C9 2.97 9 5.94 9 9 C6.03 9 3.06 9 0 9 C0 6.03 0 3.06 0 0 Z " fill="#FEFEFE" transform="translate(75,188)"/>
<path d="M0 0 C2.97 0 5.94 0 9 0 C9 2.97 9 5.94 9 9 C6.03 9 3.06 9 0 9 C0 6.03 0 3.06 0 0 Z " fill="#EDEDED" transform="translate(66,188)"/>
<path d="M0 0 C2.97 0 5.94 0 9 0 C9 2.97 9 5.94 9 9 C6.03 9 3.06 9 0 9 C0 6.03 0 3.06 0 0 Z " fill="#FEFEFE" transform="translate(38,188)"/>
<path d="M0 0 C2.97 0 5.94 0 9 0 C9 2.97 9 5.94 9 9 C6.03 9 3.06 9 0 9 C0 6.03 0 3.06 0 0 Z " fill="#EEEEEE" transform="translate(28,188)"/>
<path d="M0 0 C2.97 0 5.94 0 9 0 C9 2.97 9 5.94 9 9 C6.03 9 3.06 9 0 9 C0 6.03 0 3.06 0 0 Z " fill="#FEFEFE" transform="translate(19,188)"/>
<path d="M0 0 C2.97 0 5.94 0 9 0 C9 2.97 9 5.94 9 9 C6.03 9 3.06 9 0 9 C0 6.03 0 3.06 0 0 Z " fill="#FEFEFE" transform="translate(197,178)"/>
<path d="M0 0 C2.97 0 5.94 0 9 0 C9 2.97 9 5.94 9 9 C6.03 9 3.06 9 0 9 C0 6.03 0 3.06 0 0 Z " fill="#EEEEEE" transform="translate(188,178)"/>
<path d="M0 0 C2.97 0 5.94 0 9 0 C9 2.97 9 5.94 9 9 C6.03 9 3.06 9 0 9 C0 6.03 0 3.06 0 0 Z " fill="#FEFEFE" transform="translate(122,178)"/>
<path d="M0 0 C2.97 0 5.94 0 9 0 C9 2.97 9 5.94 9 9 C6.03 9 3.06 9 0 9 C0 6.03 0 3.06 0 0 Z " fill="#EEEEEE" transform="translate(113,178)"/>
<path d="M0 0 C2.97 0 5.94 0 9 0 C9 2.97 9 5.94 9 9 C6.03 9 3.06 9 0 9 C0 6.03 0 3.06 0 0 Z " fill="#FEFEFE" transform="translate(47,178)"/>
<path d="M0 0 C2.97 0 5.94 0 9 0 C9 2.97 9 5.94 9 9 C6.03 9 3.06 9 0 9 C0 6.03 0 3.06 0 0 Z " fill="#EEEEEE" transform="translate(38,178)"/>
<path d="M0 0 C2.97 0 5.94 0 9 0 C9 2.97 9 5.94 9 9 C6.03 9 3.06 9 0 9 C0 6.03 0 3.06 0 0 Z " fill="#FEFEFE" transform="translate(28,178)"/>
<path d="M0 0 C2.97 0 5.94 0 9 0 C9 2.97 9 5.94 9 9 C6.03 9 3.06 9 0 9 C0 6.03 0 3.06 0 0 Z " fill="#EDEDED" transform="translate(216,169)"/>
<path d="M0 0 C2.97 0 5.94 0 9 0 C9 2.97 9 5.94 9 9 C6.03 9 3.06 9 0 9 C0 6.03 0 3.06 0 0 Z " fill="#EDEDED" transform="translate(197,169)"/>
<path d="M0 0 C2.97 0 5.94 0 9 0 C9 2.97 9 5.94 9 9 C6.03 9 3.06 9 0 9 C0 6.03 0 3.06 0 0 Z " fill="#EDEDED" transform="translate(178,169)"/>
<path d="M0 0 C2.97 0 5.94 0 9 0 C9 2.97 9 5.94 9 9 C6.03 9 3.06 9 0 9 C0 6.03 0 3.06 0 0 Z " fill="#FFFFFF" transform="translate(169,169)"/>
<path d="M0 0 C2.97 0 5.94 0 9 0 C9 2.97 9 5.94 9 9 C6.03 9 3.06 9 0 9 C0 6.03 0 3.06 0 0 Z " fill="#EDEDED" transform="translate(141,169)"/>
<path d="M0 0 C2.97 0 5.94 0 9 0 C9 2.97 9 5.94 9 9 C6.03 9 3.06 9 0 9 C0 6.03 0 3.06 0 0 Z " fill="#EDEDED" transform="translate(122,169)"/>
<path d="M0 0 C2.97 0 5.94 0 9 0 C9 2.97 9 5.94 9 9 C6.03 9 3.06 9 0 9 C0 6.03 0 3.06 0 0 Z " fill="#EDEDED" transform="translate(103,169)"/>
<path d="M0 0 C2.97 0 5.94 0 9 0 C9 2.97 9 5.94 9 9 C6.03 9 3.06 9 0 9 C0 6.03 0 3.06 0 0 Z " fill="#FFFFFF" transform="translate(94,169)"/>
<path d="M0 0 C2.97 0 5.94 0 9 0 C9 2.97 9 5.94 9 9 C6.03 9 3.06 9 0 9 C0 6.03 0 3.06 0 0 Z " fill="#EDEDED" transform="translate(66,169)"/>
<path d="M0 0 C2.97 0 5.94 0 9 0 C9 2.97 9 5.94 9 9 C6.03 9 3.06 9 0 9 C0 6.03 0 3.06 0 0 Z " fill="#EDEDED" transform="translate(47,169)"/>
<path d="M0 0 C2.97 0 5.94 0 9 0 C9 2.97 9 5.94 9 9 C6.03 9 3.06 9 0 9 C0 6.03 0 3.06 0 0 Z " fill="#FEFEFE" transform="translate(38,169)"/>
<path d="M0 0 C2.97 0 5.94 0 9 0 C9 2.97 9 5.94 9 9 C6.03 9 3.06 9 0 9 C0 6.03 0 3.06 0 0 Z " fill="#EDEDED" transform="translate(28,169)"/>
<path d="M0 0 C2.97 0 5.94 0 9 0 C9 2.97 9 5.94 9 9 C6.03 9 3.06 9 0 9 C0 6.03 0 3.06 0 0 Z " fill="#FFFFFF" transform="translate(19,169)"/>
<path d="M0 0 C2.97 0 5.94 0 9 0 C9 2.97 9 5.94 9 9 C6.03 9 3.06 9 0 9 C0 6.03 0 3.06 0 0 Z " fill="#EEEEEE" transform="translate(38,160)"/>
<path d="M0 0 C2.97 0 5.94 0 9 0 C9 2.97 9 5.94 9 9 C6.03 9 3.06 9 0 9 C0 6.03 0 3.06 0 0 Z " fill="#EEEEEE" transform="translate(0,160)"/>
<path d="M0 0 C2.97 0 5.94 0 9 0 C9 2.97 9 5.94 9 9 C6.03 9 3.06 9 0 9 C0 6.03 0 3.06 0 0 Z " fill="#FFFFFF" transform="translate(0,150)"/>
<path d="M0 0 C2.97 0 5.94 0 9 0 C9 2.97 9 5.94 9 9 C6.03 9 3.06 9 0 9 C0 6.03 0 3.06 0 0 Z " fill="#FFFFFF" transform="translate(216,141)"/>
<path d="M0 0 C2.97 0 5.94 0 9 0 C9 2.97 9 5.94 9 9 C6.03 9 3.06 9 0 9 C0 6.03 0 3.06 0 0 Z " fill="#EDEDED" transform="translate(113,141)"/>
<path d="M0 0 C2.97 0 5.94 0 9 0 C9 2.97 9 5.94 9 9 C6.03 9 3.06 9 0 9 C0 6.03 0 3.06 0 0 Z " fill="#FEFEFE" transform="translate(103,141)"/>
<path d="M0 0 C2.97 0 5.94 0 9 0 C9 2.97 9 5.94 9 9 C6.03 9 3.06 9 0 9 C0 6.03 0 3.06 0 0 Z " fill="#EDEDED" transform="translate(19,141)"/>
<path d="M0 0 C2.97 0 5.94 0 9 0 C9 2.97 9 5.94 9 9 C6.03 9 3.06 9 0 9 C0 6.03 0 3.06 0 0 Z " fill="#EEEEEE" transform="translate(197,131)"/>
<path d="M0 0 C2.97 0 5.94 0 9 0 C9 2.97 9 5.94 9 9 C6.03 9 3.06 9 0 9 C0 6.03 0 3.06 0 0 Z " fill="#FFFFFF" transform="translate(141,122)"/>
<path d="M0 0 C2.97 0 5.94 0 9 0 C9 2.97 9 5.94 9 9 C6.03 9 3.06 9 0 9 C0 6.03 0 3.06 0 0 Z " fill="#EDEDED" transform="translate(75,122)"/>
<path d="M0 0 C2.97 0 5.94 0 9 0 C9 2.97 9 5.94 9 9 C6.03 9 3.06 9 0 9 C0 6.03 0 3.06 0 0 Z " fill="#FFFFFF" transform="translate(66,122)"/>
<path d="M0 0 C2.97 0 5.94 0 9 0 C9 2.97 9 5.94 9 9 C6.03 9 3.06 9 0 9 C0 6.03 0 3.06 0 0 Z " fill="#EEEEEE" transform="translate(56,122)"/>
<path d="M0 0 C2.97 0 5.94 0 9 0 C9 2.97 9 5.94 9 9 C6.03 9 3.06 9 0 9 C0 6.03 0 3.06 0 0 Z " fill="#EDEDED" transform="translate(216,113)"/>
<path d="M0 0 C2.97 0 5.94 0 9 0 C9 2.97 9 5.94 9 9 C6.03 9 3.06 9 0 9 C0 6.03 0 3.06 0 0 Z " fill="#EDEDED" transform="translate(169,103)"/>
<path d="M0 0 C2.97 0 5.94 0 9 0 C9 2.97 9 5.94 9 9 C6.03 9 3.06 9 0 9 C0 6.03 0 3.06 0 0 Z " fill="#EDEDED" transform="translate(216,94)"/>
<path d="M0 0 C2.97 0 5.94 0 9 0 C9 2.97 9 5.94 9 9 C6.03 9 3.06 9 0 9 C0 6.03 0 3.06 0 0 Z " fill="#FFFFFF" transform="translate(75,94)"/>
<path d="M0 0 C2.97 0 5.94 0 9 0 C9.1953125 6.0546875 9.1953125 6.0546875 9 8 C8.34 8.66 7.68 9.32 7 10 C3.375 9.625 3.375 9.625 0 9 C0 6.03 0 3.06 0 0 Z " fill="#FEFEFE" transform="translate(19,94)"/>
<path d="M0 0 C2.97 0 5.94 0 9 0 C9 2.97 9 5.94 9 9 C6.03 9 3.06 9 0 9 C0 6.03 0 3.06 0 0 Z " fill="#EEEEEE" transform="translate(0,85)"/>
<path d="M0 0 C2.97 0 5.94 0 9 0 C9 2.97 9 5.94 9 9 C6.03 9 3.06 9 0 9 C0 6.03 0 3.06 0 0 Z " fill="#FEFEFE" transform="translate(113,75)"/>
<path d="M0 0 C2.97 0 5.94 0 9 0 C9 2.97 9 5.94 9 9 C6.03 9 3.06 9 0 9 C0 6.03 0 3.06 0 0 Z " fill="#EDEDED" transform="translate(103,75)"/>
<path d="M0 0 C2.97 0 5.94 0 9 0 C9 2.97 9 5.94 9 9 C6.03 9 3.06 9 0 9 C0 6.03 0 3.06 0 0 Z " fill="#FFFFFF" transform="translate(0,75)"/>
<path d="M0 0 C2.97 0 5.94 0 9 0 C9 2.97 9 5.94 9 9 C6.03 9 3.06 9 0 9 C0 6.03 0 3.06 0 0 Z " fill="#FFFFFF" transform="translate(216,66)"/>
<path d="M0 0 C2.97 0 5.94 0 9 0 C9 2.97 9 5.94 9 9 C6.03 9 3.06 9 0 9 C0 6.03 0 3.06 0 0 Z " fill="#EDEDED" transform="translate(188,66)"/>
<path d="M0 0 C2.97 0 5.94 0 9 0 C9 2.97 9 5.94 9 9 C6.03 9 3.06 9 0 9 C0 6.03 0 3.06 0 0 Z " fill="#EDEDED" transform="translate(113,66)"/>
<path d="M0 0 C2.97 0 5.94 0 9 0 C9 2.97 9 5.94 9 9 C6.03 9 3.06 9 0 9 C0 6.03 0 3.06 0 0 Z " fill="#FEFEFE" transform="translate(103,66)"/>
<path d="M0 0 C2.97 0 5.94 0 9 0 C9 2.97 9 5.94 9 9 C6.03 9 3.06 9 0 9 C0 6.03 0 3.06 0 0 Z " fill="#EDEDED" transform="translate(94,66)"/>
<path d="M0 0 C2.97 0 5.94 0 9 0 C9 2.97 9 5.94 9 9 C6.03 9 3.06 9 0 9 C0 6.03 0 3.06 0 0 Z " fill="#EDEDED" transform="translate(38,66)"/>
<path d="M0 0 C2.97 0 5.94 0 9 0 C9 2.97 9 5.94 9 9 C6.03 9 3.06 9 0 9 C0 6.03 0 3.06 0 0 Z " fill="#FEFEFE" transform="translate(28,66)"/>
<path d="M0 0 C2.97 0 5.94 0 9 0 C9 2.97 9 5.94 9 9 C6.03 9 3.06 9 0 9 C0 6.03 0 3.06 0 0 Z " fill="#EDEDED" transform="translate(19,66)"/>
<path d="M0 0 C2.97 0 5.94 0 9 0 C9 2.97 9 5.94 9 9 C6.03 9 3.06 9 0 9 C0 6.03 0 3.06 0 0 Z " fill="#FFFFFF" transform="translate(197,47)"/>
<path d="M0 0 C2.97 0 5.94 0 9 0 C9 2.97 9 5.94 9 9 C6.03 9 3.06 9 0 9 C0 6.03 0 3.06 0 0 Z " fill="#EDEDED" transform="translate(150,47)"/>
<path d="M0 0 C2.97 0 5.94 0 9 0 C9 2.97 9 5.94 9 9 C6.03 9 3.06 9 0 9 C0 6.03 0 3.06 0 0 Z " fill="#FFFFFF" transform="translate(122,47)"/>
<path d="M0 0 C2.97 0 5.94 0 9 0 C9 2.97 9 5.94 9 9 C6.03 9 3.06 9 0 9 C0 6.03 0 3.06 0 0 Z " fill="#EDEDED" transform="translate(75,47)"/>
<path d="M0 0 C2.97 0 5.94 0 9 0 C9 2.97 9 5.94 9 9 C6.03 9 3.06 9 0 9 C0 6.03 0 3.06 0 0 Z " fill="#FFFFFF" transform="translate(47,47)"/>
<path d="M0 0 C2.97 0 5.94 0 9 0 C9 2.97 9 5.94 9 9 C6.03 9 3.06 9 0 9 C0 6.03 0 3.06 0 0 Z " fill="#EDEDED" transform="translate(216,38)"/>
<path d="M0 0 C2.97 0 5.94 0 9 0 C9 2.97 9 5.94 9 9 C6.03 9 3.06 9 0 9 C0 6.03 0 3.06 0 0 Z " fill="#FEFEFE" transform="translate(188,38)"/>
<path d="M0 0 C2.97 0 5.94 0 9 0 C9 2.97 9 5.94 9 9 C6.03 9 3.06 9 0 9 C0 6.03 0 3.06 0 0 Z " fill="#EEEEEE" transform="translate(178,38)"/>
<path d="M0 0 C2.97 0 5.94 0 9 0 C9 2.97 9 5.94 9 9 C6.03 9 3.06 9 0 9 C0 6.03 0 3.06 0 0 Z " fill="#FEFEFE" transform="translate(150,38)"/>
<path d="M0 0 C2.97 0 5.94 0 9 0 C9 2.97 9 5.94 9 9 C6.03 9 3.06 9 0 9 C0 6.03 0 3.06 0 0 Z " fill="#EDEDED" transform="translate(141,38)"/>
<path d="M0 0 C2.97 0 5.94 0 9 0 C9 2.97 9 5.94 9 9 C6.03 9 3.06 9 0 9 C0 6.03 0 3.06 0 0 Z " fill="#FEFEFE" transform="translate(113,38)"/>
<path d="M0 0 C2.97 0 5.94 0 9 0 C9 2.97 9 5.94 9 9 C6.03 9 3.06 9 0 9 C0 6.03 0 3.06 0 0 Z " fill="#EEEEEE" transform="translate(103,38)"/>
<path d="M0 0 C2.97 0 5.94 0 9 0 C9 2.97 9 5.94 9 9 C6.03 9 3.06 9 0 9 C0 6.03 0 3.06 0 0 Z " fill="#FEFEFE" transform="translate(75,38)"/>
<path d="M0 0 C2.97 0 5.94 0 9 0 C9 2.97 9 5.94 9 9 C6.03 9 3.06 9 0 9 C0 6.03 0 3.06 0 0 Z " fill="#EDEDED" transform="translate(66,38)"/>
<path d="M0 0 C2.97 0 5.94 0 9 0 C9 2.97 9 5.94 9 9 C6.03 9 3.06 9 0 9 C0 6.03 0 3.06 0 0 Z " fill="#FEFEFE" transform="translate(38,38)"/>
<path d="M0 0 C2.97 0 5.94 0 9 0 C9 2.97 9 5.94 9 9 C6.03 9 3.06 9 0 9 C0 6.03 0 3.06 0 0 Z " fill="#EEEEEE" transform="translate(28,38)"/>
<path d="M0 0 C2.97 0 5.94 0 9 0 C9 2.97 9 5.94 9 9 C6.03 9 3.06 9 0 9 C0 6.03 0 3.06 0 0 Z " fill="#FEFEFE" transform="translate(197,28)"/>
<path d="M0 0 C2.97 0 5.94 0 9 0 C9 2.97 9 5.94 9 9 C6.03 9 3.06 9 0 9 C0 6.03 0 3.06 0 0 Z " fill="#EEEEEE" transform="translate(188,28)"/>
<path d="M0 0 C2.97 0 5.94 0 9 0 C9 2.97 9 5.94 9 9 C6.03 9 3.06 9 0 9 C0 6.03 0 3.06 0 0 Z " fill="#FEFEFE" transform="translate(122,28)"/>
<path d="M0 0 C2.97 0 5.94 0 9 0 C9 2.97 9 5.94 9 9 C6.03 9 3.06 9 0 9 C0 6.03 0 3.06 0 0 Z " fill="#EEEEEE" transform="translate(113,28)"/>
<path d="M0 0 C2.97 0 5.94 0 9 0 C9 2.97 9 5.94 9 9 C6.03 9 3.06 9 0 9 C0 6.03 0 3.06 0 0 Z " fill="#FEFEFE" transform="translate(47,28)"/>
<path d="M0 0 C2.97 0 5.94 0 9 0 C9 2.97 9 5.94 9 9 C6.03 9 3.06 9 0 9 C0 6.03 0 3.06 0 0 Z " fill="#EEEEEE" transform="translate(38,28)"/>
<path d="M0 0 C2.97 0 5.94 0 9 0 C9 2.97 9 5.94 9 9 C6.03 9 3.06 9 0 9 C0 6.03 0 3.06 0 0 Z " fill="#EDEDED" transform="translate(216,19)"/>
<path d="M0 0 C2.97 0 5.94 0 9 0 C9 2.97 9 5.94 9 9 C6.03 9 3.06 9 0 9 C0 6.03 0 3.06 0 0 Z " fill="#EDEDED" transform="translate(197,19)"/>
<path d="M0 0 C2.97 0 5.94 0 9 0 C9 2.97 9 5.94 9 9 C6.03 9 3.06 9 0 9 C0 6.03 0 3.06 0 0 Z " fill="#EDEDED" transform="translate(178,19)"/>
<path d="M0 0 C2.97 0 5.94 0 9 0 C9 2.97 9 5.94 9 9 C6.03 9 3.06 9 0 9 C0 6.03 0 3.06 0 0 Z " fill="#FFFFFF" transform="translate(169,19)"/>
<path d="M0 0 C2.97 0 5.94 0 9 0 C9 2.97 9 5.94 9 9 C6.03 9 3.06 9 0 9 C0 6.03 0 3.06 0 0 Z " fill="#EDEDED" transform="translate(141,19)"/>
<path d="M0 0 C2.97 0 5.94 0 9 0 C9 2.97 9 5.94 9 9 C6.03 9 3.06 9 0 9 C0 6.03 0 3.06 0 0 Z " fill="#EDEDED" transform="translate(122,19)"/>
<path d="M0 0 C2.97 0 5.94 0 9 0 C9 2.97 9 5.94 9 9 C6.03 9 3.06 9 0 9 C0 6.03 0 3.06 0 0 Z " fill="#EDEDED" transform="translate(103,19)"/>
<path d="M0 0 C2.97 0 5.94 0 9 0 C9 2.97 9 5.94 9 9 C6.03 9 3.06 9 0 9 C0 6.03 0 3.06 0 0 Z " fill="#FFFFFF" transform="translate(94,19)"/>
<path d="M0 0 C2.97 0 5.94 0 9 0 C9 2.97 9 5.94 9 9 C6.03 9 3.06 9 0 9 C0 6.03 0 3.06 0 0 Z " fill="#EDEDED" transform="translate(66,19)"/>
<path d="M0 0 C2.97 0 5.94 0 9 0 C9 2.97 9 5.94 9 9 C6.03 9 3.06 9 0 9 C0 6.03 0 3.06 0 0 Z " fill="#EDEDED" transform="translate(47,19)"/>
<path d="M0 0 C2.97 0 5.94 0 9 0 C9 2.97 9 5.94 9 9 C6.03 9 3.06 9 0 9 C0 6.03 0 3.06 0 0 Z " fill="#EDEDED" transform="translate(28,19)"/>
<path d="M0 0 C2.97 0 5.94 0 9 0 C9 2.97 9 5.94 9 9 C6.03 9 3.06 9 0 9 C0 6.03 0 3.06 0 0 Z " fill="#FFFFFF" transform="translate(19,19)"/>
<path d="M0 0 C2.97 0 5.94 0 9 0 C9 2.97 9 5.94 9 9 C6.03 9 3.06 9 0 9 C0 6.03 0 3.06 0 0 Z " fill="#EEEEEE" transform="translate(150,10)"/>
<path d="M0 0 C2.97 0 5.94 0 9 0 C9 2.97 9 5.94 9 9 C6.03 9 3.06 9 0 9 C0 6.03 0 3.06 0 0 Z " fill="#EEEEEE" transform="translate(75,10)"/>
<path d="M0 0 C2.97 0 5.94 0 9 0 C9 2.97 9 5.94 9 9 C6.03 9 3.06 9 0 9 C0 6.03 0 3.06 0 0 Z " fill="#EEEEEE" transform="translate(0,10)"/>
<path d="M0 0 C2.97 0 5.94 0 9 0 C9 2.97 9 5.94 9 9 C6.03 9 3.06 9 0 9 C0 6.03 0 3.06 0 0 Z " fill="#FFFFFF" transform="translate(150,0)"/>
<path d="M0 0 C2.97 0 5.94 0 9 0 C9 2.97 9 5.94 9 9 C6.03 9 3.06 9 0 9 C0 6.03 0 3.06 0 0 Z " fill="#FFFFFF" transform="translate(75,0)"/>
<path d="M0 0 C2.97 0 5.94 0 9 0 C9 2.97 9 5.94 9 9 C6.03 9 3.06 9 0 9 C0 6.03 0 3.06 0 0 Z " fill="#FFFFFF" transform="translate(0,0)"/>
<path d="M0 0 C2.05078125 0.03255208 4.1015625 0.06510417 6.15234375 0.09765625 C6.15234375 3.06765625 6.15234375 6.03765625 6.15234375 9.09765625 C3.18234375 9.09765625 0.21234375 9.09765625 -2.84765625 9.09765625 C-2.9453125 2.9453125 -2.9453125 2.9453125 -2.84765625 1.09765625 C-1.84765625 0.09765625 -1.84765625 0.09765625 0 0 Z " fill="#FEFEFE" transform="translate(199.84765625,121.90234375)"/>
<path d="M0 0 C2.64 0 5.28 0 8 0 C8.02689216 1.47906892 8.04634621 2.95827483 8.0625 4.4375 C8.07410156 5.26121094 8.08570313 6.08492188 8.09765625 6.93359375 C8 9 8 9 7 10 C5.33382885 10.04063832 3.66611905 10.042721 2 10 C1.67 11.32 1.34 12.64 1 14 C0.67 9.38 0.34 4.76 0 0 Z " fill="#FDFDFD" transform="translate(198,103)"/>
<path d="M0 0 C1.4540625 0.0309375 1.4540625 0.0309375 2.9375 0.0625 C4.11321451 3.73660785 4.01116746 7.23179183 3.9375 11.0625 C1.2975 10.7325 -1.3425 10.4025 -4.0625 10.0625 C-4.08939216 8.58343108 -4.10884621 7.10422517 -4.125 5.625 C-4.13660156 4.80128906 -4.14820312 3.97757812 -4.16015625 3.12890625 C-4.00103255 -0.23815127 -3.43619093 0.07012635 0 0 Z " fill="#FBFCFC" transform="translate(23.0625,111.9375)"/>
<path d="M0 0 C2.97 0 5.94 0 9 0 C9 2.97 9 5.94 9 9 C7 10 7 10 5.0546875 9.44140625 C4.33539063 9.15136719 3.61609375 8.86132812 2.875 8.5625 C2.15054688 8.27503906 1.42609375 7.98757812 0.6796875 7.69140625 C0.12539062 7.46324219 -0.42890625 7.23507813 -1 7 C-0.67 4.69 -0.34 2.38 0 0 Z " fill="#E9ECEC" transform="translate(169,66)"/>
<path d="M0 0 C2.33294775 -0.04241723 4.66702567 -0.04092937 7 0 C8 1 8 1 8.09765625 3.72265625 C8.08605469 4.82480469 8.07445312 5.92695312 8.0625 7.0625 C8.05347656 8.16722656 8.04445313 9.27195312 8.03515625 10.41015625 C8.02355469 11.26480469 8.01195312 12.11945313 8 13 C7.67 11.68 7.34 10.36 7 9 C4.69 9 2.38 9 0 9 C0 6.03 0 3.06 0 0 Z " fill="#E2E9EA" transform="translate(19,103)"/>
<path d="M0 0 C0 2.31 0 4.62 0 7 C-4.95 7 -9.9 7 -15 7 C-9.95959197 1.95959197 -7.23541845 -0.50479664 0 0 Z " fill="#FBFCFC" transform="translate(150,87)"/>
<path d="M0 0 C2.64 0.99 5.28 1.98 8 3 C8 5.31 8 7.62 8 10 C5.03 10 2.06 10 -1 10 C-1.09765625 3.06640625 -1.09765625 3.06640625 -1 1 C-0.67 0.67 -0.34 0.34 0 0 Z " fill="#EBEDED" transform="translate(48,149)"/>
<path d="M0 0 C2.97 0 5.94 0 9 0 C9 2.64 9 5.28 9 8 C6.03 8 3.06 8 0 8 C0 5.36 0 2.72 0 0 Z " fill="#FEFEFE" transform="translate(66,86)"/>
<path d="M0 0 C0.33 0 0.66 0 1 0 C1 6.27 1 12.54 1 19 C6.61 19 12.22 19 18 19 C18 19.33 18 19.66 18 20 C12.39 20 6.78 20 1 20 C1 25.61 1 31.22 1 37 C0.67 37 0.34 37 0 37 C0 31.39 0 25.78 0 20 C-5.61 20 -11.22 20 -17 20 C-17 19.67 -17 19.34 -17 19 C-11.39 19 -5.78 19 0 19 C0 12.73 0 6.46 0 0 Z " fill="#F7F7F7" transform="translate(112,168)"/>
<path d="M0 0 C0.33 0 0.66 0 1 0 C1 6.27 1 12.54 1 19 C6.61 19 12.22 19 18 19 C18 19.33 18 19.66 18 20 C12.39 20 6.78 20 1 20 C1 25.61 1 31.22 1 37 C0.67 37 0.34 37 0 37 C0 31.39 0 25.78 0 20 C-5.61 20 -11.22 20 -17 20 C-17 19.67 -17 19.34 -17 19 C-11.39 19 -5.78 19 0 19 C0 12.73 0 6.46 0 0 Z " fill="#F7F7F7" transform="translate(187,18)"/>
<path d="M0 0 C0.33 0 0.66 0 1 0 C1 6.27 1 12.54 1 19 C6.61 19 12.22 19 18 19 C18 19.33 18 19.66 18 20 C12.39 20 6.78 20 1 20 C1 25.61 1 31.22 1 37 C0.67 37 0.34 37 0 37 C0 31.39 0 25.78 0 20 C-5.61 20 -11.22 20 -17 20 C-17 19.67 -17 19.34 -17 19 C-11.39 19 -5.78 19 0 19 C0 12.73 0 6.46 0 0 Z " fill="#F7F7F7" transform="translate(112,18)"/>
<path d="M0 0 C0.33 0 0.66 0 1 0 C1 6.27 1 12.54 1 19 C6.61 19 12.22 19 18 19 C18 19.33 18 19.66 18 20 C12.39 20 6.78 20 1 20 C1 25.61 1 31.22 1 37 C0.67 37 0.34 37 0 37 C0 31.39 0 25.78 0 20 C-5.61 20 -11.22 20 -17 20 C-17 19.67 -17 19.34 -17 19 C-11.39 19 -5.78 19 0 19 C0 12.73 0 6.46 0 0 Z " fill="#F7F7F7" transform="translate(37,18)"/>
<path d="M0 0 C8.25 0 16.5 0 25 0 C25 0.33 25 0.66 25 1 C22.69 1 20.38 1 18 1 C18 2.65 18 4.3 18 6 C15.03 6 12.06 6 9 6 C9 4.35 9 2.7 9 1 C6.03 1 3.06 1 0 1 C0 0.67 0 0.34 0 0 Z " fill="#EAEFEF" transform="translate(57,116)"/>
<path d="M0 0 C2.97 0 5.94 0 9 0 C9 2.97 9 5.94 9 9 C5.85669777 8.6507442 4.20508548 8.16074267 1.6875 6.1875 C0 4 0 4 0 0 Z " fill="#EEEEEE" transform="translate(131,122)"/>
<path d="M0 0 C3.3 0 6.6 0 10 0 C10 1.98 10 3.96 10 6 C7.03 6 4.06 6 1 6 C0.67 6.66 0.34 7.32 0 8 C0 5.36 0 2.72 0 0 Z " fill="#E6EBEB" transform="translate(159,116)"/>
<path d="M0 0 C2.97 0 5.94 0 9 0 C9 2.64 9 5.28 9 8 C5.65626525 7.44271087 2.96687001 6.64826111 0 5 C0 3.35 0 1.7 0 0 Z " fill="#E9EDED" transform="translate(141,131)"/>
<path d="M0 0 C2.97 0 5.94 0 9 0 C9 1.32 9 2.64 9 4 C11.97 4 14.94 4 18 4 C18 4.33 18 4.66 18 5 C15.18780295 5.19384179 12.37545804 5.38036603 9.5625 5.5625 C8.35883789 5.64661133 8.35883789 5.64661133 7.13085938 5.73242188 C5.08937889 5.8616295 3.04453631 5.9351273 1 6 C0 5 0 5 -0.0625 2.4375 C-0.041875 1.633125 -0.02125 0.82875 0 0 Z " fill="#E0E8E9" transform="translate(56,66)"/>
<path d="M0 0 C0 1.65 0 3.3 0 5 C-2.97 5 -5.94 5 -9 5 C-9 3.68 -9 2.36 -9 1 C-11.31 1 -13.62 1 -16 1 C-16 0.67 -16 0.34 -16 0 C-14.27185839 -0.19672365 -12.54240803 -0.38196799 -10.8125 -0.5625 C-9.84957031 -0.66691406 -8.88664063 -0.77132812 -7.89453125 -0.87890625 C-5.05766623 -0.99758751 -2.74576329 -0.67765639 0 0 Z " fill="#E2E9EA" transform="translate(169,154)"/>
<path d="M0 0 C-0.33 1.98 -0.66 3.96 -1 6 C-3.97 6 -6.94 6 -10 6 C-10 4.35 -10 2.7 -10 1 C-3.71428571 -1.42857143 -3.71428571 -1.42857143 0 0 Z " fill="#FAFCFC" transform="translate(85,153)"/>
<path d="M0 0 C0.33 0 0.66 0 1 0 C1.02708567 1.60407328 1.04643483 3.2082785 1.0625 4.8125 C1.07410156 5.70582031 1.08570313 6.59914063 1.09765625 7.51953125 C1 10 1 10 0 13 C-1.65 13.33 -3.3 13.66 -5 14 C-5 11.03 -5 8.06 -5 5 C-3.35 5 -1.7 5 0 5 C0 3.35 0 1.7 0 0 Z " fill="#E6ECEC" transform="translate(183,108)"/>
<path d="M0 0 C3.3 0.33 6.6 0.66 10 1 C10 2.65 10 4.3 10 6 C6.7 6 3.4 6 0 6 C0 4.02 0 2.04 0 0 Z " fill="#FDFDFD" transform="translate(56,116)"/>
<path d="M0 0 C1.65 0.33 3.3 0.66 5 1 C5 3.97 5 6.94 5 10 C3.35 10 1.7 10 0 10 C-1.125 3.375 -1.125 3.375 0 0 Z " fill="#E4EAEB" transform="translate(42,102)"/>
<path d="M0 0 C2.97 0 5.94 0 9 0 C9 1.65 9 3.3 9 5 C4.545 5.495 4.545 5.495 0 6 C0 4.02 0 2.04 0 0 Z " fill="#FCFDFD" transform="translate(141,66)"/>
<path d="M0 0 C2.97 0 5.94 0 9 0 C9 2.97 9 5.94 9 9 C8.67 7.68 8.34 6.36 8 5 C5.36 5 2.72 5 0 5 C0 3.35 0 1.7 0 0 Z " fill="#FAFCFC" transform="translate(160,103)"/>
<path d="M0 0 C0 2.97 0 5.94 0 9 C-1.29315061 8.04367001 -2.58446853 7.08486149 -3.875 6.125 C-4.59429687 5.59132813 -5.31359375 5.05765625 -6.0546875 4.5078125 C-8 3 -8 3 -10 1 C-6.78548731 -0.60725635 -3.56387464 -0.05748185 0 0 Z " fill="#E2EAEA" transform="translate(187,75)"/>
<path d="M0 0 C3.3 0 6.6 0 10 0 C10 1.65 10 3.3 10 5 C7.03 5 4.06 5 1 5 C0.67 3.35 0.34 1.7 0 0 Z " fill="#E2E9E9" transform="translate(65,154)"/>
<path d="M0 0 C0.99 0 1.98 0 3 0 C3.268125 0.763125 3.53625 1.52625 3.8125 2.3125 C4.9717361 4.93603434 5.75255646 6.27119728 8 8 C9.32 8.33 10.64 8.66 12 9 C12 6.03 12 3.06 12 0 C12.33 0 12.66 0 13 0 C13 4.29 13 8.58 13 13 C8.54665133 11.21866053 6.88443952 10.29556313 3.6875 7.0625 C2.99011719 6.37285156 2.29273438 5.68320313 1.57421875 4.97265625 C0 3 0 3 0 0 Z " fill="#F4F7F7" transform="translate(128,122)"/>
<path d="M0 0 C2.31 0 4.62 0 7 0 C6.38545304 3.99455527 4.29353263 6.74466336 2 10 C1.34 9.67 0.68 9.34 0 9 C0 6.03 0 3.06 0 0 Z " fill="#EBEDEE" transform="translate(113,85)"/>
<path d="M0 0 C2.97 0 5.94 0 9 0 C9 1.65 9 3.3 9 5 C6.03 5 3.06 5 0 5 C0 3.35 0 1.7 0 0 Z " fill="#FFFFFF" transform="translate(150,94)"/>
<path d="M0 0 C3.93673644 1.31224548 6.22719294 2.91910327 9 6 C8 7 8 7 6.15234375 7.09765625 C4.1015625 7.06510417 2.05078125 7.03255208 0 7 C0 4.69 0 2.38 0 0 Z " fill="#E8ECEC" transform="translate(38,143)"/>
<path d="M0 0 C2.97 0 5.94 0 9 0 C9.33 1.65 9.66 3.3 10 5 C6.7 5 3.4 5 0 5 C0 3.35 0 1.7 0 0 Z " fill="#DAE5E6" transform="translate(150,66)"/>
<path d="M0 0 C2.97 0 5.94 0 9 0 C9 1.32 9 2.64 9 4 C5.67465243 5.10844919 3.37817425 4.84454356 0 4 C0 2.68 0 1.36 0 0 Z " fill="#FEFEFE" transform="translate(66,103)"/>
<path d="M0 0 C2.97 0 5.94 0 9 0 C9 1.32 9 2.64 9 4 C6.03 4 3.06 4 0 4 C0 2.68 0 1.36 0 0 Z " fill="#FFFFFF" transform="translate(150,155)"/>
<path d="M0 0 C2.97 0 5.94 0 9 0 C9 1.32 9 2.64 9 4 C6.03 4 3.06 4 0 4 C0 2.68 0 1.36 0 0 Z " fill="#FFFFFF" transform="translate(66,66)"/>
<path d="M0 0 C0.99 0.33 1.98 0.66 3 1 C3 2.65 3 4.3 3 6 C0.69 5.67 -1.62 5.34 -4 5 C-2.25 1.125 -2.25 1.125 0 0 Z " fill="#F6F9FA" transform="translate(54,89)"/>
<path d="M0 0 C2.475 0.99 2.475 0.99 5 2 C5 2.66 5 3.32 5 4 C3.68 4 2.36 4 1 4 C1 7.3 1 10.6 1 14 C0.67 14 0.34 14 0 14 C0 9.38 0 4.76 0 0 Z " fill="#F1F5F5" transform="translate(84,90)"/>
<path d="M0 0 C0 3 0 3 -1.53125 4.82421875 C-2.1809375 5.43910156 -2.830625 6.05398437 -3.5 6.6875 C-4.1496875 7.31011719 -4.799375 7.93273437 -5.46875 8.57421875 C-5.9740625 9.04472656 -6.479375 9.51523438 -7 10 C-7.66 9.67 -8.32 9.34 -9 9 C-7.87895467 7.68412059 -6.75303035 6.37239647 -5.625 5.0625 C-4.99851562 4.33160156 -4.37203125 3.60070312 -3.7265625 2.84765625 C-2 1 -2 1 0 0 Z " fill="#23A7AC" transform="translate(42,80)"/>
<path d="M0 0 C2.31 0 4.62 0 7 0 C6.67 1.65 6.34 3.3 6 5 C1.125 2.25 1.125 2.25 0 0 Z " fill="#E8EDEE" transform="translate(49,131)"/>
<path d="M0 0 C1.65 0 3.3 0 5 0 C4 3 4 3 1 5 C0.01 4.67 -0.98 4.34 -2 4 C-1.34 2.68 -0.68 1.36 0 0 Z " fill="#F4F8F9" transform="translate(170,131)"/>
<path d="M0 0 C0.33 0 0.66 0 1 0 C1.33 3.3 1.66 6.6 2 10 C-0.52053595 11.26026798 -1.8542098 10.91874445 -4.625 10.5625 C-5.44226563 10.46066406 -6.25953125 10.35882813 -7.1015625 10.25390625 C-7.72804688 10.17011719 -8.35453125 10.08632812 -9 10 C-9 9.67 -9 9.34 -9 9 C-6.03 9 -3.06 9 0 9 C0 6.03 0 3.06 0 0 Z " fill="#F4F4F4" transform="translate(9,150)"/>
<path d="M0 0 C0.66 0.33 1.32 0.66 2 1 C0.875 3.5 0.875 3.5 -1 6 C-4.1875 6.3125 -4.1875 6.3125 -7 6 C-4.74259377 3.66475218 -2.7194239 1.81294927 0 0 Z " fill="#E6EFEF" transform="translate(142,88)"/>
<path d="M0 0 C0.33 0 0.66 0 1 0 C1.33 3.3 1.66 6.6 2 10 C-0.52053595 11.26026798 -1.8542098 10.91874445 -4.625 10.5625 C-5.44226563 10.46066406 -6.25953125 10.35882813 -7.1015625 10.25390625 C-7.72804688 10.17011719 -8.35453125 10.08632812 -9 10 C-9 9.67 -9 9.34 -9 9 C-6.03 9 -3.06 9 0 9 C0 6.03 0 3.06 0 0 Z " fill="#F4F4F4" transform="translate(9,75)"/>
<path d="M0 0 C0.33 0 0.66 0 1 0 C1.33 3.3 1.66 6.6 2 10 C-0.52053595 11.26026798 -1.8542098 10.91874445 -4.625 10.5625 C-5.44226563 10.46066406 -6.25953125 10.35882813 -7.1015625 10.25390625 C-7.72804687 10.17011719 -8.35453125 10.08632812 -9 10 C-9 9.67 -9 9.34 -9 9 C-6.03 9 -3.06 9 0 9 C0 6.03 0 3.06 0 0 Z " fill="#F4F4F4" transform="translate(159,0)"/>
<path d="M0 0 C0.33 0 0.66 0 1 0 C1.33 3.3 1.66 6.6 2 10 C-0.52053595 11.26026798 -1.8542098 10.91874445 -4.625 10.5625 C-5.44226563 10.46066406 -6.25953125 10.35882813 -7.1015625 10.25390625 C-7.72804688 10.17011719 -8.35453125 10.08632812 -9 10 C-9 9.67 -9 9.34 -9 9 C-6.03 9 -3.06 9 0 9 C0 6.03 0 3.06 0 0 Z " fill="#F4F4F4" transform="translate(84,0)"/>
<path d="M0 0 C0.33 0 0.66 0 1 0 C1.33 3.3 1.66 6.6 2 10 C-0.52053595 11.26026798 -1.8542098 10.91874445 -4.625 10.5625 C-5.44226563 10.46066406 -6.25953125 10.35882813 -7.1015625 10.25390625 C-7.72804688 10.17011719 -8.35453125 10.08632812 -9 10 C-9 9.67 -9 9.34 -9 9 C-6.03 9 -3.06 9 0 9 C0 6.03 0 3.06 0 0 Z " fill="#F4F4F4" transform="translate(9,0)"/>
<path d="M0 0 C1.65 0.99 3.3 1.98 5 3 C4.67 3.66 4.34 4.32 4 5 C2.35 5 0.7 5 -1 5 C-0.67 3.35 -0.34 1.7 0 0 Z " fill="#E8EDED" transform="translate(170,89)"/>
<path d="M0 0 C0.33 0 0.66 0 1 0 C1.33 2.31 1.66 4.62 2 7 C-0.52053595 8.26026798 -1.8542098 7.91874445 -4.625 7.5625 C-5.85089844 7.40974609 -5.85089844 7.40974609 -7.1015625 7.25390625 C-8.04128906 7.12822266 -8.04128906 7.12822266 -9 7 C-9 6.67 -9 6.34 -9 6 C-6.03 6 -3.06 6 0 6 C0 4.02 0 2.04 0 0 Z " fill="#F4F4F4" transform="translate(84,153)"/>
<path d="M0 0 C4 4.75 4 4.75 4 7 C2.68 7 1.36 7 0 7 C0 4.69 0 2.38 0 0 Z " fill="#DFE9EA" transform="translate(178,96)"/>
<path d="M0 0 C0.33 0.66 0.66 1.32 1 2 C-0.375 4.625 -0.375 4.625 -2 7 C-2.33 7 -2.66 7 -3 7 C-3 5.02 -3 3.04 -3 1 C-2.01 0.67 -1.02 0.34 0 0 Z " fill="#F6FAFA" transform="translate(181,121)"/>
<path d="M0 0 C1.32 0 2.64 0 4 0 C4 1.65 4 3.3 4 5 C3.01 5.495 3.01 5.495 2 6 C1.34 4.02 0.68 2.04 0 0 Z " fill="#E7ECED" transform="translate(43,122)"/>
<path d="M0 0 C3.39914975 1.13304992 4.05254451 2.12518475 6 5 C5.67 5.66 5.34 6.32 5 7 C2.5 5.75 2.5 5.75 0 4 C0 2.68 0 1.36 0 0 Z " fill="#EEF4F5" transform="translate(94,99)"/>
</svg>
