<?xml version="1.0" encoding="UTF-8"?>
<svg version="1.1" xmlns="http://www.w3.org/2000/svg" width="2503" height="2047">
<path d="M0 0 C0.73976074 0.17160645 1.47952148 0.34321289 2.24169922 0.52001953 C13.37677575 3.1459733 23.72539004 6.99197819 34 12 C35.14339844 12.556875 36.28679687 13.11375 37.46484375 13.6875 C45.28486377 17.70444251 52.10545693 22.57200047 59 28 C61.0612471 29.58496407 63.12378734 31.16824757 65.1875 32.75 C66.2749626 33.58825242 67.36219533 34.42680313 68.44921875 35.265625 C72.45717371 38.3554932 76.47862784 41.42762686 80.5 44.5 C87.67790151 49.98550527 94.84245105 55.48796795 102 61 C104.16644651 62.66695292 106.33322497 64.33347413 108.5 66 C109.58333938 66.83332547 110.66667272 67.6666588 111.75 68.5 C112.28625 68.9125 112.8225 69.325 113.375 69.75 C144.25 93.5 144.25 93.5 145.87402344 94.74926758 C146.96058779 95.58507376 148.04717645 96.42084835 149.13378906 97.2565918 C151.79288548 99.30183636 154.4514994 101.34769991 157.109375 103.39453125 C163.23103457 108.1076 169.36160412 112.80874598 175.5 117.5 C182.67781092 122.98562442 189.84245047 128.48796751 197 134 C199.16644651 135.66695292 201.33322497 137.33347413 203.5 139 C204.58333938 139.83332547 205.66667272 140.6666588 206.75 141.5 C207.28625 141.9125 207.8225 142.325 208.375 142.75 C226.25000002 156.50000001 226.25000002 156.50000001 227.87402344 157.74926758 C228.96058779 158.58507376 230.04717645 159.42084835 231.13378906 160.2565918 C233.79288548 162.30183636 236.4514994 164.34769991 239.109375 166.39453125 C245.23103457 171.1076 251.36160412 175.80874598 257.5 180.5 C264.67781092 185.98562442 271.84245047 191.48796751 279 197 C281.16644651 198.66695292 283.33322497 200.33347413 285.5 202 C286.58333938 202.83332547 287.66667272 203.6666588 288.75 204.5 C289.28625 204.9125 289.8225 205.325 290.375 205.75 C308.25 219.5 308.25 219.5 309.87402344 220.74926758 C310.96058779 221.58507376 312.04717645 222.42084835 313.13378906 223.2565918 C315.79288548 225.30183636 318.4514994 227.34769991 321.109375 229.39453125 C327.23103457 234.1076 333.36160412 238.80874598 339.5 243.5 C346.67781092 248.98562442 353.84245047 254.48796751 361 260 C363.16644651 261.66695292 365.33322497 263.33347413 367.5 265 C368.58333938 265.83332547 369.66667272 266.6666588 370.75 267.5 C371.28625 267.9125 371.8225 268.325 372.375 268.75 C403.25000002 292.50000001 403.25000002 292.50000001 404.87402344 293.74926758 C405.96058779 294.58507376 407.04717645 295.42084835 408.13378906 296.2565918 C410.79288548 298.30183636 413.4514994 300.34769991 416.109375 302.39453125 C422.23103457 307.1076 428.36160412 311.80874598 434.5 316.5 C441.67781092 321.98562442 448.84245047 327.48796751 456 333 C458.16644651 334.66695292 460.33322497 336.33347413 462.5 338 C463.58333938 338.83332547 464.66667272 339.6666588 465.75 340.5 C466.28625 340.9125 466.8225 341.325 467.375 341.75 C485.25000002 355.50000001 485.25000002 355.50000001 486.87402344 356.74926758 C487.96058779 357.58507376 489.04717645 358.42084835 490.13378906 359.2565918 C492.79288548 361.30183636 495.4514994 363.34769991 498.109375 365.39453125 C504.23103457 370.1076 510.36160412 374.80874598 516.5 379.5 C523.67781092 384.98562442 530.84245047 390.48796751 538 396 C540.16644651 397.66695292 542.33322497 399.33347413 544.5 401 C545.58333938 401.83332547 546.66667272 402.6666588 547.75 403.5 C548.28625 403.9125 548.8225 404.325 549.375 404.75 C580.24999999 428.49999999 580.24999999 428.49999999 581.87402344 429.74926758 C582.96058779 430.58507376 584.04717645 431.42084835 585.13378906 432.2565918 C587.79288548 434.30183636 590.4514994 436.34769991 593.109375 438.39453125 C599.23103457 443.1076 605.36160412 447.80874598 611.5 452.5 C618.67781092 457.98562442 625.84245047 463.48796751 633 469 C635.16644651 470.66695292 637.33322497 472.33347413 639.5 474 C640.58333938 474.83332547 641.66667272 475.6666588 642.75 476.5 C643.28625 476.9125 643.8225 477.325 644.375 477.75 C662.25000001 491.5 662.25000001 491.5 663.87402344 492.74926758 C664.96058779 493.58507376 666.04717645 494.42084835 667.13378906 495.2565918 C669.79288548 497.30183636 672.4514994 499.34769991 675.109375 501.39453125 C681.23103457 506.1076 687.36160412 510.80874598 693.5 515.5 C700.67781092 520.98562442 707.84245047 526.48796751 715 532 C717.16644651 533.66695292 719.33322497 535.33347413 721.5 537 C722.58333938 537.83332547 723.66667272 538.6666588 724.75 539.5 C725.28625 539.9125 725.8225 540.325 726.375 540.75 C757.25000003 564.50000002 757.25000003 564.50000002 758.87402344 565.74926758 C759.96058779 566.58507376 761.04717645 567.42084835 762.13378906 568.2565918 C764.79288548 570.30183636 767.4514994 572.34769991 770.109375 574.39453125 C776.23103507 579.10760038 782.3617004 583.80861948 788.5 588.5 C791.33355788 590.66637315 794.16685996 592.83308044 797 595 C797.92208252 595.70503662 797.92208252 595.70503662 798.86279297 596.42431641 C805.07821869 601.1795227 811.25772404 605.97224365 817.3515625 610.8828125 C819.31630979 612.45345119 821.28869043 614.00972282 823.2734375 615.5546875 C829.7326583 620.58483725 836.0927984 625.69652669 842.31567383 631.01708984 C845.66670375 633.88152347 849.06248307 636.67654212 852.5 639.4375 C857.2549105 643.30390167 861.76661645 647.38528868 866.234375 651.57592773 C869.07886852 654.24264041 871.95921277 656.85229875 874.90234375 659.41015625 C885.53706336 668.67138809 895.6393344 678.54855319 905.625 688.5 C906.35831543 689.22872314 907.09163086 689.95744629 907.84716797 690.70825195 C911.82836263 694.70085797 915.62627116 698.79162931 919.30712891 703.06201172 C922.07387851 706.22936942 924.9824994 709.26045516 927.875 712.3125 C932.73353164 717.47929621 937.38067933 722.7361638 941.80859375 728.28125 C943.78766356 730.73656655 945.81915573 733.13702169 947.87646484 735.52685547 C954.40010582 743.11728451 960.45776547 751.02924767 966.48925781 759.01318359 C967.83038844 760.77693942 969.18610115 762.52705275 970.5546875 764.26953125 C982.99864232 780.16107355 994.18751597 796.96910709 1005 814 C1005.5347998 814.84143555 1006.06959961 815.68287109 1006.62060547 816.54980469 C1019.26443822 836.52014792 1030.76779478 857.07876568 1041.52490234 878.12158203 C1042.98003293 880.96103744 1044.45246265 883.79104302 1045.92578125 886.62109375 C1058.93394741 911.85153852 1069.6121165 938.22829268 1079 965 C1079.40669922 966.15435547 1079.81339844 967.30871094 1080.23242188 968.49804688 C1100.41337453 1026.20738574 1112.76886152 1086.10635984 1118 1147 C1118.05951843 1147.68463318 1118.11903687 1148.36926636 1118.18035889 1149.074646 C1121.47596069 1187.50336739 1121.26062501 1226.5764859 1118 1265 C1117.9391925 1265.72199585 1117.87838501 1266.4439917 1117.81573486 1267.18786621 C1110.59993885 1351.58744625 1087.86194613 1434.81883039 1042.18457031 1530.68847656 C1040.76403069 1533.46046113 1039.36385195 1536.2424921 1037.9609375 1539.0234375 C1022.19846881 1570.06376087 1004.17156174 1600.04623172 983.44335938 1628.03466797 C981.63041425 1630.50324177 979.86550334 1633.00367479 978.10253906 1635.50805664 C973.05272639 1642.67400999 967.72035947 1649.58689622 962.24902344 1656.43505859 C961.13232557 1657.83420506 960.0227107 1659.23899786 958.9140625 1660.64453125 C954.75828204 1665.89438452 950.47303038 1671.02294732 946.13012695 1676.11791992 C943.25731889 1679.49283928 940.4552316 1682.91276326 937.6875 1686.375 C932.9372102 1692.21691833 927.79742915 1697.66366983 922.625 1703.12890625 C920.08676048 1705.81292187 917.6308787 1708.55430709 915.19140625 1711.328125 C908.53978397 1718.74301353 901.43040328 1725.71843833 894.37963867 1732.75073242 C891.93618078 1735.18881632 889.49813193 1737.63221789 887.06054688 1740.07617188 C885.48729979 1741.64875833 883.91374263 1743.22103464 882.33984375 1744.79296875 C881.62191147 1745.51292526 880.90397919 1746.23288177 880.16429138 1746.97465515 C876.14447031 1750.97614134 872.03066853 1754.80877372 867.73031616 1758.50779724 C865.332249 1760.57586001 863.01336227 1762.72638073 860.6875 1764.875 C856.22260974 1768.94737244 851.63391845 1772.80628598 846.9296875 1776.59765625 C844.2615012 1778.78556902 841.65495875 1781.02571397 839.05566406 1783.29394531 C831.60426975 1789.78521598 823.83501134 1795.7297409 815.88574219 1801.59472656 C813.07753747 1803.68742806 810.32327791 1805.84507859 807.5625 1808 C784.92293008 1825.49389832 760.64105644 1841.47732739 736 1856 C735.12311523 1856.52190918 734.24623047 1857.04381836 733.34277344 1857.58154297 C677.78127743 1890.63482759 619.29066201 1917.46981567 558 1938 C557.30406738 1938.2331189 556.60813477 1938.46623779 555.89111328 1938.7064209 C485.86161536 1962.07529521 412.94730022 1976.09108352 339.375 1981.75 C338.60971985 1981.80916595 337.8444397 1981.86833191 337.05596924 1981.92929077 C314.21313659 1983.66374683 291.40519493 1984.20673056 268.5 1984.1875 C267.83465115 1984.18723312 267.16930229 1984.18696625 266.48379135 1984.18669128 C243.60668904 1984.17521606 220.8152974 1983.77747772 198 1982 C197.18237183 1981.93683594 196.36474365 1981.87367187 195.52233887 1981.80859375 C107.38716897 1974.91425462 20.62122338 1956.10865557 -191 1863 C-191.87962402 1862.48840332 -192.75924805 1861.97680664 -193.66552734 1861.44970703 C-206.9340662 1853.67499917 -219.76856841 1845.27454578 -232.5625 1836.75 C-233.32509125 1836.24230072 -234.0876825 1835.73460144 -234.87338257 1835.21151733 C-247.47631304 1826.80826131 -259.90297922 1818.18346581 -272 1809.0625 C-272.66169189 1808.56435791 -273.32338379 1808.06621582 -274.00512695 1807.55297852 C-284.20991138 1799.84488917 -294.19277704 1791.92703136 -303.9140625 1783.6171875 C-306.75605565 1781.19308244 -309.65290065 1778.84268601 -312.5625 1776.5 C-317.64039439 1772.36958445 -322.44563853 1767.99168232 -327.2421875 1763.54296875 C-329.40340548 1761.55011761 -331.58346969 1759.60292215 -333.8125 1757.6875 C-344.79570052 1748.10783221 -355.18689161 1737.91436265 -365.5 1727.625 C-366.01828369 1727.1093045 -366.53656738 1726.59360901 -367.07055664 1726.06228638 C-372.36867062 1720.78505508 -377.58293495 1715.48230901 -382.44824219 1709.796875 C-384.99966333 1706.84242887 -387.69674025 1704.02648814 -390.375 1701.1875 C-395.10519708 1696.13743859 -399.58182721 1690.96021598 -403.90625 1685.5546875 C-405.94047703 1683.07262691 -408.06585219 1680.72533297 -410.25 1678.375 C-415.39574849 1672.72091933 -419.94286868 1666.65187727 -424.54296875 1660.5546875 C-426.82487441 1657.53244174 -429.13807832 1654.53975023 -431.48828125 1651.5703125 C-439.18188855 1641.84586722 -446.38127022 1631.90022265 -453.26660156 1621.58837891 C-455.08941821 1618.8664772 -456.93046966 1616.15751101 -458.7734375 1613.44921875 C-474.60390074 1590.08417707 -489.01565131 1566.06382673 -502 1541 C-502.90032959 1539.27305908 -502.90032959 1539.27305908 -503.81884766 1537.51123047 C-542.3607544 1463.39868414 -567.72080765 1382.62258771 -577 1290 C-577.10094971 1289.02426025 -577.20189941 1288.04852051 -577.3059082 1287.04321289 C-580.39551468 1256.4048462 -576.41840309 1225.44449936 -573 1195 C-573.82242188 1195.70125 -574.64484375 1196.4025 -575.4921875 1197.125 C-581.44189071 1202.18609954 -587.42262157 1207.1882184 -593.54296875 1212.04296875 C-598.06784881 1215.64704651 -602.52793103 1219.3307709 -607 1223 C-608.83310162 1224.50028317 -610.66643427 1226.00028408 -612.5 1227.5 C-613.4075 1228.2425 -614.315 1228.985 -615.25 1229.75 C-618 1232 -620.75 1234.25 -623.5 1236.5 C-624.41523437 1237.24894531 -625.33046875 1237.99789063 -626.2734375 1238.76953125 C-628.02817784 1240.20499935 -629.78335155 1241.63993796 -631.5390625 1243.07421875 C-637.2034079 1247.70323818 -642.85440553 1252.34813906 -648.5 1257 C-654.98905001 1262.34685204 -661.48844833 1267.68056318 -668 1273 C-669.83345036 1274.49985696 -671.66678171 1275.9998594 -673.5 1277.5 C-676.1789992 1279.69225146 -678.85824208 1281.88419468 -681.5390625 1284.07421875 C-687.2034079 1288.70323818 -692.85440553 1293.34813906 -698.5 1298 C-704.98905001 1303.34685204 -711.48844833 1308.68056318 -718 1314 C-719.83345036 1315.49985696 -721.66678171 1316.9998594 -723.5 1318.5 C-727.16666667 1321.5 -730.83333333 1324.5 -734.5 1327.5 C-735.41523437 1328.24894531 -736.33046875 1328.99789063 -737.2734375 1329.76953125 C-739.02817784 1331.20499935 -740.78335155 1332.63993796 -742.5390625 1334.07421875 C-748.2034079 1338.70323818 -753.85440553 1343.34813906 -759.5 1348 C-765.98905001 1353.34685204 -772.48844833 1358.68056318 -779 1364 C-780.83345036 1365.49985696 -782.66678171 1366.9998594 -784.5 1368.5 C-787.1789992 1370.69225146 -789.85824208 1372.88419468 -792.5390625 1375.07421875 C-798.2034079 1379.70323818 -803.85440553 1384.34813906 -809.5 1389 C-815.98905001 1394.34685204 -822.48844833 1399.68056318 -829 1405 C-830.83345036 1406.49985696 -832.66678171 1407.9998594 -834.5 1409.5 C-838.16666667 1412.5 -841.83333333 1415.5 -845.5 1418.5 C-846.41523437 1419.24894531 -847.33046875 1419.99789063 -848.2734375 1420.76953125 C-850.02817784 1422.20499935 -851.78335155 1423.63993796 -853.5390625 1425.07421875 C-859.2034079 1429.70323818 -864.85440553 1434.34813906 -870.5 1439 C-876.98905001 1444.34685204 -883.48844833 1449.68056318 -890 1455 C-891.83345036 1456.49985696 -893.66678171 1457.9998594 -895.5 1459.5 C-898.1789992 1461.69225146 -900.85824208 1463.88419468 -903.5390625 1466.07421875 C-909.2034079 1470.70323818 -914.85440553 1475.34813906 -920.5 1480 C-926.98905001 1485.34685204 -933.48844833 1490.68056318 -940 1496 C-941.83345036 1497.49985696 -943.66678171 1498.9998594 -945.5 1500.5 C-949.16666667 1503.5 -952.83333333 1506.5 -956.5 1509.5 C-957.41523437 1510.24894531 -958.33046875 1510.99789063 -959.2734375 1511.76953125 C-961.02817784 1513.20499935 -962.78335155 1514.63993796 -964.5390625 1516.07421875 C-970.2034079 1520.70323818 -975.85440553 1525.34813906 -981.5 1530 C-987.98905001 1535.34685204 -994.48844833 1540.68056318 -1001 1546 C-1002.83345036 1547.49985696 -1004.66678171 1548.9998594 -1006.5 1550.5 C-1009.1789992 1552.69225146 -1011.85824208 1554.88419468 -1014.5390625 1557.07421875 C-1019.37407094 1561.02548698 -1024.20027403 1564.98697987 -1029.0168457 1568.96069336 C-1031.2123663 1570.7704977 -1033.41077949 1572.57674555 -1035.609375 1574.3828125 C-1038.42410574 1576.69623895 -1041.22526659 1579.02444335 -1044.015625 1581.3671875 C-1058.26158051 1593.25268823 -1073.55388865 1603.41078268 -1090 1612 C-1090.69577148 1612.36689941 -1091.39154297 1612.73379883 -1092.10839844 1613.11181641 C-1112.05275146 1623.4888174 -1133.76659365 1630.65472894 -1156 1634 C-1156.72880371 1634.11424316 -1157.45760742 1634.22848633 -1158.20849609 1634.34619141 C-1198.78259854 1640.48551424 -1242.27693034 1633.41548241 -1275.86499023 1608.984375 C-1304.26339736 1587.63231008 -1320.83956402 1557.60586354 -1326.3125 1522.625 C-1331.78838739 1473.49997178 -1313.5422198 1425.9829289 -1283.45947266 1387.79833984 C-1280.52788729 1384.18608528 -1277.40718903 1380.7664517 -1274.22265625 1377.375 C-1272.28109523 1375.30036186 -1270.44755747 1373.17828555 -1268.625 1371 C-1259.70596684 1360.82156633 -1249.00554415 1352.78246583 -1238.23974609 1344.69580078 C-1234.52251909 1341.88134048 -1230.85821215 1338.9996784 -1227.1875 1336.125 C-1220.01751705 1330.52486431 -1212.75895444 1325.05200649 -1205.46826172 1319.61035156 C-1199.11324376 1314.8579462 -1192.83350418 1310.01642326 -1186.58032227 1305.13110352 C-1179.46284874 1299.57138702 -1172.29046799 1294.08540441 -1165.10888672 1288.60888672 C-1161.57013119 1285.90914153 -1158.03527277 1283.20430311 -1154.5 1280.5 C-1153.08335181 1279.4166425 -1151.66668515 1278.33330916 -1150.25 1277.25 C-1149.54875 1276.71375 -1148.8475 1276.1775 -1148.125 1275.625 C-1078 1222 -1007.875 1168.375 -391.62109375 697.12207031 C-390.21737386 696.04859944 -388.81372692 694.97503316 -387.41015625 693.90136719 C-383.6710249 691.04131467 -379.93030552 688.18336812 -376.1875 685.328125 C-375.40310547 684.72935547 -374.61871094 684.13058594 -373.81054688 683.51367188 C-372.29668462 682.35812021 -370.78237786 681.20315058 -369.26757812 680.04882812 C-368.59146484 679.53255859 -367.91535156 679.01628906 -367.21875 678.484375 C-366.3205957 677.79939941 -366.3205957 677.79939941 -365.40429688 677.10058594 C-364.02475304 676.06487506 -364.02475304 676.06487506 -363 675 C-364.04442223 675.00075944 -365.08884447 675.00151888 -366.16491586 675.00230134 C-412.22421379 675.03566072 -458.28351259 675.06651326 -504.34281921 675.08468628 C-505.04083569 675.08496239 -505.73885216 675.08523851 -506.45802065 675.08552299 C-521.6301293 675.09150969 -536.80223809 675.09704993 -551.97434707 675.10213066 C-559.41543389 675.10462519 -566.85652066 675.10721832 -574.29760742 675.10986328 C-575.40828602 675.11025556 -575.40828602 675.11025556 -576.54140256 675.11065576 C-600.5140011 675.11916873 -624.48659016 675.13418408 -648.45918296 675.15259444 C-673.10727371 675.17148906 -697.75535922 675.1837777 -722.40345708 675.18782998 C-725.88992973 675.18840624 -729.37640236 675.18905751 -732.86287498 675.18975449 C-733.89209211 675.18995676 -733.89209211 675.18995676 -734.94210151 675.19016311 C-745.95873901 675.19252067 -756.97536027 675.20178088 -767.99199117 675.21366407 C-779.08461589 675.2254804 -790.17722835 675.22976435 -801.26986007 675.22700275 C-807.27309743 675.22572507 -813.27628735 675.22764803 -819.27951622 675.23841095 C-824.78677731 675.24821205 -830.29395949 675.24859081 -835.80122437 675.24179779 C-837.78270837 675.2409594 -839.76419748 675.24343797 -841.74567155 675.24976636 C-857.72273454 675.29778343 -873.86035319 674.76846599 -889.4375 670.875 C-890.29746582 670.66327148 -891.15743164 670.45154297 -892.04345703 670.23339844 C-921.81301094 662.51838009 -948.78477396 645.75738794 -964.890625 618.94921875 C-972.80289599 604.81964492 -976.40385467 589.35191398 -976.3125 573.25 C-976.30686035 572.19796387 -976.3012207 571.14592773 -976.29541016 570.06201172 C-976.16548342 561.68623958 -975.30505487 554.08943785 -973 546 C-972.70198486 544.94570801 -972.70198486 544.94570801 -972.39794922 543.87011719 C-961.28853654 505.47398976 -932.29320353 474.78711778 -897.8125 455.625 C-894.89256485 454.04804785 -891.9523203 452.51528896 -889 451 C-888.38656738 450.67837891 -887.77313477 450.35675781 -887.14111328 450.02539062 C-857.957163 434.85523526 -825.88447708 429.85226813 -793.38447571 429.84851074 C-791.3801561 429.84465581 -789.37583729 429.8403685 -787.37151945 429.83568901 C-781.86451608 429.82407573 -776.35752097 429.81857227 -770.85050784 429.81405596 C-764.87389056 429.80806662 -758.89728409 429.79636074 -752.92067432 429.78535557 C-742.47840129 429.76689928 -732.03612701 429.7520061 -721.59384537 429.73951912 C-710.45567514 429.72617353 -699.31751123 429.710614 -688.17934799 429.69231987 C-687.47808471 429.69116873 -686.77682142 429.69001759 -686.05430773 429.68883156 C-682.48217867 429.68295472 -678.91004967 429.6770364 -675.3379207 429.67109958 C-668.03172566 429.65897115 -660.72553013 429.6471508 -653.41933441 429.63543797 C-652.31754062 429.63367162 -652.31754062 429.63367162 -651.19348837 429.63186958 C-634.33516518 429.60492388 -617.4768378 429.5810854 -600.61850968 429.55746793 C-562.70507857 429.50434753 -524.79165947 429.44482614 -486.87824159 429.38303347 C-484.49389137 429.379148 -482.10954115 429.37526585 -479.72519092 429.37138475 C-465.36350009 429.3480065 -451.00180933 429.32458871 -436.64011878 429.30103976 C-420.5667705 429.27469174 -404.49342195 429.24854436 -388.42007256 429.22288704 C-314.20635598 429.1043854 -239.99268125 428.97622644 -124.6484375 428.71484375 C-123.38607485 428.71190239 -122.12371219 428.70896103 -120.82309613 428.70593053 C-87.06627648 428.62718664 -53.30946384 428.54563273 -19.55265383 428.46287262 C-7.99648502 428.43455281 3.55968444 428.40650028 15.11585394 428.3784628 C66.07724223 428.25479807 117.03862503 428.12904466 168 428 C165.43075448 425.91242377 162.86149649 423.82486289 160.29223633 421.73730469 C159.56828926 421.14907928 158.84434219 420.56085388 158.09845734 419.95480347 C154.50745175 417.03707545 150.91628711 414.11954463 147.32421875 411.203125 C140.83500278 405.93404522 134.35323421 400.65631143 127.88671875 395.359375 C122.29543846 390.78950586 116.686615 386.2411831 111.08056641 381.68945312 C107.71974572 378.96041309 104.3599111 376.23015975 101 373.5 C99.66667165 372.41666054 98.33333831 371.33332721 97 370.25 C89 363.75 81 357.25 73 350.75 C72.00939575 349.9451416 72.00939575 349.9451416 70.9987793 349.12402344 C69.66949505 348.04396984 68.34023063 346.96389183 67.01098633 345.88378906 C63.61586671 343.12507227 60.22037148 340.36681991 56.82421875 337.609375 C50.16847008 332.20470691 43.51936373 326.79239361 36.88671875 321.359375 C31.29543846 316.78950586 25.686615 312.2411831 20.08056641 307.68945312 C16.71974572 304.96041309 13.3599111 302.23015975 10 299.5 C8.66667165 298.41666054 7.33333831 297.33332721 6 296.25 C3.33333333 294.08333333 0.66666667 291.91666667 -2 289.75 C-2.99060425 288.9451416 -2.99060425 288.9451416 -4.0012207 288.12402344 C-5.33050495 287.04396984 -6.65976937 285.96389183 -7.98901367 284.88378906 C-11.38413329 282.12507227 -14.77962852 279.36681991 -18.17578125 276.609375 C-24.83152992 271.20470691 -31.48063627 265.79239361 -38.11328125 260.359375 C-43.70456154 255.78950586 -49.313385 251.2411831 -54.91943359 246.68945312 C-58.28025428 243.96041309 -61.6400889 241.23015975 -65 238.5 C-66.33332835 237.41666054 -67.66666169 236.33332721 -69 235.25 C-77 228.75 -85 222.25 -93 215.75 C-93.66040283 215.21342773 -94.32080566 214.67685547 -95.0012207 214.12402344 C-96.33050495 213.04396984 -97.65976937 211.96389183 -98.98901367 210.88378906 C-102.38413329 208.12507227 -105.77962852 205.36681991 -109.17578125 202.609375 C-115.82284962 197.21175557 -122.46553455 191.80923676 -129.0859375 186.37890625 C-131.35644217 184.52537093 -133.63279075 182.68005506 -135.9140625 180.83984375 C-139.95688296 177.57708425 -143.9849446 174.29686167 -148 171 C-148.89332031 170.26652344 -149.78664063 169.53304687 -150.70703125 168.77734375 C-166.84878803 155.01020618 -179.40484746 134.85660455 -181.22119141 113.38525391 C-182.36512319 86.14020626 -174.62736484 64.55876813 -156.6875 43.9375 C-143.21160767 29.40557523 -127.9562822 19.13749119 -110 11 C-109.38688965 10.72172363 -108.7737793 10.44344727 -108.14208984 10.15673828 C-97.74334827 5.52855811 -87.07055082 2.51926732 -76 0 C-75.31147949 -0.16661133 -74.62295898 -0.33322266 -73.91357422 -0.50488281 C-51.17558138 -5.8374638 -22.65308776 -5.57221381 0 0 Z " fill="#EA7600" transform="translate(1355,21)"/>
<path d="M0 0 C1.03912537 0.22333008 1.03912537 0.22333008 2.09924316 0.45117188 C21.45811477 4.64687951 40.28528654 10.57087194 59 17 C59.63268799 17.21698547 60.26537598 17.43397095 60.91723633 17.65753174 C80.46453845 24.38310131 99.32100832 32.17882752 118 41 C118.99467285 41.46905762 119.9893457 41.93811523 121.01416016 42.42138672 C160.25807031 61.09839417 197.1926733 85.51184516 230 114 C230.73476562 114.63421875 231.46953125 115.2684375 232.2265625 115.921875 C234.16189458 117.60276103 236.08369342 119.29746467 238 121 C239.21816406 122.07894531 239.21816406 122.07894531 240.4609375 123.1796875 C245.46639847 127.64401756 250.30797668 132.20908158 255 137 C257.94426771 139.96006879 260.91101333 142.89592501 263.890625 145.8203125 C271.00064272 152.82554417 277.95061596 159.75245275 284.11328125 167.6171875 C285.90794976 169.88374607 287.79095079 172.00034044 289.75 174.125 C342.69070759 233.15809061 380.09235402 315.61089409 389.29345703 394.20166016 C389.73945606 397.9451349 390.23188676 401.67684974 390.77124023 405.40795898 C392.97696176 421.21288454 393.47089702 436.86784883 393.39111328 452.80151367 C393.37403916 456.24428619 393.38419336 459.68636162 393.4014349 463.12911034 C393.47550946 480.59539763 392.49336931 497.69559922 390 515 C389.8930481 515.76593475 389.78609619 516.53186951 389.67590332 517.3210144 C389.08030556 521.55973457 388.41003331 525.78119977 387.6875 530 C387.47440186 531.24724854 387.26130371 532.49449707 387.04174805 533.77954102 C372.16845518 618.65366645 330.88117729 695.71657949 273 759 C272.5359375 759.50917969 272.071875 760.01835938 271.59375 760.54296875 C263.51045029 769.40512807 255.4064866 778.18040114 246.28515625 785.99609375 C243.93568637 788.05639811 241.65049184 790.17372419 239.36743164 792.30688477 C233.11363472 798.14442838 226.71569952 803.69324749 220 809 C219.37029297 809.50225098 218.74058594 810.00450195 218.09179688 810.52197266 C162.82750429 854.54364692 97.25006875 890.04247326 28.40087891 907.37792969 C26.14204523 907.96319593 23.90539052 908.59590213 21.66796875 909.2578125 C8.68694497 913.08827853 -4.52207729 915.73276767 -17.79150391 918.36279297 C-20.38811934 918.87848056 -22.98168319 919.40574843 -25.57421875 919.94140625 C-37.29628049 922.2809191 -49.1201251 923.7297242 -61 925 C-62.28438965 925.13970215 -63.5687793 925.2794043 -64.89208984 925.42333984 C-154.98879676 935.00373441 -154.98879676 935.00373441 -185 925 C-187.47905091 924.69869538 -189.95291065 924.43336507 -192.4375 924.1875 C-212.89559073 922.00527532 -233.02947027 918.97716898 -253 914 C-254.36832716 913.66730003 -255.73680629 913.33522415 -257.10546875 913.00390625 C-260.35920302 912.20456888 -263.60438533 911.37990119 -266.84863281 910.54345703 C-269.18324472 909.95371054 -271.5244996 909.3966077 -273.8671875 908.83984375 C-347.38410521 890.98399859 -417.18742648 853.40859615 -475 805 C-475.60682617 804.49227051 -476.21365234 803.98454102 -476.83886719 803.46142578 C-489.20527373 793.07377776 -500.93328264 782.14794326 -512.375 770.75 C-513.21949707 769.91017578 -514.06399414 769.07035156 -514.93408203 768.20507812 C-519.82993222 763.29661727 -524.49358322 758.26612445 -529 753 C-530.05694344 751.79672546 -531.11551355 750.59487764 -532.17578125 749.39453125 C-539.11287501 741.49213435 -545.75296213 733.46482711 -552 725 C-552.5053125 724.31534668 -553.010625 723.63069336 -553.53125 722.92529297 C-601.31093838 657.93170844 -631.85124444 584.26162015 -641 504 C-641.10296387 503.15969238 -641.20592773 502.31938477 -641.31201172 501.45361328 C-645.69485155 464.94379588 -643.26244045 427.26345222 -638 391 C-637.87431641 390.10667969 -637.74863281 389.21335937 -637.61914062 388.29296875 C-631.4257719 345.34808712 -617.23259403 302.41568235 -597.08056641 264.06689453 C-595.85286868 261.71856896 -594.6511728 259.3576952 -593.44921875 256.99609375 C-577.99006731 226.81380918 -558.73247728 198.99374733 -537 173 C-536.56494141 172.47857422 -536.12988281 171.95714844 -535.68164062 171.41992188 C-522.25275538 155.37723386 -508.00284381 139.33198632 -492.03515625 125.7578125 C-489.59171962 123.6473586 -487.24081179 121.44707121 -484.875 119.25 C-479.12728989 114.01477433 -473.08864657 109.24265585 -466.93066406 104.50244141 C-464.95410245 102.96428256 -463.00298366 101.397989 -461.0546875 99.82421875 C-391.05322516 43.6752452 -302.56363907 7.2082302 -168.2734375 -11.734375 C-166.20968072 -11.90183975 -164.14690086 -12.08233665 -162.0859375 -12.28125 C-108.28272229 -17.17245138 -52.638324 -11.34984482 0 0 Z " fill="#FEFEFE" transform="translate(1750,707)"/>
<path d="M0 0 C0.92341187 -0.00067474 1.84682373 -0.00134949 2.79821777 -0.00204468 C18.32202324 0.01586921 33.3848732 0.90216831 48.75 3.25 C49.93916016 3.42160645 51.12832031 3.59321289 52.35351562 3.77001953 C118.03318306 13.32482295 181.19033723 40.63298499 230.75 85.25 C231.58072021 85.99612549 231.58072021 85.99612549 232.42822266 86.75732422 C242.71743424 96.0387834 252.90620928 105.55852076 261.75 116.25 C262.17361816 116.75982422 262.59723633 117.26964844 263.03369141 117.79492188 C274.10116129 131.17460073 283.94216989 145.28010271 292.75 160.25 C293.12447266 160.87471191 293.49894531 161.49942383 293.88476562 162.14306641 C329.67723218 222.17306657 340.24640923 297.4136612 323.67578125 365.17578125 C318.35663377 385.46670528 311.08011756 405.46688867 301.75 424.25 C301.40291992 424.96043457 301.05583984 425.67086914 300.69824219 426.40283203 C289.02631541 450.11041539 273.27479243 471.56122664 255.75 491.25 C255.27095215 491.79221191 254.7919043 492.33442383 254.29833984 492.89306641 C242.79110658 505.86450262 230.23124655 517.50337238 216.41455078 527.97509766 C214.80962097 529.20433548 213.23035758 530.46686373 211.65234375 531.73046875 C140.95995108 587.94477341 44.77112715 608.85097244 -43.81373596 599.09693909 C-51.68740908 598.14151282 -59.4707531 596.78416777 -67.25 595.25 C-68.53600098 595.00362793 -69.82200195 594.75725586 -71.14697266 594.50341797 C-130.59723083 582.78264125 -188.19776179 555.31632532 -232.5703125 513.74609375 C-234.8411045 511.63088079 -237.14529043 509.58278584 -239.5 507.5625 C-246.31619938 501.63537011 -252.39334817 495.11198527 -258.25 488.25 C-259.05050781 487.33863281 -259.85101562 486.42726563 -260.67578125 485.48828125 C-284.90217218 457.70194807 -303.19243721 425.55560106 -315.34960938 390.81054688 C-316.10948667 388.64959432 -316.89661313 386.50318007 -317.703125 384.359375 C-340.0273512 322.47322896 -334.43540151 247.70206315 -307.1953125 188.40258789 C-306.22620247 186.34538372 -305.24069882 184.29688199 -304.25 182.25 C-303.93208496 181.58000977 -303.61416992 180.91001953 -303.28662109 180.21972656 C-284.47461602 140.64865956 -255.28100997 102.78704521 -220.25 76.25 C-218.71859375 75.04537109 -218.71859375 75.04537109 -217.15625 73.81640625 C-204.14787838 63.60265703 -190.46280562 54.68018931 -176.25 46.25 C-175.56405762 45.83637207 -174.87811523 45.42274414 -174.17138672 44.99658203 C-152.78936287 32.16736772 -128.98153384 22.71537114 -105.25 15.25 C-104.50524414 15.0137793 -103.76048828 14.77755859 -102.99316406 14.53417969 C-69.60710874 4.13624271 -34.84478803 0.02312326 0 0 Z " fill="#265787" transform="translate(1626.25,841.75)"/>
</svg>
