<?xml version="1.0" encoding="UTF-8"?>
<svg version="1.1" xmlns="http://www.w3.org/2000/svg" width="225" height="225">
<path d="M0 0 C74.25 0 148.5 0 225 0 C225 74.25 225 148.5 225 225 C150.75 225 76.5 225 0 225 C0 150.75 0 76.5 0 0 Z " fill="#FEFDFD" transform="translate(0,0)"/>
<path d="M0 0 C62.7 0 125.4 0 190 0 C185.5103294 13.4690118 179.96493812 24.02892188 171 35 C170.07960937 36.16789062 170.07960937 36.16789062 169.140625 37.359375 C154.86747203 54.56035422 132.71179481 67.06351952 110.47900391 69.7890625 C81.95929945 72.21579331 56.21469345 67.85689199 33.375 49.6875 C17.52642157 36.18432901 5.10573072 20.42292286 0 0 Z " fill="#2B2155" transform="translate(29,141)"/>
<path d="M0 0 C19.42771851 14.39292949 32.08357774 30.98510823 39.7734375 54.0546875 C-22.9265625 54.0546875 -85.6265625 54.0546875 -150.2265625 54.0546875 C-145.9597047 32.7203985 -129.16678216 12.36486002 -111.51220703 0.36987305 C-100.10747698 -7.0747451 -88.5395315 -12.07515962 -75.2265625 -14.9453125 C-74.46923828 -15.1196582 -73.71191406 -15.29400391 -72.93164062 -15.47363281 C-47.72570278 -19.86874761 -21.14133742 -14.28468744 0 0 Z " fill="#2B2155" transform="translate(179.2265625,29.9453125)"/>
<path d="M0 0 C62.7 0 125.4 0 190 0 C189.67 0.66 189.34 1.32 189 2 C177.78 1.67 166.56 1.34 155 1 C154.34 2.98 153.68 4.96 153 7 C151.4140625 9.37890625 151.4140625 9.37890625 149.625 11.5625 C149.03976563 12.28566406 148.45453125 13.00882813 147.8515625 13.75390625 C147.24054688 14.49511719 146.62953125 15.23632812 146 16 C145.04867187 17.25490234 145.04867187 17.25490234 144.078125 18.53515625 C134.62396369 29.74864457 118.36064445 37.24252312 104 39 C84.29977021 40.50127596 67.10873713 36.36545827 51.2578125 24.26171875 C50 23 50 23 50 21 C48.68 20.34 47.36 19.68 46 19 C46 18.34 46 17.68 46 17 C45.01 16.67 44.02 16.34 43 16 C42.12515703 14.33500561 41.25603426 12.66646629 40.43077087 10.97634888 C37.40056219 5.01354937 37.40056219 5.01354937 32.12811279 1.24133301 C26.91954268 0.24190143 21.68886719 0.72142523 16.4375 1.125 C14.84076904 1.195332 13.24373917 1.25919213 11.64648438 1.31640625 C7.75686439 1.46973061 3.88175791 1.71043531 0 2 C0 1.34 0 0.68 0 0 Z " fill="#40327A" transform="translate(29,141)"/>
<path d="M0 0 C0 0.33 0 0.66 0 1 C-1.01835938 1.1959375 -2.03671875 1.391875 -3.0859375 1.59375 C-25.12189689 6.1309522 -43.00702145 16.20030676 -59 32 C-60.299375 33.26263672 -60.299375 33.26263672 -61.625 34.55078125 C-73.23239649 46.50277232 -80.47808894 61.09775237 -85 77 C-85.33902344 78.1859375 -85.67804688 79.371875 -86.02734375 80.59375 C-92.16771015 106.17389389 -87.19724339 133.57718079 -74.16015625 156.19140625 C-58.90184699 180.12417354 -36.05220365 197.68512942 -8.28515625 204.51171875 C-5.53428101 205.09951261 -2.78810751 205.62322871 0 206 C0 206.33 0 206.66 0 207 C-25.7329549 208.97608015 -50.4906607 198.53430608 -70.078125 182.4765625 C-90.40767146 165.02298218 -103.29168124 140.76321749 -106 114 C-108.06885656 85.47386136 -100.51844787 59.11701089 -82 37 C-81.43023437 36.28457031 -80.86046875 35.56914063 -80.2734375 34.83203125 C-62.94345386 13.99917858 -37.72179333 3.48064921 -11.42431641 0.21679688 C-7.60346074 -0.12488689 -3.8338983 -0.07706328 0 0 Z " fill="#F7941E" transform="translate(108,9)"/>
<path d="M0 0 C65.01 0 130.02 0 197 0 C197 3.96 197 7.92 197 12 C132.32 12 67.64 12 1 12 C0.67 8.04 0.34 4.08 0 0 Z " fill="#352967" transform="translate(25,118)"/>
<path d="M0 0 C64.68 0 129.36 0 196 0 C196 3.96 196 7.92 196 12 C130.99 12 65.98 12 -1 12 C-0.67 8.04 -0.34 4.08 0 0 Z " fill="#2F2559" transform="translate(26,95)"/>
<path d="M0 0 C10.23 0 20.46 0 31 0 C31 3.63 31 7.26 31 11 C20.11 11 9.22 11 -2 11 C-1.34 7.37 -0.68 3.74 0 0 Z " fill="#2B2155" transform="translate(191,119)"/>
<path d="M0 0 C1.20446777 0.01047363 2.40893555 0.02094727 3.64990234 0.03173828 C5.60283203 0.04140625 5.60283203 0.04140625 7.59521484 0.05126953 C8.9754258 0.06798149 10.35563413 0.08491139 11.73583984 0.10205078 C13.12385436 0.11208072 14.51187574 0.12120655 15.89990234 0.12939453 C19.3037201 0.15303215 22.70719491 0.18598211 26.11083984 0.22705078 C26.44083984 3.85705078 26.77083984 7.48705078 27.11083984 11.22705078 C16.55083984 11.22705078 5.99083984 11.22705078 -4.88916016 11.22705078 C-4.88916016 0.38422502 -4.88916016 0.38422502 0 0 Z " fill="#2B2054" transform="translate(30.88916015625,118.77294921875)"/>
<path d="M0 0 C65.01 0 130.02 0 197 0 C197 0.33 197 0.66 197 1 C196.00294131 1.00331015 195.00588263 1.00662029 193.97861004 1.01003075 C169.74304223 1.09094432 145.50753823 1.18323497 121.27205944 1.28752708 C109.55207315 1.33769677 97.83209401 1.38413914 86.11206055 1.421875 C75.89955491 1.45476634 65.68710404 1.49458163 55.47465879 1.54279006 C50.06484123 1.56808351 44.65506015 1.58985635 39.2451992 1.60334396 C34.15713599 1.61613853 29.06919768 1.63816461 23.98120308 1.66738319 C22.11029787 1.67647941 20.23937254 1.68215394 18.36844635 1.68421364 C15.82073897 1.68752179 13.27338884 1.70295961 10.72575378 1.7215271 C9.60659562 1.718625 9.60659562 1.718625 8.46482819 1.71566427 C4.75943008 1.75624006 3.16766432 1.88822379 0 4 C0 2.68 0 1.36 0 0 Z " fill="#49416F" transform="translate(25,118)"/>
<path d="M0 0 C10.56 0 21.12 0 32 0 C32 0.33 32 0.66 32 1 C30.70582153 1.029729 30.70582153 1.029729 29.38549805 1.06005859 C26.18163044 1.13819644 22.97814106 1.22489082 19.7746582 1.31738281 C18.38868093 1.3556435 17.00260535 1.39050156 15.61645508 1.421875 C13.6229836 1.46758699 11.62983086 1.52658925 9.63671875 1.5859375 C8.43748779 1.6173584 7.23825684 1.6487793 6.00268555 1.68115234 C2.82117294 1.78429494 2.82117294 1.78429494 0 4 C0 2.68 0 1.36 0 0 Z " fill="#423C64" transform="translate(25,118)"/>
<path d="M0 0 C0 0.33 0 0.66 0 1 C-2.26550634 1.58358486 -4.53769801 2.14127095 -6.8125 2.6875 C-8.07707031 3.00074219 -9.34164062 3.31398438 -10.64453125 3.63671875 C-14 4 -14 4 -15.94921875 2.58203125 C-16.29597656 2.05996094 -16.64273438 1.53789062 -17 1 C-11.27959989 0.1679418 -5.77759884 -0.12036664 0 0 Z " fill="#F8A341" transform="translate(108,9)"/>
<path d="M0 0 C2.31 0.33 4.62 0.66 7 1 C4.08235 2.9451 2.37462715 3.45276317 -1 4 C-0.67 2.68 -0.34 1.36 0 0 Z " fill="#F6900F" transform="translate(87,11)"/>
</svg>
