<?xml version="1.0" encoding="UTF-8"?>
<svg version="1.1" xmlns="http://www.w3.org/2000/svg" width="225" height="225">
<path d="M0 0 C74.25 0 148.5 0 225 0 C225 74.25 225 148.5 225 225 C150.75 225 76.5 225 0 225 C0 150.75 0 76.5 0 0 Z " fill="#FEFEFE" transform="translate(0,0)"/>
<path d="M0 0 C1.010625 -0.01675781 2.02125 -0.03351563 3.0625 -0.05078125 C6.41989072 0.36442797 8.28875899 1.32264276 11 3.3125 C12.38308781 6.07867563 12.11210196 8.32268 12.09765625 11.4140625 C12.09443359 12.62578125 12.09121094 13.8375 12.08789062 15.0859375 C12.07951172 16.35695312 12.07113281 17.62796875 12.0625 18.9375 C12.05798828 20.21625 12.05347656 21.495 12.04882812 22.8125 C12.03701203 25.97921292 12.02053815 29.14583356 12 32.3125 C10.35 32.3125 8.7 32.3125 7 32.3125 C6.67 31.6525 6.34 30.9925 6 30.3125 C5.175 30.8075 4.35 31.3025 3.5 31.8125 C-0.90158735 33.69889458 -3.24756711 33.849065 -8 33.3125 C-11.31327526 30.76382672 -12.8095103 28.70942449 -13.375 24.5625 C-12.86474888 20.14032362 -11.14512961 18.38773784 -8 15.3125 C-3.6394894 12.64774352 1.04982442 13.11837547 6 13.3125 C5.34 11.0025 4.68 8.6925 4 6.3125 C-0.62 6.3125 -5.24 6.3125 -10 6.3125 C-10.33 4.9925 -10.66 3.6725 -11 2.3125 C-7.20947276 0.56356188 -4.16690915 0.01594481 0 0 Z " fill="#CA2F31" transform="translate(89,170.6875)"/>
<path d="M0 0 C1.010625 -0.01675781 2.02125 -0.03351563 3.0625 -0.05078125 C6.41989072 0.36442797 8.28875899 1.32264276 11 3.3125 C12.38308781 6.07867563 12.11210196 8.32268 12.09765625 11.4140625 C12.09443359 12.62578125 12.09121094 13.8375 12.08789062 15.0859375 C12.07951172 16.35695312 12.07113281 17.62796875 12.0625 18.9375 C12.05798828 20.21625 12.05347656 21.495 12.04882812 22.8125 C12.03701203 25.97921292 12.02053815 29.14583356 12 32.3125 C10.35 32.3125 8.7 32.3125 7 32.3125 C6.67 31.6525 6.34 30.9925 6 30.3125 C5.154375 30.8075 4.30875 31.3025 3.4375 31.8125 C-0.46172198 33.51397868 -2.79052413 33.84825147 -7 33.3125 C-9.75329021 31.51687595 -11.52627461 30.25995078 -13 27.3125 C-13.55931351 23.21086757 -13.18659711 21.60653181 -10.9375 18.0625 C-8.02618822 14.92976451 -5.22701393 14.04129551 -1 13.3125 C1.33215844 13.23846322 3.66860788 13.21734114 6 13.3125 C5.34 11.0025 4.68 8.6925 4 6.3125 C-0.62 6.3125 -5.24 6.3125 -10 6.3125 C-10.33 4.9925 -10.66 3.6725 -11 2.3125 C-7.20947276 0.56356188 -4.16690915 0.01594481 0 0 Z " fill="#CA3031" transform="translate(149,170.6875)"/>
<path d="M0 0 C2 1 2 1 2.625 2.625 C3.78230385 9.95459105 2.5676063 15.56676924 -1 22 C-5.09695626 27.51545435 -9.80499731 31.96404272 -15.25 36.125 C-20.29888324 40.04928775 -23.90695035 43.77829376 -25.5390625 50.08203125 C-26.17129045 56.57992965 -22.9776567 61.1057415 -19.53125 66.3984375 C-18 69 -18 69 -18 72 C-31.97041498 58.89671423 -31.97041498 58.89671423 -33.6875 49.0625 C-33.30493686 43.44428696 -29.86783726 39.81258244 -26 36 C-22.54752106 33.05660824 -18.93475547 30.32302571 -15.32421875 27.578125 C-9.03434421 22.7687387 -3.0279492 17.68898752 -1.26953125 9.66796875 C-1.11871094 8.51941406 -0.96789062 7.37085938 -0.8125 6.1875 C-0.65394531 5.02605469 -0.49539062 3.86460938 -0.33203125 2.66796875 C-0.22246094 1.78753906 -0.11289063 0.90710937 0 0 Z " fill="#CA3031" transform="translate(127,12)"/>
<path d="M0 0 C2.31 0 4.62 0 7 0 C8.01444466 3.03703868 9.00890046 6.08027077 10 9.125 C10.28617188 9.9809375 10.57234375 10.836875 10.8671875 11.71875 C12.3417232 16.28278909 13.38258954 20.13792456 13 25 C13.66 25 14.32 25 15 25 C15.10957031 24.45214844 15.21914062 23.90429688 15.33203125 23.33984375 C16.88802083 15.55989583 18.44401042 7.77994792 20 0 C22.31 0 24.62 0 27 0 C26.61355884 7.34238203 25.06120835 13.62896715 22.5 20.5 C22.17902344 21.39203125 21.85804687 22.2840625 21.52734375 23.203125 C19.2395261 29.5209478 19.2395261 29.5209478 18 32 C15.03 32 12.06 32 9 32 C7.71281587 27.92657953 6.4312261 23.85145429 5.15478516 19.7746582 C4.7197955 18.38810838 4.28328237 17.00203555 3.84521484 15.61645508 C3.2157086 13.62444608 2.5917061 11.63078441 1.96875 9.63671875 C1.40317383 7.83787231 1.40317383 7.83787231 0.82617188 6.00268555 C0 3 0 3 0 0 Z " fill="#CA3233" transform="translate(106,171)"/>
<path d="M0 0 C2.31 0 4.62 0 7 0 C7.07613738 6.45947714 7.12863649 12.9188383 7.16479492 19.37866211 C7.17987052 21.57564621 7.20033426 23.77260026 7.22631836 25.96948242 C7.26275502 29.12947 7.27973884 32.28905924 7.29296875 35.44921875 C7.30845261 36.42960617 7.32393646 37.40999359 7.33988953 38.42008972 C7.34201449 47.05317068 7.34201449 47.05317068 4 51 C0.8125 53.3125 0.8125 53.3125 -2 55 C-3.32 54.34 -4.64 53.68 -6 53 C-4.98333945 50.81026957 -4.00596235 49.00714492 -2.45280457 47.14593506 C-0.77217373 44.66347821 -0.60928137 43.38083331 -0.56762695 40.41503906 C-0.54783279 39.51440735 -0.52803864 38.61377563 -0.50764465 37.68585205 C-0.49805977 36.24033966 -0.49805977 36.24033966 -0.48828125 34.765625 C-0.47033005 33.77246277 -0.45237885 32.77930054 -0.43388367 31.75604248 C-0.37974994 28.58740469 -0.34587472 25.41891782 -0.3125 22.25 C-0.27932968 20.10023941 -0.24484029 17.95049873 -0.20898438 15.80078125 C-0.1240219 10.53398949 -0.05568499 5.26717827 0 0 Z " fill="#CB3435" transform="translate(64,160)"/>
<path d="M0 0 C-3.58752742 1.86551426 -7.27812193 3.42535928 -11 5 C-10.11047722 7.36107189 -10.11047722 7.36107189 -6.9375 8.0625 C-0.33614526 9.94194453 6.53986643 10.15658166 13.35546875 10.16796875 C14.51943932 10.17425293 14.51943932 10.17425293 15.70692444 10.18066406 C18.20050214 10.19037694 20.69390664 10.19046528 23.1875 10.1875 C24.03671021 10.18722809 24.88592041 10.18695618 25.76086426 10.18667603 C35.61117726 10.17213347 45.43456745 10.10859904 55.25 9.1875 C56.01981201 9.11748779 56.78962402 9.04747559 57.58276367 8.9753418 C63.15426853 8.35033124 68.84699625 7.25337823 74 5 C74.66 4.01 75.32 3.02 76 2 C76 3.32 76 4.64 76 6 C51.27944977 19.78646071 11.10128637 18.52233387 -15.625 11.375 C-17.08785534 10.93131114 -18.54851073 10.47956694 -20 10 C-19.734375 7.640625 -19.734375 7.640625 -19 5 C-13.50566362 0.63534026 -6.78686637 -0.1578341 0 0 Z " fill="#3478BB" transform="translate(81,129)"/>
<path d="M0 0 C-0.73605469 0.45890625 -1.47210938 0.9178125 -2.23046875 1.390625 C-3.20628906 2.00421875 -4.18210938 2.6178125 -5.1875 3.25 C-6.63189453 4.15492187 -6.63189453 4.15492187 -8.10546875 5.078125 C-14.4570301 9.17440688 -14.4570301 9.17440688 -19 15 C-19.84000838 19.16644159 -19.83037023 22.57994656 -17.65234375 26.3046875 C-17.10707031 27.04976562 -16.56179687 27.79484375 -16 28.5625 C-13.42768814 32.09866141 -11.99705937 34.57173701 -12.3359375 39.00390625 C-13.69822045 43.09876852 -16.67776675 46.32513983 -20 49 C-20.99 49 -21.98 49 -23 49 C-22.34 48.34 -21.68 47.68 -21 47 C-20.07632059 40.41878423 -21.65420632 37.23728944 -25.58984375 31.98046875 C-28.62486608 27.71798587 -28.59755363 23.03157479 -28 18 C-23.55259414 8.73457112 -14.82100106 4.08890084 -5.85546875 -0.03125 C-3 -1 -3 -1 0 0 Z " fill="#CA3233" transform="translate(141,41)"/>
<path d="M0 0 C0 0.33 0 0.66 0 1 C1.65 1.33 3.3 1.66 5 2 C5.027193 3.58323688 5.04648306 5.16661062 5.0625 6.75 C5.07410156 7.63171875 5.08570313 8.5134375 5.09765625 9.421875 C5.00702489 11.81454301 4.80862343 13.74991741 4 16 C0.1019476 18.292972 -3.5586034 18.47586392 -8 18 C-10.75329021 16.20437595 -12.52627461 14.94745078 -14 12 C-14.40417552 9.03604618 -14.56382171 6.91095074 -12.953125 4.30859375 C-8.53395376 -1.08539467 -6.70455926 -1.11742654 0 0 Z " fill="#CB3334" transform="translate(150,186)"/>
<path d="M0 0 C0 0.33 0 0.66 0 1 C2.97 1.495 2.97 1.495 6 2 C6.027193 3.58323688 6.04648306 5.16661062 6.0625 6.75 C6.07410156 7.63171875 6.08570312 8.5134375 6.09765625 9.421875 C6.00706876 11.81338465 5.80370774 13.74961834 5 16 C0.8084904 18.54030885 -3.25558201 18.45184933 -8 18 C-11.31327526 15.45132672 -12.8095103 13.39692449 -13.375 9.25 C-12.8528401 4.7246142 -11.15770622 3.2328897 -8 0 C-5.13822943 -1.43088528 -3.06624227 -0.59991697 0 0 Z " fill="#CB3334" transform="translate(89,186)"/>
<path d="M0 0 C-2.46301423 2.46301423 -4.27360036 2.76766521 -7.625 3.625 C-8.62789062 3.88539062 -9.63078125 4.14578125 -10.6640625 4.4140625 C-11.82035156 4.70410156 -11.82035156 4.70410156 -13 5 C-13 5.99 -13 6.98 -13 8 C-8.02361444 8.05025871 -3.04738359 8.08611551 1.92919922 8.10986328 C3.61444682 8.11978592 5.29967786 8.13332834 6.98486328 8.15087891 C17.03815052 8.25279058 26.74273216 7.90115555 36.69726562 6.43310547 C39.52153782 6.06274334 42.15878977 5.91433198 45 6 C41.80174938 8.75897283 39.04077789 9.71759225 34.9375 10.625 C33.89464844 10.86476563 32.85179687 11.10453125 31.77734375 11.3515625 C23.12166385 12.8374393 14.45694915 13.19494435 5.6875 13.1875 C4.69073242 13.18669434 3.69396484 13.18588867 2.66699219 13.18505859 C-16.96567401 13.02288399 -16.96567401 13.02288399 -23 9 C-22 6 -22 6 -19.453125 4.6484375 C-18.39609375 4.22820312 -17.3390625 3.80796875 -16.25 3.375 C-15.20328125 2.94960937 -14.1565625 2.52421875 -13.078125 2.0859375 C-8.61487313 0.51133849 -4.72419916 -0.13497712 0 0 Z " fill="#3C7CBD" transform="translate(95,87)"/>
<path d="M0 0 C0.33 1.32 0.66 2.64 1 4 C5.51659796 4.02496844 10.03315791 4.04298537 14.54980469 4.05493164 C16.08203838 4.05991896 17.61426742 4.06671122 19.14648438 4.07543945 C30.68509287 4.16388741 30.68509287 4.16388741 42.15820312 3.02734375 C44 3 44 3 46.625 4.9375 C47.305625 5.9584375 47.305625 5.9584375 48 7 C32.75518737 11.61611375 13.15090036 14.13921241 -2 8 C-2.99 7.34 -3.98 6.68 -5 6 C-4.75 4.125 -4.75 4.125 -4 2 C-1.9375 0.75 -1.9375 0.75 0 0 Z " fill="#3C7CBD" transform="translate(88,104)"/>
<path d="M0 0 C2 1 2 1 3 3 C7.84429928 4.18482862 12.67105424 4.1508018 17.625 4.125 C18.75035156 4.13080078 18.75035156 4.13080078 19.8984375 4.13671875 C23.45200998 4.13041809 26.57685879 3.88276091 30 3 C35.2728828 2.60941609 38.43541004 3.3280449 43 6 C37.00962573 11.99037427 25.79255712 11.34036022 17.875 11.4375 C16.95750977 11.4595752 16.04001953 11.48165039 15.09472656 11.50439453 C8.68909405 11.48490013 2.46111387 10.58819145 -3 7 C-3.77392578 4.86108398 -3.77392578 4.86108398 -4 3 C-2.68 2.01 -1.36 1.02 0 0 Z " fill="#3276BA" transform="translate(91,119)"/>
<path d="M0 0 C0 0.99 0 1.98 0 3 C-9.26706059 11.93998786 -25.41501936 12.15377851 -37.46484375 12.16796875 C-38.4569838 12.17129715 -39.44912384 12.17462555 -40.47132874 12.17805481 C-42.56152892 12.18309852 -44.65173709 12.18546393 -46.74194336 12.18530273 C-49.92380117 12.18749058 -53.10531271 12.20567743 -56.28710938 12.22460938 C-58.32551966 12.22754364 -60.36393157 12.22952821 -62.40234375 12.23046875 C-63.34528793 12.23765427 -64.28823212 12.24483978 -65.25975037 12.25224304 C-70.84999155 12.23308517 -75.63360394 11.58467858 -81 10 C-81 9.67 -81 9.34 -81 9 C-79.14205811 9.01571045 -79.14205811 9.01571045 -77.24658203 9.03173828 C-72.56106568 9.06849845 -67.87556146 9.09109979 -63.18994141 9.10986328 C-61.17885175 9.11979538 -59.16777603 9.13334559 -57.15673828 9.15087891 C-27.60074765 9.453885 -27.60074765 9.453885 0 0 Z " fill="#4080BF" transform="translate(163,138)"/>
<path d="M0 0 C4.9332137 0.33445517 7.43858156 1.03483611 11 4.5 C13.05217612 7.84428701 13.31799253 9.38823325 12.6875 13.25 C9.50870444 19.88400813 3.54947201 23.41483736 -2.91015625 26.484375 C-5.3125 27.25 -5.3125 27.25 -8.3125 26.25 C-7.72082031 25.88648437 -7.12914062 25.52296875 -6.51953125 25.1484375 C-1.56865065 21.99861134 2.56934481 19.27928256 5.6875 14.25 C6.33304837 11.223992 6.15471886 9.41670564 5.6875 6.25 C3.3544957 3.35707467 1.6175506 3.23717594 -2.0625 2.5625 C-3.135 2.459375 -4.2075 2.35625 -5.3125 2.25 C-3.3125 0.25 -3.3125 0.25 0 0 Z " fill="#3275B9" transform="translate(151.3125,85.75)"/>
<path d="M0 0 C0 2.97 0 5.94 0 9 C-3.99590851 10.99795425 -5.67839666 11.3757916 -10 11 C-12 9 -12 9 -12.4375 6.0625 C-12 3 -12 3 -9.9375 1.125 C-6.45781172 -0.20764658 -3.69628969 -0.21742881 0 0 Z " fill="#FCF6F6" transform="translate(155,188)"/>
<path d="M0 0 C0.48541424 7.40256709 0.48541424 7.40256709 -1.625 10 C-4.61641148 11.25954167 -6.78432784 11.34952958 -10 11 C-12 9 -12 9 -12.4375 6.0625 C-12 3 -12 3 -9.9375 1.125 C-6.45781172 -0.20764658 -3.69628969 -0.21742881 0 0 Z " fill="#FCF6F6" transform="translate(95,188)"/>
<path d="M0 0 C5.61 0 11.22 0 17 0 C16.67 0.99 16.34 1.98 16 3 C16.99 3.33 17.98 3.66 19 4 C10.42 4 1.84 4 -7 4 C-7 3.67 -7 3.34 -7 3 C-5.5459375 2.814375 -5.5459375 2.814375 -4.0625 2.625 C-2.5465625 2.315625 -2.5465625 2.315625 -1 2 C-0.67 1.34 -0.34 0.68 0 0 Z " fill="#437FBE" transform="translate(97,140)"/>
<path d="M0 0 C2.58361518 -0.05407567 5.16609255 -0.093707 7.75 -0.125 C8.84441406 -0.15013672 8.84441406 -0.15013672 9.9609375 -0.17578125 C13.8044624 -0.21072239 16.74606772 -0.17499684 20 2 C15.5621439 3.11165232 11.23043614 3.11527763 6.6875 3.0625 C5.94693359 3.05798828 5.20636719 3.05347656 4.44335938 3.04882812 C2.62887101 3.03712175 0.81442466 3.01918898 -1 3 C-0.67 2.01 -0.34 1.02 0 0 Z " fill="#2770B7" transform="translate(114,140)"/>
<path d="M0 0 C0 0.99 0 1.98 0 3 C-3.72262318 6.19609831 -8.07750013 8.53851564 -13 9 C-13.33 8.01 -13.66 7.02 -14 6 C-13.07316406 5.65066406 -12.14632812 5.30132812 -11.19140625 4.94140625 C-9.99386719 4.48636719 -8.79632813 4.03132812 -7.5625 3.5625 C-6.36753906 3.11003906 -5.17257813 2.65757812 -3.94140625 2.19140625 C-1.15554277 1.2855174 -1.15554277 1.2855174 0 0 Z " fill="#3678BB" transform="translate(163,138)"/>
<path d="M0 0 C3.96 0 7.92 0 12 0 C11.67 0.99 11.34 1.98 11 3 C7.37 3 3.74 3 0 3 C0 2.01 0 1.02 0 0 Z " fill="#246EB6" transform="translate(85,140)"/>
<path d="M0 0 C-2.41276856 2.41276856 -4.17218155 2.8306806 -7.4375 3.75 C-8.88962891 4.17539063 -8.88962891 4.17539063 -10.37109375 4.609375 C-13 5 -13 5 -16 3 C-14.27318563 2.49193553 -12.54342021 1.99389533 -10.8125 1.5 C-9.84957031 1.2215625 -8.88664062 0.943125 -7.89453125 0.65625 C-5.14654124 0.03322392 -2.80401584 -0.12302812 0 0 Z " fill="#588FC6" transform="translate(95,87)"/>
<path d="M0 0 C3.5625 0.25 3.5625 0.25 6.5625 2.25 C2.30683453 3.41063604 -1.1210078 3.01173392 -5.4375 2.25 C-3.4375 0.25 -3.4375 0.25 0 0 Z " fill="#3F7EBD" transform="translate(151.4375,85.75)"/>
<path d="M0 0 C0.33 1.32 0.66 2.64 1 4 C-5.625 7.125 -5.625 7.125 -9 6 C-6.03 4.02 -3.06 2.04 0 0 Z " fill="#3A7BBC" transform="translate(152,106)"/>
</svg>
