<?xml version="1.0" encoding="UTF-8"?>
<svg version="1.1" xmlns="http://www.w3.org/2000/svg" width="225" height="225">
<path d="M0 0 C74.25 0 148.5 0 225 0 C225 74.25 225 148.5 225 225 C150.75 225 76.5 225 0 225 C0 150.75 0 76.5 0 0 Z " fill="#FEFEFE" transform="translate(0,0)"/>
<path d="M0 0 C1.69364125 1.6452515 3.35353917 3.30843065 5 5 C6.2375 6.2684375 6.2375 6.2684375 7.5 7.5625 C13.1837416 14.61755703 15.86716978 23.13316107 15.41015625 32.12109375 C14.19528715 40.64831785 10.56865798 45.82659195 4.70703125 51.94921875 C2.55487724 54.53475847 2 56.65113074 2 60 C1.67 60 1.34 60 1 60 C0.814375 58.989375 0.62875 57.97875 0.4375 56.9375 C-0.73068305 52.75221107 -3.13019501 50.71394461 -6.25 47.828125 C-11.67361418 42.16238519 -13.26450718 35.03187558 -13.15234375 27.4296875 C-12.43921632 16.05621923 -7.70181894 8.13450539 0 0 Z " fill="#59AA51" transform="translate(13,82)"/>
<path d="M0 0 C2.75059381 -0.08107646 5.49879021 -0.14052813 8.25 -0.1875 C9.02730469 -0.21263672 9.80460938 -0.23777344 10.60546875 -0.26367188 C14.09686281 -0.30843334 16.39121343 -0.31803688 19.52734375 1.3203125 C21 3 21 3 21.3125 6.0625 C21 9 21 9 20 11 C19.34 11 18.68 11 18 11 C18 11.66 18 12.32 18 13 C18.804375 13.20625 19.60875 13.4125 20.4375 13.625 C23 15 23 15 24.125 17.75 C23.94517268 22.42551034 22.31752001 23.75787817 19 27 C15.23699626 28.25433458 11.72789091 28.10695422 7.8125 28.0625 C7.06291016 28.05798828 6.31332031 28.05347656 5.54101562 28.04882812 C3.69397617 28.03706354 1.84697787 28.01912865 0 28 C0 27.34 0 26.68 0 26 C0.99 25.67 1.98 25.34 3 25 C3 17.74 3 10.48 3 3 C2.01 2.67 1.02 2.34 0 2 C0 1.34 0 0.68 0 0 Z " fill="#8F724F" transform="translate(201,105)"/>
<path d="M0 0 C8.10173175 8.03235043 14.15023548 16.2914814 14.5625 28.125 C14.14625115 36.73122625 11.0673917 43.37069497 5.46484375 49.8203125 C4 51 4 51 1 51 C-0.3580755 40.47070439 -0.11201847 29.90478013 -0.0625 19.3125 C-0.05747491 17.43554807 -0.05291379 15.55859484 -0.04882812 13.68164062 C-0.03790258 9.12106113 -0.02069357 4.56054521 0 0 Z " fill="#4A9D4B" transform="translate(14,83)"/>
<path d="M0 0 C1.26328125 0.02707031 2.5265625 0.05414063 3.828125 0.08203125 C4.79234375 0.11683594 5.7565625 0.15164062 6.75 0.1875 C6.42 1.1775 6.09 2.1675 5.75 3.1875 C5.09 3.1875 4.43 3.1875 3.75 3.1875 C3.70875 4.280625 3.6675 5.37375 3.625 6.5 C2.75 10.1875 2.75 10.1875 -0.125 12.125 C-3.25 13.1875 -3.25 13.1875 -6.25 13.1875 C-5.92 13.8475 -5.59 14.5075 -5.25 15.1875 C-2.99053416 15.54307331 -0.7600223 15.63080506 1.5234375 15.74609375 C4.20755828 16.27820892 5.15011608 16.99025683 6.75 19.1875 C6.61676705 22.38509091 6.32659913 24.42743751 4.375 27 C1.48049951 29.1152119 -1.27786591 29.36805732 -4.75 29.4375 C-5.5234375 29.46328125 -6.296875 29.4890625 -7.09375 29.515625 C-9.25 29.1875 -9.25 29.1875 -11.05078125 27.83984375 C-12.25 26.1875 -12.25 26.1875 -11.9375 23.5 C-11.5971875 22.3553125 -11.5971875 22.3553125 -11.25 21.1875 C-10.26 20.8575 -9.27 20.5275 -8.25 20.1875 C-8.91 18.5375 -9.57 16.8875 -10.25 15.1875 C-9.26 14.8575 -8.27 14.5275 -7.25 14.1875 C-7.25 13.5275 -7.25 12.8675 -7.25 12.1875 C-8.57 11.5275 -9.89 10.8675 -11.25 10.1875 C-11.5 6.875 -11.5 6.875 -11.25 3.1875 C-7.94997267 -0.44253006 -4.69031052 -0.1302864 0 0 Z " fill="#3E2316" transform="translate(135.25,114.8125)"/>
<path d="M0 0 C3.35349327 -0.17576433 6.70578979 -0.28132437 10.0625 -0.375 C11.47692383 -0.45041016 11.47692383 -0.45041016 12.91992188 -0.52734375 C17.97245004 -0.63297152 21.16463105 -0.42810538 25.12109375 2.8984375 C28.39858029 6.12060575 29.16742851 8.22290154 29.25 12.8125 C29.19488345 17.06872223 28.84382293 19.66586277 26 23 C22.11033053 26.50070252 19.23131949 28.13707759 13.98828125 28.09765625 C12.85229492 28.09282227 12.85229492 28.09282227 11.69335938 28.08789062 C10.90767578 28.07951172 10.12199219 28.07113281 9.3125 28.0625 C8.51521484 28.05798828 7.71792969 28.05347656 6.89648438 28.04882812 C4.93095743 28.0370585 2.96546915 28.01912348 1 28 C1 27.34 1 26.68 1 26 C1.99 26 2.98 26 4 26 C4 18.08 4 10.16 4 2 C2.68 2 1.36 2 0 2 C0 1.34 0 0.68 0 0 Z M9 2 C8.97112764 5.81248426 8.95324508 9.6249407 8.9375 13.4375 C8.92912109 14.52611328 8.92074219 15.61472656 8.91210938 16.73632812 C8.90888672 17.77080078 8.90566406 18.80527344 8.90234375 19.87109375 C8.89710693 20.82943115 8.89187012 21.78776855 8.88647461 22.77514648 C8.7494687 24.97285339 8.7494687 24.97285339 10 26 C15.80893019 26.53172375 15.80893019 26.53172375 20.9375 24.125 C24.8251088 20.11958487 24.38520285 16.31479343 24.359375 10.9296875 C24.21326318 7.73690471 24.21326318 7.73690471 21.625 4.8125 C18.34180516 2.54553214 16.79246386 1.8743151 12.875 1.9375 C10.956875 1.9684375 10.956875 1.9684375 9 2 Z " fill="#937756" transform="translate(168,105)"/>
<path d="M0 0 C2.4375 1.5 2.4375 1.5 4 4 C4.93851752 8.73685729 4.65977655 11.9571274 2.0625 16.0625 C-2.04781067 18.66290063 -5.25850015 18.93057474 -10 18 C-12.7463811 16.35217134 -13.63182849 15.1602247 -14.59375 12.12890625 C-15.34633966 8.30082998 -15.33160053 6.56494905 -13.3125 3.125 C-8.74793661 -1.06946366 -6.17152089 -1.54288022 0 0 Z " fill="#493025" transform="translate(160,115)"/>
<path d="M0 0 C2.1640625 0.47265625 2.1640625 0.47265625 5.2890625 2.41015625 C7.57011411 6.13587388 7.63301849 8.15903269 6.859375 12.37890625 C6.1640625 14.47265625 6.1640625 14.47265625 4.1640625 17.03515625 C0.07305428 18.99543102 -3.38306849 19.41141408 -7.8359375 18.47265625 C-10.54788812 16.35601187 -11.53602796 14.90299406 -12.2421875 11.53515625 C-12.53723826 7.64048621 -12.05513226 5.81205459 -9.8984375 2.47265625 C-6.32942403 0.14187194 -4.19306203 -0.27346057 0 0 Z " fill="#3E2318" transform="translate(85.8359375,114.52734375)"/>
<path d="M0 0 C0 0.66 0 1.32 0 2 C0.53625 1.67 1.0725 1.34 1.625 1 C5.86455039 -0.78507385 9.67224372 -0.12201089 14 1 C14.33 0.67 14.66 0.34 15 0 C18.375 -0.3125 18.375 -0.3125 22 0 C24.54547421 2.3715238 24.97695803 3.74561662 25.29296875 7.234375 C25.25816406 8.39453125 25.22335938 9.5546875 25.1875 10.75 C25.16042969 11.92046875 25.13335937 13.0909375 25.10546875 14.296875 C25.07066406 15.18890625 25.03585938 16.0809375 25 17 C25.99 17.33 26.98 17.66 28 18 C24.7 18 21.4 18 18 18 C18.33 17.34 18.66 16.68 19 16 C19.66 16 20.32 16 21 16 C20.67 12.04 20.34 8.08 20 4 C17.69 3.67 15.38 3.34 13 3 C13 7.62 13 12.24 13 17 C13.66 17.33 14.32 17.66 15 18 C12.03 18 9.06 18 6 18 C6.66 17.34 7.32 16.68 8 16 C8.24339551 13.10116917 8.24339551 13.10116917 8.125 9.875 C8.10695313 8.77929688 8.08890625 7.68359375 8.0703125 6.5546875 C8.04710937 5.71164063 8.02390625 4.86859375 8 4 C4.41672247 2.99782936 4.41672247 2.99782936 1 4 C0.94610913 5.95803507 0.90725783 7.91648909 0.875 9.875 C0.84019531 11.51082031 0.84019531 11.51082031 0.8046875 13.1796875 C0.69939466 16.1371051 0.69939466 16.1371051 3 18 C0.03 18 -2.94 18 -6 18 C-5.67 17.34 -5.34 16.68 -5 16 C-4.34 16 -3.68 16 -3 16 C-3 11.71 -3 7.42 -3 3 C-3.99 2.67 -4.98 2.34 -6 2 C-3 0 -3 0 0 0 Z " fill="#493126" transform="translate(43,115)"/>
<path d="M0 0 C0.66 0.66 1.32 1.32 2 2 C2.556875 1.649375 3.11375 1.29875 3.6875 0.9375 C6.58531848 -0.23729128 8.0517025 0.06895868 11 1 C13 3 13 3 13.1953125 6.2578125 C13.17210938 7.53398438 13.14890625 8.81015625 13.125 10.125 C13.10695313 11.40632813 13.08890625 12.68765625 13.0703125 14.0078125 C13.04710938 14.99523437 13.02390625 15.98265625 13 17 C13.99 17.33 14.98 17.66 16 18 C16 18.33 16 18.66 16 19 C13.03 19 10.06 19 7 19 C7 18.34 7 17.68 7 17 C7.99 17 8.98 17 10 17 C9.67 12.71 9.34 8.42 9 4 C7.02 4 5.04 4 3 4 C1.18884044 5.81115956 1.61800552 8.61278227 1.4375 11.0625 C1.35371094 12.16722656 1.26992187 13.27195312 1.18359375 14.41015625 C1.12300781 15.26480469 1.06242187 16.11945313 1 17 C1.99 17 2.98 17 4 17 C4 17.66 4 18.32 4 19 C0.7 19 -2.6 19 -6 19 C-5.67 18.34 -5.34 17.68 -5 17 C-4.34 17 -3.68 17 -3 17 C-3 12.71 -3 8.42 -3 4 C-3.99 3.67 -4.98 3.34 -6 3 C-3 1 -3 1 0 0 Z " fill="#432A20" transform="translate(103,114)"/>
<path d="M0 0 C4.95 0 9.9 0 15 0 C14.67 0.66 14.34 1.32 14 2 C12.02 2 10.04 2 8 2 C8 5.3 8 8.6 8 12 C10.31 12 12.62 12 15 12 C15 12.66 15 13.32 15 14 C12.69 14 10.38 14 8 14 C8.33 17.63 8.66 21.26 9 25 C11.475 25.99 11.475 25.99 14 27 C14 27.33 14 27.66 14 28 C9.38 28 4.76 28 0 28 C0 27.34 0 26.68 0 26 C0.99 25.67 1.98 25.34 3 25 C3 17.74 3 10.48 3 3 C2.01 2.67 1.02 2.34 0 2 C0 1.34 0 0.68 0 0 Z " fill="#8B6D48" transform="translate(201,105)"/>
<path d="M0 0 C3.17452404 1.11108341 4.02418231 1.84569 5.5 4.875 C6.02801158 8.46258551 6.17382692 11.70466903 4.3125 14.9375 C2.5 15.875 2.5 15.875 0 15.8125 C-3.1801134 14.61995748 -4.03520321 13.95878272 -5.5 10.875 C-5.89538233 7.83109767 -6.09487326 4.89602305 -5.5 1.875 C-2.5 -0.125 -2.5 -0.125 0 0 Z " fill="#F5F4F3" transform="translate(83.5,116.125)"/>
<path d="M0 0 C3.69648494 0.49952499 5.70900397 0.99389538 8 4 C8.36328125 6.41015625 8.36328125 6.41015625 8.3125 9.0625 C8.30863281 9.94035156 8.30476562 10.81820312 8.30078125 11.72265625 C8 14 8 14 6 16 C3.0625 15.9375 3.0625 15.9375 0 15 C-2.32630803 12.28597396 -2.94123261 10.47993368 -3.375 6.9375 C-2.9633342 3.71278459 -2.1773029 2.35874481 0 0 Z " fill="#F5F4F4" transform="translate(152,116)"/>
<path d="M0 0 C6.22222222 -0.35897436 6.22222222 -0.35897436 9.4375 1.125 C11 3 11 3 11.4375 6 C11 9 11 9 9.9375 10.875 C6.96762823 12.59944167 4.35341985 12.24840147 1 12 C0 11 0 11 -0.09765625 8.49609375 C-0.08605469 7.48675781 -0.07445312 6.47742188 -0.0625 5.4375 C-0.05347656 4.42558594 -0.04445312 3.41367188 -0.03515625 2.37109375 C-0.02355469 1.58863281 -0.01195312 0.80617188 0 0 Z " fill="#FBFBFA" transform="translate(209,119)"/>
<path d="M0 0 C0.66 0.66 1.32 1.32 2 2 C1.79953373 5.14063829 1.54877905 7.27660943 -0.375 9.8125 C-3.26950049 11.9277119 -6.02786591 12.18055732 -9.5 12.25 C-10.66015625 12.28867188 -10.66015625 12.28867188 -11.84375 12.328125 C-14 12 -14 12 -15.80078125 10.65234375 C-17 9 -17 9 -16.6875 6.3125 C-16.460625 5.549375 -16.23375 4.78625 -16 4 C-15.01 4 -14.02 4 -13 4 C-13 5.32 -13 6.64 -13 8 C-10.59454362 9.20272819 -9.05003047 9.10071472 -6.375 9.0625 C-5.55773437 9.05347656 -4.74046875 9.04445312 -3.8984375 9.03515625 C-3.27195313 9.02355469 -2.64546875 9.01195312 -2 9 C-2 7.02 -2 5.04 -2 3 C-2.66 3 -3.32 3 -4 3 C-4 2.34 -4 1.68 -4 1 C-5.32 0.67 -6.64 0.34 -8 0 C-4.96083486 -0.97687451 -3.01586454 -1.105817 0 0 Z " fill="#4E372D" transform="translate(140,132)"/>
<path d="M0 0 C0.66 0.33 1.32 0.66 2 1 C2 2.98 2 4.96 2 7 C-1.01868434 8.50934217 -3.67297229 8.17510672 -7 8 C-7.99 7.34 -8.98 6.68 -10 6 C-9.625 3.5625 -9.625 3.5625 -9 1 C-6.01405576 -0.49297212 -3.29146376 -0.11755228 0 0 Z " fill="#F4F3F3" transform="translate(136,134)"/>
<path d="M0 0 C0 0.66 0 1.32 0 2 C0.53625 1.67 1.0725 1.34 1.625 1 C4.5391061 -0.22699204 6.86867708 -0.14233286 10 0 C7.01353231 1.99097846 4.40312738 2.94124926 1 4 C0.94610913 5.95803507 0.90725783 7.91648909 0.875 9.875 C0.84019531 11.51082031 0.84019531 11.51082031 0.8046875 13.1796875 C0.69939466 16.1371051 0.69939466 16.1371051 3 18 C0.03 18 -2.94 18 -6 18 C-5.67 17.34 -5.34 16.68 -5 16 C-4.34 16 -3.68 16 -3 16 C-3 11.71 -3 7.42 -3 3 C-3.99 2.67 -4.98 2.34 -6 2 C-3 0 -3 0 0 0 Z " fill="#371B0D" transform="translate(43,115)"/>
<path d="M0 0 C5.42857143 -0.36190476 5.42857143 -0.36190476 7.875 1.1875 C9.38332602 3.61758081 9.36023622 5.19015752 9 8 C7 10 7 10 3.375 10.125 C2.26125 10.08375 1.1475 10.0425 0 10 C0 6.7 0 3.4 0 0 Z " fill="#FBFAF9" transform="translate(209,107)"/>
<path d="M0 0 C4.55555556 0.55555556 4.55555556 0.55555556 6 2 C6.04092937 4.33297433 6.04241723 6.66705225 6 9 C3.6875 9.6875 3.6875 9.6875 1 10 C-0.8125 8.875 -0.8125 8.875 -2 7 C-2.3125 4.4375 -2.3125 4.4375 -2 2 C-1.34 1.34 -0.68 0.68 0 0 Z " fill="#F2F1F1" transform="translate(129,116)"/>
<path d="M0 0 C0.66 0.66 1.32 1.32 2 2 C1.01 2.495 1.01 2.495 0 3 C-0.05447047 4.41623216 -0.09300508 5.83308191 -0.125 7.25 C-0.15980469 8.43335937 -0.15980469 8.43335937 -0.1953125 9.640625 C0.0171622 12.20731941 0.71345895 13.7916067 2 16 C1.34 16 0.68 16 0 16 C-0.33 16.66 -0.66 17.32 -1 18 C-3.84304987 15.15695013 -5.32780773 12.99733936 -5.5625 9 C-5.40798213 5.45280713 -4.95330237 4.94396284 -2.5 2 C-1.675 1.34 -0.85 0.68 0 0 Z " fill="#452B21" transform="translate(79,115)"/>
<path d="M0 0 C0.33 0 0.66 0 1 0 C1 4.29 1 8.58 1 13 C1.99 13.33 2.98 13.66 4 14 C4 14.33 4 14.66 4 15 C1.03 15 -1.94 15 -5 15 C-5 14.34 -5 13.68 -5 13 C-4.01 13 -3.02 13 -2 13 C-2.02320312 12.22914063 -2.04640625 11.45828125 -2.0703125 10.6640625 C-2.08835937 9.66117188 -2.10640625 8.65828125 -2.125 7.625 C-2.14820312 6.62726563 -2.17140625 5.62953125 -2.1953125 4.6015625 C-2 2 -2 2 0 0 Z " fill="#3A1F11" transform="translate(115,118)"/>
<path d="M0 0 C0.99 0 1.98 0 3 0 C3.04898438 0.84304687 3.09796875 1.68609375 3.1484375 2.5546875 C3.22320312 3.65039062 3.29796875 4.74609375 3.375 5.875 C3.44460937 6.96554688 3.51421875 8.05609375 3.5859375 9.1796875 C3.73253491 12.13046474 3.73253491 12.13046474 6 14 C3.03 14 0.06 14 -3 14 C-2.34 13.34 -1.68 12.68 -1 12 C-0.53603307 9.10776497 -0.53603307 9.10776497 -0.375 5.875 C-0.30023438 4.77929688 -0.22546875 3.68359375 -0.1484375 2.5546875 C-0.09945312 1.71164063 -0.05046875 0.86859375 0 0 Z " fill="#381E10" transform="translate(52,119)"/>
<path d="M0 0 C0.66 0.33 1.32 0.66 2 1 C2 2.32 2 3.64 2 5 C6.455 5.99 6.455 5.99 11 7 C10.67 7.66 10.34 8.32 10 9 C8.56344146 9.08131463 7.1255517 9.13933559 5.6875 9.1875 C4.48673828 9.23970703 4.48673828 9.23970703 3.26171875 9.29296875 C1 9 1 9 -0.80859375 7.65234375 C-2 6 -2 6 -1.75 3.375 C-1 1 -1 1 0 0 Z " fill="#3D2117" transform="translate(125,135)"/>
<path d="M0 0 C0.33 0 0.66 0 1 0 C1.268125 1.258125 1.53625 2.51625 1.8125 3.8125 C2.62037502 7.0157527 3.1881664 9.05334597 6 11 C8.09989652 12.17574711 8.09989652 12.17574711 10 13 C2.86821705 13.4754522 2.86821705 13.4754522 -0.625 11.5625 C-2.55723784 7.9615113 -1.63938551 5.65359892 -0.578125 1.828125 C-0.38734375 1.22484375 -0.1965625 0.6215625 0 0 Z " fill="#41251A" transform="translate(148,120)"/>
<path d="M0 0 C-1.39635618 3.37452744 -2.8606353 5.11638118 -6 7 C-8.99814077 7.97439575 -10.36840892 8.25605044 -13.3125 7.0625 C-13.869375 6.711875 -14.42625 6.36125 -15 6 C-13.783125 5.7525 -12.56625 5.505 -11.3125 5.25 C-7.1361272 4.22993018 -3.87024857 0 0 0 Z " fill="#8E704C" transform="translate(195,125)"/>
<path d="M0 0 C0 0.99 0 1.98 0 3 C-0.66 3 -1.32 3 -2 3 C-2 7.29 -2 11.58 -2 16 C-2.33 16 -2.66 16 -3 16 C-3.02578125 15.22914063 -3.0515625 14.45828125 -3.078125 13.6640625 C-3.13484375 12.66117188 -3.1915625 11.65828125 -3.25 10.625 C-3.29640625 9.62726563 -3.3428125 8.62953125 -3.390625 7.6015625 C-3.72160885 4.8473523 -3.72160885 4.8473523 -6.046875 3.6484375 C-6.69140625 3.43445313 -7.3359375 3.22046875 -8 3 C-8 2.34 -8 1.68 -8 1 C-6.865625 1.020625 -5.73125 1.04125 -4.5625 1.0625 C-1.18424326 1.41577477 -1.18424326 1.41577477 0 0 Z " fill="#64514A" transform="translate(58,115)"/>
<path d="M0 0 C0 0.66 0 1.32 0 2 C0.53625 1.67 1.0725 1.34 1.625 1 C4.5391061 -0.22699204 6.86867708 -0.14233286 10 0 C7.26466565 1.82355623 5.67356087 2.51551683 2.5625 3.25 C1.41974609 3.53617187 1.41974609 3.53617187 0.25390625 3.828125 C-2.43405459 4.03309948 -3.72977301 3.38592445 -6 2 C-3 0 -3 0 0 0 Z " fill="#3D2317" transform="translate(43,115)"/>
<path d="M0 0 C0.33 0 0.66 0 1 0 C1.58061435 3.01035918 2.0163346 5.92909596 2 9 C0.5625 11.0625 0.5625 11.0625 -2 12 C-4.72061341 12.21764907 -7.25984221 12.13700789 -10 12 C-10 11.34 -10 10.68 -10 10 C-8.329375 10.061875 -8.329375 10.061875 -6.625 10.125 C-2.95633975 10.41121859 -2.95633975 10.41121859 -1 8 C-0.54188325 6.02764667 -0.54188325 6.02764667 -0.375 3.875 C-0.25125 2.59625 -0.1275 1.3175 0 0 Z " fill="#381A0E" transform="translate(89,121)"/>
<path d="M0 0 C4.29 0 8.58 0 13 0 C12.67 0.99 12.34 1.98 12 3 C10.68 3 9.36 3 8 3 C8 3.66 8 4.32 8 5 C7.34 5 6.68 5 6 5 C5.34 4.01 4.68 3.02 4 2 C2.68 1.34 1.36 0.68 0 0 Z " fill="#371A0F" transform="translate(129,115)"/>
<path d="M0 0 C2.375 0.3125 2.375 0.3125 5 1 C5.66 1.99 6.32 2.98 7 4 C6.01 5.485 6.01 5.485 5 7 C4.34 6.67 3.68 6.34 3 6 C3 5.34 3 4.68 3 4 C2.34 4 1.68 4 1 4 C0.67 2.68 0.34 1.36 0 0 Z " fill="#4F392D" transform="translate(109,114)"/>
<path d="M0 0 C0.66 0 1.32 0 2 0 C1.67 2.31 1.34 4.62 1 7 C0.01 7 -0.98 7 -2 7 C-2 5.35 -2 3.7 -2 2 C-1.34 2 -0.68 2 0 2 C0 1.34 0 0.68 0 0 Z " fill="#533C33" transform="translate(137,118)"/>
<path d="M0 0 C0.66 0.33 1.32 0.66 2 1 C1.67 3.97 1.34 6.94 1 10 C0.34 9.67 -0.32 9.34 -1 9 C-0.67 6.03 -0.34 3.06 0 0 Z " fill="#50392F" transform="translate(91,119)"/>
<path d="M0 0 C1.65 0 3.3 0 5 0 C5.66 1.32 6.32 2.64 7 4 C6.34 4 5.68 4 5 4 C4.67 4.66 4.34 5.32 4 6 C0 1.125 0 1.125 0 0 Z " fill="#4B3429" transform="translate(74,127)"/>
<path d="M0 0 C-0.33 0.66 -0.66 1.32 -1 2 C-3.97 2 -6.94 2 -10 2 C-10 1.34 -10 0.68 -10 0 C-6.7169902 -1.6415049 -3.57454967 -0.51888624 0 0 Z " fill="#44291E" transform="translate(136,142)"/>
<path d="M0 0 C0.33 0.99 0.66 1.98 1 3 C1.66 3.33 2.32 3.66 3 4 C2.34 6.31 1.68 8.62 1 11 C0.67 11 0.34 11 0 11 C-0.19406478 9.35492782 -0.38007935 7.70890406 -0.5625 6.0625 C-0.66691406 5.14597656 -0.77132813 4.22945312 -0.87890625 3.28515625 C-0.91886719 2.53105469 -0.95882813 1.77695313 -1 1 C-0.67 0.67 -0.34 0.34 0 0 Z " fill="#9DA280" transform="translate(14,131)"/>
<path d="M0 0 C2 4 2 4 2 8 C0.02 8.99 0.02 8.99 -2 10 C-1.34 6.7 -0.68 3.4 0 0 Z " fill="#584138" transform="translate(160,123)"/>
</svg>
