<?xml version="1.0" encoding="UTF-8"?>
<svg version="1.1" xmlns="http://www.w3.org/2000/svg" width="225" height="225">
<path d="M0 0 C74.25 0 148.5 0 225 0 C225 74.25 225 148.5 225 225 C150.75 225 76.5 225 0 225 C0 150.75 0 76.5 0 0 Z " fill="#F7F9F9" transform="translate(0,0)"/>
<path d="M0 0 C6.50838813 2.13560287 12.88177001 4.54232165 19.25 7.0625 C20.44625 7.50271484 21.6425 7.94292969 22.875 8.39648438 C31.37068242 11.8130173 31.37068242 11.8130173 33.20507812 15.27294922 C33.7068395 17.55818529 33.90126968 19.66791226 34 22 C34.495 23.485 34.495 23.485 35 25 C34.10375977 26.99291992 34.10375977 26.99291992 32.69140625 29.23046875 C32.19189453 30.03291016 31.69238281 30.83535156 31.17773438 31.66210938 C30.64470703 32.49548828 30.11167969 33.32886719 29.5625 34.1875 C29.03333984 35.03248047 28.50417969 35.87746094 27.95898438 36.74804688 C26.64835944 38.83796231 25.32848806 40.9214111 24 43 C26.97955948 42.9437819 29.20206143 42.88741085 32 42 C33.86228481 39.62816495 35.05814386 37.76068215 36.375 35.125 C40.0873233 28.52421784 40.0873233 28.52421784 43.65234375 26.4765625 C46.10535993 25.8065757 48.49260014 25.39841241 51 25 C51.8516272 24.41871338 51.8516272 24.41871338 52.72045898 23.82568359 C56.26503505 22.54178553 58.33856275 23.97008399 61.734375 25.4296875 C62.37240051 25.69886993 63.01042603 25.96805237 63.66778564 26.24539185 C65.70172215 27.10746116 67.72560157 27.99079656 69.75 28.875 C71.1282983 29.46366509 72.50719886 30.05092215 73.88671875 30.63671875 C77.26495057 32.07488089 80.63449764 33.53225649 84 35 C84 35.99 84 36.98 84 38 C75.02182115 42.29449511 65.96711416 46.32824878 56.77905273 50.15380859 C52.56814058 51.90967386 48.38886383 53.70338465 44.25 55.625 C37.61567632 58.69586389 30.80235026 61.32863168 24 64 C24.495 67.465 24.495 67.465 25 71 C37.96113312 65.63433848 37.96113312 65.63433848 50.75 59.875 C55.88683196 57.46303575 61.10500963 55.32534526 66.38867188 53.26269531 C71.84458132 51.11382775 77.11355464 48.66133544 82.390625 46.1015625 C85 45 85 45 88 45 C88.33 47.31 88.66 49.62 89 52 C91.475 51.505 91.475 51.505 94 51 C94.04125 50.401875 94.0825 49.80375 94.125 49.1875 C95 47 95 47 97.6875 45.1875 C104.28607174 42.82197428 109.95041977 46.06578014 116 48.75 C116.88196045 49.13470459 117.7639209 49.51940918 118.67260742 49.91577148 C120.65442827 50.7803423 122.63507032 51.64761851 124.61474609 52.51708984 C128.42214497 54.18492056 132.23568593 55.83815236 136.05078125 57.48828125 C136.7346994 57.78413116 137.41861755 58.07998108 138.1232605 58.38479614 C139.50103141 58.98078824 140.87880849 59.57676607 142.2565918 60.17272949 C145.56384415 61.60406558 148.8698727 63.03821971 152.17578125 64.47265625 C153.29895752 64.96000244 154.42213379 65.44734863 155.5793457 65.94946289 C156.37816162 66.29614014 157.17697754 66.64281738 158 67 C154.89181513 70.73266036 151.85343406 74.24311539 148.125 77.375 C145.97690314 79.44755938 145.09411588 80.47944756 144.55859375 83.44140625 C144.56208415 85.67177223 144.68479355 87.79355487 145 90 C142.36 90.33 139.72 90.66 137 91 C136.67 93.64 136.34 96.28 136 99 C132.7 99 129.4 99 126 99 C126 101.97 126 104.94 126 108 C124.69482422 108.00056396 123.38964844 108.00112793 122.04492188 108.00170898 C115.67658081 108.72919292 112.52130155 112.47730924 108.28125 116.97265625 C107.49729858 117.77029892 106.71334717 118.56794159 105.90563965 119.38975525 C103.41751464 121.92908206 100.9585173 124.49452816 98.5 127.0625 C96.00699296 129.62768818 93.50842823 132.18735167 91.00866699 134.74595642 C89.45756369 136.33779721 87.91161076 137.93467514 86.37121582 139.53688049 C85.33378235 140.61315956 85.33378235 140.61315956 84.27539062 141.71118164 C83.66522095 142.34770157 83.05505127 142.9842215 82.4263916 143.64002991 C81 145 81 145 80 145 C80.6998638 136.90775173 81.8461348 128.90386994 83.0625 120.875 C83.24876953 119.63234375 83.43503906 118.3896875 83.62695312 117.109375 C84.08247171 114.0725844 84.54020075 111.03614489 85 108 C84.195625 108.020625 83.39125 108.04125 82.5625 108.0625 C80 108 80 108 79 107 C78.82871582 108.09876465 78.65743164 109.1975293 78.48095703 110.32958984 C77.83824869 114.44874271 77.19272031 118.5674497 76.54638672 122.68603516 C76.26828647 124.46065635 75.99092714 126.23539384 75.71435547 128.01025391 C71.73691742 153.52616517 71.73691742 153.52616517 70 157 C69.9310528 158.37342831 69.91532292 159.75002102 69.9375 161.125 C69.9684375 163.043125 69.9684375 163.043125 70 165 C70.63808594 164.98839844 71.27617187 164.97679687 71.93359375 164.96484375 C72.75988281 164.95582031 73.58617187 164.94679687 74.4375 164.9375 C75.26121094 164.92589844 76.08492187 164.91429687 76.93359375 164.90234375 C79 165 79 165 80 166 C80 168.64 80 171.28 80 174 C33.47 174 -13.06 174 -61 174 C-61 140.01 -61 106.02 -61 71 C-58.36 71 -55.72 71 -53 71 C-53.33 70.01 -53.66 69.02 -54 68 C-53.01 68 -52.02 68 -51 68 C-51 65.69 -51 63.38 -51 61 C-54.96 60.505 -54.96 60.505 -59 60 C-55.64005989 55.89218451 -52.16873847 52.13998372 -48.29296875 48.51171875 C-47.45958984 47.72216797 -46.62621094 46.93261719 -45.76757812 46.11914062 C-44.04295775 44.49374141 -42.30314641 42.8843158 -40.54882812 41.29101562 C-36.29021737 37.2050064 -33.5339438 34.4199044 -32.92578125 28.39453125 C-32.9085135 26.92958037 -32.91743776 25.46272442 -33 24 C-32.41879395 24.06195557 -31.83758789 24.12391113 -31.23876953 24.18774414 C-25.79728516 24.26431689 -22.55937363 23.09996567 -18.50946045 19.37216187 C-15.89716005 16.78776145 -13.37702704 14.1282473 -10.875 11.4375 C-9.8146379 10.33192992 -8.75215307 9.22839165 -7.6875 8.12695312 C-5.10006856 5.44099187 -2.54257273 2.72854485 0 0 Z " fill="#F3F5F5" transform="translate(61,51)"/>
<path d="M0 0 C0.88196045 0.38470459 1.7639209 0.76940918 2.67260742 1.16577148 C4.65442827 2.0303423 6.63507032 2.89761851 8.61474609 3.76708984 C12.42214497 5.43492056 16.23568593 7.08815236 20.05078125 8.73828125 C21.07665848 9.18205612 21.07665848 9.18205612 22.1232605 9.63479614 C23.50103141 10.23078824 24.87880849 10.82676607 26.2565918 11.42272949 C29.56384415 12.85406558 32.8698727 14.28821971 36.17578125 15.72265625 C37.29895752 16.21000244 38.42213379 16.69734863 39.5793457 17.19946289 C40.37816162 17.54614014 41.17697754 17.89281738 42 18.25 C38.89181513 21.98266036 35.85343406 25.49311539 32.125 28.625 C29.97690314 30.69755938 29.09411588 31.72944756 28.55859375 34.69140625 C28.56208415 36.92177223 28.68479355 39.04355487 29 41.25 C26.36 41.58 23.72 41.91 21 42.25 C20.67 44.89 20.34 47.53 20 50.25 C16.7 50.25 13.4 50.25 10 50.25 C10 53.22 10 56.19 10 59.25 C8.69482422 59.25056396 7.38964844 59.25112793 6.04492188 59.25170898 C-0.32341919 59.97919292 -3.47869845 63.72730924 -7.71875 68.22265625 C-8.50270142 69.02029892 -9.28665283 69.81794159 -10.09436035 70.63975525 C-12.58248536 73.17908206 -15.0414827 75.74452816 -17.5 78.3125 C-19.99300704 80.87768818 -22.49157177 83.43735167 -24.99133301 85.99595642 C-26.54243631 87.58779721 -28.08838924 89.18467514 -29.62878418 90.78688049 C-30.32040649 91.50439987 -31.01202881 92.22191925 -31.72460938 92.96118164 C-32.33477905 93.59770157 -32.94494873 94.2342215 -33.5736084 94.89002991 C-35 96.25 -35 96.25 -36 96.25 C-35.3001362 88.15775173 -34.1538652 80.15386994 -32.9375 72.125 C-32.75123047 70.88234375 -32.56496094 69.6396875 -32.37304688 68.359375 C-31.91752829 65.3225844 -31.45979925 62.28614489 -31 59.25 C-31.804375 59.270625 -32.60875 59.29125 -33.4375 59.3125 C-36 59.25 -36 59.25 -37 58.25 C-37.17128418 59.34876465 -37.34256836 60.4475293 -37.51904297 61.57958984 C-38.16175131 65.69874271 -38.80727969 69.8174497 -39.45361328 73.93603516 C-39.73171353 75.71065635 -40.00907286 77.48539384 -40.28564453 79.26025391 C-44.26308258 104.77616517 -44.26308258 104.77616517 -46 108.25 C-46.0689472 109.62342831 -46.08467708 111.00002102 -46.0625 112.375 C-46.041875 113.65375 -46.02125 114.9325 -46 116.25 C-45.36191406 116.23839844 -44.72382813 116.22679687 -44.06640625 116.21484375 C-43.24011719 116.20582031 -42.41382813 116.19679688 -41.5625 116.1875 C-40.73878906 116.17589844 -39.91507812 116.16429687 -39.06640625 116.15234375 C-37 116.25 -37 116.25 -36 117.25 C-36 119.89 -36 122.53 -36 125.25 C-45.24 125.25 -54.48 125.25 -64 125.25 C-58 118.25 -58 118.25 -55 115.25 C-55.1740548 111.49991011 -57.50085323 108.842441 -59.625 105.875 C-60.44383593 104.71824529 -61.26145008 103.56062516 -62.078125 102.40234375 C-62.53767578 101.75249512 -62.99722656 101.10264648 -63.47070312 100.43310547 C-66.48363592 96.13207656 -69.4229338 91.78041494 -72.375 87.4375 C-77.65346242 79.68416188 -77.65346242 79.68416188 -82.953125 71.9453125 C-83.40067139 71.29344971 -83.84821777 70.64158691 -84.30932617 69.9699707 C-85.18003636 68.70761059 -86.05514433 67.44827153 -86.93481445 66.19213867 C-89.48113384 62.54114176 -91.88669854 58.83752065 -94.21484375 55.04296875 C-94.77155762 54.16342529 -95.32827148 53.28388184 -95.90185547 52.37768555 C-96.98320613 50.66663334 -98.03733746 48.93797373 -99.05908203 47.19067383 C-100.57115749 44.83635226 -101.82969911 43.02121077 -104 41.25 C-107.44941683 40.56306431 -110.53673287 40.7222969 -114 41.25 C-112.515 40.755 -112.515 40.755 -111 40.25 C-111 37.28 -111 34.31 -111 31.25 C-108.03 31.25 -105.06 31.25 -102 31.25 C-102 28.28 -102 25.31 -102 22.25 C-99.36 22.25 -96.72 22.25 -94 22.25 C-94.99 24.725 -94.99 24.725 -96 27.25 C-95.27224365 27.37528076 -94.5444873 27.50056152 -93.79467773 27.62963867 C-90.34138 28.22718411 -86.88925655 28.83111336 -83.4375 29.4375 C-82.17800537 29.65873535 -80.91851074 29.8799707 -79.62084961 30.10791016 C-70.41699289 31.75205602 -61.28999905 33.6282552 -52.19897461 35.81323242 C-51.31991455 36.0166626 -50.44085449 36.22009277 -49.53515625 36.4296875 C-48.775979 36.61257324 -48.01680176 36.79545898 -47.23461914 36.98388672 C-42.29610821 37.57199738 -39.09532731 35.79574401 -35 33.25 C-34.34 33.25 -33.68 33.25 -33 33.25 C-32.96261719 32.425 -32.92523438 31.6 -32.88671875 30.75 C-32.35315935 21.37609376 -30.89592866 12.4315413 -29 3.25 C-25.535 2.755 -25.535 2.755 -22 2.25 C-21.95875 1.651875 -21.9175 1.05375 -21.875 0.4375 C-21 -1.75 -21 -1.75 -18.3125 -3.5625 C-11.71392826 -5.92802572 -6.04958023 -2.68421986 0 0 Z " fill="#EFF3F2" transform="translate(177,99.75)"/>
<path d="M0 0 C36.96 0 73.92 0 112 0 C105.22728986 7.90149516 105.22728986 7.90149516 102.6159668 10.64038086 C101.72925545 11.57055275 101.72925545 11.57055275 100.82463074 12.51951599 C98.16092864 15.28252149 95.48355762 18.03180542 92.79711914 20.77270508 C91.38703103 22.21967317 89.98598274 23.67550434 88.59399414 25.13989258 C86.56711405 27.27020194 84.512189 29.36953672 82.44921875 31.46484375 C81.83640549 32.12097153 81.22359222 32.7770993 80.59220886 33.45310974 C77.14579516 36.88490273 75.00045508 38.39298394 70.03442383 38.40844727 C68.68670758 38.30497796 67.33960105 38.1803164 66 38 C66.020625 39.299375 66.04125 40.59875 66.0625 41.9375 C66.08399454 43.29165633 66.07148199 44.64756083 66 46 C65 47 65 47 62.93359375 47.09765625 C59.46679688 47.04882812 59.46679688 47.04882812 56 47 C56.09716309 47.61020996 56.19432617 48.22041992 56.29443359 48.84912109 C56.66572826 52.98244616 56.66853172 55.89946761 54.47363281 59.51269531 C52.30867573 62.03693878 50.03276068 64.33171289 47.625 66.625 C46.46291016 67.84509766 46.46291016 67.84509766 45.27734375 69.08984375 C41.13490597 73.16381148 38.36037485 75.51292262 32.3984375 75.5234375 C30.92786754 75.39133688 29.4581225 75.2321753 28 75 C28.14501953 75.56960449 28.29003906 76.13920898 28.43945312 76.72607422 C29.11595156 81.58236654 28.61664456 84.16624516 25.65625 88.16894531 C22.44414876 91.66751354 18.97786349 94.89455498 15.5 98.125 C14.29330055 99.28148779 13.08884657 100.44032338 11.88671875 101.6015625 C8.94974542 104.42885098 5.98395816 107.22237937 3 110 C5.31 110.66 7.62 111.32 10 112 C10 114.31 10 116.62 10 119 C9.01 119.495 9.01 119.495 8 120 C8 120.66 8 121.32 8 122 C5.36 122 2.72 122 0 122 C0 81.74 0 41.48 0 0 Z " fill="#F9F9F9" transform="translate(0,0)"/>
<path d="M0 0 C0.91652344 0.01160156 1.83304687 0.02320313 2.77734375 0.03515625 C3.69644531 0.04417969 4.61554688 0.05320313 5.5625 0.0625 C6.27277344 0.07410156 6.98304688 0.08570313 7.71484375 0.09765625 C8.20984375 4.55265625 8.20984375 4.55265625 8.71484375 9.09765625 C11.35484375 9.42765625 13.99484375 9.75765625 16.71484375 10.09765625 C16.71484375 37.81765625 16.71484375 65.53765625 16.71484375 94.09765625 C-11.00515625 94.09765625 -38.72515625 94.09765625 -67.28515625 94.09765625 C-67.61515625 91.45765625 -67.94515625 88.81765625 -68.28515625 86.09765625 C-71.25515625 85.76765625 -74.22515625 85.43765625 -77.28515625 85.09765625 C-78.53591756 76.96770772 -78.53591756 76.96770772 -77.37646484 72.94482422 C-76.2388306 68.93434539 -75.50199184 64.99973641 -74.84765625 60.890625 C-74.72205322 60.12518875 -74.5964502 59.3597525 -74.46704102 58.57112122 C-74.06918085 56.1430831 -73.67682064 53.7142008 -73.28515625 51.28515625 C-72.76667868 48.09075835 -72.24571865 44.89677529 -71.72265625 41.703125 C-71.53654785 40.56506912 -71.53654785 40.56506912 -71.34667969 39.40402222 C-70.44518515 33.94164143 -69.42471517 28.51603979 -68.28515625 23.09765625 C-67.95515625 23.09765625 -67.62515625 23.09765625 -67.28515625 23.09765625 C-67.28515625 24.74765625 -67.28515625 26.39765625 -67.28515625 28.09765625 C-65.63515625 28.09765625 -63.98515625 28.09765625 -62.28515625 28.09765625 C-62.02564468 34.88550577 -63.02409588 41.12624624 -64.28515625 47.78515625 C-64.66409723 49.80916196 -65.03923575 51.83388411 -65.41015625 53.859375 C-65.57773438 54.74584717 -65.7453125 55.63231934 -65.91796875 56.5456543 C-66.28594334 59.10312662 -66.31044918 61.51813073 -66.28515625 64.09765625 C-65.85413101 63.64664551 -65.42310577 63.19563477 -64.97901917 62.73095703 C-60.47982294 58.03232185 -55.94899022 53.36593926 -51.39868164 48.71679688 C-49.70582328 46.9787373 -48.02113752 45.23267791 -46.3449707 43.47851562 C-43.93084597 40.95495057 -41.48856918 38.46183277 -39.0390625 35.97265625 C-37.92755577 34.79147217 -37.92755577 34.79147217 -36.79359436 33.58642578 C-33.05786047 29.84716518 -30.68171732 27.62460505 -25.23803711 27.60546875 C-23.28136108 27.84910156 -23.28136108 27.84910156 -21.28515625 28.09765625 C-21.28515625 25.12765625 -21.28515625 22.15765625 -21.28515625 19.09765625 C-17.98515625 19.09765625 -14.68515625 19.09765625 -11.28515625 19.09765625 C-11.30578125 17.79828125 -11.32640625 16.49890625 -11.34765625 15.16015625 C-11.36915079 13.80599992 -11.35663824 12.45009542 -11.28515625 11.09765625 C-10.28515625 10.09765625 -10.28515625 10.09765625 -8.4375 10 C-6.38671875 10.03255208 -4.3359375 10.06510417 -2.28515625 10.09765625 C-2.36894531 9.45957031 -2.45273438 8.82148438 -2.5390625 8.1640625 C-2.69181641 6.92462891 -2.69181641 6.92462891 -2.84765625 5.66015625 C-3.00427734 4.42458984 -3.00427734 4.42458984 -3.1640625 3.1640625 C-3.22400391 2.14119141 -3.22400391 2.14119141 -3.28515625 1.09765625 C-2.28515625 0.09765625 -2.28515625 0.09765625 0 0 Z " fill="#FCFCFC" transform="translate(208.28515625,130.90234375)"/>
<path d="M0 0 C-0.721875 1.09699219 -1.44375 2.19398438 -2.1875 3.32421875 C-3.12559324 4.77826327 -4.06306062 6.2327117 -5 7.6875 C-5.71542969 8.7693457 -5.71542969 8.7693457 -6.4453125 9.87304688 C-9.79697036 14.99420629 -9.79697036 14.99420629 -10 21 C-12.64 21.66 -15.28 22.32 -18 23 C-18.33 25.97 -18.66 28.94 -19 32 C-16.03 32 -13.06 32 -10 32 C-10 34.97 -10 37.94 -10 41 C-7.03 41 -4.06 41 -1 41 C-1 43.97 -1 46.94 -1 50 C3.455 49.505 3.455 49.505 8 49 C8.33 47.02 8.66 45.04 9 43 C12.43988509 44.48243822 14.67256877 46.42455179 17.30957031 49.06665039 C18.15013977 49.90414322 18.99070923 50.74163605 19.85675049 51.60450745 C21.20383087 52.9623661 21.20383087 52.9623661 22.578125 54.34765625 C23.5046991 55.27468857 24.43127319 56.20172089 25.38592529 57.15684509 C27.34243167 59.11491259 29.29554048 61.07628571 31.24609375 63.0402832 C33.7518563 65.56309384 36.26421052 68.07921245 38.7788887 70.59313297 C41.17310392 72.98768452 43.56305589 75.38646603 45.953125 77.78515625 C46.85927551 78.69241959 47.76542603 79.59968292 48.69903564 80.53443909 C49.52699646 81.36877975 50.35495728 82.20312042 51.20800781 83.06274414 C51.94206848 83.80061661 52.67612915 84.53848907 53.43243408 85.29872131 C55 87 55 87 55 88 C18.04 88 -18.92 88 -57 88 C-57 63.25 -57 38.5 -57 13 C-54.03 13 -51.06 13 -48 13 C-47.67 15.64 -47.34 18.28 -47 21 C-44.03 21.33 -41.06 21.66 -38 22 C-38 19.03 -38 16.06 -38 13 C-32.39 13 -26.78 13 -21 13 C-21.99 11.35 -22.98 9.7 -24 8 C-21.3458514 6.7895098 -18.69044504 5.5821917 -16.03125 4.3828125 C-14.14675026 3.52313092 -12.26999164 2.64598992 -10.40625 1.7421875 C-9.24609375 1.18917969 -9.24609375 1.18917969 -8.0625 0.625 C-7.37285156 0.28726563 -6.68320312 -0.05046875 -5.97265625 -0.3984375 C-3.59261156 -1.12423331 -2.35134235 -0.67356002 0 0 Z " fill="#FBFCFC" transform="translate(57,137)"/>
<path d="M0 0 C0.88196045 0.38470459 1.7639209 0.76940918 2.67260742 1.16577148 C4.65442827 2.0303423 6.63507032 2.89761851 8.61474609 3.76708984 C12.42214497 5.43492056 16.23568593 7.08815236 20.05078125 8.73828125 C20.7346994 9.03413116 21.41861755 9.32998108 22.1232605 9.63479614 C23.50103141 10.23078824 24.87880849 10.82676607 26.2565918 11.42272949 C29.56384415 12.85406558 32.8698727 14.28821971 36.17578125 15.72265625 C37.29895752 16.21000244 38.42213379 16.69734863 39.5793457 17.19946289 C40.37816162 17.54614014 41.17697754 17.89281738 42 18.25 C36.85240293 24.43778508 31.39111048 30.31275641 25.7878418 36.08691406 C24.71633068 37.2004356 23.65481014 38.32365337 22.60327148 39.45605469 C13.93491901 48.77651681 13.93491901 48.77651681 9.68334961 49.81689453 C7.30565148 49.57812307 5.27656645 48.97435143 3 48.25 C0.93423637 47.9142689 -1.13520743 47.60072939 -3.20703125 47.3046875 C-5.4096452 46.91591366 -7.61146336 46.52260662 -9.8125 46.125 C-10.93076172 45.9496875 -12.04902344 45.774375 -13.20117188 45.59375 C-21.05025627 44.14352925 -21.05025627 44.14352925 -23.64990234 41.69775391 C-26.9786063 36.33411103 -26.17113705 31.51543795 -25.32568359 25.58398438 C-25.07838266 23.8117228 -24.85354067 22.03630998 -24.63916016 20.25976562 C-24.22899675 16.87654204 -23.77568467 13.50134718 -23.3125 10.125 C-23.10850586 8.45171631 -23.10850586 8.45171631 -22.90039062 6.74462891 C-21.72647959 -1.14545422 -21.72647959 -1.14545422 -18.23046875 -4.0546875 C-11.42090464 -5.52034943 -6.11830904 -2.71471507 0 0 Z " fill="#23C7B7" transform="translate(177,99.75)"/>
<path d="M0 0 C1.60638354 2.25058171 3.13415713 4.48950187 4.625 6.8125 C5.50282937 8.15435094 6.38177397 9.49547283 7.26171875 10.8359375 C7.71208496 11.52397461 8.16245117 12.21201172 8.62646484 12.92089844 C10.85245448 16.2903488 13.14307451 19.61442616 15.4375 22.9375 C15.89608398 23.60265625 16.35466797 24.2678125 16.82714844 24.953125 C17.75697813 26.30134552 18.6871536 27.64932764 19.61767578 28.99707031 C22.32157653 32.91490884 25.02000171 36.83653299 27.7121582 40.76245117 C30.30912991 44.54859919 32.92077078 48.32382938 35.546875 52.08984375 C36.73963204 53.80986206 37.93234115 55.52991361 39.125 57.25 C39.69395996 58.06057861 40.26291992 58.87115723 40.84912109 59.70629883 C41.37586426 60.46837646 41.90260742 61.2304541 42.4453125 62.015625 C42.91469238 62.68883789 43.38407227 63.36205078 43.86767578 64.05566406 C45.05815189 66.09985374 45.74177163 67.64558252 46 70 C43.91015625 72.578125 43.91015625 72.578125 41.0625 75.25 C40.12535156 76.14203125 39.18820313 77.0340625 38.22265625 77.953125 C37.48917969 78.62859375 36.75570312 79.3040625 36 80 C28.89487994 74.19861308 22.5298138 67.65610323 16.06640625 61.1640625 C14.82109655 59.9168849 13.57556379 58.66992999 12.32981873 57.42318726 C9.07094634 54.16051895 5.81508982 50.89485749 2.55987549 47.62854004 C-0.77009779 44.28828938 -4.10294673 40.95091069 -7.43554688 37.61328125 C-13.95983139 31.07831107 -20.48092996 24.54017169 -27 18 C-25.75522849 14.82090862 -24.47431878 11.93662742 -22.65234375 9.046875 C-22.21212891 8.345625 -21.77191406 7.644375 -21.31835938 6.921875 C-20.86267578 6.20515625 -20.40699219 5.4884375 -19.9375 4.75 C-19.47794922 4.0178125 -19.01839844 3.285625 -18.54492188 2.53125 C-14.51038748 -3.86713053 -14.51038748 -3.86713053 -12.109375 -4.4921875 C-10.94148438 -4.68167969 -10.94148438 -4.68167969 -9.75 -4.875 C-8.98171875 -5.01679688 -8.2134375 -5.15859375 -7.421875 -5.3046875 C-3.67523273 -4.83333573 -2.40136436 -2.82668438 0 0 Z " fill="#23C7B7" transform="translate(77,145)"/>
<path d="M0 0 C6.50838813 2.13560287 12.88177001 4.54232165 19.25 7.0625 C20.44625 7.50271484 21.6425 7.94292969 22.875 8.39648438 C31.37068242 11.8130173 31.37068242 11.8130173 33.20507812 15.27294922 C33.7068395 17.55818529 33.90126968 19.66791226 34 22 C34.495 23.485 34.495 23.485 35 25 C33.57470031 27.74025359 32.09332546 30.27752835 30.4375 32.875 C29.94733398 33.65278809 29.45716797 34.43057617 28.95214844 35.23193359 C27.88262458 36.92028675 26.80766293 38.6052043 25.72802734 40.28710938 C23.91951921 43.12634962 22.15733142 45.99157123 20.39453125 48.859375 C19.18165451 50.78249197 17.96684519 52.7043916 16.75 54.625 C16.18466553 55.55554199 15.61933105 56.48608398 15.03686523 57.44482422 C12.4823692 61.39535177 11.0494075 63.60841222 6.56640625 65.28125 C0.61942443 63.14476584 -1.62076189 58.10593638 -4.8125 52.875 C-6.21136559 50.66789013 -7.61240235 48.46215483 -9.015625 46.2578125 C-9.69173828 45.18305664 -10.36785156 44.10830078 -11.06445312 43.00097656 C-14.28219252 38.01201936 -17.86045995 33.31635364 -21.47265625 28.609375 C-23 26 -23 26 -22.90234375 24.16210938 C-21.59092079 21.01980372 -19.51193753 19.17744718 -17.08984375 16.796875 C-16.60294571 16.3142218 -16.11604767 15.8315686 -15.61439514 15.33428955 C-14.0623455 13.7989915 -12.50017864 12.27447075 -10.9375 10.75 C-9.88147643 9.7090278 -8.82612962 8.6673686 -7.77148438 7.625 C-5.18878585 5.07532367 -2.59691118 2.53520804 0 0 Z " fill="#23C7B7" transform="translate(61,51)"/>
<path d="M0 0 C9.92915304 1.5511823 19.71284633 3.5962821 29.52539062 5.75390625 C37.24058742 7.44529606 37.24058742 7.44529606 45.01171875 8.84765625 C45.70483154 8.96310791 46.39794434 9.07855957 47.11206055 9.19750977 C48.84242994 9.47475374 50.57734803 9.72320963 52.3125 9.96875 C56.01475575 11.38938302 57.02865516 13.65575429 59 17 C59.66 17.33 60.32 17.66 61 18 C60.45120866 27.4153102 59.0470588 36.61648523 57.47094727 45.90161133 C57.06044955 48.32460294 56.65961915 50.74905969 56.25976562 53.17382812 C55.99796567 54.7370747 55.73561534 56.30022923 55.47265625 57.86328125 C55.3548732 58.57696365 55.23709015 59.29064606 55.11573792 60.0259552 C54.35462161 64.46885879 53.30656361 68.69526113 52 73 C50.68 73 49.36 73 48 73 C46.31640625 71.04296875 46.31640625 71.04296875 44.5625 68.1875 C43.86640625 67.08921875 43.1703125 65.9909375 42.453125 64.859375 C42.06576172 64.24384766 41.67839844 63.62832031 41.27929688 62.99414062 C38.87732644 59.25000045 36.33509627 55.60094072 33.8125 51.9375 C32.68592312 50.29445922 31.55962516 48.65122716 30.43359375 47.0078125 C29.86624512 46.18055664 29.29889648 45.35330078 28.71435547 44.50097656 C26.47696357 41.23697163 24.24344312 37.97032761 22.01000977 34.70361328 C19.34165084 30.80128279 16.67103158 26.90050145 14 23 C13.47535156 22.23365234 12.95070313 21.46730469 12.41015625 20.67773438 C10.8994535 18.47195766 9.38745174 16.26707773 7.875 14.0625 C7.20090088 13.07793823 7.20090088 13.07793823 6.51318359 12.07348633 C4.79838063 9.57638274 3.08935155 7.11159274 1.1953125 4.74609375 C0 3 0 3 0 0 Z " fill="#23C7B7" transform="translate(79,134)"/>
<path d="M0 0 C7.38561539 6.25557019 7.38561539 6.25557019 10.52734375 9.4296875 C11.09130859 9.996875 11.65527344 10.5640625 12.23632812 11.1484375 C12.79771484 11.71820313 13.35910156 12.28796875 13.9375 12.875 C14.82018555 13.76445312 14.82018555 13.76445312 15.72070312 14.671875 C17.14947674 16.11226466 18.57508132 17.5557967 20 19 C16.35640179 26.12427131 12.26668824 32.82720071 7.74682617 39.41870117 C5.08652102 43.3056111 2.73605199 47.2589883 0.4375 51.375 C-2.28125659 55.73016459 -2.28125659 55.73016459 -5.2890625 56.859375 C-7.57627213 57.1126816 -9.7048129 57.07636482 -12 57 C-12.60585937 57.21527344 -13.21171875 57.43054687 -13.8359375 57.65234375 C-17.20880052 58.19419358 -19.89333727 56.74542014 -22.9375 55.4375 C-23.59049072 55.16663574 -24.24348145 54.89577148 -24.91625977 54.61669922 C-31.35565108 51.91773946 -37.69502008 48.99832097 -44 46 C-42.51657 42.55323 -40.56949812 40.32656699 -37.91748047 37.69042969 C-36.65639969 36.4295755 -36.65639969 36.4295755 -35.36984253 35.14324951 C-34.46146637 34.24519592 -33.55309021 33.34714233 -32.6171875 32.421875 C-31.68778351 31.4953009 -30.75837952 30.56872681 -29.80081177 29.61407471 C-27.3359615 27.15684211 -24.86516334 24.70567639 -22.39306641 22.2557373 C-19.86909235 19.75226191 -17.35080612 17.24307937 -14.83203125 14.734375 C-9.89356403 9.81732475 -4.948788 4.90666212 0 0 Z " fill="#24C7B7" transform="translate(112,0)"/>
<path d="M0 0 C2.97 0 5.94 0 9 0 C9 2.97 9 5.94 9 9 C11.97 9 14.94 9 18 9 C18.33 6.03 18.66 3.06 19 0 C21.97 0 24.94 0 28 0 C28 21.78 28 43.56 28 66 C25.36 66 22.72 66 20 66 C19 65 19 65 18.90234375 62.93359375 C18.93489583 60.62239583 18.96744792 58.31119792 19 56 C16.03 56 13.06 56 10 56 C13.52587708 51.81814579 17.07553326 47.80904125 21 44 C11.63363629 38.99176439 1.80018087 35.06076697 -8 31 C-9.29838234 30.45882551 -10.59657862 29.9172043 -11.89453125 29.375 C-14.5952441 28.24730021 -17.29700013 27.12220354 -20 26 C-19.67 23.36 -19.34 20.72 -19 18 C-22.63 16.35 -26.26 14.7 -30 13 C-26.82121308 9.82121308 -22.72516128 8.55021628 -18.625 6.8125 C-17.76132813 6.43158203 -16.89765625 6.05066406 -16.0078125 5.65820312 C-15.1725 5.30306641 -14.3371875 4.94792969 -13.4765625 4.58203125 C-12.71424316 4.25436768 -11.95192383 3.9267041 -11.16650391 3.58911133 C-8.64037313 2.90221099 -7.42550892 3.06703973 -5 4 C-3.2925002 5.28062485 -1.61736259 6.6072711 0 8 C0 5.36 0 2.72 0 0 Z " fill="#EEF0F0" transform="translate(197,75)"/>
<path d="M0 0 C0.1239466 6.85984085 -0.74381036 13.42686086 -1.80664062 20.18066406 C-2.01971556 21.56565113 -2.22113563 22.95247916 -2.41113281 24.34082031 C-2.68821526 26.36228438 -3.00014092 28.37559212 -3.3203125 30.390625 C-3.49836426 31.58719727 -3.67641602 32.78376953 -3.85986328 34.01660156 C-5 37 -5 37 -7.97998047 38.78808594 C-9.47489014 39.3879834 -9.47489014 39.3879834 -11 40 C-11.66 40.66 -12.32 41.32 -13 42 C-21.58337002 41.61831001 -30.0030887 39.39269489 -38.375 37.5625 C-41.25729143 36.93637584 -44.14018766 36.31310105 -47.0234375 35.69140625 C-47.71346863 35.54200592 -48.40349976 35.39260559 -49.11444092 35.23867798 C-54.05242906 34.17829707 -59.00196709 33.24354077 -63.98291016 32.40991211 C-66 32 -66 32 -68 31 C-67.01171996 28.42325622 -66.38125088 27.22144212 -63.9597168 25.81494141 C-63.13125244 25.49702637 -62.30278809 25.17911133 -61.44921875 24.8515625 C-60.06972046 24.30786011 -60.06972046 24.30786011 -58.66235352 23.75317383 C-57.68065186 23.38087646 -56.6989502 23.0085791 -55.6875 22.625 C-53.66838511 21.83167769 -51.65014947 21.0361138 -49.6328125 20.23828125 C-48.65731445 19.85494629 -47.68181641 19.47161133 -46.67675781 19.07666016 C-43.41069433 17.76296625 -40.24230083 16.32270616 -37.0625 14.8125 C-31.99085071 12.41222791 -26.83450552 10.30165928 -21.6105957 8.26245117 C-16.15497277 6.11356755 -10.88621338 3.66122291 -5.609375 1.1015625 C-3 0 -3 0 0 0 Z " fill="#24C7B7" transform="translate(149,96)"/>
<path d="M0 0 C2.3936849 1.94834818 4.70071886 3.94177253 7 6 C7.53044922 6.47228027 8.06089844 6.94456055 8.60742188 7.43115234 C10.40768293 9.0553009 12.17391225 10.71116106 13.9375 12.375 C14.52942139 12.90375732 15.12134277 13.43251465 15.73120117 13.97729492 C18.74655272 16.87987364 19.90719416 18.32531626 20.4921875 22.578125 C20.37069933 24.05620155 20.20003237 25.53049099 20 27 C19.88438721 28.00305176 19.76877441 29.00610352 19.6496582 30.03955078 C19.21842116 33.4949726 18.71168688 36.9325218 18.1875 40.375 C18.02185547 41.56222656 17.85621094 42.74945313 17.68554688 43.97265625 C17.4293457 45.66841797 17.4293457 45.66841797 17.16796875 47.3984375 C17.01610107 48.42630371 16.8642334 49.45416992 16.70776367 50.51318359 C16 53 16 53 13 55 C6.06196174 54.35068619 -0.63337663 50.71252422 -7 48 C-8.01296143 47.57726807 -8.01296143 47.57726807 -9.04638672 47.14599609 C-11.00476551 46.31578795 -12.94047522 45.44666685 -14.875 44.5625 C-16.02742188 44.04816406 -17.17984375 43.53382812 -18.3671875 43.00390625 C-21 41 -21 41 -22.28515625 37.9453125 C-21.85472344 31.99000924 -18.87531796 28.16030391 -15.5625 23.3125 C-14.92103027 22.3416748 -14.27956055 21.37084961 -13.61865234 20.37060547 C-11.76268945 17.5686307 -9.88330771 14.78363588 -8 12 C-7.09282471 10.63298593 -6.1875513 9.26470556 -5.28515625 7.89453125 C-3.53914824 5.2518392 -1.77981579 2.61997728 0 0 Z " fill="#24C7B7" transform="translate(137,25)"/>
<path d="M0 0 C-1.72625809 3.01427109 -3.48471319 6.00844526 -5.25 9 C-5.74113281 9.85851562 -6.23226562 10.71703125 -6.73828125 11.6015625 C-7.22167969 12.41367188 -7.70507812 13.22578125 -8.203125 14.0625 C-8.64301758 14.81660156 -9.08291016 15.57070312 -9.53613281 16.34765625 C-10.01920898 16.89292969 -10.50228516 17.43820313 -11 18 C-15.27709699 18 -16.55930376 17.29379749 -20 15 C-20 17.31 -20 19.62 -20 22 C-23.96 22.495 -23.96 22.495 -28 23 C-28.33 25.97 -28.66 28.94 -29 32 C-26.03 32 -23.06 32 -20 32 C-20 34.97 -20 37.94 -20 41 C-22.97 41 -25.94 41 -29 41 C-29 43.97 -29 46.94 -29 50 C-31.97 50 -34.94 50 -38 50 C-38 47.03 -38 44.06 -38 41 C-42.455 41.495 -42.455 41.495 -47 42 C-47.33 44.64 -47.66 47.28 -48 50 C-50.97 50 -53.94 50 -57 50 C-57 37.79 -57 25.58 -57 13 C-54.03 13 -51.06 13 -48 13 C-47.67 15.64 -47.34 18.28 -47 21 C-44.03 21.33 -41.06 21.66 -38 22 C-38 19.03 -38 16.06 -38 13 C-32.39 13 -26.78 13 -21 13 C-21.99 11.35 -22.98 9.7 -24 8 C-21.3458514 6.7895098 -18.69044504 5.5821917 -16.03125 4.3828125 C-14.14675026 3.52313092 -12.26999164 2.64598992 -10.40625 1.7421875 C-9.24609375 1.18917969 -9.24609375 1.18917969 -8.0625 0.625 C-7.37285156 0.28726563 -6.68320312 -0.05046875 -5.97265625 -0.3984375 C-3.59261156 -1.12423331 -2.35134235 -0.67356002 0 0 Z " fill="#EFEFEF" transform="translate(57,137)"/>
<path d="M0 0 C7.00406547 2.23811399 13.77276643 4.87005265 20.5625 7.6875 C21.57119141 8.10322266 22.57988281 8.51894531 23.61914062 8.94726562 C26.0805506 9.96215979 28.54079283 10.97978253 31 12 C31 12.99 31 13.98 31 15 C22.01675515 19.29691831 12.95665453 23.33209722 3.76367188 27.16040039 C-0.29588375 28.85338605 -4.32659569 30.57570521 -8.3125 32.4375 C-12.03217549 34.13430837 -15.77138242 35.75514584 -19.5546875 37.3046875 C-20.55975342 37.71662354 -21.56481934 38.12855957 -22.6003418 38.55297852 C-27.06459625 40.37433784 -31.53076444 42.19089697 -36 44 C-34.65915728 41.22386721 -33.18660523 38.61565288 -31.53125 36.015625 C-31.04769043 35.2525 -30.56413086 34.489375 -30.06591797 33.703125 C-29.00450664 32.04034655 -27.94096165 30.37892852 -26.87548828 28.71875 C-24.25954484 24.62867556 -21.70409149 20.53614078 -19.3359375 16.296875 C-12.58217935 4.38517225 -12.58217935 4.38517225 -6.5 2.625 C-5.27796875 2.45871094 -5.27796875 2.45871094 -4.03125 2.2890625 C-1.77509441 2.17538155 -1.77509441 2.17538155 0 0 Z " fill="#23C6B6" transform="translate(114,74)"/>
<path d="M0 0 C1.56884766 2.02856445 1.56884766 2.02856445 3.4140625 4.86328125 C4.43306641 6.41305664 4.43306641 6.41305664 5.47265625 7.99414062 C6.53806641 9.63672852 6.53806641 9.63672852 7.625 11.3125 C12.38607544 18.60596736 17.21117607 25.78297442 22.44677734 32.74682617 C24 35 24 35 25 38 C23.79858398 39.53686523 23.79858398 39.53686523 22 41 C19.80883789 40.97680664 19.80883789 40.97680664 17.22265625 40.41015625 C16.24675537 40.20543701 15.27085449 40.00071777 14.26538086 39.78979492 C13.20843018 39.5497876 12.15147949 39.30978027 11.0625 39.0625 C9.97396729 38.82958252 8.88543457 38.59666504 7.76391602 38.35668945 C5.4181566 37.85294573 3.0740447 37.34148254 0.73144531 36.82324219 C-3.13613469 35.96996557 -7.00829761 35.14134855 -10.8828125 34.3203125 C-17.59195417 32.89580628 -24.2971499 31.45380249 -31 30 C-25.95678592 23.86988634 -20.43836272 18.25218459 -14.83056641 12.64526367 C-13.23440256 11.04688087 -11.64644686 9.44061854 -10.05859375 7.83398438 C-9.04475921 6.81722113 -8.03045365 5.80092728 -7.015625 4.78515625 C-6.10071289 3.86613525 -5.18580078 2.94711426 -4.24316406 2.00024414 C-2 0 -2 0 0 0 Z " fill="#24C7B7" transform="translate(33,81)"/>
<path d="M0 0 C2.97 0 5.94 0 9 0 C9 2.97 9 5.94 9 9 C11.97 9 14.94 9 18 9 C18 11.97 18 14.94 18 18 C20.97 18 23.94 18 27 18 C27.09765625 24.93359375 27.09765625 24.93359375 27 27 C26 28 26 28 22.9375 28.0625 C21.968125 28.041875 20.99875 28.02125 20 28 C21.98 30.97 21.98 30.97 24 34 C20.67881807 35.69179205 17.34300425 37.35177785 14 39 C13.17757812 39.41507813 12.35515625 39.83015625 11.5078125 40.2578125 C5.69471477 43.05671141 5.69471477 43.05671141 1.9375 42.75 C1.298125 42.5025 0.65875 42.255 0 42 C-0.33 40.35 -0.66 38.7 -1 37 C-2.98 37 -4.96 37 -7 37 C-6.37536408 30.08339065 -5.49987484 23.2372298 -4.4375 16.375 C-4.29892578 15.46621094 -4.16035156 14.55742188 -4.01757812 13.62109375 C-3.68066063 11.4137033 -3.34144335 9.20669409 -3 7 C-2.67 7 -2.34 7 -2 7 C-1.34 4.69 -0.68 2.38 0 0 Z " fill="#F0F1F1" transform="translate(160,38)"/>
<path d="M0 0 C3.12165058 0.68737075 6.19903107 1.46943347 9.28515625 2.30078125 C12.52254127 3.13458257 15.68226164 3.62298428 19 4 C14.57040851 9.30054699 9.90178962 14.2449724 5.01171875 19.12109375 C4.26791458 19.86585464 3.52411041 20.61061554 2.75776672 21.37794495 C1.19838174 22.93800619 -0.36224978 24.49682236 -1.92407227 26.05444336 C-4.32620301 28.4511722 -6.72289251 30.85325062 -9.11914062 33.25585938 C-10.63769989 34.77375865 -12.15656889 36.29134814 -13.67578125 37.80859375 C-14.39550613 38.53034286 -15.11523102 39.25209198 -15.85676575 39.99571228 C-16.51802963 40.65382401 -17.17929352 41.31193573 -17.8605957 41.98999023 C-18.44428421 42.57288315 -19.02797272 43.15577606 -19.62934875 43.7563324 C-21 45 -21 45 -22 45 C-21.35591881 36.99104268 -20.13831596 29.08938528 -18.84326172 21.16577148 C-18.49678655 19.04281018 -18.15630838 16.91894444 -17.81640625 14.79492188 C-17.59670631 13.43744296 -17.37666678 12.08001895 -17.15625 10.72265625 C-16.95837891 9.50328369 -16.76050781 8.28391113 -16.55664062 7.02758789 C-16 4 -16 4 -15 1 C-10.23428025 -2.1771465 -5.49937676 -0.80494391 0 0 Z " fill="#24C7B7" transform="translate(163,151)"/>
<path d="M0 0 C1.69586182 1.33509827 1.69586182 1.33509827 3.39160156 3.05102539 C4.0319635 3.69161392 4.67232544 4.33220245 5.33209229 4.99220276 C6.01140808 5.68700241 6.69072388 6.38180206 7.390625 7.09765625 C8.09523865 7.80651474 8.79985229 8.51537323 9.52581787 9.24571228 C11.77434785 11.5110328 14.01222238 13.78656208 16.25 16.0625 C17.77274708 17.60029335 19.29617654 19.13741131 20.8203125 20.67382812 C24.5548281 24.44141802 28.2806485 28.21744265 32 32 C31.01 32.495 31.01 32.495 30 33 C27.37555562 32.02641271 24.86044098 30.98396236 22.30859375 29.84375 C21.53048843 29.50380005 20.75238312 29.1638501 19.95069885 28.81359863 C17.44300778 27.71639687 14.94014841 26.6086494 12.4375 25.5 C9.99706334 24.42613997 7.55564658 23.35455119 5.11367798 22.28417969 C3.49430261 21.57419171 1.87562774 20.86260381 0.25765991 20.14941406 C-3.79768347 18.36890725 -7.86467838 16.63361003 -11.97216797 14.9765625 C-12.76002182 14.65852661 -13.54787567 14.34049072 -14.35960388 14.01281738 C-15.85599121 13.41297577 -17.35482073 12.81918087 -18.8563385 12.2322998 C-23.89123429 10.21753143 -23.89123429 10.21753143 -25 8 C-21.59146656 6.46044633 -18.17206557 4.94670716 -14.75 3.4375 C-13.78191406 2.99986328 -12.81382812 2.56222656 -11.81640625 2.11132812 C-10.88183594 1.70205078 -9.94726562 1.29277344 -8.984375 0.87109375 C-8.12553711 0.48880615 -7.26669922 0.10651855 -6.38183594 -0.28735352 C-3.64317466 -1.10676232 -2.65658372 -0.94672527 0 0 Z " fill="#23C7B7" transform="translate(192,79)"/>
<path d="M0 0 C9.24 0 18.48 0 28 0 C28 2.97 28 5.94 28 9 C25.36 9.33 22.72 9.66 20 10 C19.67 12.97 19.34 15.94 19 19 C16.03 19.33 13.06 19.66 10 20 C9.67 22.64 9.34 25.28 9 28 C6.03 28 3.06 28 0 28 C0 18.76 0 9.52 0 0 Z " fill="#FEFEFE" transform="translate(0,0)"/>
<path d="M0 0 C3.46679688 0.04882812 3.46679688 0.04882812 6.93359375 0.09765625 C6.93359375 3.06765625 6.93359375 6.03765625 6.93359375 9.09765625 C2.47859375 9.59265625 2.47859375 9.59265625 -2.06640625 10.09765625 C-2.39640625 12.73765625 -2.72640625 15.37765625 -3.06640625 18.09765625 C0.23359375 18.09765625 3.53359375 18.09765625 6.93359375 18.09765625 C6.93359375 21.39765625 6.93359375 24.69765625 6.93359375 28.09765625 C3.96359375 28.42765625 0.99359375 28.75765625 -2.06640625 29.09765625 C-2.39640625 31.73765625 -2.72640625 34.37765625 -3.06640625 37.09765625 C-6.03640625 37.09765625 -9.00640625 37.09765625 -12.06640625 37.09765625 C-12.06640625 27.85765625 -12.06640625 18.61765625 -12.06640625 9.09765625 C-9.09640625 9.09765625 -6.12640625 9.09765625 -3.06640625 9.09765625 C-3.08703125 7.79828125 -3.10765625 6.49890625 -3.12890625 5.16015625 C-3.15040079 3.80599992 -3.13788824 2.45009542 -3.06640625 1.09765625 C-2.06640625 0.09765625 -2.06640625 0.09765625 0 0 Z " fill="#EFEFEF" transform="translate(12.06640625,187.90234375)"/>
<path d="M0 0 C3.46679688 0.04882812 3.46679688 0.04882812 6.93359375 0.09765625 C6.93359375 3.06765625 6.93359375 6.03765625 6.93359375 9.09765625 C2.47859375 9.59265625 2.47859375 9.59265625 -2.06640625 10.09765625 C-2.39640625 12.73765625 -2.72640625 15.37765625 -3.06640625 18.09765625 C0.23359375 18.09765625 3.53359375 18.09765625 6.93359375 18.09765625 C6.93359375 21.39765625 6.93359375 24.69765625 6.93359375 28.09765625 C3.96359375 28.42765625 0.99359375 28.75765625 -2.06640625 29.09765625 C-2.39640625 31.73765625 -2.72640625 34.37765625 -3.06640625 37.09765625 C-6.03640625 37.09765625 -9.00640625 37.09765625 -12.06640625 37.09765625 C-12.06640625 27.85765625 -12.06640625 18.61765625 -12.06640625 9.09765625 C-9.09640625 9.09765625 -6.12640625 9.09765625 -3.06640625 9.09765625 C-3.08703125 7.79828125 -3.10765625 6.49890625 -3.12890625 5.16015625 C-3.15040079 3.80599992 -3.13788824 2.45009542 -3.06640625 1.09765625 C-2.06640625 0.09765625 -2.06640625 0.09765625 0 0 Z " fill="#EFEFEF" transform="translate(12.06640625,37.90234375)"/>
<path d="M0 0 C9.24 0 18.48 0 28 0 C28 2.97 28 5.94 28 9 C25.36 9.33 22.72 9.66 20 10 C19.67 12.97 19.34 15.94 19 19 C15.7 19 12.4 19 9 19 C9 15.7 9 12.4 9 9 C6.36 9.33 3.72 9.66 1 10 C0.67 12.97 0.34 15.94 0 19 C-2.97 19 -5.94 19 -9 19 C-9.09765625 12.06640625 -9.09765625 12.06640625 -9 10 C-8 9 -8 9 -6.15234375 8.90234375 C-4.1015625 8.93489583 -2.05078125 8.96744792 0 9 C0 6.03 0 3.06 0 0 Z " fill="#EFEFEF" transform="translate(197,0)"/>
<path d="M0 0 C2.97 0 5.94 0 9 0 C9.33 2.64 9.66 5.28 10 8 C12.97 8.33 15.94 8.66 19 9 C19 6.03 19 3.06 19 0 C21.97 0 24.94 0 28 0 C28 2.97 28 5.94 28 9 C25.36 9.33 22.72 9.66 20 10 C19.67 12.97 19.34 15.94 19 19 C16.03 19.33 13.06 19.66 10 20 C9.67 22.64 9.34 25.28 9 28 C6.03 28 3.06 28 0 28 C0 18.76 0 9.52 0 0 Z " fill="#FEFEFE" transform="translate(0,150)"/>
<path d="M0 0 C9.24 0 18.48 0 28 0 C28 2.97 28 5.94 28 9 C25.36 9.33 22.72 9.66 20 10 C19.67 12.97 19.34 15.94 19 19 C16.03 19.33 13.06 19.66 10 20 C9.67 22.64 9.34 25.28 9 28 C6.03 28 3.06 28 0 28 C0 25.03 0 22.06 0 19 C2.97 19 5.94 19 9 19 C8.67 16.03 8.34 13.06 8 10 C5.36 9.67 2.72 9.34 0 9 C0 6.03 0 3.06 0 0 Z " fill="#FEFEFE" transform="translate(150,0)"/>
<path d="M0 0 C15.06814672 2.71770181 30.08934854 5.51110247 45 9 C43.63586388 11.72827224 42.20434734 11.95398032 39.4140625 13.12890625 C38.01800781 13.72155273 38.01800781 13.72155273 36.59375 14.32617188 C35.6140625 14.73416016 34.634375 15.14214844 33.625 15.5625 C32.65304688 15.97435547 31.68109375 16.38621094 30.6796875 16.81054688 C23.57631899 19.80789367 23.57631899 19.80789367 20 21 C17.14852788 18.17317491 14.30029574 15.34313037 11.45507812 12.51000977 C10.48592079 11.54589335 9.51586952 10.58267471 8.54492188 9.62036133 C7.15262088 8.24013641 5.7637538 6.85645022 4.375 5.47265625 C3.53710938 4.64000244 2.69921875 3.80734863 1.8359375 2.94946289 C0 1 0 1 0 0 Z " fill="#24C7B7" transform="translate(7,119)"/>
<path d="M0 0 C7.15801225 5.82628904 13.52591766 12.4382985 20 19 C16.8373953 22.43534753 13.34405249 23.90273918 9.125 25.75 C8.41730469 26.07871094 7.70960938 26.40742187 6.98046875 26.74609375 C2.96189584 28.51965386 0.35096292 29.53563397 -4 28 C-3.53079589 18.40558492 -2.05805771 9.3583379 0 0 Z " fill="#23C7B7" transform="translate(164,52)"/>
<path d="M0 0 C5.90532367 0.58085151 11.61748648 1.45636407 17.421875 2.6953125 C20.24773061 3.02927725 22.27745774 2.80565026 25 2 C25.66 1.34 26.32 0.68 27 0 C27.99 0.33 28.98 0.66 30 1 C29.67 2.65 29.34 4.3 29 6 C31.97 6 34.94 6 38 6 C38 4.68 38 3.36 38 2 C38.99 2.33 39.98 2.66 41 3 C41 4.32 41 5.64 41 7 C40.01 7 39.02 7 38 7 C38 9.97 38 12.94 38 16 C35.03 16 32.06 16 29 16 C28.67 13.36 28.34 10.72 28 8 C25.03 7.67 22.06 7.34 19 7 C19 7.99 19 8.98 19 10 C12.63296252 10.42446917 7.03374925 9.01472942 1 7 C0 6 0 6 -0.0625 2.9375 C-0.041875 1.968125 -0.02125 0.99875 0 0 Z " fill="#F6FAF9" transform="translate(112,134)"/>
<path d="M0 0 C3.55951985 -0.77852994 6.45829009 -0.9392795 10 0 C13.59799443 3.42943422 15.97019856 7.49798759 18.5 11.75 C19.20125 12.86117187 19.9025 13.97234375 20.625 15.1171875 C23.2627892 19.32750488 25.84789647 23.51777943 28 28 C25.36 28.66 22.72 29.32 20 30 C19.00419922 28.49759766 19.00419922 28.49759766 17.98828125 26.96484375 C17.09641734 25.62235386 16.20448668 24.27990832 15.3125 22.9375 C14.87744141 22.28072266 14.44238281 21.62394531 13.99414062 20.94726562 C11.78262279 17.62179807 9.53342952 14.34710103 7.16796875 11.12890625 C5 8 5 8 5 6 C2.525 7.485 2.525 7.485 0 9 C0 6.03 0 3.06 0 0 Z " fill="#E9EFEE" transform="translate(28,75)"/>
<path d="M0 0 C5.36505767 0.09686417 8.57070547 0.54912614 12.49682617 4.54663086 C15.30932617 8.14637691 15.30932617 8.14637691 15.30932617 9.60913086 C6.06932617 9.60913086 -3.17067383 9.60913086 -12.69067383 9.60913086 C-12.69067383 -1.94110118 -9.78296636 0.17357609 0 0 Z " fill="#EEEEEE" transform="translate(96.690673828125,215.390869140625)"/>
<path d="M0 0 C-1.72625809 3.01427109 -3.48471319 6.00844526 -5.25 9 C-5.74113281 9.85851562 -6.23226562 10.71703125 -6.73828125 11.6015625 C-7.22167969 12.41367188 -7.70507812 13.22578125 -8.203125 14.0625 C-8.86296387 15.19365234 -8.86296387 15.19365234 -9.53613281 16.34765625 C-10.01920898 16.89292969 -10.50228516 17.43820313 -11 18 C-15 18 -15 18 -17.359375 16.03125 C-18.54273438 14.77828125 -18.54273438 14.77828125 -19.75 13.5 C-20.94882812 12.24703125 -20.94882812 12.24703125 -22.171875 10.96875 C-22.77515625 10.3190625 -23.3784375 9.669375 -24 9 C-22.14766813 5.29533626 -17.36610016 4.35670358 -13.6875 2.8125 C-12.81931641 2.43158203 -11.95113281 2.05066406 -11.05664062 1.65820312 C-9.7969043 1.12549805 -9.7969043 1.12549805 -8.51171875 0.58203125 C-7.74303467 0.25436768 -6.97435059 -0.0732959 -6.18237305 -0.41088867 C-3.71251453 -1.07760403 -2.38725748 -0.83216464 0 0 Z " fill="#24C7B7" transform="translate(57,137)"/>
<path d="M0 0 C3.3 0 6.6 0 10 0 C10.33 2.97 10.66 5.94 11 9 C13.64 9.33 16.28 9.66 19 10 C19 12.97 19 15.94 19 19 C16.03 19 13.06 19 10 19 C9.67 16.36 9.34 13.72 9 11 C6.03 10.67 3.06 10.34 0 10 C0 6.7 0 3.4 0 0 Z " fill="#FDFDFD" transform="translate(206,206)"/>
<path d="M0 0 C3.3 0 6.6 0 10 0 C10 3.3 10 6.6 10 10 C5.545 10.495 5.545 10.495 1 11 C0.67 13.64 0.34 16.28 0 19 C-2.97 19 -5.94 19 -9 19 C-9 16.03 -9 13.06 -9 10 C-4.545 9.505 -4.545 9.505 0 9 C0 6.03 0 3.06 0 0 Z " fill="#EFEFEF" transform="translate(159,206)"/>
<path d="M0 0 C2.97 0 5.94 0 9 0 C9 2.97 9 5.94 9 9 C6.36 9.33 3.72 9.66 1 10 C0.67 12.97 0.34 15.94 0 19 C-3.3 19 -6.6 19 -10 19 C-10 15.7 -10 12.4 -10 9 C-7.03 9 -4.06 9 -1 9 C-0.67 6.03 -0.34 3.06 0 0 Z " fill="#EFEFEF" transform="translate(216,150)"/>
<path d="M0 0 C3.46679688 0.04882812 3.46679688 0.04882812 6.93359375 0.09765625 C6.93359375 3.06765625 6.93359375 6.03765625 6.93359375 9.09765625 C2.47859375 9.59265625 2.47859375 9.59265625 -2.06640625 10.09765625 C-2.39640625 12.73765625 -2.72640625 15.37765625 -3.06640625 18.09765625 C-6.03640625 18.09765625 -9.00640625 18.09765625 -12.06640625 18.09765625 C-12.06640625 15.12765625 -12.06640625 12.15765625 -12.06640625 9.09765625 C-9.09640625 9.09765625 -6.12640625 9.09765625 -3.06640625 9.09765625 C-3.08703125 7.79828125 -3.10765625 6.49890625 -3.12890625 5.16015625 C-3.15040079 3.80599992 -3.13788824 2.45009542 -3.06640625 1.09765625 C-2.06640625 0.09765625 -2.06640625 0.09765625 0 0 Z " fill="#EFEFEF" transform="translate(162.06640625,187.90234375)"/>
<path d="M0 0 C2.97 0 5.94 0 9 0 C9 2.97 9 5.94 9 9 C6.36 9.33 3.72 9.66 1 10 C0.67 12.97 0.34 15.94 0 19 C-2.97 19 -5.94 19 -9 19 C-9.09765625 12.06640625 -9.09765625 12.06640625 -9 10 C-8 9 -8 9 -6.15234375 8.90234375 C-4.1015625 8.93489583 -2.05078125 8.96744792 0 9 C0 6.03 0 3.06 0 0 Z " fill="#EFEFEF" transform="translate(197,150)"/>
<path d="M0 0 C0.58442871 0.08483643 1.16885742 0.16967285 1.77099609 0.25708008 C-0.17503442 3.95520679 -2.17886219 7.61563789 -4.22900391 11.25708008 C-4.64666016 12.0124707 -5.06431641 12.76786133 -5.49462891 13.54614258 C-6.66650391 15.44458008 -6.66650391 15.44458008 -9.22900391 18.25708008 C-13.04150391 18.69458008 -13.04150391 18.69458008 -16.22900391 18.25708008 C-17.22900391 15.25708008 -17.22900391 15.25708008 -15.45556641 11.68286133 C-14.60041463 10.30422879 -13.7326352 8.93336865 -12.85400391 7.56958008 C-12.24492188 6.51673828 -12.24492188 6.51673828 -11.62353516 5.44262695 C-8.36067897 0.37090639 -5.9898893 -0.50377073 0 0 Z " fill="#EBF1F0" transform="translate(91.22900390625,93.742919921875)"/>
<path d="M0 0 C0 2.64 0 5.28 0 8 C-4.29 9.65 -8.58 11.3 -13 13 C-12.34 14.65 -11.68 16.3 -11 18 C-13.64 18 -16.28 18 -19 18 C-19 15.36 -19 12.72 -19 10 C-17.741875 9.79375 -16.48375 9.5875 -15.1875 9.375 C-12.96974791 8.90128618 -12.96974791 8.90128618 -11 8 C-9.19970518 5.06644453 -9.19970518 5.06644453 -8 2 C-5.02919589 -0.10831259 -3.80885177 0 0 0 Z " fill="#F8FCFB" transform="translate(47,132)"/>
<path d="M0 0 C0.33 0 0.66 0 1 0 C1 2.97 1 5.94 1 9 C-1.97 9 -4.94 9 -8 9 C-8 11.97 -8 14.94 -8 18 C-10.97 18 -13.94 18 -17 18 C-16.67 14.7 -16.34 11.4 -16 8 C-13.69 8.33 -11.38 8.66 -9 9 C-8.67 8.34 -8.34 7.68 -8 7 C-6.86142105 5.94793072 -5.69051934 4.93041264 -4.5 3.9375 C-2.19073053 2.03359604 -2.19073053 2.03359604 0 0 Z " fill="#EBEFEF" transform="translate(149,188)"/>
<path d="M0 0 C0.66 0.33 1.32 0.66 2 1 C0.875 3.5 0.875 3.5 -1 6 C-4.1875 6.3125 -4.1875 6.3125 -7 6 C-7.66 8.97 -8.32 11.94 -9 15 C-11.97 15 -14.94 15 -18 15 C-18 12.03 -18 9.06 -18 6 C-15.03 6 -12.06 6 -9 6 C-9 5.34 -9 4.68 -9 4 C-7.54618103 3.30300448 -6.08677047 2.61766134 -4.625 1.9375 C-3.81289063 1.55464844 -3.00078125 1.17179688 -2.1640625 0.77734375 C-1.44992188 0.52082031 -0.73578125 0.26429688 0 0 Z " fill="#EDEFEF" transform="translate(37,135)"/>
<path d="M0 0 C3.9492568 0.55105909 7.34920174 1.38935371 11 3 C10.34 4.98 9.68 6.96 9 9 C11.97 9 14.94 9 18 9 C17.67 10.65 17.34 12.3 17 14 C16.43152344 13.80664062 15.86304688 13.61328125 15.27734375 13.4140625 C7.78783763 10.43217416 7.78783763 10.43217416 0 9 C0 6.03 0 3.06 0 0 Z " fill="#E8EEEE" transform="translate(113,66)"/>
<path d="M0 0 C3.3 0.33 6.6 0.66 10 1 C10 2.65 10 4.3 10 6 C12.97 6 15.94 6 19 6 C19 7.32 19 8.64 19 10 C12.05829437 9.66944259 6.20918975 9.24571282 0 6 C0 4.02 0 2.04 0 0 Z " fill="#F6FAFA" transform="translate(159,144)"/>
<path d="M0 0 C2.64 0 5.28 0 8 0 C5.03 3.96 5.03 3.96 2 8 C2.66 8.33 3.32 8.66 4 9 C3.071875 9.12375 3.071875 9.12375 2.125 9.25 C-0.18346804 9.78810733 -0.18346804 9.78810733 -1 12 C-1.33 12.66 -1.66 13.32 -2 14 C-3.875 14.5625 -3.875 14.5625 -6 15 C-8.2072358 16.48800372 -8.2072358 16.48800372 -10 18 C-10 15.03 -10 12.06 -10 9 C-5.545 8.505 -5.545 8.505 -1 8 C-0.67 5.36 -0.34 2.72 0 0 Z " fill="#EAEFEE" transform="translate(66,38)"/>
<path d="M0 0 C2.97 0 5.94 0 9 0 C9.87890625 6.93359375 9.87890625 6.93359375 10 9 C9 10 9 10 6.93359375 10.09765625 C3.46679688 10.04882812 3.46679688 10.04882812 0 10 C0 6.7 0 3.4 0 0 Z " fill="#FEFEFE" transform="translate(150,206)"/>
<path d="M0 0 C2.97 0 5.94 0 9 0 C9.87890625 6.93359375 9.87890625 6.93359375 10 9 C9 10 9 10 6.93359375 10.09765625 C3.46679688 10.04882812 3.46679688 10.04882812 0 10 C0 6.7 0 3.4 0 0 Z " fill="#FEFEFE" transform="translate(75,206)"/>
<path d="M0 0 C2.97 0 5.94 0 9 0 C9.87890625 6.93359375 9.87890625 6.93359375 10 9 C9 10 9 10 6.93359375 10.09765625 C3.46679688 10.04882812 3.46679688 10.04882812 0 10 C0 6.7 0 3.4 0 0 Z " fill="#FEFEFE" transform="translate(0,206)"/>
<path d="M0 0 C3.3 0 6.6 0 10 0 C10 2.97 10 5.94 10 9 C6.7169902 10.6415049 3.57454967 9.51888624 0 9 C0 6.03 0 3.06 0 0 Z " fill="#FEFEFE" transform="translate(206,150)"/>
<path d="M0 0 C2.97 0 5.94 0 9 0 C9.87890625 6.93359375 9.87890625 6.93359375 10 9 C9 10 9 10 6.93359375 10.09765625 C3.46679688 10.04882812 3.46679688 10.04882812 0 10 C0 6.7 0 3.4 0 0 Z " fill="#FEFEFE" transform="translate(0,131)"/>
<path d="M0 0 C3.3 0 6.6 0 10 0 C10 2.97 10 5.94 10 9 C6.7169902 10.6415049 3.57454967 9.51888624 0 9 C0 6.03 0 3.06 0 0 Z " fill="#FEFEFE" transform="translate(206,75)"/>
<path d="M0 0 C2.97 0 5.94 0 9 0 C9.87890625 6.93359375 9.87890625 6.93359375 10 9 C9 10 9 10 6.93359375 10.09765625 C3.46679688 10.04882812 3.46679688 10.04882812 0 10 C0 6.7 0 3.4 0 0 Z " fill="#FEFEFE" transform="translate(0,56)"/>
<path d="M0 0 C3.3 0 6.6 0 10 0 C10 2.97 10 5.94 10 9 C6.7169902 10.6415049 3.57454967 9.51888624 0 9 C0 6.03 0 3.06 0 0 Z " fill="#FEFEFE" transform="translate(206,0)"/>
<path d="M0 0 C3.3 0 6.6 0 10 0 C10 2.97 10 5.94 10 9 C6.7169902 10.6415049 3.57454967 9.51888624 0 9 C0 6.03 0 3.06 0 0 Z " fill="#FEFEFE" transform="translate(131,0)"/>
<path d="M0 0 C3.3 0 6.6 0 10 0 C10 2.97 10 5.94 10 9 C6.7169902 10.6415049 3.57454967 9.51888624 0 9 C0 6.03 0 3.06 0 0 Z " fill="#FEFEFE" transform="translate(56,0)"/>
<path d="M0 0 C2.97 0 5.94 0 9 0 C9 3.3 9 6.6 9 10 C6.03 10 3.06 10 0 10 C0 6.7 0 3.4 0 0 Z " fill="#EFEFEF" transform="translate(197,206)"/>
<path d="M0 0 C2.97 0 5.94 0 9 0 C9 3.3 9 6.6 9 10 C6.03 10 3.06 10 0 10 C0 6.7 0 3.4 0 0 Z " fill="#FEFEFE" transform="translate(169,206)"/>
<path d="M0 0 C2.97 0 5.94 0 9 0 C9 3.3 9 6.6 9 10 C6.03 10 3.06 10 0 10 C0 6.7 0 3.4 0 0 Z " fill="#EFEFEF" transform="translate(47,206)"/>
<path d="M0 0 C3.3 0 6.6 0 10 0 C10 2.97 10 5.94 10 9 C6.7 9 3.4 9 0 9 C0 6.03 0 3.06 0 0 Z " fill="#EFEFEF" transform="translate(206,197)"/>
<path d="M0 0 C3.3 0 6.6 0 10 0 C10 2.97 10 5.94 10 9 C6.7 9 3.4 9 0 9 C0 6.03 0 3.06 0 0 Z " fill="#EFEFEF" transform="translate(56,197)"/>
<path d="M0 0 C3.3 0 6.6 0 10 0 C10 2.97 10 5.94 10 9 C6.7 9 3.4 9 0 9 C0 6.03 0 3.06 0 0 Z " fill="#FEFEFE" transform="translate(206,169)"/>
<path d="M0 0 C2.97 0 5.94 0 9 0 C9 3.3 9 6.6 9 10 C6.03 10 3.06 10 0 10 C0 6.7 0 3.4 0 0 Z " fill="#EFEFEF" transform="translate(197,56)"/>
<path d="M0 0 C2.97 0 5.94 0 9 0 C9 3.3 9 6.6 9 10 C6.03 10 3.06 10 0 10 C0 6.7 0 3.4 0 0 Z " fill="#FEFEFE" transform="translate(19,56)"/>
<path d="M0 0 C3.3 0 6.6 0 10 0 C10 2.97 10 5.94 10 9 C6.7 9 3.4 9 0 9 C0 6.03 0 3.06 0 0 Z " fill="#EFEFEF" transform="translate(206,47)"/>
<path d="M0 0 C3.3 0 6.6 0 10 0 C10 2.97 10 5.94 10 9 C6.7 9 3.4 9 0 9 C0 6.03 0 3.06 0 0 Z " fill="#FEFEFE" transform="translate(206,19)"/>
<path d="M0 0 C3.3 0 6.6 0 10 0 C10 2.97 10 5.94 10 9 C6.7 9 3.4 9 0 9 C0 6.03 0 3.06 0 0 Z " fill="#FEFEFE" transform="translate(56,19)"/>
<path d="M0 0 C6.93359375 -0.09765625 6.93359375 -0.09765625 9 0 C10 1 10 1 10.09765625 2.84765625 C10.04882812 5.92382812 10.04882812 5.92382812 10 9 C6.7 9 3.4 9 0 9 C0 6.03 0 3.06 0 0 Z " fill="#EFEFEF" transform="translate(206,216)"/>
<path d="M0 0 C3.46679688 0.04882812 3.46679688 0.04882812 6.93359375 0.09765625 C6.93359375 3.06765625 6.93359375 6.03765625 6.93359375 9.09765625 C3.63359375 9.09765625 0.33359375 9.09765625 -3.06640625 9.09765625 C-3.1640625 2.9453125 -3.1640625 2.9453125 -3.06640625 1.09765625 C-2.06640625 0.09765625 -2.06640625 0.09765625 0 0 Z " fill="#FEFEFE" transform="translate(162.06640625,215.90234375)"/>
<path d="M0 0 C3.46679688 0.04882812 3.46679688 0.04882812 6.93359375 0.09765625 C6.93359375 3.06765625 6.93359375 6.03765625 6.93359375 9.09765625 C3.63359375 9.09765625 0.33359375 9.09765625 -3.06640625 9.09765625 C-3.1640625 2.9453125 -3.1640625 2.9453125 -3.06640625 1.09765625 C-2.06640625 0.09765625 -2.06640625 0.09765625 0 0 Z " fill="#FEFEFE" transform="translate(87.06640625,215.90234375)"/>
<path d="M0 0 C6.93359375 -0.09765625 6.93359375 -0.09765625 9 0 C10 1 10 1 10.09765625 2.84765625 C10.04882812 5.92382812 10.04882812 5.92382812 10 9 C6.7 9 3.4 9 0 9 C0 6.03 0 3.06 0 0 Z " fill="#EFEFEF" transform="translate(56,216)"/>
<path d="M0 0 C2.97 0 5.94 0 9 0 C9 3.3 9 6.6 9 10 C2.84765625 10.09765625 2.84765625 10.09765625 1 10 C0 9 0 9 -0.09765625 6.93359375 C-0.06510417 4.62239583 -0.03255208 2.31119792 0 0 Z " fill="#EFEFEF" transform="translate(216,206)"/>
<path d="M0 0 C2.97 0 5.94 0 9 0 C9.09765625 6.93359375 9.09765625 6.93359375 9 9 C8 10 8 10 6.15234375 10.09765625 C4.1015625 10.06510417 2.05078125 10.03255208 0 10 C0 6.7 0 3.4 0 0 Z " fill="#EFEFEF" transform="translate(178,206)"/>
<path d="M0 0 C2.97 0 5.94 0 9 0 C9 3.3 9 6.6 9 10 C2.84765625 10.09765625 2.84765625 10.09765625 1 10 C0 9 0 9 -0.09765625 6.93359375 C-0.06510417 4.62239583 -0.03255208 2.31119792 0 0 Z " fill="#EFEFEF" transform="translate(66,206)"/>
<path d="M0 0 C2.97 0 5.94 0 9 0 C9.09765625 6.93359375 9.09765625 6.93359375 9 9 C8 10 8 10 6.15234375 10.09765625 C4.1015625 10.06510417 2.05078125 10.03255208 0 10 C0 6.7 0 3.4 0 0 Z " fill="#EFEFEF" transform="translate(28,206)"/>
<path d="M0 0 C3.46679688 0.04882812 3.46679688 0.04882812 6.93359375 0.09765625 C6.93359375 3.06765625 6.93359375 6.03765625 6.93359375 9.09765625 C3.63359375 9.09765625 0.33359375 9.09765625 -3.06640625 9.09765625 C-3.1640625 2.9453125 -3.1640625 2.9453125 -3.06640625 1.09765625 C-2.06640625 0.09765625 -2.06640625 0.09765625 0 0 Z " fill="#FEFEFE" transform="translate(162.06640625,196.90234375)"/>
<path d="M0 0 C3.3 0 6.6 0 10 0 C10.09765625 6.15234375 10.09765625 6.15234375 10 8 C9 9 9 9 6.93359375 9.09765625 C3.46679688 9.04882812 3.46679688 9.04882812 0 9 C0 6.03 0 3.06 0 0 Z " fill="#EFEFEF" transform="translate(206,178)"/>
<path d="M0 0 C6.15234375 -0.09765625 6.15234375 -0.09765625 8 0 C9 1 9 1 9.09765625 3.06640625 C9.06510417 5.37760417 9.03255208 7.68880208 9 10 C6.03 10 3.06 10 0 10 C0 6.7 0 3.4 0 0 Z " fill="#EFEFEF" transform="translate(0,159)"/>
<path d="M0 0 C2.05078125 0.03255208 4.1015625 0.06510417 6.15234375 0.09765625 C6.15234375 3.39765625 6.15234375 6.69765625 6.15234375 10.09765625 C3.18234375 10.09765625 0.21234375 10.09765625 -2.84765625 10.09765625 C-2.9453125 3.1640625 -2.9453125 3.1640625 -2.84765625 1.09765625 C-1.84765625 0.09765625 -1.84765625 0.09765625 0 0 Z " fill="#FEFEFE" transform="translate(218.84765625,158.90234375)"/>
<path d="M0 0 C2.05078125 0.03255208 4.1015625 0.06510417 6.15234375 0.09765625 C6.15234375 3.39765625 6.15234375 6.69765625 6.15234375 10.09765625 C3.18234375 10.09765625 0.21234375 10.09765625 -2.84765625 10.09765625 C-2.9453125 3.1640625 -2.9453125 3.1640625 -2.84765625 1.09765625 C-1.84765625 0.09765625 -1.84765625 0.09765625 0 0 Z " fill="#FEFEFE" transform="translate(199.84765625,158.90234375)"/>
<path d="M0 0 C3.46679688 0.04882812 3.46679688 0.04882812 6.93359375 0.09765625 C6.93359375 3.06765625 6.93359375 6.03765625 6.93359375 9.09765625 C3.63359375 9.09765625 0.33359375 9.09765625 -3.06640625 9.09765625 C-3.1640625 2.9453125 -3.1640625 2.9453125 -3.06640625 1.09765625 C-2.06640625 0.09765625 -2.06640625 0.09765625 0 0 Z " fill="#FEFEFE" transform="translate(12.06640625,140.90234375)"/>
<path d="M0 0 C2.97 0 5.94 0 9 0 C9 3.3 9 6.6 9 10 C2.84765625 10.09765625 2.84765625 10.09765625 1 10 C0 9 0 9 -0.09765625 6.93359375 C-0.06510417 4.62239583 -0.03255208 2.31119792 0 0 Z " fill="#EFEFEF" transform="translate(216,131)"/>
<path d="M0 0 C6.15234375 -0.09765625 6.15234375 -0.09765625 8 0 C9 1 9 1 9.09765625 3.06640625 C9.06510417 5.37760417 9.03255208 7.68880208 9 10 C6.03 10 3.06 10 0 10 C0 6.7 0 3.4 0 0 Z " fill="#EFEFEF" transform="translate(150,84)"/>
<path d="M0 0 C6.15234375 -0.09765625 6.15234375 -0.09765625 8 0 C9 1 9 1 9.09765625 3.06640625 C9.06510417 5.37760417 9.03255208 7.68880208 9 10 C6.03 10 3.06 10 0 10 C0 6.7 0 3.4 0 0 Z " fill="#EFEFEF" transform="translate(0,84)"/>
<path d="M0 0 C2.05078125 0.03255208 4.1015625 0.06510417 6.15234375 0.09765625 C6.15234375 3.39765625 6.15234375 6.69765625 6.15234375 10.09765625 C3.18234375 10.09765625 0.21234375 10.09765625 -2.84765625 10.09765625 C-2.9453125 3.1640625 -2.9453125 3.1640625 -2.84765625 1.09765625 C-1.84765625 0.09765625 -1.84765625 0.09765625 0 0 Z " fill="#FEFEFE" transform="translate(218.84765625,83.90234375)"/>
<path d="M0 0 C3.3 0 6.6 0 10 0 C10 2.97 10 5.94 10 9 C3.06640625 9.09765625 3.06640625 9.09765625 1 9 C0 8 0 8 -0.09765625 6.15234375 C-0.06510417 4.1015625 -0.03255208 2.05078125 0 0 Z " fill="#EFEFEF" transform="translate(9,75)"/>
<path d="M0 0 C6.93359375 -0.09765625 6.93359375 -0.09765625 9 0 C10 1 10 1 10.09765625 2.84765625 C10.04882812 5.92382812 10.04882812 5.92382812 10 9 C6.7 9 3.4 9 0 9 C0 6.03 0 3.06 0 0 Z " fill="#EFEFEF" transform="translate(206,66)"/>
<path d="M0 0 C0.33 0.66 0.66 1.32 1 2 C3.97 2 6.94 2 10 2 C10 4.97 10 7.94 10 11 C9.05125 11.309375 8.1025 11.61875 7.125 11.9375 C4.13919592 12.87394742 4.13919592 12.87394742 2 14 C0.9551242 9.37269289 0.48243721 4.71146122 0 0 Z " fill="#EBEFEE" transform="translate(93,64)"/>
<path d="M0 0 C3.46679688 0.04882812 3.46679688 0.04882812 6.93359375 0.09765625 C6.93359375 3.06765625 6.93359375 6.03765625 6.93359375 9.09765625 C3.63359375 9.09765625 0.33359375 9.09765625 -3.06640625 9.09765625 C-3.1640625 2.9453125 -3.1640625 2.9453125 -3.06640625 1.09765625 C-2.06640625 0.09765625 -2.06640625 0.09765625 0 0 Z " fill="#FEFEFE" transform="translate(12.06640625,65.90234375)"/>
<path d="M0 0 C2.97 0 5.94 0 9 0 C9 3.3 9 6.6 9 10 C2.84765625 10.09765625 2.84765625 10.09765625 1 10 C0 9 0 9 -0.09765625 6.93359375 C-0.06510417 4.62239583 -0.03255208 2.31119792 0 0 Z " fill="#EFEFEF" transform="translate(216,56)"/>
<path d="M0 0 C2.97 0 5.94 0 9 0 C9.09765625 6.93359375 9.09765625 6.93359375 9 9 C8 10 8 10 6.15234375 10.09765625 C4.1015625 10.06510417 2.05078125 10.03255208 0 10 C0 6.7 0 3.4 0 0 Z " fill="#EFEFEF" transform="translate(28,56)"/>
<path d="M0 0 C3.46679688 0.04882812 3.46679688 0.04882812 6.93359375 0.09765625 C6.93359375 3.06765625 6.93359375 6.03765625 6.93359375 9.09765625 C3.63359375 9.09765625 0.33359375 9.09765625 -3.06640625 9.09765625 C-3.1640625 2.9453125 -3.1640625 2.9453125 -3.06640625 1.09765625 C-2.06640625 0.09765625 -2.06640625 0.09765625 0 0 Z " fill="#FEFEFE" transform="translate(12.06640625,46.90234375)"/>
<path d="M0 0 C3.3 0 6.6 0 10 0 C10.09765625 6.15234375 10.09765625 6.15234375 10 8 C9 9 9 9 6.93359375 9.09765625 C3.46679688 9.04882812 3.46679688 9.04882812 0 9 C0 6.03 0 3.06 0 0 Z " fill="#EFEFEF" transform="translate(206,28)"/>
<path d="M0 0 C3.3 0 6.6 0 10 0 C10.09765625 6.15234375 10.09765625 6.15234375 10 8 C9 9 9 9 6.93359375 9.09765625 C3.46679688 9.04882812 3.46679688 9.04882812 0 9 C0 6.03 0 3.06 0 0 Z " fill="#EFEFEF" transform="translate(56,28)"/>
<path d="M0 0 C6.15234375 -0.09765625 6.15234375 -0.09765625 8 0 C9 1 9 1 9.09765625 3.06640625 C9.06510417 5.37760417 9.03255208 7.68880208 9 10 C6.03 10 3.06 10 0 10 C0 6.7 0 3.4 0 0 Z " fill="#EFEFEF" transform="translate(150,9)"/>
<path d="M0 0 C6.15234375 -0.09765625 6.15234375 -0.09765625 8 0 C9 1 9 1 9.09765625 3.06640625 C9.06510417 5.37760417 9.03255208 7.68880208 9 10 C6.03 10 3.06 10 0 10 C0 6.7 0 3.4 0 0 Z " fill="#EFEFEF" transform="translate(75,9)"/>
<path d="M0 0 C6.15234375 -0.09765625 6.15234375 -0.09765625 8 0 C9 1 9 1 9.09765625 3.06640625 C9.06510417 5.37760417 9.03255208 7.68880208 9 10 C6.03 10 3.06 10 0 10 C0 6.7 0 3.4 0 0 Z " fill="#EFEFEF" transform="translate(0,9)"/>
<path d="M0 0 C2.05078125 0.03255208 4.1015625 0.06510417 6.15234375 0.09765625 C6.15234375 3.39765625 6.15234375 6.69765625 6.15234375 10.09765625 C3.18234375 10.09765625 0.21234375 10.09765625 -2.84765625 10.09765625 C-2.9453125 3.1640625 -2.9453125 3.1640625 -2.84765625 1.09765625 C-1.84765625 0.09765625 -1.84765625 0.09765625 0 0 Z " fill="#FEFEFE" transform="translate(143.84765625,8.90234375)"/>
<path d="M0 0 C2.05078125 0.03255208 4.1015625 0.06510417 6.15234375 0.09765625 C6.15234375 3.39765625 6.15234375 6.69765625 6.15234375 10.09765625 C3.18234375 10.09765625 0.21234375 10.09765625 -2.84765625 10.09765625 C-2.9453125 3.1640625 -2.9453125 3.1640625 -2.84765625 1.09765625 C-1.84765625 0.09765625 -1.84765625 0.09765625 0 0 Z " fill="#FEFEFE" transform="translate(49.84765625,8.90234375)"/>
<path d="M0 0 C3.3 0 6.6 0 10 0 C10 2.97 10 5.94 10 9 C3.06640625 9.09765625 3.06640625 9.09765625 1 9 C0 8 0 8 -0.09765625 6.15234375 C-0.06510417 4.1015625 -0.03255208 2.05078125 0 0 Z " fill="#EFEFEF" transform="translate(159,0)"/>
<path d="M0 0 C3.3 0 6.6 0 10 0 C10 2.97 10 5.94 10 9 C3.06640625 9.09765625 3.06640625 9.09765625 1 9 C0 8 0 8 -0.09765625 6.15234375 C-0.06510417 4.1015625 -0.03255208 2.05078125 0 0 Z " fill="#EFEFEF" transform="translate(84,0)"/>
<path d="M0 0 C3.3 0 6.6 0 10 0 C10 2.97 10 5.94 10 9 C3.06640625 9.09765625 3.06640625 9.09765625 1 9 C0 8 0 8 -0.09765625 6.15234375 C-0.06510417 4.1015625 -0.03255208 2.05078125 0 0 Z " fill="#EFEFEF" transform="translate(9,0)"/>
<path d="M0 0 C1.23556641 0.01740234 1.23556641 0.01740234 2.49609375 0.03515625 C3.32238281 0.04417969 4.14867187 0.05320313 5 0.0625 C5.63808594 0.07410156 6.27617187 0.08570313 6.93359375 0.09765625 C6.93359375 2.73765625 6.93359375 5.37765625 6.93359375 8.09765625 C5.61359375 7.43765625 4.29359375 6.77765625 2.93359375 6.09765625 C1.94359375 7.41765625 0.95359375 8.73765625 -0.06640625 10.09765625 C-0.72640625 9.76765625 -1.38640625 9.43765625 -2.06640625 9.09765625 C-2.06640625 11.73765625 -2.06640625 14.37765625 -2.06640625 17.09765625 C-2.39640625 17.09765625 -2.72640625 17.09765625 -3.06640625 17.09765625 C-3.09325304 14.45175611 -3.11316982 11.80612529 -3.12890625 9.16015625 C-3.13728516 8.40541016 -3.14566406 7.65066406 -3.15429688 6.87304688 C-3.16293066 4.94771312 -3.11864958 3.02230044 -3.06640625 1.09765625 C-2.06640625 0.09765625 -2.06640625 0.09765625 0 0 Z " fill="#FAFCFC" transform="translate(162.06640625,46.90234375)"/>
<path d="M0 0 C0.33 0.66 0.66 1.32 1 2 C3.64 2 6.28 2 9 2 C9 4.97 9 7.94 9 11 C6.03 11 3.06 11 0 11 C0 7.37 0 3.74 0 0 Z " fill="#EEEFEE" transform="translate(56,120)"/>
<path d="M0 0 C2.97 0 5.94 0 9 0 C9 2.97 9 5.94 9 9 C6.03 9 3.06 9 0 9 C0 6.03 0 3.06 0 0 Z " fill="#FFFFFF" transform="translate(197,216)"/>
<path d="M0 0 C2.97 0 5.94 0 9 0 C9 2.97 9 5.94 9 9 C6.03 9 3.06 9 0 9 C0 6.03 0 3.06 0 0 Z " fill="#EEEEEE" transform="translate(188,216)"/>
<path d="M0 0 C2.97 0 5.94 0 9 0 C9 2.97 9 5.94 9 9 C6.03 9 3.06 9 0 9 C0 6.03 0 3.06 0 0 Z " fill="#EEEEEE" transform="translate(169,216)"/>
<path d="M0 0 C2.97 0 5.94 0 9 0 C9 2.97 9 5.94 9 9 C6.03 9 3.06 9 0 9 C0 6.03 0 3.06 0 0 Z " fill="#EEEEEE" transform="translate(75,216)"/>
<path d="M0 0 C2.97 0 5.94 0 9 0 C9 2.97 9 5.94 9 9 C6.03 9 3.06 9 0 9 C0 6.03 0 3.06 0 0 Z " fill="#FFFFFF" transform="translate(47,216)"/>
<path d="M0 0 C2.97 0 5.94 0 9 0 C9 2.97 9 5.94 9 9 C6.03 9 3.06 9 0 9 C0 6.03 0 3.06 0 0 Z " fill="#EEEEEE" transform="translate(38,216)"/>
<path d="M0 0 C2.97 0 5.94 0 9 0 C9 2.97 9 5.94 9 9 C6.03 9 3.06 9 0 9 C0 6.03 0 3.06 0 0 Z " fill="#EEEEEE" transform="translate(19,216)"/>
<path d="M0 0 C2.97 0 5.94 0 9 0 C9 2.97 9 5.94 9 9 C6.03 9 3.06 9 0 9 C0 6.03 0 3.06 0 0 Z " fill="#FFFFFF" transform="translate(216,197)"/>
<path d="M0 0 C2.97 0 5.94 0 9 0 C9 2.97 9 5.94 9 9 C6.03 9 3.06 9 0 9 C0 6.03 0 3.06 0 0 Z " fill="#FFFFFF" transform="translate(197,197)"/>
<path d="M0 0 C2.97 0 5.94 0 9 0 C9 2.97 9 5.94 9 9 C6.03 9 3.06 9 0 9 C0 6.03 0 3.06 0 0 Z " fill="#EEEEEE" transform="translate(188,197)"/>
<path d="M0 0 C2.97 0 5.94 0 9 0 C9 2.97 9 5.94 9 9 C6.03 9 3.06 9 0 9 C0 6.03 0 3.06 0 0 Z " fill="#EEEEEE" transform="translate(169,197)"/>
<path d="M0 0 C2.97 0 5.94 0 9 0 C9 2.97 9 5.94 9 9 C6.03 9 3.06 9 0 9 C0 6.03 0 3.06 0 0 Z " fill="#FFFFFF" transform="translate(141,197)"/>
<path d="M0 0 C2.97 0 5.94 0 9 0 C9 2.97 9 5.94 9 9 C6.03 9 3.06 9 0 9 C0 6.03 0 3.06 0 0 Z " fill="#FFFFFF" transform="translate(66,197)"/>
<path d="M0 0 C2.97 0 5.94 0 9 0 C9 2.97 9 5.94 9 9 C6.03 9 3.06 9 0 9 C0 6.03 0 3.06 0 0 Z " fill="#EEEEEE" transform="translate(38,197)"/>
<path d="M0 0 C2.97 0 5.94 0 9 0 C9 2.97 9 5.94 9 9 C6.03 9 3.06 9 0 9 C0 6.03 0 3.06 0 0 Z " fill="#EEEEEE" transform="translate(19,197)"/>
<path d="M0 0 C2.97 0 5.94 0 9 0 C9 2.97 9 5.94 9 9 C6.03 9 3.06 9 0 9 C0 6.03 0 3.06 0 0 Z " fill="#EEEEEE" transform="translate(216,188)"/>
<path d="M0 0 C2.97 0 5.94 0 9 0 C9 2.97 9 5.94 9 9 C6.03 9 3.06 9 0 9 C0 6.03 0 3.06 0 0 Z " fill="#EEEEEE" transform="translate(197,188)"/>
<path d="M0 0 C2.97 0 5.94 0 9 0 C9 2.97 9 5.94 9 9 C6.03 9 3.06 9 0 9 C0 6.03 0 3.06 0 0 Z " fill="#EEEEEE" transform="translate(178,188)"/>
<path d="M0 0 C2.97 0 5.94 0 9 0 C9 2.97 9 5.94 9 9 C6.03 9 3.06 9 0 9 C0 6.03 0 3.06 0 0 Z " fill="#EEEEEE" transform="translate(47,188)"/>
<path d="M0 0 C2.97 0 5.94 0 9 0 C9 2.97 9 5.94 9 9 C6.03 9 3.06 9 0 9 C0 6.03 0 3.06 0 0 Z " fill="#EEEEEE" transform="translate(28,188)"/>
<path d="M0 0 C2.97 0 5.94 0 9 0 C9 2.97 9 5.94 9 9 C6.03 9 3.06 9 0 9 C0 6.03 0 3.06 0 0 Z " fill="#EEEEEE" transform="translate(188,178)"/>
<path d="M0 0 C2.97 0 5.94 0 9 0 C9 2.97 9 5.94 9 9 C6.03 9 3.06 9 0 9 C0 6.03 0 3.06 0 0 Z " fill="#EEEEEE" transform="translate(169,178)"/>
<path d="M0 0 C2.97 0 5.94 0 9 0 C9 2.97 9 5.94 9 9 C6.03 9 3.06 9 0 9 C0 6.03 0 3.06 0 0 Z " fill="#EEEEEE" transform="translate(38,178)"/>
<path d="M0 0 C2.97 0 5.94 0 9 0 C9 2.97 9 5.94 9 9 C6.03 9 3.06 9 0 9 C0 6.03 0 3.06 0 0 Z " fill="#EEEEEE" transform="translate(19,178)"/>
<path d="M0 0 C2.97 0 5.94 0 9 0 C9 2.97 9 5.94 9 9 C6.03 9 3.06 9 0 9 C0 6.03 0 3.06 0 0 Z " fill="#EEEEEE" transform="translate(216,169)"/>
<path d="M0 0 C2.97 0 5.94 0 9 0 C9 2.97 9 5.94 9 9 C6.03 9 3.06 9 0 9 C0 6.03 0 3.06 0 0 Z " fill="#EEEEEE" transform="translate(197,169)"/>
<path d="M0 0 C2.97 0 5.94 0 9 0 C9 2.97 9 5.94 9 9 C6.03 9 3.06 9 0 9 C0 6.03 0 3.06 0 0 Z " fill="#EEEEEE" transform="translate(178,169)"/>
<path d="M0 0 C2.97 0 5.94 0 9 0 C9 2.97 9 5.94 9 9 C6.03 9 3.06 9 0 9 C0 6.03 0 3.06 0 0 Z " fill="#EEEEEE" transform="translate(28,169)"/>
<path d="M0 0 C2.97 0 5.94 0 9 0 C9 2.97 9 5.94 9 9 C6.03 9 3.06 9 0 9 C0 6.03 0 3.06 0 0 Z " fill="#FFFFFF" transform="translate(19,169)"/>
<path d="M0 0 C2.97 0 5.94 0 9 0 C9 2.97 9 5.94 9 9 C6.03 9 3.06 9 0 9 C0 6.03 0 3.06 0 0 Z " fill="#FFFFFF" transform="translate(141,141)"/>
<path d="M0 0 C2.97 0 5.94 0 9 0 C9 2.97 9 5.94 9 9 C6.03 9 3.06 9 0 9 C0 6.03 0 3.06 0 0 Z " fill="#EEEEEE" transform="translate(0,141)"/>
<path d="M0 0 C2.97 0 5.94 0 9 0 C9 2.97 9 5.94 9 9 C6.03 9 3.06 9 0 9 C0 6.03 0 3.06 0 0 Z " fill="#FFFFFF" transform="translate(66,122)"/>
<path d="M0 0 C2.97 0 5.94 0 9 0 C9 2.97 9 5.94 9 9 C6.03 9 3.06 9 0 9 C0 6.03 0 3.06 0 0 Z " fill="#EEEEEE" transform="translate(216,75)"/>
<path d="M0 0 C2.97 0 5.94 0 9 0 C9 2.97 9 5.94 9 9 C6.03 9 3.06 9 0 9 C0 6.03 0 3.06 0 0 Z " fill="#FFFFFF" transform="translate(19,75)"/>
<path d="M0 0 C2.97 0 5.94 0 9 0 C9 2.97 9 5.94 9 9 C6.03 9 3.06 9 0 9 C0 6.03 0 3.06 0 0 Z " fill="#FFFFFF" transform="translate(0,75)"/>
<path d="M0 0 C2.97 0 5.94 0 9 0 C9 2.97 9 5.94 9 9 C6.03 9 3.06 9 0 9 C0 6.03 0 3.06 0 0 Z " fill="#FFFFFF" transform="translate(197,66)"/>
<path d="M0 0 C2.97 0 5.94 0 9 0 C9 2.97 9 5.94 9 9 C6.03 9 3.06 9 0 9 C0 6.03 0 3.06 0 0 Z " fill="#EEEEEE" transform="translate(188,66)"/>
<path d="M0 0 C2.97 0 5.94 0 9 0 C9 2.97 9 5.94 9 9 C6.03 9 3.06 9 0 9 C0 6.03 0 3.06 0 0 Z " fill="#EEEEEE" transform="translate(19,66)"/>
<path d="M0 0 C2.97 0 5.94 0 9 0 C9 2.97 9 5.94 9 9 C6.03 9 3.06 9 0 9 C0 6.03 0 3.06 0 0 Z " fill="#FFFFFF" transform="translate(216,47)"/>
<path d="M0 0 C2.97 0 5.94 0 9 0 C9 2.97 9 5.94 9 9 C6.03 9 3.06 9 0 9 C0 6.03 0 3.06 0 0 Z " fill="#FFFFFF" transform="translate(197,47)"/>
<path d="M0 0 C2.97 0 5.94 0 9 0 C9 2.97 9 5.94 9 9 C6.03 9 3.06 9 0 9 C0 6.03 0 3.06 0 0 Z " fill="#EEEEEE" transform="translate(188,47)"/>
<path d="M0 0 C2.97 0 5.94 0 9 0 C9 2.97 9 5.94 9 9 C6.03 9 3.06 9 0 9 C0 6.03 0 3.06 0 0 Z " fill="#FFFFFF" transform="translate(47,47)"/>
<path d="M0 0 C2.97 0 5.94 0 9 0 C9 2.97 9 5.94 9 9 C6.03 9 3.06 9 0 9 C0 6.03 0 3.06 0 0 Z " fill="#EEEEEE" transform="translate(38,47)"/>
<path d="M0 0 C2.97 0 5.94 0 9 0 C9 2.97 9 5.94 9 9 C6.03 9 3.06 9 0 9 C0 6.03 0 3.06 0 0 Z " fill="#EEEEEE" transform="translate(19,47)"/>
<path d="M0 0 C2.97 0 5.94 0 9 0 C9 2.97 9 5.94 9 9 C6.03 9 3.06 9 0 9 C0 6.03 0 3.06 0 0 Z " fill="#EEEEEE" transform="translate(216,38)"/>
<path d="M0 0 C2.97 0 5.94 0 9 0 C9 2.97 9 5.94 9 9 C6.03 9 3.06 9 0 9 C0 6.03 0 3.06 0 0 Z " fill="#EEEEEE" transform="translate(197,38)"/>
<path d="M0 0 C2.97 0 5.94 0 9 0 C9 2.97 9 5.94 9 9 C6.03 9 3.06 9 0 9 C0 6.03 0 3.06 0 0 Z " fill="#EEEEEE" transform="translate(178,38)"/>
<path d="M0 0 C2.97 0 5.94 0 9 0 C9 2.97 9 5.94 9 9 C6.03 9 3.06 9 0 9 C0 6.03 0 3.06 0 0 Z " fill="#EEEEEE" transform="translate(47,38)"/>
<path d="M0 0 C2.97 0 5.94 0 9 0 C9 2.97 9 5.94 9 9 C6.03 9 3.06 9 0 9 C0 6.03 0 3.06 0 0 Z " fill="#EEEEEE" transform="translate(28,38)"/>
<path d="M0 0 C2.97 0 5.94 0 9 0 C9 2.97 9 5.94 9 9 C6.03 9 3.06 9 0 9 C0 6.03 0 3.06 0 0 Z " fill="#EEEEEE" transform="translate(188,28)"/>
<path d="M0 0 C2.97 0 5.94 0 9 0 C9 2.97 9 5.94 9 9 C6.03 9 3.06 9 0 9 C0 6.03 0 3.06 0 0 Z " fill="#EEEEEE" transform="translate(38,28)"/>
<path d="M0 0 C2.97 0 5.94 0 9 0 C9 2.97 9 5.94 9 9 C6.03 9 3.06 9 0 9 C0 6.03 0 3.06 0 0 Z " fill="#EEEEEE" transform="translate(216,19)"/>
<path d="M0 0 C2.97 0 5.94 0 9 0 C9 2.97 9 5.94 9 9 C6.03 9 3.06 9 0 9 C0 6.03 0 3.06 0 0 Z " fill="#EEEEEE" transform="translate(197,19)"/>
<path d="M0 0 C2.97 0 5.94 0 9 0 C9 2.97 9 5.94 9 9 C6.03 9 3.06 9 0 9 C0 6.03 0 3.06 0 0 Z " fill="#EEEEEE" transform="translate(178,19)"/>
<path d="M0 0 C2.97 0 5.94 0 9 0 C9 2.97 9 5.94 9 9 C6.03 9 3.06 9 0 9 C0 6.03 0 3.06 0 0 Z " fill="#FFFFFF" transform="translate(169,19)"/>
<path d="M0 0 C3.46679688 0.04882812 3.46679688 0.04882812 6.93359375 0.09765625 C6.93359375 3.06765625 6.93359375 6.03765625 6.93359375 9.09765625 C5.61359375 8.43765625 4.29359375 7.77765625 2.93359375 7.09765625 C2.60359375 7.75765625 2.27359375 8.41765625 1.93359375 9.09765625 C0.28359375 9.09765625 -1.36640625 9.09765625 -3.06640625 9.09765625 C-3.1640625 2.9453125 -3.1640625 2.9453125 -3.06640625 1.09765625 C-2.06640625 0.09765625 -2.06640625 0.09765625 0 0 Z " fill="#FAFDFC" transform="translate(134.06640625,18.90234375)"/>
<path d="M0 0 C2.97 0 5.94 0 9 0 C9 2.97 9 5.94 9 9 C6.03 9 3.06 9 0 9 C0 6.03 0 3.06 0 0 Z " fill="#EEEEEE" transform="translate(66,19)"/>
<path d="M0 0 C2.97 0 5.94 0 9 0 C9 2.97 9 5.94 9 9 C6.03 9 3.06 9 0 9 C0 6.03 0 3.06 0 0 Z " fill="#EEEEEE" transform="translate(47,19)"/>
<path d="M0 0 C2.97 0 5.94 0 9 0 C9 2.97 9 5.94 9 9 C6.03 9 3.06 9 0 9 C0 6.03 0 3.06 0 0 Z " fill="#EEEEEE" transform="translate(28,19)"/>
<path d="M0 0 C2.97 0 5.94 0 9 0 C9 2.97 9 5.94 9 9 C6.03 9 3.06 9 0 9 C0 6.03 0 3.06 0 0 Z " fill="#FFFFFF" transform="translate(19,19)"/>
<path d="M0 0 C2.97 0 5.94 0 9 0 C9 2.97 9 5.94 9 9 C6.03 9 3.06 9 0 9 C0 6.03 0 3.06 0 0 Z " fill="#EEEEEE" transform="translate(141,0)"/>
<path d="M0 0 C2.97 0 5.94 0 9 0 C9 2.97 9 5.94 9 9 C6.03 9 3.06 9 0 9 C0 6.03 0 3.06 0 0 Z " fill="#FFFFFF" transform="translate(75,0)"/>
<path d="M0 0 C2.05078125 0.03255208 4.1015625 0.06510417 6.15234375 0.09765625 C6.15234375 3.06765625 6.15234375 6.03765625 6.15234375 9.09765625 C3.18234375 9.09765625 0.21234375 9.09765625 -2.84765625 9.09765625 C-2.9453125 2.9453125 -2.9453125 2.9453125 -2.84765625 1.09765625 C-1.84765625 0.09765625 -1.84765625 0.09765625 0 0 Z " fill="#FFFFFF" transform="translate(124.84765625,215.90234375)"/>
<path d="M0 0 C2.05078125 0.03255208 4.1015625 0.06510417 6.15234375 0.09765625 C6.15234375 3.06765625 6.15234375 6.03765625 6.15234375 9.09765625 C3.18234375 9.09765625 0.21234375 9.09765625 -2.84765625 9.09765625 C-2.9453125 2.9453125 -2.9453125 2.9453125 -2.84765625 1.09765625 C-1.84765625 0.09765625 -1.84765625 0.09765625 0 0 Z " fill="#FFFFFF" transform="translate(199.84765625,140.90234375)"/>
<path d="M0 0 C2.05078125 0.03255208 4.1015625 0.06510417 6.15234375 0.09765625 C6.15234375 3.06765625 6.15234375 6.03765625 6.15234375 9.09765625 C3.18234375 9.09765625 0.21234375 9.09765625 -2.84765625 9.09765625 C-2.9453125 2.9453125 -2.9453125 2.9453125 -2.84765625 1.09765625 C-1.84765625 0.09765625 -1.84765625 0.09765625 0 0 Z " fill="#FFFFFF" transform="translate(218.84765625,121.90234375)"/>
<path d="M0 0 C3.3 0 6.6 0 10 0 C10 2.97 10 5.94 10 9 C7.03 9 4.06 9 1 9 C0.67 6.03 0.34 3.06 0 0 Z " fill="#FCFDFD" transform="translate(93,57)"/>
<path d="M0 0 C2.1640625 -0.29296875 2.1640625 -0.29296875 4.625 -0.1875 C5.44226562 -0.16042969 6.25953125 -0.13335937 7.1015625 -0.10546875 C8.04128906 -0.05326172 8.04128906 -0.05326172 9 0 C6.76537994 4.79016959 4.51098025 8.98745115 1 13 C-1.2328877 10.7671123 -1.36778152 10.08090185 -1.75 7.0625 C-1.84796875 6.37285156 -1.9459375 5.68320313 -2.046875 4.97265625 C-2 3 -2 3 0 0 Z " fill="#E9EFEE" transform="translate(48,150)"/>
<path d="M0 0 C0.33 0 0.66 0 1 0 C0.67 4.29 0.34 8.58 0 13 C-2.97 13 -5.94 13 -9 13 C-9.33 11.68 -9.66 10.36 -10 9 C-9.01 8.34 -8.02 7.68 -7 7 C-6.67 6.01 -6.34 5.02 -6 4 C-4.02 4 -2.04 4 0 4 C0 2.68 0 1.36 0 0 Z " fill="#FDFEFE" transform="translate(159,71)"/>
<path d="M0 0 C0.33 2.64 0.66 5.28 1 8 C-2.3 9.32 -5.6 10.64 -9 12 C-9 9.69 -9 7.38 -9 5 C-9.66 4.67 -10.32 4.34 -11 4 C-9.5437455 3.32880451 -8.08492133 2.66318193 -6.625 2 C-5.81289062 1.62875 -5.00078125 1.2575 -4.1640625 0.875 C-2 0 -2 0 0 0 Z " fill="#E8EFEE" transform="translate(94,111)"/>
<path d="M0 0 C2.97 0.33 5.94 0.66 9 1 C9 3.64 9 6.28 9 9 C4.6109185 8.48964169 1.66291938 7.47785723 -2 5 C-1.34 3.35 -0.68 1.7 0 0 Z " fill="#F5FBFA" transform="translate(66,47)"/>
<path d="M0 0 C2.31 0 4.62 0 7 0 C6.85892253 1.45880109 6.71197585 2.91703551 6.5625 4.375 C6.48128906 5.18710938 6.40007812 5.99921875 6.31640625 6.8359375 C6 9 6 9 5 11 C3.02 11 1.04 11 -1 11 C-1.0270043 9.54176788 -1.04639787 8.08339325 -1.0625 6.625 C-1.07410156 5.81289062 -1.08570313 5.00078125 -1.09765625 4.1640625 C-1 2 -1 2 0 0 Z " fill="#F9FCFB" transform="translate(135,186)"/>
<path d="M0 0 C0.33 2.64 0.66 5.28 1 8 C-0.41750563 7.88490339 -1.83401169 7.75746342 -3.25 7.625 C-4.43335937 7.52058594 -4.43335937 7.52058594 -5.640625 7.4140625 C-8.085877 6.98492887 -9.84836903 6.21399362 -12 5 C-11.01 5 -10.02 5 -9 5 C-9 3.35 -9 1.7 -9 0 C-5.93109813 -1.53445094 -3.29905734 -0.54984289 0 0 Z " fill="#E3EEEC" transform="translate(112,133)"/>
<path d="M0 0 C2.64 0.99 5.28 1.98 8 3 C8 5.31 8 7.62 8 10 C3.82412255 11.39195915 1.86525224 9.82323219 -2 8 C-1.125 1.125 -1.125 1.125 0 0 Z " fill="#E8EEEE" transform="translate(179,93)"/>
<path d="M0 0 C5.94 0.99 5.94 0.99 12 2 C11.01 2.33 10.02 2.66 9 3 C9.020625 3.804375 9.04125 4.60875 9.0625 5.4375 C9 8 9 8 8 9 C6.47480724 8.91062197 4.95318071 8.75462854 3.4375 8.5625 C2.61121094 8.46066406 1.78492188 8.35882813 0.93359375 8.25390625 C0.29550781 8.17011719 -0.34257812 8.08632812 -1 8 C-0.67 5.36 -0.34 2.72 0 0 Z " fill="#E6EEED" transform="translate(10,112)"/>
<path d="M0 0 C1.4800841 0.11362262 2.95910074 0.24122908 4.4375 0.375 C5.26121094 0.44460937 6.08492187 0.51421875 6.93359375 0.5859375 C7.95646484 0.79089844 7.95646484 0.79089844 9 1 C10.43088528 3.86177057 9.59991697 5.93375773 9 9 C4.87248551 8.39301257 1.6678852 6.96189209 -2 5 C-1.34 4.67 -0.68 4.34 0 4 C0 2.68 0 1.36 0 0 Z " fill="#F7FCFC" transform="translate(197,103)"/>
<path d="M0 0 C2.97 0 5.94 0 9 0 C9 0.99 9 1.98 9 3 C9.66 3.33 10.32 3.66 11 4 C8.69 3.67 6.38 3.34 4 3 C4.515625 3.94875 5.03125 4.8975 5.5625 5.875 C6.036875 6.90625 6.51125 7.9375 7 9 C6.67 9.66 6.34 10.32 6 11 C3.69 11 1.38 11 -1 11 C-0.67 7.37 -0.34 3.74 0 0 Z " fill="#FBFCFC" transform="translate(75,131)"/>
<path d="M0 0 C2.97 0.33 5.94 0.66 9 1 C9 2.98 9 4.96 9 7 C10.32 7.33 11.64 7.66 13 8 C3.58997722 8.3690205 3.58997722 8.3690205 -1 6 C-0.67 4.02 -0.34 2.04 0 0 Z " fill="#FAFCFC" transform="translate(19,115)"/>
<path d="M0 0 C2.64 0 5.28 0 8 0 C7.34 1.65 6.68 3.3 6 5 C6.66 5 7.32 5 8 5 C8.33 6.32 8.66 7.64 9 9 C6.03 9 3.06 9 0 9 C0 6.03 0 3.06 0 0 Z " fill="#EAEEED" transform="translate(75,122)"/>
<path d="M0 0 C2.97 0 5.94 0 9 0 C9.33 0.99 9.66 1.98 10 3 C8.68 3.33 7.36 3.66 6 4 C5.67 5.65 5.34 7.3 5 9 C3.02 9.33 1.04 9.66 -1 10 C-0.67 6.7 -0.34 3.4 0 0 Z " fill="#FEFEFE" transform="translate(150,94)"/>
<path d="M0 0 C-2.475 4.455 -2.475 4.455 -5 9 C-6.65 9 -8.3 9 -10 9 C-11.1875 6.75 -11.1875 6.75 -12 4 C-10.02475354 -1.6218553 -5.01373036 -0.29065104 0 0 Z " fill="#E9EFEE" transform="translate(123,47)"/>
<path d="M0 0 C0.99 0.33 1.98 0.66 3 1 C3 3.97 3 6.94 3 10 C0.03 10 -2.94 10 -6 10 C-6 8.02 -6 6.04 -6 4 C-4.7934375 3.566875 -4.7934375 3.566875 -3.5625 3.125 C-0.8673532 2.26737432 -0.8673532 2.26737432 0 0 Z " fill="#EDEEEE" transform="translate(72,112)"/>
<path d="M0 0 C1.98 0 3.96 0 6 0 C6 3.3 6 6.6 6 10 C3.03 10 0.06 10 -3 10 C-2.34 8.35 -1.68 6.7 -1 5 C-0.34 5 0.32 5 1 5 C0.67 3.35 0.34 1.7 0 0 Z " fill="#FBFDFD" transform="translate(144,84)"/>
<path d="M0 0 C1.5625 1.625 1.5625 1.625 3 4 C2.6875 7.25 2.6875 7.25 2 10 C0.68 10.33 -0.64 10.66 -2 11 C-3.00276773 9.52270825 -4.00214454 8.04311423 -5 6.5625 C-5.556875 5.73878906 -6.11375 4.91507813 -6.6875 4.06640625 C-8 2 -8 2 -8 1 C-5.36 0.67 -2.72 0.34 0 0 Z " fill="#E7EEED" transform="translate(120,196)"/>
<path d="M0 0 C0 2.31 0 4.62 0 7 C0.66 7.33 1.32 7.66 2 8 C-1.98196457 9.05404945 -4.98195309 8.84098656 -9 8 C-9 7.01 -9 6.02 -9 5 C-9.66 4.67 -10.32 4.34 -11 4 C-9.35500958 3.33125616 -7.70898352 2.66505926 -6.0625 2 C-5.14597656 1.62875 -4.22945313 1.2575 -3.28515625 0.875 C-1 0 -1 0 0 0 Z " fill="#E7EEED" transform="translate(131,95)"/>
<path d="M0 0 C0.33 1.65 0.66 3.3 1 5 C-3.95 6.485 -3.95 6.485 -9 8 C-9.33 5.36 -9.66 2.72 -10 0 C-6.7169902 -1.6415049 -3.57454967 -0.51888624 0 0 Z " fill="#E6EEED" transform="translate(56,131)"/>
<path d="M0 0 C1.32 0.33 2.64 0.66 4 1 C4.33 4.63 4.66 8.26 5 12 C4.67 11.34 4.34 10.68 4 10 C2.35 10 0.7 10 -1 10 C-1.33 10.66 -1.66 11.32 -2 12 C-2.17835515 7.45194365 -1.99785435 4.1205746 0 0 Z " fill="#F8FCFB" transform="translate(146,121)"/>
<path d="M0 0 C0.33 0 0.66 0 1 0 C1 1.65 1 3.3 1 5 C2.65 5 4.3 5 6 5 C6.25 12.625 6.25 12.625 4 16 C3.01 15.67 2.02 15.34 1 15 C0.67 10.05 0.34 5.1 0 0 Z " fill="#FBFCFC" transform="translate(140,154)"/>
<path d="M0 0 C4.95 1.98 4.95 1.98 10 4 C8 7 8 7 5.6171875 7.51171875 C4.71226562 7.56972656 3.80734375 7.62773438 2.875 7.6875 C1.96492187 7.75324219 1.05484375 7.81898437 0.1171875 7.88671875 C-0.93082031 7.94279297 -0.93082031 7.94279297 -2 8 C-1.125 1.125 -1.125 1.125 0 0 Z " fill="#E9EFEE" transform="translate(207,105)"/>
<path d="M0 0 C2.97 0.33 5.94 0.66 9 1 C9.33 2.32 9.66 3.64 10 5 C8.71211992 5.53012738 7.41953322 6.0488329 6.125 6.5625 C5.04605469 6.99755859 5.04605469 6.99755859 3.9453125 7.44140625 C2 8 2 8 0 7 C0 4.69 0 2.38 0 0 Z " fill="#E7EEED" transform="translate(178,74)"/>
<path d="M0 0 C2.97 0 5.94 0 9 0 C7.02 2.31 5.04 4.62 3 7 C4.32 7.66 5.64 8.32 7 9 C4.69 9.33 2.38 9.66 0 10 C0 6.7 0 3.4 0 0 Z " fill="#EAEFEE" transform="translate(0,103)"/>
<path d="M0 0 C3.40312738 1.05875074 6.01353231 2.00902154 9 4 C9 4.99 9 5.98 9 7 C7.02 7 5.04 7 3 7 C3 7.66 3 8.32 3 9 C2.01 8.67 1.02 8.34 0 8 C0 5.36 0 2.72 0 0 Z " fill="#EAEFEE" transform="translate(141,77)"/>
<path d="M0 0 C3.82524236 1.450954 5.19090966 3.38181932 7 7 C7 7.66 7 8.32 7 9 C4.36 9 1.72 9 -1 9 C-1.09765625 2.84765625 -1.09765625 2.84765625 -1 1 C-0.67 0.67 -0.34 0.34 0 0 Z " fill="#F8FCFC" transform="translate(113,188)"/>
<path d="M0 0 C1.65 0.33 3.3 0.66 5 1 C5 3.97 5 6.94 5 10 C3.02 10 1.04 10 -1 10 C-0.67 6.7 -0.34 3.4 0 0 Z " fill="#E8EEED" transform="translate(154,65)"/>
<path d="M0 0 C1.37432457 3.81756824 0.67975039 7.07255329 0 11 C-1.65 10.67 -3.3 10.34 -5 10 C-5 7.03 -5 4.06 -5 1 C-3.35 0.67 -1.7 0.34 0 0 Z " fill="#E4EDEC" transform="translate(155,102)"/>
<path d="M0 0 C2.97 0 5.94 0 9 0 C9 1.98 9 3.96 9 6 C6.03 5.67 3.06 5.34 0 5 C0 3.35 0 1.7 0 0 Z " fill="#E9EEEE" transform="translate(85,131)"/>
<path d="M0 0 C0.33 0 0.66 0 1 0 C1 2.97 1 5.94 1 9 C-1.97 9 -4.94 9 -8 9 C-2.25 2.25 -2.25 2.25 0 0 Z " fill="#EDF0F0" transform="translate(168,169)"/>
<path d="M0 0 C2.97 0 5.94 0 9 0 C3.375 6.75 3.375 6.75 0 9 C0 6.03 0 3.06 0 0 Z " fill="#ECEFEF" transform="translate(47,56)"/>
<path d="M0 0 C2.97 0 5.94 0 9 0 C3.375 6.75 3.375 6.75 0 9 C0 6.03 0 3.06 0 0 Z " fill="#ECEFEF" transform="translate(75,28)"/>
<path d="M0 0 C2.97 0 5.94 0 9 0 C3.375 6.75 3.375 6.75 0 9 C0 6.03 0 3.06 0 0 Z " fill="#ECEFEF" transform="translate(103,0)"/>
<path d="M0 0 C4.2742558 1.5830577 6.26531794 4.50568404 9 8 C6.03 8 3.06 8 0 8 C0 5.36 0 2.72 0 0 Z " fill="#FAFDFD" transform="translate(103,217)"/>
<path d="M0 0 C4.2742558 1.5830577 6.26531794 4.50568404 9 8 C6.03 8 3.06 8 0 8 C0 5.36 0 2.72 0 0 Z " fill="#F9FCFC" transform="translate(94,208)"/>
<path d="M0 0 C4.2742558 1.5830577 6.26531794 4.50568404 9 8 C6.03 8 3.06 8 0 8 C0 5.36 0 2.72 0 0 Z " fill="#F9FDFC" transform="translate(56,170)"/>
<path d="M0 0 C0.66 0 1.32 0 2 0 C2 2.64 2 5.28 2 8 C-0.97 8 -3.94 8 -7 8 C-6.02133662 6.85373678 -5.04205413 5.70800212 -4.0625 4.5625 C-3.51722656 3.92441406 -2.97195312 3.28632813 -2.41015625 2.62890625 C-1.63204305 1.73008851 -0.84063472 0.84063472 0 0 Z " fill="#EEF0F0" transform="translate(176,161)"/>
<path d="M0 0 C4.2742558 1.5830577 6.26531794 4.50568404 9 8 C6.03 8 3.06 8 0 8 C0 5.36 0 2.72 0 0 Z " fill="#F9FCFC" transform="translate(19,133)"/>
<path d="M0 0 C2.64 0 5.28 0 8 0 C8 2.97 8 5.94 8 9 C1.125 3.375 1.125 3.375 0 0 Z " fill="#FAFDFD" transform="translate(217,103)"/>
<path d="M0 0 C2.64 0 5.28 0 8 0 C8 2.97 8 5.94 8 9 C1.125 3.375 1.125 3.375 0 0 Z " fill="#F9FCFC" transform="translate(208,94)"/>
<path d="M0 0 C-0.33 1.98 -0.66 3.96 -1 6 C-4.34373475 5.44271087 -7.03312999 4.64826111 -10 3 C-9.67 2.01 -9.34 1.02 -9 0 C-2.25 -1.125 -2.25 -1.125 0 0 Z " fill="#F9FDFC" transform="translate(179,94)"/>
<path d="M0 0 C2.05078125 0.03255208 4.1015625 0.06510417 6.15234375 0.09765625 C5.21960266 1.22660501 4.28094253 2.35066501 3.33984375 3.47265625 C2.81777344 4.09914063 2.29570312 4.725625 1.7578125 5.37109375 C0.15234375 7.09765625 0.15234375 7.09765625 -2.84765625 9.09765625 C-2.9453125 2.9453125 -2.9453125 2.9453125 -2.84765625 1.09765625 C-1.84765625 0.09765625 -1.84765625 0.09765625 0 0 Z " fill="#EDF0F0" transform="translate(11.84765625,93.90234375)"/>
<path d="M0 0 C2.05078125 0.03255208 4.1015625 0.06510417 6.15234375 0.09765625 C5.21960266 1.22660501 4.28094253 2.35066501 3.33984375 3.47265625 C2.81777344 4.09914063 2.29570312 4.725625 1.7578125 5.37109375 C0.15234375 7.09765625 0.15234375 7.09765625 -2.84765625 9.09765625 C-2.9453125 2.9453125 -2.9453125 2.9453125 -2.84765625 1.09765625 C-1.84765625 0.09765625 -1.84765625 0.09765625 0 0 Z " fill="#EDF0F0" transform="translate(21.84765625,83.90234375)"/>
<path d="M0 0 C3.39417765 3.12621626 5.6062718 5.56541027 7 10 C4.03 9.505 4.03 9.505 1 9 C0.67 9.99 0.34 10.98 0 12 C-0.66 10.68 -1.32 9.36 -2 8 C-1.34 8 -0.68 8 0 8 C0 5.36 0 2.72 0 0 Z " fill="#F5FAF9" transform="translate(37,76)"/>
<path d="M0 0 C2.64 0 5.28 0 8 0 C8 2.97 8 5.94 8 9 C1.125 3.375 1.125 3.375 0 0 Z " fill="#F9FDFC" transform="translate(170,56)"/>
<path d="M0 0 C2.05078125 0.03255208 4.1015625 0.06510417 6.15234375 0.09765625 C5.21960266 1.22660501 4.28094253 2.35066501 3.33984375 3.47265625 C2.81777344 4.09914063 2.29570313 4.725625 1.7578125 5.37109375 C0.15234375 7.09765625 0.15234375 7.09765625 -2.84765625 9.09765625 C-2.9453125 2.9453125 -2.9453125 2.9453125 -2.84765625 1.09765625 C-1.84765625 0.09765625 -1.84765625 0.09765625 0 0 Z " fill="#EDF0F0" transform="translate(86.84765625,18.90234375)"/>
<path d="M0 0 C2.05078125 0.03255208 4.1015625 0.06510417 6.15234375 0.09765625 C5.21960266 1.22660501 4.28094253 2.35066501 3.33984375 3.47265625 C2.81777344 4.09914063 2.29570313 4.725625 1.7578125 5.37109375 C0.15234375 7.09765625 0.15234375 7.09765625 -2.84765625 9.09765625 C-2.9453125 2.9453125 -2.9453125 2.9453125 -2.84765625 1.09765625 C-1.84765625 0.09765625 -1.84765625 0.09765625 0 0 Z " fill="#EDF0F0" transform="translate(96.84765625,8.90234375)"/>
<path d="M0 0 C2.97 0 5.94 0 9 0 C9 2.64 9 5.28 9 8 C4.7257442 6.4169423 2.73468206 3.49431596 0 0 Z " fill="#FAFDFD" transform="translate(113,0)"/>
<path d="M0 0 C3.36179774 1.44077046 5.59156268 3.24750021 8 6 C8 6.66 8 7.32 8 8 C5.36 8 2.72 8 0 8 C0 5.36 0 2.72 0 0 Z " fill="#F9FCFC" transform="translate(84,198)"/>
<path d="M0 0 C3.36179774 1.44077046 5.59156268 3.24750021 8 6 C8 6.66 8 7.32 8 8 C5.36 8 2.72 8 0 8 C0 5.36 0 2.72 0 0 Z " fill="#FAFDFD" transform="translate(75,189)"/>
<path d="M0 0 C2.6486859 3.19668988 4.93992341 6.39486597 7 10 C6 11 6 11 2.9375 11.0625 C1.968125 11.041875 0.99875 11.02125 0 11 C0 7.37 0 3.74 0 0 Z " fill="#E8EFEE" transform="translate(94,158)"/>
<path d="M0 0 C3.36179774 1.44077046 5.59156268 3.24750021 8 6 C8 6.66 8 7.32 8 8 C5.36 8 2.72 8 0 8 C0 5.36 0 2.72 0 0 Z " fill="#F9FCFC" transform="translate(9,123)"/>
<path d="M0 0 C2.64 0 5.28 0 8 0 C8 2.64 8 5.28 8 8 C4.63820226 6.55922954 2.40843732 4.75249979 0 2 C0 1.34 0 0.68 0 0 Z " fill="#F9FCFC" transform="translate(198,84)"/>
<path d="M0 0 C0.33 2.97 0.66 5.94 1 9 C-1.64 9 -4.28 9 -7 9 C-5.99432671 5.98298013 -3.90847918 0 0 0 Z " fill="#F8FCFC" transform="translate(122,38)"/>
<path d="M0 0 C2.64 0 5.28 0 8 0 C8 2.64 8 5.28 8 8 C4.63820226 6.55922954 2.40843732 4.75249979 0 2 C0 1.34 0 0.68 0 0 Z " fill="#FAFDFD" transform="translate(142,28)"/>
<path d="M0 0 C2.64 0 5.28 0 8 0 C8 2.64 8 5.28 8 8 C4.63820226 6.55922954 2.40843732 4.75249979 0 2 C0 1.34 0 0.68 0 0 Z " fill="#F9FCFC" transform="translate(123,9)"/>
<path d="M0 0 C6.57142857 4 6.57142857 4 8 8 C5.36 8 2.72 8 0 8 C0 5.36 0 2.72 0 0 Z " fill="#FBFDFD" transform="translate(47,161)"/>
<path d="M0 0 C2.97 0 5.94 0 9 0 C9 1.65 9 3.3 9 5 C5.7 4.67 2.4 4.34 -1 4 C-0.67 2.68 -0.34 1.36 0 0 Z " fill="#E7EEED" transform="translate(38,122)"/>
<path d="M0 0 C1.67542976 0.28604898 3.34385343 0.61781233 5 1 C5 1.66 5 2.32 5 3 C3.35 3 1.7 3 0 3 C0 3.99 0 4.98 0 6 C-5.53846154 5.38461538 -5.53846154 5.38461538 -7.875 3.4375 C-8.24625 2.963125 -8.6175 2.48875 -9 2 C-6.94921875 1.77213542 -4.8984375 1.54427083 -2.84765625 1.31640625 C-0.98859771 1.18113386 -0.98859771 1.18113386 0 0 Z " fill="#F4F9F9" transform="translate(216,110)"/>
<path d="M0 0 C1.98 0.495 1.98 0.495 4 1 C4 3.97 4 6.94 4 10 C2.35 9.67 0.7 9.34 -1 9 C-0.67 6.03 -0.34 3.06 0 0 Z " fill="#E9EFEE" transform="translate(136,177)"/>
<path d="M0 0 C0.33 0.66 0.66 1.32 1 2 C5.455 1.505 5.455 1.505 10 1 C10 2.65 10 4.3 10 6 C8.52093108 6.02689216 7.04172517 6.04634621 5.5625 6.0625 C4.32693359 6.07990234 4.32693359 6.07990234 3.06640625 6.09765625 C1 6 1 6 0 5 C-0.04063832 3.33382885 -0.042721 1.66611905 0 0 Z " fill="#EAEFEF" transform="translate(159,78)"/>
<path d="M0 0 C2.31 0 4.62 0 7 0 C4.525 4.455 4.525 4.455 2 9 C1.34 8.67 0.68 8.34 0 8 C0 5.36 0 2.72 0 0 Z " fill="#E7EEEE" transform="translate(56,141)"/>
<path d="M0 0 C2.97 0.99 5.94 1.98 9 3 C8.67 3.66 8.34 4.32 8 5 C5.66752239 5.33926947 3.33414529 5.67240066 1 6 C0.34 6.66 -0.32 7.32 -1 8 C-1.66 7.67 -2.32 7.34 -3 7 C-3 6.34 -3 5.68 -3 5 C-2.01 5 -1.02 5 0 5 C0 3.35 0 1.7 0 0 Z " fill="#E8EFEF" transform="translate(169,89)"/>
<path d="M0 0 C0.33 0 0.66 0 1 0 C1 2.64 1 5.28 1 8 C-1.64 8 -4.28 8 -7 8 C-6.02133662 6.85373678 -5.04205413 5.70800212 -4.0625 4.5625 C-3.51722656 3.92441406 -2.97195312 3.28632813 -2.41015625 2.62890625 C-1.63204305 1.73008851 -0.84063472 0.84063472 0 0 Z " fill="#ECF0F0" transform="translate(158,179)"/>
<path d="M0 0 C3.63 0.66 7.26 1.32 11 2 C10.01 2.495 10.01 2.495 9 3 C9 3.66 9 4.32 9 5 C6.03 5 3.06 5 0 5 C0 3.35 0 1.7 0 0 Z " fill="#E5EEED" transform="translate(169,145)"/>
<path d="M0 0 C2.64 0 5.28 0 8 0 C7.04578192 1.14926266 6.08647955 2.29430541 5.125 3.4375 C4.59132813 4.07558594 4.05765625 4.71367188 3.5078125 5.37109375 C2 7 2 7 0 8 C0 5.36 0 2.72 0 0 Z " fill="#EBEFEF" transform="translate(38,66)"/>
<path d="M0 0 C1.98 0.66 3.96 1.32 6 2 C6 2.33 6 2.66 6 3 C4.35 3 2.7 3 1 3 C1 4.32 1 5.64 1 7 C-1.97 6.505 -1.97 6.505 -5 6 C-5.33 5.01 -5.66 4.02 -6 3 C-4.02 3 -2.04 3 0 3 C0 2.01 0 1.02 0 0 Z " fill="#F6FAFA" transform="translate(84,53)"/>
<path d="M0 0 C0.66 0 1.32 0 2 0 C2.66 1.65 3.32 3.3 4 5 C3.01 5 2.02 5 1 5 C1 6.98 1 8.96 1 11 C-0.65 9.35 -2.3 7.7 -4 6 C-3.67 5.34 -3.34 4.68 -3 4 C-2.01 4.33 -1.02 4.66 0 5 C0 3.35 0 1.7 0 0 Z " fill="#F3F9F8" transform="translate(84,145)"/>
<path d="M0 0 C2.31 0 4.62 0 7 0 C6.21718695 1.33855056 5.42348123 2.67073644 4.625 4 C4.18414062 4.7425 3.74328125 5.485 3.2890625 6.25 C2.86367187 6.8275 2.43828125 7.405 2 8 C1.34 8 0.68 8 0 8 C0 5.36 0 2.72 0 0 Z " fill="#E9EEEE" transform="translate(122,38)"/>
<path d="M0 0 C0.66 0 1.32 0 2 0 C2 2.97 2 5.94 2 9 C0.35 9 -1.3 9 -3 9 C-2.67 6.69 -2.34 4.38 -2 2 C-1.34 2 -0.68 2 0 2 C0 1.34 0 0.68 0 0 Z " fill="#E4EDEC" transform="translate(148,113)"/>
<path d="M0 0 C3.3 0.33 6.6 0.66 10 1 C9.67 1.99 9.34 2.98 9 4 C6.03 4 3.06 4 0 4 C0 2.68 0 1.36 0 0 Z " fill="#E7EEED" transform="translate(122,136)"/>
<path d="M0 0 C0 3.41099168 -0.49145406 6.63088314 -1 10 C-5.875 5.375 -5.875 5.375 -7 2 C-4.69 1.34 -2.38 0.68 0 0 Z " fill="#E9EFEF" transform="translate(113,186)"/>
<path d="M0 0 C1.32 0.33 2.64 0.66 4 1 C3.67 3.97 3.34 6.94 3 10 C2.01 9.67 1.02 9.34 0 9 C0 6.03 0 3.06 0 0 Z " fill="#E9EFEE" transform="translate(141,169)"/>
<path d="M0 0 C2.97 0 5.94 0 9 0 C9 1.32 9 2.64 9 4 C6 5 6 5 3.375 4.25 C1 3 1 3 0 0 Z " fill="#EBEFEE" transform="translate(188,103)"/>
<path d="M0 0 C2.97 0 5.94 0 9 0 C9 2.31 9 4.62 9 7 C8.67 7 8.34 7 8 7 C8 5.35 8 3.7 8 2 C5.69 2.66 3.38 3.32 1 4 C0.67 2.68 0.34 1.36 0 0 Z " fill="#E8EFEE" transform="translate(141,94)"/>
<path d="M0 0 C3.3 0 6.6 0 10 0 C6.48283697 3.51716303 4.80432667 3.54676163 0 4 C0 2.68 0 1.36 0 0 Z " fill="#E4EDEC" transform="translate(103,75)"/>
<path d="M0 0 C0.33 0 0.66 0 1 0 C1 2.31 1 4.62 1 7 C-1.31 7 -3.62 7 -6 7 C-5.02433888 5.83040013 -4.044375 4.66438823 -3.0625 3.5 C-2.51722656 2.8503125 -1.97195312 2.200625 -1.41015625 1.53125 C-0.71212891 0.77328125 -0.71212891 0.77328125 0 0 Z " fill="#EEEEEE" transform="translate(196,143)"/>
<path d="M0 0 C1.875 0.25 1.875 0.25 4 1 C5.25 3.0625 5.25 3.0625 6 5 C5 6 5 6 2.4375 6.0625 C1.2309375 6.0315625 1.2309375 6.0315625 0 6 C0 4.02 0 2.04 0 0 Z " fill="#E8EEEE" transform="translate(56,106)"/>
<path d="M0 0 C0 1.65 0 3.3 0 5 C-2.31 5 -4.62 5 -7 5 C-7.33 4.34 -7.66 3.68 -8 3 C-1.125 0 -1.125 0 0 0 Z " fill="#E8EFEE" transform="translate(103,107)"/>
<path d="M0 0 C1.65 0 3.3 0 5 0 C5.33 2.64 5.66 5.28 6 8 C5.34 8 4.68 8 4 8 C0 2.58823529 0 2.58823529 0 0 Z " fill="#F2FAFA" transform="translate(42,94)"/>
<path d="M0 0 C0.99 0.33 1.98 0.66 3 1 C2.67 4.3 2.34 7.6 2 11 C0 9 0 9 -0.1953125 6.8359375 C-0.17210937 6.02382813 -0.14890625 5.21171875 -0.125 4.375 C-0.10695312 3.55773438 -0.08890625 2.74046875 -0.0703125 1.8984375 C-0.04710937 1.27195313 -0.02390625 0.64546875 0 0 Z " fill="#E6EEED" transform="translate(160,56)"/>
<path d="M0 0 C2 2 2 2 2.1953125 4.1640625 C2.16050781 5.38222656 2.16050781 5.38222656 2.125 6.625 C2.10695312 7.44226563 2.08890625 8.25953125 2.0703125 9.1015625 C2.04710937 9.72804687 2.02390625 10.35453125 2 11 C1.01 10.67 0.02 10.34 -1 10 C-0.67 6.7 -0.34 3.4 0 0 Z " fill="#E7F2F1" transform="translate(139,158)"/>
<path d="M0 0 C2 2 2 2 2.1953125 4.1640625 C2.16050781 5.38222656 2.16050781 5.38222656 2.125 6.625 C2.10695312 7.44226562 2.08890625 8.25953125 2.0703125 9.1015625 C2.04710937 9.72804688 2.02390625 10.35453125 2 11 C1.01 11 0.02 11 -1 11 C-0.67 7.37 -0.34 3.74 0 0 Z " fill="#E1EDEC" transform="translate(157,45)"/>
<path d="M0 0 C3.16115776 1.36983503 3.9927092 1.9890638 6 5 C3.03 4.01 0.06 3.02 -3 2 C-2.01 1.34 -1.02 0.68 0 0 Z " fill="#30C9BA" transform="translate(218,107)"/>
<path d="M0 0 C1.37562854 1.28965176 2.70766393 2.62689293 4 4 C4 4.66 4 5.32 4 6 C2.68 6 1.36 6 0 6 C0 4.02 0 2.04 0 0 Z " fill="#F7FCFC" transform="translate(122,200)"/>
<path d="M0 0 C1.68762851 1.6454378 3.3540349 3.31288577 5 5 C5 5.33 5 5.66 5 6 C3.35 6 1.7 6 0 6 C0 4.02 0 2.04 0 0 Z " fill="#E6EFEE" transform="translate(103,172)"/>
<path d="M0 0 C0 0.99 0 1.98 0 3 C-2.31 3 -4.62 3 -7 3 C-4.49955934 -0.00052879 -4.2621484 0 0 0 Z " fill="#F7FCFB" transform="translate(122,100)"/>
</svg>
