<?xml version="1.0" encoding="UTF-8"?>
<svg version="1.1" xmlns="http://www.w3.org/2000/svg" width="512" height="512">
<path d="M0 0 C1.82782 1.10420466 3.59507374 2.26832967 5.35791016 3.47363281 C8.33564515 5.45013956 11.44959299 7.16002794 14.56689453 8.9050293 C17.26683172 10.41949937 19.94880655 11.96244178 22.62890625 13.51171875 C28.60051013 16.95240702 34.60881007 20.32552531 40.625 23.6875 C41.66938232 24.27144531 42.71376465 24.85539062 43.78979492 25.45703125 C45.91861821 26.64694121 48.04760654 27.83655593 50.17675781 29.02587891 C64.36440102 36.95146463 78.54216279 44.89374497 92.68286133 52.90283203 C97.78726376 55.7918172 102.89861095 58.66772458 108.01953125 61.52734375 C109.13199219 62.14867187 110.24445313 62.77 111.390625 63.41015625 C113.51874327 64.59776728 115.64759712 65.78406161 117.77734375 66.96875 C119.71883947 68.05219682 121.65650283 69.14254613 123.58984375 70.24047852 C125.44940992 71.29007061 127.32213086 72.31668388 129.20703125 73.32006836 C136.9598097 77.60283051 139.28981963 82.34987008 141.7578125 90.64697266 C142.06332031 91.71890869 142.06332031 91.71890869 142.375 92.8125 C142.68824219 93.87476807 142.68824219 93.87476807 143.0078125 94.95849609 C150.82068667 122.53225531 147.09560194 152.84796699 133.22924805 177.87036133 C128.580642 185.78316654 122.88202218 192.37963192 116.375 198.8125 C115.57320312 199.62460937 114.77140625 200.43671875 113.9453125 201.2734375 C101.20607304 213.51146098 81.29035878 224.00197456 63.375 223.8125 C63.37445523 223.11620137 63.37391047 222.41990274 63.37334919 221.70250416 C63.35838176 204.75983517 63.31593675 187.81748054 63.24290943 170.87496662 C63.20825647 162.68166947 63.18290352 154.48854061 63.17944336 146.29516602 C63.17640387 139.15378031 63.15591575 132.01269431 63.11447543 124.87142438 C63.09314195 121.09009306 63.08054634 117.30918784 63.08884621 113.52779579 C63.09638456 109.96773486 63.08057429 106.40853741 63.04693985 102.84863472 C63.0347796 100.9209022 63.04729935 98.99306339 63.06056213 97.06533813 C63.21246022 90.24973635 63.21246022 90.24973635 59.97642517 84.59292603 C56.42831367 82.16451356 56.42831367 82.16451356 52.734375 79.97265625 C51.84169922 79.47443359 50.94902344 78.97621094 50.02929688 78.46289062 C48.59166992 77.67688477 48.59166992 77.67688477 47.125 76.875 C46.11501953 76.31361328 45.10503906 75.75222656 44.06445312 75.17382812 C41.92304281 73.98386289 39.77976595 72.79725126 37.63476562 71.61376953 C32.36827978 68.70363378 27.12309681 65.75562284 21.875 62.8125 C19.77085323 61.63538111 17.6666866 60.45829771 15.5625 59.28125 C9.65750785 55.9744544 3.7645816 52.64664687 -2.125 49.3125 C-17.25528617 40.74788892 -32.42069779 32.24505822 -47.625 23.8125 C-47.625 23.1525 -47.625 22.4925 -47.625 21.8125 C-46.91593506 21.40523682 -46.20687012 20.99797363 -45.47631836 20.57836914 C-43.36393347 19.36436862 -41.25243717 18.14882125 -39.14160156 16.93212891 C-36.7489478 15.55409818 -34.35070758 14.18652914 -31.94824219 12.82568359 C-24.31813015 8.48512491 -24.31813015 8.48512491 -17.05078125 3.56640625 C-11.1281583 -0.7460581 -7.26001315 -3.44385239 0 0 Z " fill="#784FF2" transform="translate(334.625,178.1875)"/>
<path d="M0 0 C0.00496522 1.04583063 0.00496522 1.04583063 0.01003075 2.11278915 C0.09122405 19.07171465 0.18330441 36.03054593 0.28752708 52.98934555 C0.33766524 61.19046918 0.38410801 69.39158274 0.421875 77.59277344 C0.45479911 84.74029152 0.49463263 91.88773184 0.54279006 99.03516412 C0.56805091 102.82025079 0.58983339 106.6052859 0.60334396 110.39043427 C0.61616812 113.95270525 0.63822623 117.51479937 0.66738319 121.07697296 C0.68078428 123.0084747 0.6843798 124.94003666 0.68769836 126.87158203 C0.69886185 128.02140564 0.71002533 129.17122925 0.7215271 130.355896 C0.72705786 131.35511959 0.73258862 132.35434319 0.73828697 133.38384628 C1.00950808 136.09504531 1.54610655 137.71327165 3 140 C4.95801881 141.50306238 4.95801881 141.50306238 7.34765625 142.7421875 C8.24983887 143.24355225 9.15202148 143.74491699 10.08154297 144.26147461 C11.06525879 144.79393799 12.04897461 145.32640137 13.0625 145.875 C14.59994873 146.7249353 14.59994873 146.7249353 16.16845703 147.59204102 C18.34360599 148.79446178 20.52108303 149.99267924 22.70068359 151.18701172 C27.94509845 154.0688398 33.1578551 157.00669577 38.375 159.9375 C40.47107131 161.11118237 42.56742741 162.28435629 44.6640625 163.45703125 C45.70723633 164.04049316 46.75041016 164.62395508 47.82519531 165.22509766 C51.01586719 167.00887069 54.20712892 168.79158513 57.3984375 170.57421875 C69.86317394 177.54045274 82.29289914 184.56332125 94.67871094 191.66894531 C98.22094314 193.70010328 101.76672956 195.72502728 105.3125 197.75 C107.20833333 198.83333333 109.10416667 199.91666667 111 201 C108.29336379 203.88469928 105.67458313 205.97611998 102.25390625 207.953125 C100.88298828 208.75339111 100.88298828 208.75339111 99.484375 209.56982422 C98.52015625 210.12428223 97.5559375 210.67874023 96.5625 211.25 C88.62755023 215.8107027 88.62755023 215.8107027 80.87109375 220.6640625 C80.28835693 221.04401367 79.70562012 221.42396484 79.10522461 221.81542969 C77.61412254 222.79967045 76.13465891 223.80148146 74.65625 224.8046875 C71.23251932 226.34536631 69.62576525 225.86099087 66 225 C63.20532227 223.71582031 63.20532227 223.71582031 60.31640625 222.078125 C59.23601074 221.47154053 58.15561523 220.86495605 57.04248047 220.23999023 C55.88239198 219.57682631 54.72240092 218.91349193 53.5625 218.25 C52.35088152 217.56567549 51.13879775 216.88217418 49.92626953 216.19946289 C46.85630228 214.46839581 43.79212044 212.72736274 40.72943115 210.98345947 C38.15247633 209.51804663 35.57043305 208.06169993 32.98828125 206.60546875 C29.23741611 204.48947996 25.48895137 202.36933551 21.7421875 200.24609375 C15.67286778 196.81029468 9.58727228 193.40386307 3.5 190 C-5.45366111 184.99266399 -14.392513 179.9600628 -23.31835938 174.90332031 C-29.44809788 171.43345801 -35.5928914 167.99175093 -41.74707031 164.56542969 C-45.91511748 162.23928148 -50.07145625 159.89258549 -54.22851562 157.546875 C-56.71620896 156.158395 -59.21974462 154.80756791 -61.734375 153.46875 C-67.99278539 150.06931857 -73.39593333 147.09526992 -76.0859375 140.140625 C-76.38757813 139.10421875 -76.68921875 138.0678125 -77 137 C-77.21301758 136.28392578 -77.42603516 135.56785156 -77.64550781 134.83007812 C-86.61420287 104.23975723 -84.41856254 74.6759431 -69.14453125 46.38037109 C-65.9831678 40.74406987 -62.35811658 35.78329869 -58 31 C-57.11570312 30.02289063 -56.23140625 29.04578125 -55.3203125 28.0390625 C-41.78164386 13.57039587 -20.41414881 0 0 0 Z " fill="#784FF2" transform="translate(138,136)"/>
<path d="M0 0 C10.70477261 5.14798117 21.0392328 10.79602549 31.32421875 16.734375 C37.27054546 20.16666409 43.25638668 23.52613563 49.25 26.875 C50.29454346 27.45902588 51.33908691 28.04305176 52.4152832 28.64477539 C54.54393962 29.83461131 56.67276524 31.02414458 58.80175781 32.21337891 C74.2766915 40.8580785 89.73666555 49.52852615 105.1640625 58.2578125 C106.00098633 58.72606445 106.83791016 59.19431641 107.70019531 59.67675781 C109.12789394 60.49821499 110.53821377 61.35177191 111.91699219 62.25292969 C115.37653921 64.47929356 118.50729465 65.82102644 122.68261719 65.58349609 C128.17529361 64.2004897 132.8753057 60.79486619 137.625 57.8125 C138.83090634 57.0736816 140.03795575 56.33672595 141.24609375 55.6015625 C143.68736321 54.11384914 146.12343627 52.61816948 148.55566406 51.11572266 C153.32916512 48.17377561 158.16367063 45.33706113 163 42.5 C164.78815053 41.44467114 166.57590475 40.38867052 168.36328125 39.33203125 C169.27158691 38.79529785 170.17989258 38.25856445 171.11572266 37.70556641 C176.47507393 34.5364088 181.83117769 31.36177324 187.1875 28.1875 C188.30318359 27.5267749 189.41886719 26.8660498 190.56835938 26.18530273 C195.94986452 22.99744633 201.32904718 19.80588202 206.70075989 16.60154724 C209.1980461 15.11218925 211.69657896 13.62492995 214.19522095 12.1378479 C215.390491 11.42566591 216.58514145 10.71244291 217.77914429 9.99813843 C219.4345491 9.00788683 221.09222316 8.02143171 222.75 7.03515625 C223.69359375 6.4719165 224.6371875 5.90867676 225.609375 5.32836914 C228 4 228 4 231 3 C231.37179227 9.72404481 231.67147374 16.44856232 231.92163086 23.17822266 C232.01513463 25.46606707 232.12502219 27.75330375 232.25170898 30.03955078 C232.4312197 33.33081896 232.55128269 36.61979365 232.66015625 39.9140625 C232.76264427 41.44252304 232.76264427 41.44252304 232.86720276 43.00186157 C232.93013394 45.92198469 232.86724461 48.20838115 232 51 C229.35244669 53.73500319 226.38549977 55.31611735 223 57 C221.91525391 57.6612085 220.83050781 58.32241699 219.71289062 59.00366211 C218.70419922 59.58897705 217.69550781 60.17429199 216.65625 60.77734375 C216.09333755 61.10535477 215.53042511 61.43336578 214.95045471 61.77131653 C213.75337149 62.46868328 212.55561175 63.16488991 211.35720825 63.85998535 C208.13928315 65.72696038 204.92708536 67.60373682 201.71484375 69.48046875 C201.06414413 69.86047028 200.41344452 70.2404718 199.74302673 70.63198853 C193.48737863 74.29013146 187.27053141 78.01166734 181.0625 81.75 C172.6629198 86.80582135 164.24417504 91.8262808 155.79907227 96.80566406 C148.91643681 100.86473281 142.04305427 104.93912583 135.17407227 109.02124023 C132.40422809 110.66704502 129.63249639 112.30959936 126.85913086 113.94946289 C120.65623389 117.61989568 114.47087667 121.3095981 108.34375 125.10546875 C107.34601563 125.71648437 106.34828125 126.3275 105.3203125 126.95703125 C103.50404749 128.07144316 101.695973 129.19937304 99.8984375 130.34375 C90.55508663 136.03688501 82.22401328 133.94094392 71.94482422 131.50048828 C46.50790532 124.95445718 22.75620593 108.6950431 8.92016602 86.11254883 C7.92419659 84.4214634 6.96151855 82.71090826 6 81 C5.42636719 79.98035156 4.85273437 78.96070313 4.26171875 77.91015625 C-7.0784513 56.49608823 -9.18546886 31.3164176 -3 8 C-2.06244492 5.30371683 -1.04495312 2.65775191 0 0 Z " fill="#784FF2" transform="translate(87,317)"/>
<path d="M0 0 C3.98000279 1.64499225 7.85288887 3.4791942 11.6953125 5.421875 C12.75363281 5.95683594 13.81195313 6.49179688 14.90234375 7.04296875 C38.72365017 20.06195273 56.3461144 42.91128072 64.0078125 68.796875 C69.31162776 87.90851309 67.93064144 108.71588818 61.6953125 127.421875 C57.47295927 126.8179882 54.3834223 125.35475934 50.671875 123.28125 C49.81101791 122.80384872 49.81101791 122.80384872 48.93276978 122.31680298 C47.05823091 121.275015 45.18928548 120.22361035 43.3203125 119.171875 C42.00908315 118.44039055 40.69755619 117.70943935 39.38574219 116.97900391 C35.48344508 114.80301316 31.58848285 112.61414316 27.6953125 110.421875 C26.63731445 109.82665039 25.57931641 109.23142578 24.48925781 108.61816406 C19.77738241 105.96431323 15.0706768 103.3014939 10.3671875 100.6328125 C4.32295004 97.20577626 -1.74007847 93.81269353 -7.8046875 90.421875 C-16.08364037 85.7903786 -24.35617092 81.1477976 -32.6171875 76.484375 C-33.57423584 75.94522461 -34.53128418 75.40607422 -35.51733398 74.85058594 C-39.43551033 72.63766012 -43.34476595 70.41886964 -47.1953125 68.08984375 C-48.24203125 67.45691406 -49.28875 66.82398438 -50.3671875 66.171875 C-51.20378906 65.65109375 -52.04039062 65.1303125 -52.90234375 64.59375 C-56.7772159 62.70356846 -59.91106528 61.9464707 -64.06079102 63.36206055 C-64.98819092 63.8600415 -65.91559082 64.35802246 -66.87109375 64.87109375 C-67.91797363 65.43103027 -68.96485352 65.9909668 -70.04345703 66.56787109 C-75.51457574 69.67819266 -80.89080804 72.92289683 -86.2421875 76.234375 C-88.71006658 77.7496556 -91.1808397 79.26017174 -93.65234375 80.76953125 C-94.28144653 81.15402435 -94.91054932 81.53851746 -95.55871582 81.93466187 C-102.38387749 86.09653953 -109.2761705 90.14173234 -116.1796875 94.171875 C-117.08815933 94.70249542 -117.08815933 94.70249542 -118.01498413 95.24383545 C-120.41128434 96.64337636 -122.80771593 98.04269112 -125.2046051 99.44122314 C-130.8334471 102.72678603 -136.44573272 106.04001212 -142.0546875 109.359375 C-142.93326416 109.87878662 -143.81184082 110.39819824 -144.71704102 110.93334961 C-148.10295891 112.93520997 -151.48845751 114.93775761 -154.87158203 116.94433594 C-157.28572469 118.37614657 -159.70133623 119.8054498 -162.1171875 121.234375 C-163.19468262 121.87524048 -163.19468262 121.87524048 -164.29394531 122.52905273 C-169.19126677 125.421875 -169.19126677 125.421875 -170.3046875 125.421875 C-170.68673224 118.61015887 -170.94831479 111.80121543 -171.12866211 104.98120117 C-171.20385665 102.66504761 -171.30605621 100.34960073 -171.4362793 98.03588867 C-172.45801234 79.40829298 -172.45801234 79.40829298 -168.96325684 74.5614624 C-165.50329093 71.48909245 -161.53193849 69.77890374 -157.23208618 68.17623901 C-154.50110416 67.10736075 -152.09733302 65.62042766 -149.609375 64.078125 C-147.79997793 63.02518412 -145.99006948 61.97312158 -144.1796875 60.921875 C-142.09749291 59.709916 -140.0154693 58.4976632 -137.93359375 57.28515625 C-136.85480957 56.65689941 -135.77602539 56.02864258 -134.66455078 55.38134766 C-128.80984679 51.96688361 -122.9634592 48.5382481 -117.1171875 45.109375 C-116.51146912 44.75415771 -115.90575073 44.39894043 -115.28167725 44.03295898 C-112.19111502 42.22052723 -109.10065164 40.40792706 -106.01025391 38.59521484 C-102.35221887 36.44963082 -98.69375834 34.30477318 -95.03515625 32.16015625 C-94.43758514 31.80986359 -93.84001404 31.45957092 -93.22433472 31.09866333 C-90.22091788 29.33811304 -87.21743025 27.57768363 -84.21386719 25.81738281 C-78.63611121 22.54825774 -73.05892139 19.27818031 -67.48391724 16.00436401 C-64.89934929 14.48671191 -62.31443246 12.96965455 -59.72949219 11.45263672 C-58.51756819 10.7411795 -57.30580817 10.02944289 -56.09423828 9.31738281 C-53.29371724 7.67151128 -50.49043409 6.03106868 -47.68017578 4.40185547 C-45.30798897 3.01038758 -42.96444251 1.59796904 -40.62841797 0.14892578 C-39.40468263 -0.59222186 -38.18088868 -1.33327274 -36.95703125 -2.07421875 C-35.87284912 -2.74509521 -34.78866699 -3.41597168 -33.67163086 -4.10717773 C-23.71714708 -8.45608389 -9.69726869 -3.74249055 0 0 Z " fill="#784FF2" transform="translate(388.3046875,93.578125)"/>
<path d="M0 0 C7.26322912 6.61760875 7.26322912 6.61760875 9.4609375 10.2421875 C8.14384606 14.19346183 6.61710192 14.60289855 3.0390625 16.65625 C2.19459564 17.14615921 2.19459564 17.14615921 1.33306885 17.64596558 C-0.53629993 18.72803945 -2.41263688 19.79740542 -4.2890625 20.8671875 C-5.60667033 21.62730169 -6.9237196 22.38838484 -8.24023438 23.15039062 C-10.9789628 24.73457168 -13.72006179 26.31453133 -16.46289062 27.89160156 C-22.08036245 31.1256518 -27.66819476 34.40989328 -33.25613403 37.6946106 C-36.25913893 39.45905523 -39.2644758 41.21951956 -42.26953125 42.98046875 C-46.54824342 45.48849025 -50.82657061 47.99716723 -55.10452271 50.50648499 C-56.96089155 51.59533809 -58.81735329 52.68403269 -60.67382812 53.77270508 C-63.1038589 55.1977395 -65.5334963 56.62344144 -67.96289062 58.04956055 C-73.80512748 61.47761574 -79.65454922 64.8922258 -85.51953125 68.28125 C-86.61998779 68.91844971 -87.72044434 69.55564941 -88.85424805 70.2121582 C-90.91488305 71.4043094 -92.97742537 72.59317246 -95.04223633 73.77807617 C-103.38858584 78.03088996 -103.38858584 78.03088996 -108.5390625 85.2421875 C-108.62911917 86.92968936 -108.66102571 88.62056827 -108.65931702 90.31047058 C-108.66069168 91.35794968 -108.66206635 92.40542877 -108.66348267 93.48464966 C-108.65988739 94.63335541 -108.65629211 95.78206116 -108.65258789 96.96557617 C-108.65273392 98.175457 -108.65287994 99.38533783 -108.6530304 100.63188171 C-108.65245269 103.94980441 -108.6474339 107.26766506 -108.64045644 110.58557677 C-108.63420945 114.05292437 -108.63361803 117.52027277 -108.63243103 120.98762512 C-108.62932169 127.55365354 -108.62111364 134.11966532 -108.61108154 140.68568641 C-108.5999081 148.16082306 -108.59440685 155.6359605 -108.58938611 163.11110342 C-108.57893071 178.48814108 -108.56133893 193.86516215 -108.5390625 209.2421875 C-111.08192829 207.97919359 -113.62385346 206.7143641 -116.1652832 205.44848633 C-116.87829842 205.09458076 -117.59131363 204.7406752 -118.32593536 204.37604523 C-124.24431153 201.42528727 -130.01075079 198.2562812 -135.7265625 194.9296875 C-137.0578418 194.16301758 -137.0578418 194.16301758 -138.41601562 193.38085938 C-140.79477234 192.00856837 -143.17048215 190.63196447 -145.5390625 189.2421875 C-146.39664217 188.85595467 -147.25422184 188.46972183 -148.13778877 188.07178497 C-150.5390625 186.2421875 -150.5390625 186.2421875 -151.17944145 183.31128693 C-151.18652185 182.10419823 -151.19360226 180.89710953 -151.20089722 179.65344238 C-151.21151943 178.98077064 -151.22214165 178.3080989 -151.23308575 177.61504316 C-151.26245168 175.35553483 -151.25595541 173.09756005 -151.24951172 170.83789062 C-151.26283303 169.21983075 -151.27822358 167.60178678 -151.29553223 165.98376465 C-151.3354954 161.58240265 -151.34303321 157.18154661 -151.34241629 152.78002357 C-151.34419554 149.10257484 -151.360114 145.42523774 -151.37553799 141.74782515 C-151.41109301 133.06423711 -151.41881758 124.38091314 -151.41064453 115.69726562 C-151.40281871 106.75428532 -151.44665796 97.81259455 -151.51544559 88.86990404 C-151.57242219 81.18474032 -151.59437281 73.49999254 -151.58921063 65.81462049 C-151.58663943 61.22800643 -151.59765512 56.64245384 -151.64345932 52.05604553 C-151.68530041 47.73470783 -151.68321843 43.41551075 -151.64849854 39.09413147 C-151.64302586 37.51519441 -151.65266762 35.93611491 -151.67920303 34.35739136 C-151.8293351 24.77615593 -150.63180596 18.64244869 -143.82921028 11.46721649 C-143.07346151 10.73295692 -142.31771275 9.99869736 -141.5390625 9.2421875 C-140.30727775 7.89040187 -139.07759624 6.53669131 -137.8515625 5.1796875 C-123.80013693 -8.37287089 -106.2696448 -16.88272944 -87.5390625 -21.7578125 C-86.59417969 -22.00402344 -85.64929688 -22.25023437 -84.67578125 -22.50390625 C-54.10463498 -28.91898036 -23.496224 -19.9132221 0 0 Z " fill="#7850F1" transform="translate(307.5390625,77.7578125)"/>
<path d="M0 0 C3.81492384 1.23767766 7.21753131 2.52203274 10.6875 4.5390625 C11.54504883 5.03365967 12.40259766 5.52825684 13.28613281 6.0378418 C14.18170898 6.561604 15.07728516 7.08536621 16 7.625 C17.86975111 8.70710133 19.73954292 9.78913235 21.609375 10.87109375 C22.52267578 11.40202637 23.43597656 11.93295898 24.37695312 12.47998047 C27.98808013 14.57257882 31.61863103 16.6303062 35.25 18.6875 C40.87804878 21.87804878 40.87804878 21.87804878 42 23 C42.11666662 25.11371963 42.16196252 27.23138316 42.18081665 29.34823608 C42.18802117 30.01919898 42.19522568 30.69016187 42.20264852 31.38145697 C42.22550462 33.64670292 42.24098392 35.91193776 42.25634766 38.17724609 C42.2707893 39.79499587 42.28554684 41.41274285 42.30059814 43.03048706 C42.43116079 57.83435982 42.49679975 72.63899916 42.54844093 87.44333458 C42.58730098 98.38458096 42.65554284 109.32479363 42.76298869 120.26558626 C42.83598689 127.95911607 42.87429942 135.65236436 42.88746679 143.34622633 C42.89631292 147.93970695 42.92040578 152.53191161 42.98213577 157.12501144 C43.03965405 161.45436388 43.05397998 165.78179163 43.03626251 170.11146927 C43.03713641 171.69369376 43.05322433 173.27600082 43.08630753 174.85787964 C43.27723673 184.49389866 42.08658862 190.61751563 35.23744774 197.83101845 C34.49908998 198.54678236 33.76073223 199.26254627 33 200 C31.95436917 201.1631151 30.91168008 202.3289001 29.875 203.5 C8.45990032 223.93724125 -19.70231476 233.77521553 -49.04296875 233.2734375 C-73.98658837 232.27272029 -95.57042057 221.55443315 -113 204 C-114.71544004 202.03417676 -116.36014461 200.03043912 -118 198 C-111.31451347 193.37587181 -104.38788345 189.21796306 -97.35995483 185.1416626 C-94.12801416 183.26646142 -90.90197079 181.38116706 -87.67578125 179.49609375 C-87.02301712 179.11485352 -86.37025299 178.73361328 -85.69770813 178.34082031 C-79.66694896 174.81425123 -73.67205952 171.22938721 -67.6875 167.625 C-58.73557653 162.23481318 -49.76308879 156.88080693 -40.77514648 151.55099487 C-38.70822403 150.32479452 -36.64206815 149.09731312 -34.57617188 147.86938477 C-28.60159543 144.31890077 -22.62378222 140.77514273 -16.625 137.265625 C-15.69212158 136.71608154 -14.75924316 136.16653809 -13.7980957 135.6003418 C-12.11824096 134.61077806 -10.43474675 133.62735335 -8.74682617 132.65161133 C-8.01955322 132.22130615 -7.29228027 131.79100098 -6.54296875 131.34765625 C-5.92446045 130.98679932 -5.30595215 130.62594238 -4.66870117 130.25415039 C-1.83149995 128.12178716 -0.16862876 126.11661143 0.36914349 122.55563736 C0.36637811 121.63753155 0.36361273 120.71942574 0.36076355 119.77349854 C0.36488754 118.71623062 0.36901154 117.65896271 0.3732605 116.56965637 C0.36247467 115.41519516 0.35168884 114.26073395 0.34057617 113.07128906 C0.34101425 111.85150864 0.34145233 110.63172821 0.34190369 109.37498474 C0.3401723 106.03420061 0.32513191 102.69397328 0.30418181 99.3532877 C0.28542222 95.86060287 0.28366515 92.36791054 0.28010559 88.87518311 C0.27078299 82.26308374 0.24616639 75.65113327 0.21605712 69.03909945 C0.18251973 61.510755 0.16602878 53.98240342 0.15097082 46.45400286 C0.11961695 30.96924903 0.06685237 15.48464372 0 0 Z " fill="#784FF2" transform="translate(337,252)"/>
<path d="M0 0 C2.09863281 0.87939453 2.09863281 0.87939453 4.203125 2.1328125 C5.4092041 2.83796997 5.4092041 2.83796997 6.63964844 3.55737305 C7.50106445 4.07468994 8.36248047 4.59200684 9.25 5.125 C11.11375374 6.21886263 12.97837752 7.31124385 14.84375 8.40234375 C16.32681641 9.27415283 16.32681641 9.27415283 17.83984375 10.16357422 C24.53360132 14.05344168 31.31963699 17.78157545 38.08691406 21.54150391 C39.10495117 22.1091748 40.12298828 22.6768457 41.171875 23.26171875 C42.0803418 23.76662842 42.98880859 24.27153809 43.92480469 24.79174805 C46 26 46 26 47 27 C47.16104382 29.4916791 47.25986563 31.95837215 47.31640625 34.453125 C47.34764587 35.59927025 47.34764587 35.59927025 47.3795166 36.76856995 C47.44571159 39.26227687 47.50440658 41.75609218 47.5625 44.25 C47.60528212 45.94621034 47.64816947 47.64241803 47.69116211 49.33862305 C47.98211255 61.22685383 48.12695848 73.1082224 48 85 C47.29093506 85.40726318 46.58187012 85.81452637 45.85131836 86.23413086 C27.86677131 96.5575574 27.86677131 96.5575574 10.05078125 107.16796875 C9.04402344 107.77253906 8.03726563 108.37710938 7 109 C6.41653809 109.38236816 5.83307617 109.76473633 5.23193359 110.15869141 C0.6263464 113.05841374 0.6263464 113.05841374 -2.38745117 112.77734375 C-5.27420343 111.91841289 -7.60077068 110.75108662 -10.21875 109.26171875 C-11.23582031 108.68744141 -12.25289063 108.11316406 -13.30078125 107.52148438 C-14.35652344 106.91626953 -15.41226563 106.31105469 -16.5 105.6875 C-17.49386719 105.12482422 -18.48773438 104.56214844 -19.51171875 103.98242188 C-21.69645334 102.74350096 -23.86185754 101.47011616 -26.01098633 100.17041016 C-29.06532946 98.39946461 -32.16394234 97.13831972 -35.46362305 95.88818359 C-41.36958013 93.44741706 -46.85665169 91.01332193 -51 86 C-54.29352653 77.22966709 -53.38709647 67.49324458 -52.90551758 58.28942871 C-52.74962253 54.87139899 -52.71530793 51.45221571 -52.66992188 48.03125 C-52.55703871 41.34767888 -52.32529162 34.67642677 -52 28 C-51.2157666 27.54262451 -50.4315332 27.08524902 -49.62353516 26.61401367 C-46.625401 24.86426061 -43.62816877 23.11298281 -40.6315918 21.36056519 C-39.29707557 20.58039927 -37.96227857 19.80071341 -36.62719727 19.02151489 C-30.12196793 15.22372104 -23.62314861 11.4264304 -17.2421875 7.421875 C-16.42540527 6.90987549 -15.60862305 6.39787598 -14.76708984 5.87036133 C-13.29499072 4.93995537 -11.82875476 4.00018288 -10.36962891 3.04956055 C-6.67856616 0.7165996 -4.35296466 -0.42054207 0 0 Z " fill="#784FF2" transform="translate(270,213)"/>
</svg>
