<?xml version="1.0" encoding="UTF-8"?>
<svg version="1.1" xmlns="http://www.w3.org/2000/svg" width="320" height="320">
<path d="M0 0 C1.11592624 -0.01064158 1.11592624 -0.01064158 2.25439644 -0.02149814 C4.74287987 -0.03907582 7.22980082 -0.02097603 9.71826172 -0.00291443 C11.50397452 -0.00805337 13.28968225 -0.01533446 15.07537842 -0.02459717 C19.9225617 -0.04312266 24.76919543 -0.03016536 29.6163559 -0.01050687 C34.68825426 0.00587145 39.76011759 -0.00293213 44.83203125 -0.00802612 C53.34953598 -0.01254799 61.86682116 0.00332857 70.38427734 0.03126526 C80.23246629 0.06331755 90.08025927 0.06330171 99.92847633 0.04605049 C109.4010782 0.03018825 118.87353486 0.03691703 128.34613037 0.0539875 C132.37794865 0.06086118 136.40965063 0.05982229 140.44146729 0.05244255 C145.18909241 0.04478298 149.93626676 0.05689511 154.683815 0.08429146 C156.42649243 0.09117982 158.16921192 0.09126842 159.91188812 0.08407593 C162.29039509 0.07539017 164.66750806 0.09132073 167.04589844 0.11352539 C167.73607622 0.10528462 168.42625401 0.09704386 169.13734627 0.08855337 C173.8427494 0.1696704 176.22857984 1.29587332 179.52294922 4.62818909 C181.75858054 9.32137006 181.79806364 13.91422452 181.75 19.02027893 C181.75029205 19.84045502 181.75058411 20.6606311 181.75088501 21.50566101 C181.74949841 24.20025943 181.73396893 26.89457683 181.71826172 29.58912659 C181.7145292 31.46385039 181.71168336 33.33857615 181.70968628 35.21330261 C181.70206861 40.13538547 181.68243617 45.05734936 181.66027832 49.97938538 C181.63977966 55.00683483 181.63067597 60.0343036 181.62060547 65.06178284 C181.59918849 74.91730372 181.56507511 84.77273649 181.52294922 94.62818909 C182.55976334 94.62152725 183.59657745 94.61486542 184.66481018 94.60800171 C194.44883209 94.54711455 204.23281541 94.50217993 214.01698399 94.47275257 C219.04680355 94.45711493 224.07646982 94.43591135 229.10620117 94.40187073 C233.96265604 94.36920953 238.8189637 94.35132176 243.67551994 94.34355736 C245.52583062 94.33802599 247.3761335 94.32722455 249.2263813 94.31099892 C251.82354089 94.28913471 254.42009677 94.2862259 257.01733398 94.28761292 C257.77762909 94.27682709 258.53792419 94.26604126 259.32125854 94.25492859 C264.99426363 94.287585 269.97858001 95.11660953 274.19554234 99.27922726 C276.00066917 102.47355605 275.94499752 105.36854149 275.9173584 108.94029236 C275.9234495 109.67859964 275.92954061 110.41690692 275.93581629 111.17758715 C275.95247129 113.65265099 275.94766703 116.12720176 275.94287109 118.60231018 C275.95021003 120.37639908 275.95879574 122.1504832 275.96853638 123.92456055 C275.99078064 128.74486293 275.99368157 133.56499451 275.99178886 138.38534117 C275.99166929 142.40873824 276.00022828 146.43209896 276.00856638 150.45548594 C276.02781128 159.94764856 276.03068045 169.43972324 276.02392578 178.93190002 C276.0172852 188.724977 276.04014757 198.51767731 276.07723951 208.31067789 C276.10792645 216.71759889 276.1192976 225.12439867 276.1154027 233.53137457 C276.11333401 238.55290097 276.11883284 243.57413436 276.14329529 248.59560776 C276.16554299 253.31862689 276.16370111 258.04103342 276.14336777 262.76405525 C276.13995411 264.49665489 276.14506216 266.2292956 276.15935135 267.96183968 C276.17752844 270.32931412 276.16480898 272.69470688 276.14440918 275.06211853 C276.15692703 275.74617464 276.16944488 276.43023076 276.18234205 277.13501585 C276.11686865 280.68436598 275.48908166 283.20146483 273.45142365 286.05429077 C269.92855249 289.15061698 267.53381665 289.47253606 263.04589844 289.37663269 C262.30194761 289.3845815 261.55799679 289.39253031 260.791502 289.40072 C258.3027652 289.41994447 255.81630903 289.39635114 253.32763672 289.37281799 C251.54192253 289.3776748 249.75621377 289.38511441 247.97052002 289.39494324 C243.12323715 289.41375619 238.27676231 289.39491601 233.42954254 289.36827898 C228.35764951 289.34564748 223.2857962 289.35386518 218.21386719 289.35777283 C209.69631752 289.35953872 201.17908621 289.33737832 192.66162109 289.30055237 C182.81342349 289.25821675 172.96569228 289.25119721 163.1174221 289.26367629 C153.6448081 289.27506496 144.17235838 289.26377075 134.69976807 289.24132919 C130.6679582 289.23203895 126.63624882 289.23028872 122.60443115 289.23450089 C117.85678756 289.23826776 113.10961877 289.22205151 108.36208344 289.1903801 C106.61941238 289.18189382 104.87669314 289.18019376 103.13401031 289.1857605 C100.75548561 289.19220575 98.37837888 289.17404213 96 289.14958191 C95.30982222 289.15714056 94.61964443 289.1646992 93.90855217 289.1724869 C89.20446734 289.08686579 86.8168573 287.95938288 83.52294922 284.62818909 C81.28731789 279.93500812 81.2478348 275.34215366 81.29589844 270.23609924 C81.29560638 269.41592316 81.29531433 268.59574707 81.29501343 267.75071716 C81.29640002 265.05611874 81.3119295 262.36180134 81.32763672 259.66725159 C81.33136923 257.79252778 81.33421508 255.91780202 81.33621216 254.04307556 C81.34382983 249.1209927 81.36346227 244.19902882 81.38562012 239.2769928 C81.40611878 234.24954335 81.41522247 229.22207458 81.42529297 224.19459534 C81.44670994 214.33907446 81.48082333 204.48364169 81.52294922 194.62818909 C79.96772804 194.63818184 79.96772804 194.63818184 78.38108826 194.64837646 C68.59706635 194.70926362 58.81308303 194.75419824 49.02891445 194.7836256 C43.99909489 194.79926324 38.96942862 194.82046683 33.93969727 194.85450745 C29.0832424 194.88716864 24.22693474 194.90505641 19.37037849 194.91282082 C17.52006781 194.91835219 15.66976494 194.92915362 13.81951714 194.94537926 C11.22235755 194.96724346 8.62580167 194.97015227 6.02856445 194.96876526 C5.26826935 194.97955109 4.50797424 194.99033691 3.72463989 195.00144958 C-1.94861312 194.96879174 -6.92948836 194.13866615 -11.1496439 189.97994423 C-12.96005842 186.77244869 -12.89902338 183.85701862 -12.87145996 180.27139282 C-12.87755106 179.52829642 -12.88364217 178.78520002 -12.88991785 178.01958555 C-12.90657349 175.52836923 -12.90176852 173.0376626 -12.89697266 170.54640198 C-12.90431149 168.7608385 -12.91289717 166.97527977 -12.92263794 165.18972778 C-12.94488165 160.33850207 -12.94778321 155.48744606 -12.94589043 150.63617635 C-12.94577086 146.58783182 -12.95432917 142.53952343 -12.96266794 138.49118894 C-12.98191211 128.94153499 -12.98478205 119.39196845 -12.97802734 109.84230042 C-12.97138462 99.98672048 -12.99425791 90.13151463 -13.03134108 80.27601057 C-13.06201509 71.81730108 -13.07340063 63.35871207 -13.06950426 54.89994806 C-13.06743448 49.84659624 -13.07295144 44.79353551 -13.09739685 39.74023628 C-13.11962364 34.98849419 -13.11782019 30.23736131 -13.09746933 25.48561668 C-13.09405211 23.74130914 -13.09917895 21.99696092 -13.11345291 20.25270844 C-13.1315935 17.87174803 -13.11893778 15.49286586 -13.09851074 13.11196899 C-13.11102859 12.42110909 -13.12354644 11.73024919 -13.13644361 11.01845413 C-13.07028482 7.42358525 -12.49746409 5.65704697 -10.40552521 2.69971466 C-6.85283204 0.18663321 -4.20107294 -0.07204341 0 0 Z " fill="#FDFDFD" transform="translate(28.47705078125,15.371810913085938)"/>
<path d="M0 0 C1.16776978 -0.01395813 1.16776978 -0.01395813 2.35913086 -0.02819824 C3.60448608 -0.00360535 3.60448608 -0.00360535 4.875 0.02148438 C6.18319702 0.02142395 6.18319702 0.02142395 7.51782227 0.0213623 C9.36368002 0.02671524 11.20953736 0.04428847 13.05517578 0.07324219 C15.83830008 0.11468785 18.61896616 0.11433955 21.40234375 0.10742188 C48.00374703 0.20223468 48.00374703 0.20223468 57.875 8.61523438 C63.20977503 14.03190288 65.03390112 17.12182981 65.125 24.86523438 C65.15078125 26.16976562 65.1765625 27.47429687 65.203125 28.81835938 C64.66633692 35.02976433 61.61123305 40.5128038 56.875 44.61523438 C53.9614236 46.2017869 50.983884 47.46379586 47.875 48.61523438 C48.73222656 48.89496094 49.58945313 49.1746875 50.47265625 49.46289062 C58.48557132 52.27237945 65.06505074 55.02410666 69.01953125 62.89257812 C71.5166376 70.83998966 70.82771495 79.6718323 67.375 87.17773438 C61.85505869 96.74135363 54.25086675 99.82448401 43.875 102.61523438 C36.18105191 104.60274617 27.80635065 103.91893778 19.91870117 103.96533203 C17.84599627 103.98194886 15.77334997 104.00931332 13.70092773 104.04736328 C10.70526571 104.10201564 7.71093644 104.12398029 4.71484375 104.13867188 C3.78872787 104.16134125 2.862612 104.18401062 1.90843201 104.20736694 C1.0439595 104.20451691 0.179487 104.20166687 -0.71118164 104.19873047 C-1.84771935 104.21086075 -1.84771935 104.21086075 -3.00721741 104.22323608 C-6.40748416 103.24704145 -7.36832245 101.64147589 -9.125 98.61523438 C-9.6962356 95.60233607 -9.68211162 92.64961164 -9.65844727 89.58984375 C-9.66706284 88.69006302 -9.67567841 87.79028229 -9.68455505 86.86323547 C-9.7072213 83.89485753 -9.70047534 80.92742307 -9.69140625 77.95898438 C-9.69664127 75.89302286 -9.7029173 73.82706374 -9.71018982 71.7611084 C-9.72059505 67.43356063 -9.71603026 63.10634166 -9.70141602 58.77880859 C-9.68422192 53.2334598 -9.70773094 47.68914652 -9.74290562 42.14391327 C-9.76486594 37.87849056 -9.76344151 33.61331619 -9.7551403 29.34785461 C-9.75432016 27.30331791 -9.76119559 25.25876308 -9.77591133 23.21427917 C-9.79333325 20.35574665 -9.77883476 17.49908236 -9.75610352 14.640625 C-9.76779572 13.79683792 -9.77948792 12.95305084 -9.79153442 12.08369446 C-9.72264781 7.82569005 -9.48700316 6.09528094 -6.84336853 2.58959961 C-4.19699257 0.66752296 -3.18035906 -0.00963631 0 0 Z " fill="#18181C" transform="translate(177.125,159.384765625)"/>
<path d="M0 0 C1.2376284 -0.00922989 1.2376284 -0.00922989 2.5002594 -0.01864624 C3.38567917 -0.00427521 4.27109894 0.01009583 5.18334961 0.02490234 C6.56737221 0.02627701 6.56737221 0.02627701 7.97935486 0.02767944 C9.9337172 0.03371903 11.88807012 0.04947575 13.84228516 0.07421875 C16.80073079 0.11041211 19.75791015 0.11523998 22.71655273 0.11474609 C38.67081122 0.17342846 52.81966227 0.53230876 64.77319336 12.48583984 C71.22437321 22.38114552 72.49833595 32.97000859 70.15991211 44.51318359 C66.70590367 54.1448459 59.64405913 60.86126268 50.60522461 65.33740234 C44.64845457 67.7529753 38.78415905 68.40841995 32.40600586 68.71240234 C31.64175293 68.74938232 30.8775 68.7863623 30.09008789 68.82446289 C28.56824495 68.88940982 27.04561317 68.93825768 25.52270508 68.96948242 C21.5727711 69.04849107 21.5727711 69.04849107 18.06982422 70.66430664 C16.27025005 73.19238476 16.40433706 74.98658504 16.40209961 78.07177734 C16.38469727 79.16748047 16.36729492 80.26318359 16.34936523 81.39208984 C16.34028149 83.69676533 16.33504675 86.00145933 16.33374023 88.30615234 C16.18948036 96.78266385 16.18948036 96.78266385 13.86303711 100.71240234 C10.22936589 103.79592894 7.62266608 103.73315139 2.89819336 103.86083984 C1.66327148 103.90982422 0.42834961 103.95880859 -0.84399414 104.00927734 C-4.22680664 103.48583984 -4.22680664 103.48583984 -6.40588379 101.52394104 C-8.89304073 97.37426799 -8.78940563 94.10517233 -8.74438477 89.3527832 C-8.75139404 88.44164261 -8.75840332 87.53050201 -8.765625 86.5917511 C-8.78320145 83.58608344 -8.77158432 80.58136049 -8.75805664 77.57568359 C-8.76075142 75.48490722 -8.76463372 73.39413207 -8.76965332 71.30335999 C-8.7755477 66.92453055 -8.76698627 62.54602776 -8.74829102 58.16723633 C-8.72548761 52.55240643 -8.73863403 46.93834073 -8.76258087 41.32353878 C-8.77702829 37.00755545 -8.77243791 32.69175362 -8.7620697 28.37576485 C-8.75940024 26.30529248 -8.76267988 24.23480367 -8.77198792 22.16435051 C-8.7821375 19.27228952 -8.76667514 16.38147035 -8.74438477 13.48950195 C-8.75248169 12.63276886 -8.76057861 11.77603577 -8.7689209 10.89334106 C-8.7149532 7.11726447 -8.66166143 5.10863548 -6.45863342 1.95347595 C-4.02865665 0.35553758 -2.87438689 -0.01134909 0 0 Z " fill="#18181C" transform="translate(81.226806640625,56.51416015625)"/>
<path d="M0 0 C1.11592624 -0.01064158 1.11592624 -0.01064158 2.25439644 -0.02149814 C4.74287987 -0.03907582 7.22980082 -0.02097603 9.71826172 -0.00291443 C11.50397452 -0.00805337 13.28968225 -0.01533446 15.07537842 -0.02459717 C19.9225617 -0.04312266 24.76919543 -0.03016536 29.6163559 -0.01050687 C34.68825426 0.00587145 39.76011759 -0.00293213 44.83203125 -0.00802612 C53.34953598 -0.01254799 61.86682116 0.00332857 70.38427734 0.03126526 C80.23246629 0.06331755 90.08025927 0.06330171 99.92847633 0.04605049 C109.4010782 0.03018825 118.87353486 0.03691703 128.34613037 0.0539875 C132.37794865 0.06086118 136.40965063 0.05982229 140.44146729 0.05244255 C145.18909241 0.04478298 149.93626676 0.05689511 154.683815 0.08429146 C156.42649243 0.09117982 158.16921192 0.09126842 159.91188812 0.08407593 C162.29039509 0.07539017 164.66750806 0.09132073 167.04589844 0.11352539 C167.73607622 0.10528462 168.42625401 0.09704386 169.13734627 0.08855337 C173.8427494 0.1696704 176.22857984 1.29587332 179.52294922 4.62818909 C181.75858054 9.32137006 181.79806364 13.91422452 181.75 19.02027893 C181.75029205 19.84045502 181.75058411 20.6606311 181.75088501 21.50566101 C181.74949841 24.20025943 181.73396893 26.89457683 181.71826172 29.58912659 C181.7145292 31.46385039 181.71168336 33.33857615 181.70968628 35.21330261 C181.70206861 40.13538547 181.68243617 45.05734936 181.66027832 49.97938538 C181.63977966 55.00683483 181.63067597 60.0343036 181.62060547 65.06178284 C181.59918849 74.91730372 181.56507511 84.77273649 181.52294922 94.62818909 C182.55976334 94.62152725 183.59657745 94.61486542 184.66481018 94.60800171 C194.44883209 94.54711455 204.23281541 94.50217993 214.01698399 94.47275257 C219.04680355 94.45711493 224.07646982 94.43591135 229.10620117 94.40187073 C233.96265604 94.36920953 238.8189637 94.35132176 243.67551994 94.34355736 C245.52583062 94.33802599 247.3761335 94.32722455 249.2263813 94.31099892 C251.82354089 94.28913471 254.42009677 94.2862259 257.01733398 94.28761292 C257.77762909 94.27682709 258.53792419 94.26604126 259.32125854 94.25492859 C264.99426363 94.287585 269.97858001 95.11660953 274.19554234 99.27922726 C276.00066917 102.47355605 275.94499752 105.36854149 275.9173584 108.94029236 C275.9234495 109.67859964 275.92954061 110.41690692 275.93581629 111.17758715 C275.95247129 113.65265099 275.94766703 116.12720176 275.94287109 118.60231018 C275.95021003 120.37639908 275.95879574 122.1504832 275.96853638 123.92456055 C275.99078064 128.74486293 275.99368157 133.56499451 275.99178886 138.38534117 C275.99166929 142.40873824 276.00022828 146.43209896 276.00856638 150.45548594 C276.02781128 159.94764856 276.03068045 169.43972324 276.02392578 178.93190002 C276.0172852 188.724977 276.04014757 198.51767731 276.07723951 208.31067789 C276.10792645 216.71759889 276.1192976 225.12439867 276.1154027 233.53137457 C276.11333401 238.55290097 276.11883284 243.57413436 276.14329529 248.59560776 C276.16554299 253.31862689 276.16370111 258.04103342 276.14336777 262.76405525 C276.13995411 264.49665489 276.14506216 266.2292956 276.15935135 267.96183968 C276.17752844 270.32931412 276.16480898 272.69470688 276.14440918 275.06211853 C276.15692703 275.74617464 276.16944488 276.43023076 276.18234205 277.13501585 C276.11686865 280.68436598 275.48908166 283.20146483 273.45142365 286.05429077 C269.92855249 289.15061698 267.53381665 289.47253606 263.04589844 289.37663269 C262.30194761 289.3845815 261.55799679 289.39253031 260.791502 289.40072 C258.3027652 289.41994447 255.81630903 289.39635114 253.32763672 289.37281799 C251.54192253 289.3776748 249.75621377 289.38511441 247.97052002 289.39494324 C243.12323715 289.41375619 238.27676231 289.39491601 233.42954254 289.36827898 C228.35764951 289.34564748 223.2857962 289.35386518 218.21386719 289.35777283 C209.69631752 289.35953872 201.17908621 289.33737832 192.66162109 289.30055237 C182.81342349 289.25821675 172.96569228 289.25119721 163.1174221 289.26367629 C153.6448081 289.27506496 144.17235838 289.26377075 134.69976807 289.24132919 C130.6679582 289.23203895 126.63624882 289.23028872 122.60443115 289.23450089 C117.85678756 289.23826776 113.10961877 289.22205151 108.36208344 289.1903801 C106.61941238 289.18189382 104.87669314 289.18019376 103.13401031 289.1857605 C100.75548561 289.19220575 98.37837888 289.17404213 96 289.14958191 C95.30982222 289.15714056 94.61964443 289.1646992 93.90855217 289.1724869 C89.20446734 289.08686579 86.8168573 287.95938288 83.52294922 284.62818909 C81.28731789 279.93500812 81.2478348 275.34215366 81.29589844 270.23609924 C81.29560638 269.41592316 81.29531433 268.59574707 81.29501343 267.75071716 C81.29640002 265.05611874 81.3119295 262.36180134 81.32763672 259.66725159 C81.33136923 257.79252778 81.33421508 255.91780202 81.33621216 254.04307556 C81.34382983 249.1209927 81.36346227 244.19902882 81.38562012 239.2769928 C81.40611878 234.24954335 81.41522247 229.22207458 81.42529297 224.19459534 C81.44670994 214.33907446 81.48082333 204.48364169 81.52294922 194.62818909 C79.96772804 194.63818184 79.96772804 194.63818184 78.38108826 194.64837646 C68.59706635 194.70926362 58.81308303 194.75419824 49.02891445 194.7836256 C43.99909489 194.79926324 38.96942862 194.82046683 33.93969727 194.85450745 C29.0832424 194.88716864 24.22693474 194.90505641 19.37037849 194.91282082 C17.52006781 194.91835219 15.66976494 194.92915362 13.81951714 194.94537926 C11.22235755 194.96724346 8.62580167 194.97015227 6.02856445 194.96876526 C5.26826935 194.97955109 4.50797424 194.99033691 3.72463989 195.00144958 C-1.94861312 194.96879174 -6.92948836 194.13866615 -11.1496439 189.97994423 C-12.96005842 186.77244869 -12.89902338 183.85701862 -12.87145996 180.27139282 C-12.87755106 179.52829642 -12.88364217 178.78520002 -12.88991785 178.01958555 C-12.90657349 175.52836923 -12.90176852 173.0376626 -12.89697266 170.54640198 C-12.90431149 168.7608385 -12.91289717 166.97527977 -12.92263794 165.18972778 C-12.94488165 160.33850207 -12.94778321 155.48744606 -12.94589043 150.63617635 C-12.94577086 146.58783182 -12.95432917 142.53952343 -12.96266794 138.49118894 C-12.98191211 128.94153499 -12.98478205 119.39196845 -12.97802734 109.84230042 C-12.97138462 99.98672048 -12.99425791 90.13151463 -13.03134108 80.27601057 C-13.06201509 71.81730108 -13.07340063 63.35871207 -13.06950426 54.89994806 C-13.06743448 49.84659624 -13.07295144 44.79353551 -13.09739685 39.74023628 C-13.11962364 34.98849419 -13.11782019 30.23736131 -13.09746933 25.48561668 C-13.09405211 23.74130914 -13.09917895 21.99696092 -13.11345291 20.25270844 C-13.1315935 17.87174803 -13.11893778 15.49286586 -13.09851074 13.11196899 C-13.11102859 12.42110909 -13.12354644 11.73024919 -13.13644361 11.01845413 C-13.07028482 7.42358525 -12.49746409 5.65704697 -10.40552521 2.69971466 C-6.85283204 0.18663321 -4.20107294 -0.07204341 0 0 Z M-9.47705078 6.62818909 C-10.95372144 9.5815304 -10.60988578 12.21902483 -10.61749268 15.51669312 C-10.6204638 16.23357935 -10.62343492 16.95046559 -10.62649608 17.68907565 C-10.6352028 20.10344348 -10.63669299 22.51776185 -10.63818359 24.93214417 C-10.64281039 26.65829576 -10.64783486 28.38444633 -10.65322876 30.1105957 C-10.6663685 34.80900986 -10.67280083 39.50740973 -10.67723942 44.2058394 C-10.68016773 47.13965629 -10.68427209 50.07346925 -10.68874359 53.00728416 C-10.70242294 62.18190932 -10.71208734 71.35652552 -10.71594548 80.53116018 C-10.72042685 91.13037133 -10.73797656 101.72945356 -10.76694608 112.3286255 C-10.78854738 120.51551543 -10.79864894 128.70236904 -10.7999866 136.88928717 C-10.80103578 141.78163744 -10.80696756 146.67386659 -10.82480621 151.5661869 C-10.84126 156.1683836 -10.84345553 160.7703678 -10.83466721 165.37258339 C-10.83389537 167.06206327 -10.83825878 168.75155446 -10.84812546 170.44100571 C-10.86080422 172.74716943 -10.85499082 175.05257592 -10.84454346 177.35873413 C-10.84601002 178.64941205 -10.84747658 179.94008997 -10.84898758 181.26987934 C-10.44987661 184.87355145 -9.65547278 186.76154165 -7.47705078 189.62818909 C-4.20623947 191.26359474 -0.5848725 190.80870234 3.01171875 190.83351135 C3.88983215 190.84341095 4.76794556 190.85331055 5.67266846 190.86351013 C8.58367184 190.89517183 11.49469157 190.919901 14.40576172 190.94459534 C16.42072989 190.96516083 18.43569371 190.98615719 20.45065308 191.00756836 C25.76068603 191.0628308 31.07075819 191.11222166 36.38085938 191.16041565 C41.79674784 191.21060024 47.21257919 191.26630216 52.62841797 191.32154846 C63.25987963 191.42918106 73.89139082 191.53061468 84.52294922 191.62818909 C84.52437424 192.74461288 84.52579926 193.86103668 84.52726746 195.0112915 C84.54393613 205.5319772 84.58670584 216.05227605 84.65503979 226.57275677 C84.68933227 231.98150873 84.71442331 237.38997756 84.71850586 242.79884338 C84.72278391 248.0186491 84.75120605 253.23781586 84.796381 258.45742226 C84.80937172 260.4488789 84.81365812 262.44041194 84.80910301 264.43190575 C84.80420824 267.22158698 84.83023904 270.00939267 84.86352539 272.79884338 C84.85058693 274.03422852 84.85058693 274.03422852 84.83738708 275.29457092 C84.8603183 276.4407917 84.8603183 276.4407917 84.88371277 277.61016846 C84.88647815 278.26925044 84.88924353 278.92833242 84.8920927 279.60738659 C85.93967534 282.96307456 87.79374313 284.48490947 90.52294922 286.62818909 C93.94387873 287.37106198 93.94387873 287.37106198 97.7722168 287.24964905 C98.49166631 287.25603787 99.21111582 287.26242669 99.95236683 287.26900911 C102.3579744 287.28424383 104.76193083 287.26381007 107.16748047 287.24342346 C108.89407903 287.24692515 110.62067437 287.25258426 112.34725952 287.26023865 C117.03331435 287.27448956 121.71878259 287.25742218 126.40478134 287.23395348 C131.30850763 287.21385046 136.21220943 287.21972375 141.1159668 287.22206116 C149.3510099 287.22200758 157.58582361 287.20224712 165.82080078 287.17018127 C175.34175713 287.13328823 184.86241294 287.12450567 194.38343143 287.13147879 C203.54206971 287.13778392 212.70060493 287.12702929 221.85922241 287.10751343 C225.75704415 287.09933842 229.65481322 287.09663007 233.55264282 287.09820557 C238.14262343 287.09908448 242.73231841 287.08486644 247.32222366 287.05897903 C249.00684856 287.05181658 250.69150383 287.049734 252.37614059 287.05309677 C254.67563086 287.05681135 256.97428748 287.04206572 259.27368164 287.02259827 C260.5604631 287.01886955 261.84724457 287.01514084 263.17301941 287.01129913 C266.81348672 286.59496217 268.66754134 285.89649298 271.52294922 283.62818909 C274.07722956 280.19333213 273.78204662 276.66845997 273.79710388 272.49917603 C273.80234056 271.78058094 273.80757724 271.06198585 273.81297261 270.32161516 C273.82797603 267.91341489 273.82867782 265.50542703 273.8293457 263.09718323 C273.83696686 261.37073406 273.84539428 259.64428829 273.85456848 257.91784668 C273.8765221 253.22780821 273.8853133 248.53783495 273.89039493 243.8477509 C273.89403684 240.91827256 273.90027598 237.98881134 273.90739632 235.05933952 C273.93189179 224.8414777 273.94494336 214.62366666 273.94848633 204.40577698 C273.95212383 194.87739646 273.98203428 185.34933762 274.02389091 175.82105547 C274.05856004 167.64260916 274.07403417 159.46426965 274.07473236 151.28575033 C274.0755262 146.4000526 274.08431393 141.51468263 274.11273003 136.62906075 C274.13885356 132.03492294 274.14114806 127.44138603 274.12507439 122.84720802 C274.12325545 121.16094404 274.12999072 119.47464594 274.1458931 117.78845596 C274.1662814 115.48631761 274.15584764 113.18629626 274.13768005 110.88418579 C274.13969138 109.59610551 274.14170271 108.30802523 274.14377499 106.98091221 C273.35470516 102.71959961 271.92173189 101.24233141 268.52294922 98.62818909 C266.53722526 97.89961769 266.53722526 97.89961769 264.50492859 97.98895264 C263.7407814 97.97366516 262.97663422 97.95837769 262.18933105 97.94262695 C261.36574097 97.95125259 260.54215088 97.95987823 259.69360352 97.96876526 C258.81505203 97.95828156 257.93650055 97.94779785 257.03132629 97.93699646 C254.13624675 97.90826522 251.24236444 97.9145357 248.34716797 97.92115784 C246.33647667 97.90804164 244.32579855 97.89273766 242.31513977 97.87533569 C237.02970437 97.83546381 231.74461347 97.82529381 226.45904541 97.82130432 C221.06292251 97.81197706 215.66700238 97.77456603 210.27099609 97.73951721 C199.68832329 97.67491898 189.10580192 97.64169718 178.52294922 97.62818909 C178.51930359 96.50954468 178.51565796 95.39090027 178.51190186 94.23835754 C178.47498085 83.70266939 178.41723993 73.16727431 178.33904648 62.63180923 C178.29951599 57.2152255 178.26735484 51.79880569 178.25195312 46.38209534 C178.23682327 41.15587285 178.20244306 35.93010089 178.1546402 30.70407867 C178.13978847 28.70900638 178.13190604 26.71386977 178.13106537 24.71874237 C178.12870536 21.92667453 178.10170408 19.13586155 178.06884766 16.3440094 C178.07387802 15.51682404 178.07890839 14.68963867 178.08409119 13.83738708 C178.01765667 10.1951021 177.86897128 8.07808745 175.61383057 5.14595032 C171.80180289 2.37881682 169.34499043 2.49662853 164.63444519 2.48101807 C163.91755895 2.47734138 163.20067272 2.47366469 162.46206266 2.46987659 C160.04769934 2.45881888 157.63337902 2.4549924 155.21899414 2.45118713 C153.49284223 2.44492409 151.76669167 2.43827744 150.0405426 2.43127441 C145.34213275 2.41385072 140.64373308 2.40330908 135.94529891 2.39506888 C133.01148218 2.38992198 130.07766863 2.38384614 127.14385414 2.37755775 C117.96923144 2.35850248 108.79461682 2.34427165 99.61997813 2.33594579 C89.02072898 2.32616893 78.42168843 2.29983913 67.82251281 2.25944489 C59.63562375 2.22931204 51.44879458 2.21447963 43.26185113 2.21116477 C38.36945718 2.20881119 33.47728599 2.19981071 28.5849514 2.1747036 C23.98271033 2.1514671 19.38083938 2.14717174 14.77855492 2.15746498 C13.08906831 2.15796152 11.39956375 2.15160635 9.7101326 2.13790894 C7.40377728 2.12025543 5.0987597 2.12726263 2.79240417 2.14044189 C1.50172626 2.13805354 0.21104834 2.13566519 -1.11874104 2.13320446 C-5.04843057 2.71240532 -6.68767449 3.85686465 -9.47705078 6.62818909 Z " fill="#222226" transform="translate(28.47705078125,15.371810913085938)"/>
<path d="M0 0 C4.88475911 1.41551646 8.64340071 3.05097392 11.39453125 7.48828125 C12.28126793 14.18615638 12.47692078 19.87499565 8.39453125 25.48828125 C3.24610663 30.12186341 -0.80174451 30.71025451 -7.54296875 30.80078125 C-8.25904297 30.82978516 -8.97511719 30.85878906 -9.71289062 30.88867188 C-12.91693806 30.92727486 -15.24037484 30.68584789 -18.07421875 29.15234375 C-20.56728777 24.81491244 -20.22213868 20.46112644 -20.16796875 15.55078125 C-20.19181641 14.56142578 -20.21566406 13.57207031 -20.24023438 12.55273438 C-20.23076171 7.85744903 -20.14122615 5.26642799 -17.4296875 1.328125 C-12.06054302 -2.16961643 -6.08557877 -1.19521862 0 0 Z " fill="#FAFAFA" transform="translate(116.60546875,75.51171875)"/>
<path d="M0 0 C4.3869957 0.98780036 6.81835672 3.39745789 9.70703125 6.7109375 C10.03703125 7.0409375 10.36703125 7.3709375 10.70703125 7.7109375 C11.37947979 12.81193998 11.32218924 16.61952816 8.76953125 21.1484375 C2.12275336 26.71002717 -4.82842597 27.05979133 -13.27734375 27.3046875 C-17.44205664 26.48469222 -18.83142724 25.14814455 -21.29296875 21.7109375 C-21.99044159 18.84839272 -21.9939833 16.14509924 -21.91796875 13.2109375 C-21.93730469 12.46457031 -21.95664063 11.71820313 -21.9765625 10.94921875 C-21.94085962 6.91479327 -21.56107996 5.09274772 -19.18359375 1.70703125 C-13.55362892 -2.18068771 -6.53430826 -0.82374585 0 0 Z " fill="#F8F8F8" transform="translate(213.29296875,218.2890625)"/>
<path d="M0 0 C3.96177957 1.65127484 5.92185996 2.54489932 8.35546875 6.1953125 C9.07569151 10.66739333 8.9375804 14.18200703 6.66796875 18.1328125 C2.26404277 22.06063837 -1.91618888 22.50837836 -7.70703125 22.5703125 C-8.91488281 22.59867188 -10.12273437 22.62703125 -11.3671875 22.65625 C-14.64453125 22.1953125 -14.64453125 22.1953125 -17.04296875 20.60546875 C-20.27737218 15.73808603 -19.36995102 9.78104475 -18.64453125 4.1953125 C-14.8570855 -2.85717269 -6.8981849 -2.09900456 0 0 Z " fill="#F9F9F9" transform="translate(210.64453125,178.8046875)"/>
</svg>
