<?xml version="1.0" encoding="UTF-8"?>
<svg version="1.1" xmlns="http://www.w3.org/2000/svg" width="500" height="500">
<path d="M0 0 C2.01876812 0.28582049 4.03966929 0.55701227 6.0625 0.8125 C20.3026112 3.12170722 31.18079507 10.01995726 39.98828125 21.16015625 C42.65956796 24.93107943 44.44072251 28.67264732 46 33 C46.50390259 34.15390228 47.00780518 35.30780457 47.52697754 36.49667358 C49.38455907 41.47706324 49.43634037 46.14786061 49.41992188 51.41650391 C49.42839142 52.4290625 49.43686096 53.44162109 49.44558716 54.48486328 C49.46888756 57.81555935 49.46998061 61.14579125 49.46875 64.4765625 C49.475858 66.80813783 49.48355793 69.13971143 49.49182129 71.47128296 C49.50525185 76.35509094 49.50684221 81.23873734 49.50097656 86.12255859 C49.49509553 92.34955292 49.52561357 98.57576353 49.56609344 104.80260658 C49.59208098 109.6190908 49.59483757 114.4353894 49.59120178 119.25193405 C49.59288407 121.54582048 49.60243969 123.83971632 49.62034607 126.13353348 C49.73635525 142.83722667 48.98593744 155.96509926 37.76953125 169.3046875 C36 171 36 171 34 171 C34 171.66 34 172.32 34 173 C17.28203363 186.87040067 -1.11921858 187.23767397 -21.74571991 186.92233849 C-26.09330536 186.86011217 -30.44119478 186.83085163 -34.7890625 186.79492188 C-40.27018966 186.7472418 -45.75080572 186.69043601 -51.23144531 186.60229492 C-55.70858527 186.53116055 -60.18514512 186.49087134 -64.66278839 186.46967506 C-66.34501701 186.45629337 -68.02720314 186.43222828 -69.70909882 186.39618492 C-83.02194843 186.11864187 -97.11506505 187.57156852 -108 196 C-108.99 196 -109.98 196 -111 196 C-111 196.66 -111 197.32 -111 198 C-112.2719019 199.03135308 -113.59546473 199.99922235 -114.9375 200.9375 C-128.14019134 210.98483115 -135.28302167 224.86275301 -138 241 C-138.34333276 245.55448057 -138.33044609 250.06789548 -138.2578125 254.6328125 C-138.25119598 255.87247772 -138.24457947 257.11214294 -138.23776245 258.38937378 C-138.21458483 262.30151574 -138.1708694 266.21306423 -138.125 270.125 C-138.08796441 274.07253704 -138.05917055 278.02011442 -138.03366089 281.96774292 C-138.01670535 284.41288419 -137.99358107 286.85799213 -137.96365356 289.30300903 C-137.95389496 290.40200531 -137.94413635 291.50100159 -137.93408203 292.63330078 C-137.92281281 293.60002716 -137.91154358 294.56675354 -137.89993286 295.56277466 C-138 298 -138 298 -139 301 C-145.74010698 301.12792274 -152.47989523 301.21481647 -159.22094727 301.2746582 C-161.50882668 301.29963329 -163.7966277 301.33362548 -166.08422852 301.37719727 C-182.70380523 301.68557186 -195.73157672 301.51423831 -208.86328125 290.07421875 C-229.00645132 270.52024561 -234.06118965 236.78543283 -235 210 C-235.04125 208.87464844 -235.0825 207.74929688 -235.125 206.58984375 C-235.35815656 193.8973834 -233.66516635 181.36763798 -231.5625 168.875 C-231.45252686 168.20106201 -231.34255371 167.52712402 -231.22924805 166.83276367 C-230.47796721 162.61773789 -229.29022222 158.80506132 -227.68676758 154.85766602 C-226.97751818 152.93918801 -226.53138595 151.06498911 -226.125 149.0625 C-223.06092456 136.63731218 -213.17859566 126.39674368 -202.75 119.5 C-192.11580282 113.3961231 -179.74318193 110.86937708 -167.53956604 110.87974548 C-166.28464859 110.87837082 -165.02973114 110.87699615 -163.73678589 110.87557983 C-162.3643186 110.87911802 -160.99185157 110.88275282 -159.61938477 110.88647461 C-158.16024274 110.88675697 -156.70110057 110.88659779 -155.24195862 110.8860321 C-151.29620543 110.88574605 -147.35048285 110.89161173 -143.40473676 110.89860606 C-139.27543625 110.90487158 -135.14613498 110.90544593 -131.01683044 110.90663147 C-123.20429444 110.90973537 -115.39177248 110.91793605 -107.57924265 110.92798096 C-98.68203267 110.93917136 -89.78482201 110.94465992 -80.88760674 110.94967639 C-62.59172965 110.96011946 -44.29586647 110.97790288 -26 111 C-26.33 105.06 -26.66 99.12 -27 93 C-57.69 93 -88.38 93 -120 93 C-121.12700535 81.72994652 -121.12700535 81.72994652 -121.1328125 77.328125 C-121.13514893 76.34497314 -121.13748535 75.36182129 -121.13989258 74.34887695 C-121.11370073 68.89882627 -121.06910681 63.44968144 -121 58 C-120.98912354 56.47850342 -120.98912354 56.47850342 -120.97802734 54.92626953 C-120.85156445 41.96060777 -120.65514097 28.86893526 -112.3125 18.125 C-110 16 -110 16 -108 16 C-108 15.34 -108 14.68 -108 14 C-107.34 14 -106.68 14 -106 14 C-106 13.34 -106 12.68 -106 12 C-76.20993597 -4.70309948 -32.61125966 -8.2776029 0 0 Z M-92 44 C-92 44.66 -92 45.32 -92 46 C-92.64066406 46.23332031 -93.28132812 46.46664062 -93.94140625 46.70703125 C-96.18945511 47.81550207 -96.18945511 47.81550207 -96.71484375 50.13671875 C-97.22787097 56.01403062 -97.05374401 59.87407256 -94 65 C-93.01 65.33 -92.02 65.66 -91 66 C-91 66.66 -91 67.32 -91 68 C-86.36464101 70.04964853 -83.26889052 71.3383708 -78.25 70 C-74.10604462 67.44987361 -71.1713934 64.91682557 -68.625 60.75 C-67.69774886 56.67009497 -67.85687868 53.03023543 -69 49 C-71.18802581 46.06145926 -71.18802581 46.06145926 -74 44 C-74.61230469 43.46890625 -75.22460938 42.9378125 -75.85546875 42.390625 C-78.43517204 40.71781194 -79.94913754 40.59709577 -83 40.625 C-83.845625 40.61726563 -84.69125 40.60953125 -85.5625 40.6015625 C-88.46840714 41.07656655 -89.87790253 41.98597231 -92 44 Z " fill="#0477BC" transform="translate(281,54)"/>
<path d="M0 0 C6.6710674 -0.07644383 13.34202063 -0.12876442 20.01342773 -0.16479492 C22.28007224 -0.17982508 24.54668794 -0.20025482 26.81323242 -0.22631836 C30.08259213 -0.26295588 33.35156527 -0.2797846 36.62109375 -0.29296875 C37.62458359 -0.30845261 38.62807343 -0.32393646 39.66197205 -0.33988953 C48.00181489 -0.34185737 54.84892094 1.45095357 62.0625 5.6875 C62.81660156 6.12449219 63.57070313 6.56148437 64.34765625 7.01171875 C64.89292969 7.33785156 65.43820312 7.66398438 66 8 C66 8.66 66 9.32 66 10 C66.58265625 10.08121094 67.1653125 10.16242188 67.765625 10.24609375 C74.72287168 12.59355635 78.97949445 22.26115083 82.1875 28.5 C95.17967295 55.20873526 99.44632873 90.99370991 94 120 C93.7021885 121.81713159 93.40827586 123.63490431 93.1171875 125.453125 C89.78135538 146.01401173 85.69052621 163.83773464 68.84375 177.78515625 C63.04816953 181.89035908 56.62946254 184.5307265 50 187 C49.09636719 187.35578125 48.19273437 187.7115625 47.26171875 188.078125 C38.21245224 190.635762 28.60104429 190.13901235 19.27880859 190.11352539 C17.81922406 190.11324278 16.35963938 190.1134027 14.90005493 190.1139679 C10.96687557 190.11425297 7.03372716 190.10840325 3.10055494 190.10139394 C-1.02072013 190.095112 -5.14199603 190.09455279 -9.26327515 190.09336853 C-17.05446171 190.09026942 -24.84563412 190.08207529 -32.63681448 190.07201904 C-41.512329 190.06081365 -50.38784423 190.05533633 -59.26336408 190.05032361 C-77.50891739 190.0398914 -95.75445755 190.02231963 -114 190 C-113.67 190.66 -113.34 191.32 -113 192 C-112.90284658 194.33168218 -112.87021783 196.66629957 -112.875 199 C-112.87113281 200.8871875 -112.87113281 200.8871875 -112.8671875 202.8125 C-113 206 -113 206 -114 208 C-112.82458145 207.99777939 -111.6491629 207.99555878 -110.43812561 207.99327087 C-99.38661323 207.97304098 -88.33510458 207.9580286 -77.28357792 207.94818783 C-71.60123488 207.94295861 -65.91890673 207.93586027 -60.23657227 207.92456055 C-54.75770864 207.91373304 -49.27885938 207.90772346 -43.79998589 207.90512276 C-41.70470389 207.90326826 -39.60942272 207.89964718 -37.5141468 207.89426994 C-34.59022416 207.88706132 -31.66636167 207.88600898 -28.74243164 207.88647461 C-27.8670575 207.88287933 -26.99168335 207.87928406 -26.08978271 207.87557983 C-20.11405216 207.88594784 -20.11405216 207.88594784 -19 209 C-18.89093146 210.5932847 -18.85094094 212.19136223 -18.83886719 213.78833008 C-18.82925964 214.8106221 -18.8196521 215.83291412 -18.80975342 216.88618469 C-18.8033786 218.56094124 -18.8033786 218.56094124 -18.796875 220.26953125 C-18.79117493 221.4160466 -18.78547485 222.56256195 -18.77960205 223.74382019 C-18.77012798 226.18263827 -18.76360858 228.62146928 -18.75976562 231.06030273 C-18.75014045 234.75853658 -18.71917327 238.45619556 -18.6875 242.15429688 C-18.68096205 244.52603837 -18.6757147 246.89778385 -18.671875 249.26953125 C-18.6533548 250.91088799 -18.6533548 250.91088799 -18.63446045 252.58540344 C-18.66949264 264.92349499 -21.16748321 276.38040407 -29.59375 285.77734375 C-51.23027133 305.83194961 -90.07456559 305.19305275 -117.75897217 304.313797 C-137.44675843 303.51821858 -156.90868219 300.6308677 -172 287 C-173.299375 285.8553125 -173.299375 285.8553125 -174.625 284.6875 C-184.98084824 272.96904015 -188.12184354 262.31903257 -188.19287109 246.86474609 C-188.20104858 245.87023437 -188.20922607 244.87572266 -188.21765137 243.85107422 C-188.24236696 240.57520123 -188.25898643 237.29937118 -188.2734375 234.0234375 C-188.28142302 232.33632597 -188.28142302 232.33632597 -188.28956985 230.61513138 C-188.31624217 224.66090834 -188.33563539 218.70670583 -188.35009766 212.75244141 C-188.36342596 207.8446993 -188.39126775 202.93737401 -188.43212891 198.02978516 C-188.4816336 192.08238446 -188.50624025 186.13536111 -188.51332474 180.18776321 C-188.52000569 177.93210346 -188.5351445 175.67645109 -188.55921555 173.42090988 C-188.73256098 156.19454375 -187.64423758 142.96492477 -175 130 C-159.30458955 115.30019394 -141.13551423 113.79525583 -120.70098114 113.95540047 C-118.36007557 113.97312415 -116.01924129 113.983194 -113.67828369 113.99131775 C-107.03105955 114.0154757 -100.38393206 114.05103761 -93.73681641 114.09594727 C-89.64457068 114.12306561 -85.55237947 114.13988603 -81.46006012 114.15081596 C-79.9214196 114.15692965 -78.38278831 114.16680845 -76.84420013 114.18089485 C-58.95876892 114.34319854 -43.45444719 113.03100738 -28.03125 103.171875 C-26 102 -26 102 -24 102 C-24 101.34 -24 100.68 -24 100 C-22.50390625 98.5625 -22.50390625 98.5625 -20.5625 97 C-17.84811762 94.85474956 -17.84811762 94.85474956 -16 92 C-15.34 92 -14.68 92 -14 92 C-13.731875 91.278125 -13.46375 90.55625 -13.1875 89.8125 C-11.53261373 85.89303253 -9.29061746 82.45408978 -7 78.875 C-0.71052815 67.79010708 -0.86234727 54.46067512 -0.68359375 42.08984375 C-0.6524221 40.27777184 -0.6524221 40.27777184 -0.62062073 38.42909241 C-0.55562961 34.59861527 -0.49647635 30.76807399 -0.4375 26.9375 C-0.39426674 24.32876961 -0.35065097 21.72004552 -0.30664062 19.11132812 C-0.20000042 12.74095175 -0.09814361 6.37051263 0 0 Z M-69.4375 237.75 C-71.36323166 241.75552186 -71.70746414 244.64167151 -71 249 C-69.30240105 253.80986369 -66.64422607 257.69249145 -62 260 C-57.50774539 261.00078704 -53.7291501 260.90561053 -49.61328125 258.75 C-45.30080479 255.65875411 -45.30080479 255.65875411 -43 251 C-42.61461703 246.21235777 -42.44237567 241.63802147 -44 237.0625 C-47.66611449 233.28181944 -51.89080124 231.34435898 -57.0625 230.5 C-62.49989654 231.4255143 -65.87174171 233.72709322 -69.4375 237.75 Z " fill="#FCC007" transform="translate(349,145)"/>
<path d="M0 0 C49.5 0 99 0 150 0 C150 0.33 150 0.66 150 1 C101.16 1 52.32 1 2 1 C2.33 1.66 2.66 2.32 3 3 C3.09715342 5.33168218 3.12978217 7.66629957 3.125 10 C3.12757813 11.258125 3.13015625 12.51625 3.1328125 13.8125 C3 17 3 17 2 19 C3.17541855 18.99777939 4.3508371 18.99555878 5.56187439 18.99327087 C16.61338677 18.97304098 27.66489542 18.9580286 38.71642208 18.94818783 C44.39876512 18.94295861 50.08109327 18.93586027 55.76342773 18.92456055 C61.24229136 18.91373304 66.72114062 18.90772346 72.20001411 18.90512276 C74.29529611 18.90326826 76.39057728 18.89964718 78.4858532 18.89426994 C81.40977584 18.88706132 84.33363833 18.88600898 87.25756836 18.88647461 C88.57062958 18.8810817 88.57062958 18.8810817 89.91021729 18.87557983 C95.88594784 18.88594784 95.88594784 18.88594784 97 20 C97.09866871 21.63072518 97.12798822 23.26570719 97.12939453 24.89941406 C97.13254669 25.94429993 97.13569885 26.98918579 97.13894653 28.06573486 C97.13591019 29.77343048 97.13591019 29.77343048 97.1328125 31.515625 C97.13376923 32.67874207 97.13472595 33.84185913 97.13571167 35.04022217 C97.13639392 37.5084234 97.13453656 39.97662641 97.13037109 42.44482422 C97.12504267 46.21976785 97.13030466 49.99459145 97.13671875 53.76953125 C97.1360576 56.16406276 97.13477567 58.5585942 97.1328125 60.953125 C97.13483673 62.08349182 97.13686096 63.21385864 97.13894653 64.378479 C97.13421829 65.96472076 97.13421829 65.96472076 97.12939453 67.58300781 C97.12859894 68.51042786 97.12780334 69.4378479 97.12698364 70.39337158 C96.99902328 73.02004945 96.58284016 75.43903237 96 78 C95.67 78 95.34 78 95 78 C95.00785522 77.09290283 95.00785522 77.09290283 95.01586914 76.16748047 C95.03677358 73.40333106 95.04970279 70.63919835 95.0625 67.875 C95.07506836 66.44800781 95.07506836 66.44800781 95.08789062 64.9921875 C95.1127779 59.5080237 95.1127779 59.5080237 94.50390625 54.0703125 C93.68342324 49.07109043 93.85667985 44.05636172 93.875 39 C93.87113281 37.93265625 93.86726563 36.8653125 93.86328125 35.765625 C93.86457031 34.72921875 93.86585938 33.6928125 93.8671875 32.625 C93.86831543 31.68914062 93.86944336 30.75328125 93.87060547 29.7890625 C94.00949974 26.79523583 94.48641711 23.95016238 95 21 C93.82458145 21.00222061 92.6491629 21.00444122 91.43812561 21.00672913 C80.38661323 21.02695902 69.33510458 21.0419714 58.28357792 21.05181217 C52.60123488 21.05704139 46.91890673 21.06413973 41.23657227 21.07543945 C35.75770864 21.08626696 30.27885938 21.09227654 24.79998589 21.09487724 C22.70470389 21.09673174 20.60942272 21.10035282 18.5141468 21.10573006 C15.59022416 21.11293868 12.66636167 21.11399102 9.74243164 21.11352539 C8.42937042 21.1189183 8.42937042 21.1189183 7.08978271 21.12442017 C1.11405216 21.11405216 1.11405216 21.11405216 0 20 C0 13.4 0 6.8 0 0 Z " fill="#FBE493" transform="translate(233,334)"/>
<path d="M0 0 C0.33 1.32 0.66 2.64 1 4 C0.34 4 -0.32 4 -1 4 C-1 4.66 -1 5.32 -1 6 C-1.44085938 6.40992188 -1.88171875 6.81984375 -2.3359375 7.2421875 C-4.57934656 9.6119858 -5.43604494 12.09790583 -6.625 15.125 C-8.91666667 20.91666667 -8.91666667 20.91666667 -10 22 C-10.10771905 23.4543728 -10.14681259 24.91389576 -10.15821838 26.37220764 C-10.1680072 27.31596756 -10.17779602 28.25972748 -10.18788147 29.23208618 C-10.19363693 30.27577362 -10.1993924 31.31946106 -10.20532227 32.39477539 C-10.21522186 33.48732132 -10.22512146 34.57986725 -10.23532104 35.70552063 C-10.2670445 39.33621006 -10.29173618 42.96691259 -10.31640625 46.59765625 C-10.33696642 49.10729829 -10.35796263 51.61693678 -10.37937927 54.12657166 C-10.4290351 60.06931321 -10.47427523 66.01207811 -10.51740164 71.95486969 C-10.57156869 79.38205936 -10.63254588 86.80919042 -10.69335938 94.23632812 C-10.8010592 107.49084558 -10.90266698 120.74540257 -11 134 C-11.33 134 -11.66 134 -12 134 C-12.97725518 128.25889323 -13.1661349 122.6820491 -13.19287109 116.86474609 C-13.20104858 115.87023437 -13.20922607 114.87572266 -13.21765137 113.85107422 C-13.24236696 110.57520123 -13.25898643 107.29937118 -13.2734375 104.0234375 C-13.28142302 102.33632597 -13.28142302 102.33632597 -13.28956985 100.61513138 C-13.31624217 94.66090834 -13.33563539 88.70670583 -13.35009766 82.75244141 C-13.36342596 77.8446993 -13.39126775 72.93737401 -13.43212891 68.02978516 C-13.4816336 62.08238446 -13.50624025 56.13536111 -13.51332474 50.18776321 C-13.52000569 47.93210346 -13.5351445 45.67645109 -13.55921555 43.42090988 C-13.70451109 28.98202818 -13.77422316 15.64191444 -3.6875 4.1875 C-2.99011719 3.37667969 -2.29273438 2.56585938 -1.57421875 1.73046875 C-1.05472656 1.15941406 -0.53523437 0.58835937 0 0 Z " fill="#F4CE55" transform="translate(174,275)"/>
<path d="M0 0 C0.99 0.33 1.98 0.66 3 1 C3.02531484 8.35065985 3.04285202 15.7013085 3.05493164 23.05200195 C3.05996641 25.55363383 3.06679461 28.05526276 3.07543945 30.55688477 C3.08754238 34.14860766 3.09323682 37.74029172 3.09765625 41.33203125 C3.10281754 42.45398392 3.10797882 43.57593658 3.11329651 44.73188782 C3.11337204 45.77274033 3.11344757 46.81359283 3.11352539 47.88598633 C3.115746 48.80309891 3.11796661 49.72021149 3.12025452 50.66511536 C3 53 3 53 2 56 C-4.90507881 56.05068981 -11.81010966 56.08572927 -18.71533203 56.10986328 C-21.06463413 56.11992384 -23.41392369 56.13357373 -25.76318359 56.15087891 C-29.13902885 56.17512452 -32.5147086 56.18648259 -35.890625 56.1953125 C-36.94179504 56.20563507 -37.99296509 56.21595764 -39.07598877 56.22659302 C-40.05670349 56.22674408 -41.03741821 56.22689514 -42.04785156 56.22705078 C-43.3402475 56.23371262 -43.3402475 56.23371262 -44.65875244 56.24050903 C-47 56 -47 56 -51 54 C-34.17 54.33 -17.34 54.66 0 55 C0 36.85 0 18.7 0 0 Z " fill="#3989B6" transform="translate(140,299)"/>
<path d="M0 0 C1.84851563 -0.01836914 1.84851563 -0.01836914 3.734375 -0.03710938 C11.17347343 -0.04895507 18.11517845 0.54177883 25.375 2.1875 C25.375 2.5175 25.375 2.8475 25.375 3.1875 C24.07763916 3.18226318 22.78027832 3.17702637 21.44360352 3.17163086 C16.64852585 3.15358531 11.8534512 3.14206963 7.05834961 3.13256836 C4.97956844 3.12752712 2.90079084 3.12069426 0.82202148 3.11206055 C-2.15902586 3.09998578 -5.14002649 3.09426976 -8.12109375 3.08984375 C-9.05650497 3.08468246 -9.9919162 3.07952118 -10.95567322 3.07420349 C-11.81649002 3.07412796 -12.67730682 3.07405243 -13.56420898 3.07397461 C-14.32587875 3.071754 -15.08754852 3.06953339 -15.87229919 3.06724548 C-17.65310605 2.99659045 -17.65310605 2.99659045 -18.625 4.1875 C-20.91304167 4.39816368 -23.20603822 4.55614841 -25.5 4.6875 C-30.65231192 4.96582315 -30.65231192 4.96582315 -35.625 6.1875 C-38.21173851 6.39261583 -40.78451318 6.55986653 -43.375 6.6875 C-48.51771883 6.94655487 -53.53576798 7.38814418 -58.625 8.1875 C-55.20033402 5.90438935 -52.15315897 5.3668519 -48.1875 4.6875 C-47.47102295 4.56004395 -46.7545459 4.43258789 -46.01635742 4.30126953 C-44.56420446 4.04431153 -43.11148436 3.79053713 -41.65820312 3.54003906 C-39.8899076 3.23343259 -38.12435885 2.9110661 -36.359375 2.5859375 C-24.29793017 0.42519738 -12.23272717 0.00643828 0 0 Z " fill="#4F99C4" transform="translate(251.625,50.8125)"/>
<path d="M0 0 C11.22844129 11.22844129 12.08071026 46.02970027 12.44213867 61.42089844 C12.4262626 69.39235795 11.5715258 77.18446543 10 85 C9.67 85 9.34 85 9 85 C9.00523682 84.07251953 9.01047363 83.14503906 9.01586914 82.18945312 C9.03301327 78.71548834 9.04549965 75.24156918 9.05493164 71.76757812 C9.05992943 70.27017503 9.0667299 68.77277673 9.07543945 67.27539062 C9.08770623 65.11066495 9.09327397 62.94600435 9.09765625 60.78125 C9.10289307 59.48251953 9.10812988 58.18378906 9.11352539 56.84570312 C8.99462068 52.81777393 8.53359684 48.99155445 8 45 C7.9371611 42.66741994 7.91319479 40.33329975 7.9375 38 C7.94652344 36.865625 7.95554687 35.73125 7.96484375 34.5625 C7.97644531 33.716875 7.98804688 32.87125 8 32 C7.34 32 6.68 32 6 32 C6 29.36 6 26.72 6 24 C5.34 24 4.68 24 4 24 C3.855625 22.865625 3.71125 21.73125 3.5625 20.5625 C3.38828522 17.19222799 3.38828522 17.19222799 2 16 C1.60006314 13.31137336 1.24865457 10.63647783 0.9375 7.9375 C0.84662109 7.17888672 0.75574219 6.42027344 0.66210938 5.63867188 C0.4375626 3.7595699 0.21829022 1.87983905 0 0 Z " fill="#F8DA73" transform="translate(433,180)"/>
<path d="M0 0 C7.734375 -0.061875 15.46875 -0.12375 23.4375 -0.1875 C25.86150146 -0.21481201 28.28550293 -0.24212402 30.78295898 -0.27026367 C32.72899886 -0.27903496 34.67504428 -0.28667737 36.62109375 -0.29296875 C37.6114563 -0.30831665 38.60181885 -0.32366455 39.62219238 -0.33947754 C47.97864132 -0.34258981 54.83366346 1.44199283 62.0625 5.6875 C62.81660156 6.12449219 63.57070313 6.56148437 64.34765625 7.01171875 C64.89292969 7.33785156 65.43820312 7.66398438 66 8 C64.68 8.33 63.36 8.66 62 9 C62 8.34 62 7.68 62 7 C61.360625 6.896875 60.72125 6.79375 60.0625 6.6875 C55.93382025 5.76065352 51.99685584 4.37719377 48 3 C45.23829856 2.07943285 43.47821145 1.85199851 40.62036133 1.79467773 C39.72740356 1.77449585 38.8344458 1.75431396 37.91442871 1.73352051 C36.97973755 1.71704468 36.04504639 1.70056885 35.08203125 1.68359375 C34.22009155 1.66494263 33.35815186 1.6462915 32.47009277 1.6270752 C29.25099923 1.55878839 26.03173735 1.49863272 22.8125 1.4375 C15.614375 1.293125 8.41625 1.14875 1 1 C1 18.82 1 36.64 1 55 C0.67 55 0.34 55 0 55 C0 36.85 0 18.7 0 0 Z " fill="#EAC861" transform="translate(349,145)"/>
<path d="M0 0 C-5.35039247 2.76744438 -9.81272734 3.16005405 -15.77001953 3.18945312 C-16.66617981 3.19774643 -17.56234009 3.20603973 -18.48565674 3.21458435 C-20.4319698 3.23198462 -22.3783038 3.2471515 -24.32464981 3.26036072 C-27.40007281 3.2813679 -30.47539002 3.30839041 -33.55075073 3.33703613 C-41.18661254 3.4069091 -48.82254918 3.46636249 -56.45849609 3.52606201 C-62.91277461 3.57690083 -69.36699542 3.63168753 -75.8211937 3.69187927 C-78.85971131 3.71854725 -81.89823404 3.73930254 -84.9367981 3.7598877 C-86.78745788 3.77648212 -88.63811522 3.79335319 -90.48876953 3.81054688 C-91.76670883 3.8168235 -91.76670883 3.8168235 -93.07046509 3.82322693 C-96.84220468 3.50093632 -96.84220468 3.50093632 -100 5 C-102.67058851 5.14115161 -105.32432238 5.04247107 -108 5 C-98.80596591 -1.12935606 -82.64732611 0.74123973 -71.85546875 0.83984375 C-70.26801425 0.84614126 -68.68055521 0.85137222 -67.09309387 0.85560608 C-62.96282362 0.86874102 -58.83270894 0.89309218 -54.70251465 0.92095947 C-48.07836351 0.96452461 -41.45417105 0.99402674 -34.82991982 1.0170002 C-32.54184119 1.02707356 -30.25389522 1.04412618 -27.96586609 1.06199646 C-21.04074251 1.10177393 -14.20729929 1.00133447 -7.31513977 0.2177887 C-4.86402947 -0.01279095 -2.46046729 -0.03481303 0 0 Z " fill="#F2CB57" transform="translate(303,258)"/>
<path d="M0 0 C0.33 0 0.66 0 1 0 C0.96970703 0.62003906 0.93941406 1.24007812 0.90820312 1.87890625 C0.02253042 20.60066476 -0.11776678 39.26239961 0 58 C-0.33 58 -0.66 58 -1 58 C-3.09907307 38.49983449 -4.24891652 19.33065623 0 0 Z " fill="#58A1C8" transform="translate(49,227)"/>
<path d="M0 0 C0.33 1.32 0.66 2.64 1 4 C0.34 4 -0.32 4 -1 4 C-1 4.66 -1 5.32 -1 6 C-1.44214844 6.4125 -1.88429687 6.825 -2.33984375 7.25 C-4.5571167 9.58726654 -5.39303606 12.00851857 -6.5625 15 C-7.86338231 18.30691578 -9.02313908 21.03470862 -11 24 C-11.24121349 26.89659349 -11.37299442 29.7053355 -11.4140625 32.60546875 C-11.43342865 33.44467361 -11.4527948 34.28387848 -11.4727478 35.14851379 C-11.53251213 37.82807258 -11.57891612 40.5076744 -11.625 43.1875 C-11.6631827 45.00457599 -11.70223461 46.82163394 -11.7421875 48.63867188 C-11.83821103 53.09230132 -11.92225359 57.54601551 -12 62 C-12.33 62 -12.66 62 -13 62 C-13.12502535 56.68392194 -13.21500002 51.36872783 -13.2746582 46.05151367 C-13.29956661 44.24862736 -13.33350659 42.44583949 -13.37719727 40.64331055 C-13.69748578 27.07438184 -13.13190162 14.91249845 -3.6875 4.1875 C-2.99011719 3.37667969 -2.29273438 2.56585938 -1.57421875 1.73046875 C-1.05472656 1.15941406 -0.53523437 0.58835937 0 0 Z " fill="#F8DD7F" transform="translate(174,275)"/>
<path d="M0 0 C1.60461448 4.01153621 0.45438973 7.07314774 -1 11 C-1.99 11.66 -2.98 12.32 -4 13 C-4.28875 13.763125 -4.5775 14.52625 -4.875 15.3125 C-6.29562824 18.70622303 -8.2503843 20.59408626 -11 23 C-11.66 23 -12.32 23 -13 23 C-13.28875 23.639375 -13.5775 24.27875 -13.875 24.9375 C-15 27 -15 27 -17 28 C-17.66 27.67 -18.32 27.34 -19 27 C-19 26.34 -19 25.68 -19 25 C-17.50390625 23.5625 -17.50390625 23.5625 -15.5625 22 C-12.84811762 19.85474956 -12.84811762 19.85474956 -11 17 C-10.34 17 -9.68 17 -9 17 C-8.731875 16.278125 -8.46375 15.55625 -8.1875 14.8125 C-7.00170378 12.00403526 -5.60341659 9.59013448 -4 7 C-2.65457625 4.67343691 -1.32848796 2.3363064 0 0 Z " fill="#F5C83A" transform="translate(344,220)"/>
<path d="M0 0 C0.66 0 1.32 0 2 0 C3.16698437 3.50095311 3.13268287 6.3122232 3.125 10 C3.12757813 11.2375 3.13015625 12.475 3.1328125 13.75 C3 17 3 17 2 20 C15.53 20 29.06 20 43 20 C43 20.33 43 20.66 43 21 C37.03686834 21.02464574 31.07376605 21.042834 25.1105957 21.05493164 C23.08031702 21.05997278 21.05004198 21.06680557 19.01977539 21.07543945 C16.10822653 21.08751467 13.1967255 21.09323034 10.28515625 21.09765625 C8.91485008 21.10539818 8.91485008 21.10539818 7.51686096 21.11329651 C5.34424573 21.11349168 3.17172704 21.06211805 1 21 C0 20 0 20 -0.11352539 18.05053711 C-0.10567017 16.8015564 -0.10567017 16.8015564 -0.09765625 15.52734375 C-0.09443359 14.62822266 -0.09121094 13.72910156 -0.08789062 12.80273438 C-0.07951172 11.85720703 -0.07113281 10.91167969 -0.0625 9.9375 C-0.05798828 8.98810547 -0.05347656 8.03871094 -0.04882812 7.06054688 C-0.0370011 4.70696935 -0.02052025 2.35351523 0 0 Z " fill="#F3C32C" transform="translate(233,334)"/>
<path d="M0 0 C1.875 0.1875 1.875 0.1875 4 1 C6.46390379 6.07116198 7.34570707 11.38637575 7 17 C5.43351337 20.38735999 2.9836056 22.31445671 -0.0625 24.4375 C-2.40958661 25.11891224 -3.68679631 24.65885427 -6 24 C-5.25943359 23.51080078 -5.25943359 23.51080078 -4.50390625 23.01171875 C-3.54291016 22.35623047 -3.54291016 22.35623047 -2.5625 21.6875 C-1.92441406 21.25824219 -1.28632813 20.82898438 -0.62890625 20.38671875 C1.2885684 18.9965948 1.2885684 18.9965948 2 16 C2.1190686 14.21120198 2.17522113 12.4177144 2.1875 10.625 C2.20167969 9.68914062 2.21585937 8.75328125 2.23046875 7.7890625 C1.98668108 4.83881846 1.23112508 2.67635888 0 0 Z " fill="#F7D24F" transform="translate(303,380)"/>
<path d="M0 0 C0.66 0 1.32 0 2 0 C1.24447442 9.00992447 0.0997562 17.6757008 -2.4375 26.375 C-2.64270264 27.09357178 -2.84790527 27.81214355 -3.05932617 28.55249023 C-4.13329174 32.05075353 -5.03199907 34.73289725 -8 37 C-8 35.35 -8 33.7 -8 32 C-7.34 32 -6.68 32 -6 32 C-5.83252588 29.54171921 -5.6659856 27.08338135 -5.5 24.625 C-5.45230469 23.92632812 -5.40460938 23.22765625 -5.35546875 22.5078125 C-5.09344214 18.7572219 -5.09344214 18.7572219 -5 15 C-4.34 15 -3.68 15 -3 15 C-1.42922093 9.97350697 -0.55145271 5.23880078 0 0 Z " fill="#F9D14F" transform="translate(440,267)"/>
<path d="M0 0 C1.98 0 3.96 0 6 0 C0.35019145 6.93385595 -8.53066393 9.49737586 -17 11 C-17 8 -17 8 -15.4375 6.3125 C-12.19368832 4.56583217 -9.62656715 4.79077497 -6 5 C-5.67 4.34 -5.34 3.68 -5 3 C-3.35636866 2.27840576 -1.68949614 1.60648579 0 1 C0 0.67 0 0.34 0 0 Z " fill="#F8C834" transform="translate(413,321)"/>
<path d="M0 0 C-9.12063376 6.08042251 -22.22800281 7.27138753 -33 7 C-33 6.34 -33 5.68 -33 5 C-30.03 5 -27.06 5 -24 5 C-24 4.34 -24 3.68 -24 3 C-20.37 3 -16.74 3 -13 3 C-13 2.34 -13 1.68 -13 1 C-8.61414671 0.29826347 -4.44209357 -0.10834375 0 0 Z " fill="#F8D45C" transform="translate(300,440)"/>
<path d="M0 0 C0.99 0.33 1.98 0.66 3 1 C2.55269531 1.49628906 2.10539063 1.99257813 1.64453125 2.50390625 C-2.20917747 6.83419302 -5.71606198 11.22336288 -9 16 C-11.5654594 13.4345406 -11.54046087 11.52313332 -12 8 C-9 6 -9 6 -5 6 C-5 5.01 -5 4.02 -5 3 C-3.35 2.67 -1.7 2.34 0 2 C0 1.34 0 0.68 0 0 Z " fill="#177FBE" transform="translate(160,256)"/>
<path d="M0 0 C0.66 0 1.32 0 2 0 C0.4492346 8.0639801 -4.41642521 14.32219686 -11 19 C-11.66 19 -12.32 19 -13 19 C-13 18.34 -13 17.68 -13 17 C-12.34 17 -11.68 17 -11 17 C-11.33 15.35 -11.66 13.7 -12 12 C-9.625 10.4375 -9.625 10.4375 -7 9 C-6.34 9.33 -5.68 9.66 -5 10 C-4.67 9.01 -4.34 8.02 -4 7 C-3.34 7 -2.68 7 -2 7 C-1.34 4.69 -0.68 2.38 0 0 Z " fill="#F8CA31" transform="translate(325,416)"/>
<path d="M0 0 C3.3125 0.125 3.3125 0.125 7 1 C8.05008653 2.97416268 9.04987876 4.97582866 10 7 C11.99117408 7.69258229 13.9921136 8.35747635 16 9 C17.93693297 10.86631562 19.3920202 12.82449792 21 15 C12.28296072 13.33077971 5.85947035 7.42651587 0 1 C0 0.67 0 0.34 0 0 Z " fill="#F6CE4B" transform="translate(172,426)"/>
<path d="M0 0 C0 0.66 0 1.32 0 2 C-0.639375 2.103125 -1.27875 2.20625 -1.9375 2.3125 C-2.618125 2.539375 -3.29875 2.76625 -4 3 C-4.33 3.99 -4.66 4.98 -5 6 C-7.5654594 8.5654594 -9.47686668 8.54046087 -13 9 C-13.33 10.65 -13.66 12.3 -14 14 C-15.32 14.33 -16.64 14.66 -18 15 C-18 15.99 -18 16.98 -18 18 C-18.66 18 -19.32 18 -20 18 C-18.63312778 14.01328937 -16.84804907 11.11505367 -14 8 C-13.34 8 -12.68 8 -12 8 C-12 7.34 -12 6.68 -12 6 C-11.34 6 -10.68 6 -10 6 C-10 5.34 -10 4.68 -10 4 C-3.375 0 -3.375 0 0 0 Z " fill="#4696C0" transform="translate(185,62)"/>
<path d="M0 0 C-8.34752194 3.6626882 -15.9286239 4.77272151 -25 5 C-26.22460938 5.03996094 -27.44921875 5.07992187 -28.7109375 5.12109375 C-35.2962983 5.24466012 -35.2962983 5.24466012 -38 5 C-38.66 4.34 -39.32 3.68 -40 3 C-31.42 2.67 -22.84 2.34 -14 2 C-14 1.67 -14 1.34 -14 1 C-12.23103898 0.63659714 -10.45973374 0.28459117 -8.6875 -0.0625 C-7.70136719 -0.25972656 -6.71523438 -0.45695313 -5.69921875 -0.66015625 C-3 -1 -3 -1 0 0 Z " fill="#4692BC" transform="translate(300,236)"/>
<path d="M0 0 C10.59846426 -0.50468877 17.98946265 2.61071879 27 8 C25.68 8.33 24.36 8.66 23 9 C23 8.34 23 7.68 23 7 C22.0409375 6.8453125 22.0409375 6.8453125 21.0625 6.6875 C18.51817185 6.11632429 16.20585127 5.41409116 13.75 4.5625 C9.23067353 3.01301664 4.67994385 1.94041425 0 1 C0 0.67 0 0.34 0 0 Z " fill="#F5D466" transform="translate(388,145)"/>
<path d="M0 0 C-3.62958203 2.41972135 -6.53940311 2.4049868 -10.75 2.5625 C-15.89997298 2.78829173 -20.90531165 3.19311873 -26 4 C-22.51117823 1.67411882 -19.28960601 1.0607117 -15.25 0.3125 C-14.5590625 0.17005859 -13.868125 0.02761719 -13.15625 -0.11914062 C-8.45651184 -1.0069671 -4.69632098 -0.91590553 0 0 Z " fill="#569DC6" transform="translate(219,55)"/>
<path d="M0 0 C0.66 0.33 1.32 0.66 2 1 C-1.625 6.875 -1.625 6.875 -5 8 C-5 8.66 -5 9.32 -5 10 C-5.99 10.495 -5.99 10.495 -7 11 C-7.33 11.99 -7.66 12.98 -8 14 C-10.0625 14.6875 -10.0625 14.6875 -12 15 C-10.42921185 11.31766057 -8.13566869 8.74453885 -5.4375 5.8125 C-4.63183594 4.93207031 -3.82617188 4.05164063 -2.99609375 3.14453125 C-1 1 -1 1 0 0 Z " fill="#509DC7" transform="translate(72,178)"/>
<path d="M0 0 C0.66 1.32 1.32 2.64 2 4 C1.04578192 5.14926266 0.08647955 6.29430541 -0.875 7.4375 C-1.40867187 8.07558594 -1.94234375 8.71367187 -2.4921875 9.37109375 C-4 11 -4 11 -6 12 C-5.73781251 7.5428126 -5.42288711 5.48477302 -2.4375 2.0625 C-1.633125 1.381875 -0.82875 0.70125 0 0 Z " fill="#F9CD40" transform="translate(425,309)"/>
<path d="M0 0 C4.92898662 0.42248457 6.60004933 2.60004933 10 6 C12.29249485 7.22043045 14.55734591 8.08999161 17 9 C17 9.99 17 10.98 17 12 C10.49215203 9.0406969 5.18158905 5.95630257 0 1 C0 0.67 0 0.34 0 0 Z " fill="#519EC1" transform="translate(70,341)"/>
<path d="M0 0 C0.99 0.495 0.99 0.495 2 1 C2 1.66 2 2.32 2 3 C2.66 3 3.32 3 4 3 C4 4.32 4 5.64 4 7 C4.66 7 5.32 7 6 7 C6.66 8.32 7.32 9.64 8 11 C8.33 11 8.66 11 9 11 C9 12.98 9 14.96 9 17 C3.91810524 12.6440902 0.83019484 6.64155871 0 0 Z " fill="#F7D65E" transform="translate(163,409)"/>
<path d="M0 0 C0.66 0 1.32 0 2 0 C3.16009247 3.48027742 3.20416521 6.33321643 3.25 10 C3.27578125 11.2375 3.3015625 12.475 3.328125 13.75 C3 17 3 17 0 20 C0 13.4 0 6.8 0 0 Z " fill="#F9CD3C" transform="translate(233,334)"/>
<path d="M0 0 C2.43934225 -0.13501894 4.87124104 -0.23403897 7.3125 -0.3125 C8.34793945 -0.3753418 8.34793945 -0.3753418 9.40429688 -0.43945312 C11.42578125 -0.48828125 11.42578125 -0.48828125 15 0 C16.98046875 2.51953125 16.98046875 2.51953125 18 5 C17.360625 4.690625 16.72125 4.38125 16.0625 4.0625 C9.76052458 1.87610036 4.2410896 1.27952505 -2 4 C-1.34 2.68 -0.68 1.36 0 0 Z " fill="#F8D561" transform="translate(285,375)"/>
<path d="M0 0 C0.66 0 1.32 0 2 0 C1.835 0.495 1.67 0.99 1.5 1.5 C0.13807687 8.30961567 0.95930024 12.91860047 4 19 C2.35 18.67 0.7 18.34 -1 18 C-2.21456051 14.35631848 -1.91547658 11.69829989 -1.625 7.875 C-1.53476562 6.61429687 -1.44453125 5.35359375 -1.3515625 4.0546875 C-1 1 -1 1 0 0 Z " fill="#F8D660" transform="translate(278,382)"/>
<path d="M0 0 C0.33 0 0.66 0 1 0 C1.34548714 6.33393082 0.29342747 11.10261508 -2 17 C-2.66 17 -3.32 17 -4 17 C-3.58411954 10.80481527 -2.39748106 5.73310689 0 0 Z " fill="#358BBB" transform="translate(54,207)"/>
<path d="M0 0 C0.66 0.33 1.32 0.66 2 1 C4.3329866 1.04022391 6.66706666 1.04320247 9 1 C5.29048547 4.70951453 -0.16909769 6.09691727 -5 8 C-3.8141763 4.62496331 -2.72426311 2.35277269 0 0 Z " fill="#4F9BC7" transform="translate(176,242)"/>
<path d="M0 0 C-0.66 1.32 -1.32 2.64 -2 4 C-2.33 3.67 -2.66 3.34 -3 3 C-6.65316671 4.24976756 -7.78065836 4.67098753 -10 8 C-12.625 8.1875 -12.625 8.1875 -15 8 C-12.94331068 4.91496602 -11.78101214 4.05826751 -8.625 2.3125 C-7.85414062 1.87550781 -7.08328125 1.43851563 -6.2890625 0.98828125 C-4 0 -4 0 0 0 Z " fill="#4B90C1" transform="translate(89,170)"/>
<path d="M0 0 C1.32 0.66 2.64 1.32 4 2 C3.75 3.875 3.75 3.875 3 6 C0.9375 7.25 0.9375 7.25 -1 8 C-1.66 6.02 -2.32 4.04 -3 2 C-2.01 1.34 -1.02 0.68 0 0 Z " fill="#368DBF" transform="translate(316,217)"/>
<path d="M0 0 C1.98 0 3.96 0 6 0 C2.45647382 4.31385796 -1.95192247 5.9721398 -7 8 C-6.3125 5.625 -6.3125 5.625 -5 3 C-2.375 1.6875 -2.375 1.6875 0 1 C0 0.67 0 0.34 0 0 Z " fill="#F8D45D" transform="translate(413,321)"/>
<path d="M0 0 C0.99 0.33 1.98 0.66 3 1 C1.89718873 2.27200971 0.79269231 3.54255853 -0.3125 4.8125 C-1.23482422 5.87404297 -1.23482422 5.87404297 -2.17578125 6.95703125 C-3.73334335 8.70136739 -5.32658875 10.36778041 -7 12 C-7 10.35 -7 8.7 -7 7 C-6.34 6.67 -5.68 6.34 -5 6 C-5 5.01 -5 4.02 -5 3 C-3.35 2.67 -1.7 2.34 0 2 C0 1.34 0 0.68 0 0 Z " fill="#5BA3C7" transform="translate(160,256)"/>
<path d="M0 0 C1.27617978 4.23840729 0.72365839 6.87820819 -1 11 C-4.125 12.9375 -4.125 12.9375 -7 14 C-4.66666667 9.33333333 -2.33333333 4.66666667 0 0 Z " fill="#F6D155" transform="translate(344,220)"/>
<path d="M0 0 C0.33 0 0.66 0 1 0 C1.21133202 7.04440079 1.07965362 13.24112575 -1 20 C-1.66 20 -2.32 20 -3 20 C-2.22602467 13.29221378 -1.14231412 6.65425699 0 0 Z " fill="#F9DB79" transform="translate(348,200)"/>
<path d="M0 0 C5.4389165 -0.21755666 9.87080814 -0.10428384 15 2 C15 2.33 15 2.66 15 3 C13.25008666 3.02715383 11.50005055 3.04646551 9.75 3.0625 C8.28820312 3.07990234 8.28820312 3.07990234 6.796875 3.09765625 C4.34241322 3.01195577 2.33831086 2.70706066 0 2 C0 1.34 0 0.68 0 0 Z " fill="#3E8EC0" transform="translate(281,55)"/>
<path d="M0 0 C0.98120464 3.05263664 0.98120464 4.94736336 0 8 C-0.66 8 -1.32 8 -2 8 C-2.66 9.32 -3.32 10.64 -4 12 C-3.5317879 7.22423661 -2.75668002 3.95523655 0 0 Z " fill="#599CC8" transform="translate(59,194)"/>
<path d="M0 0 C2.66666667 2.66666667 5.33333333 5.33333333 8 8 C7.67 8.66 7.34 9.32 7 10 C4.0625 8.9375 4.0625 8.9375 1 7 C0.125 3.3125 0.125 3.3125 0 0 Z " fill="#F9D663" transform="translate(417,155)"/>
<path d="M0 0 C0.61875 0.474375 1.2375 0.94875 1.875 1.4375 C6.16105676 3.58052838 10.26600709 3.73342564 15 4 C15 4.33 15 4.66 15 5 C9.43842552 5.91457003 5.324335 6.32086397 0 4 C0 2.68 0 1.36 0 0 Z " fill="#F4CD4B" transform="translate(282,401)"/>
<path d="M0 0 C0.33 1.32 0.66 2.64 1 4 C0.34 4 -0.32 4 -1 4 C-1 4.66 -1 5.32 -1 6 C-2.3125 7.4375 -2.3125 7.4375 -4 9 C-4.556875 9.556875 -5.11375 10.11375 -5.6875 10.6875 C-6.120625 11.120625 -6.55375 11.55375 -7 12 C-7 8.19654123 -5.86213669 7.22298985 -3.5 4.3125 C-2.8503125 3.50425781 -2.200625 2.69601562 -1.53125 1.86328125 C-1.0259375 1.24839844 -0.520625 0.63351562 0 0 Z " fill="#F6D66D" transform="translate(174,275)"/>
<path d="M0 0 C0 0.99 0 1.98 0 3 C-2.75 5.25 -2.75 5.25 -6 7 C-8.203125 6.609375 -8.203125 6.609375 -10 6 C-8.71283353 4.99421411 -7.42011342 3.99553202 -6.125 3 C-5.40570313 2.443125 -4.68640625 1.88625 -3.9453125 1.3125 C-2 0 -2 0 0 0 Z " fill="#F5D25B" transform="translate(185,268)"/>
<path d="M0 0 C2.54384726 1.27192363 2.69368156 2.19948469 3.6875 4.8125 C3.95949219 5.49957031 4.23148437 6.18664062 4.51171875 6.89453125 C5.06812731 9.29376496 4.77364938 10.6894364 4 13 C3.67 13 3.34 13 3 13 C2.67 10.69 2.34 8.38 2 6 C1.01 6 0.02 6 -1 6 C-0.67 4.02 -0.34 2.04 0 0 Z " fill="#4B95C3" transform="translate(323,80)"/>
<path d="M0 0 C-10.37357631 4.77676538 -10.37357631 4.77676538 -16 3 C-13.18207306 1.47870459 -10.56006978 0.51521029 -7.4375 -0.1875 C-6.67308594 -0.36667969 -5.90867188 -0.54585937 -5.12109375 -0.73046875 C-3 -1 -3 -1 0 0 Z " fill="#237DB1" transform="translate(203,58)"/>
<path d="M0 0 C0.66 0 1.32 0 2 0 C1.03193901 5.03391715 -1.07016106 9.63156663 -5 13 C-4.67 11.02 -4.34 9.04 -4 7 C-3.34 7 -2.68 7 -2 7 C-1.34 4.69 -0.68 2.38 0 0 Z " fill="#F8D873" transform="translate(325,416)"/>
<path d="M0 0 C0.33 0 0.66 0 1 0 C1.12036664 5.77759884 0.8320582 11.27959989 0 17 C-0.33 17 -0.66 17 -1 17 C-1.22185844 14.73044814 -1.42705515 12.45926245 -1.625 10.1875 C-1.74101562 8.92292969 -1.85703125 7.65835937 -1.9765625 6.35546875 C-2 3 -2 3 0 0 Z " fill="#F6C222" transform="translate(442,250)"/>
<path d="M0 0 C2.31 0.33 4.62 0.66 7 1 C7.33 2.32 7.66 3.64 8 5 C4.33776842 4.50510384 2.33006074 3.94323463 0 1 C0 0.67 0 0.34 0 0 Z " fill="#F6C838" transform="translate(172,426)"/>
<path d="M0 0 C0.99 0.33 1.98 0.66 3 1 C4.47666292 4.49029418 4.07164685 8.27436386 4 12 C2.09681116 9.14521674 1.5380901 7.58058692 0.875 4.3125 C0.70742188 3.50425781 0.53984375 2.69601562 0.3671875 1.86328125 C0.24601562 1.24839844 0.12484375 0.63351562 0 0 Z " fill="#3E98C4" transform="translate(51,298)"/>
<path d="M0 0 C0.66 0 1.32 0 2 0 C1.74379316 1.6065676 1.46944129 3.2102483 1.1875 4.8125 C1.03667969 5.70582031 0.88585937 6.59914063 0.73046875 7.51953125 C-0.05395393 10.18321256 -0.88627799 11.25690322 -3 13 C-3 11.35 -3 9.7 -3 8 C-2.34 8 -1.68 8 -1 8 C-0.67 5.36 -0.34 2.72 0 0 Z " fill="#F7D568" transform="translate(435,291)"/>
<path d="M0 0 C1.32 0.66 2.64 1.32 4 2 C2.71034824 3.37562854 1.37310707 4.70766393 0 6 C-0.66 6 -1.32 6 -2 6 C-2.66 4.68 -3.32 3.36 -4 2 C-2.68 2 -1.36 2 0 2 C0 1.34 0 0.68 0 0 Z " fill="#368FBF" transform="translate(308,226)"/>
<path d="M0 0 C0 0.66 0 1.32 0 2 C-2.75 4.1875 -2.75 4.1875 -6 6 C-8.203125 5.61328125 -8.203125 5.61328125 -10 5 C-8.71186658 4.16121545 -7.41936744 3.32913217 -6.125 2.5 C-5.40570313 2.0359375 -4.68640625 1.571875 -3.9453125 1.09375 C-2 0 -2 0 0 0 Z " fill="#F6D162" transform="translate(322,249)"/>
<path d="M0 0 C0.99 0.495 0.99 0.495 2 1 C1.01 2.485 1.01 2.485 0 4 C0 2.68 0 1.36 0 0 Z M-2 4 C-1.34 4.33 -0.68 4.66 0 5 C-0.99 6.98 -1.98 8.96 -3 11 C-3.99 10.67 -4.98 10.34 -6 10 C-5.34 8.68 -4.68 7.36 -4 6 C-3.34 6 -2.68 6 -2 6 C-2 5.34 -2 4.68 -2 4 Z " fill="#FABE15" transform="translate(175,275)"/>
<path d="M0 0 C0 0.33 0 0.66 0 1 C-4.92737019 2.97094808 -8.78020872 3.1799928 -14 3 C-9.25294723 -0.16470185 -5.68228705 -0.10927475 0 0 Z " fill="#F7D36B" transform="translate(209,260)"/>
<path d="M0 0 C2.97 0.99 5.94 1.98 9 3 C8.67 3.66 8.34 4.32 8 5 C5.6875 5.3125 5.6875 5.3125 3 5 C1.1875 2.5 1.1875 2.5 0 0 Z " fill="#348DBB" transform="translate(296,58)"/>
<path d="M0 0 C0 0.66 0 1.32 0 2 C-0.99 2 -1.98 2 -3 2 C-3 2.66 -3 3.32 -3 4 C-5.31 4.33 -7.62 4.66 -10 5 C-7.31217681 1.88778367 -4.19734673 0 0 0 Z " fill="#F4D365" transform="translate(195,263)"/>
<path d="M0 0 C2.97 0.495 2.97 0.495 6 1 C3.63707344 3.52588702 2.33537489 4.88820837 -1 6 C-0.67 4.02 -0.34 2.04 0 0 Z " fill="#4C98C4" transform="translate(164,250)"/>
<path d="M0 0 C0.66 0.33 1.32 0.66 2 1 C1.67 1.99 1.34 2.98 1 4 C-1.0625 4.6875 -1.0625 4.6875 -3 5 C-3 5.99 -3 6.98 -3 8 C-3.66 8 -4.32 8 -5 8 C-3.8141763 4.62496331 -2.72426311 2.35277269 0 0 Z " fill="#549DC4" transform="translate(170,72)"/>
<path d="M0 0 C1.32 0 2.64 0 4 0 C6.25 2.5 6.25 2.5 8 5 C5 5 5 5 2.3125 2.5 C1.549375 1.675 0.78625 0.85 0 0 Z " fill="#F7D86B" transform="translate(177,431)"/>
<path d="M0 0 C0.66 0 1.32 0 2 0 C2 0.66 2 1.32 2 2 C1.01 1.67 0.02 1.34 -1 1 C-0.67 0.67 -0.34 0.34 0 0 Z M-6 1 C-3.525 1.495 -3.525 1.495 -1 2 C-1.66 3.32 -2.32 4.64 -3 6 C-4.5 4.625 -4.5 4.625 -6 3 C-6 2.34 -6 1.68 -6 1 Z " fill="#2B8DC2" transform="translate(68,328)"/>
<path d="M0 0 C0.66 0 1.32 0 2 0 C2.33 1.65 2.66 3.3 3 5 C3.66 5 4.32 5 5 5 C4.34 6.32 3.68 7.64 3 9 C0 3.375 0 3.375 0 0 Z " fill="#589CC6" transform="translate(58,320)"/>
<path d="M0 0 C2 3 2 3 1.625 6.1875 C1.41875 7.115625 1.2125 8.04375 1 9 C0.34 9 -0.32 9 -1 9 C-0.67 6.03 -0.34 3.06 0 0 Z " fill="#68ACD2" transform="translate(51,215)"/>
<path d="M0 0 C1.7074998 1.28062485 3.37373596 2.61767557 5 4 C5 4.66 5 5.32 5 6 C3.68 6.33 2.36 6.66 1 7 C0.67 4.69 0.34 2.38 0 0 Z " fill="#3F91C1" transform="translate(185,116)"/>
<path d="M0 0 C-0.66 1.32 -1.32 2.64 -2 4 C-2.33 3.67 -2.66 3.34 -3 3 C-4.66617115 2.95936168 -6.33388095 2.957279 -8 3 C-4.93882432 0.37613513 -4.26826873 0 0 0 Z " fill="#579BC4" transform="translate(89,170)"/>
</svg>
