<?xml version="1.0" encoding="UTF-8"?>
<svg version="1.1" xmlns="http://www.w3.org/2000/svg" width="496" height="500">
<path d="M0 0 C5.32796445 0.64284144 10.31615812 1.79666921 15.47265625 3.265625 C16.70017105 3.60951012 16.70017105 3.60951012 17.95248413 3.96034241 C20.65706209 4.71922895 23.35977847 5.48453058 26.0625 6.25 C27.98891513 6.792261 29.91543087 7.33416469 31.84204102 7.87573242 C35.87624516 9.01068097 39.90962727 10.14848932 43.94238281 11.28857422 C48.78325358 12.65699946 53.62556204 14.02022587 58.46862793 15.38085938 C82.22599139 22.05605009 105.9503414 28.84212691 129.65209961 35.7121582 C142.22581605 39.35383689 154.81775901 42.92347277 167.42651367 46.44189453 C174.98513159 48.55186862 182.52831404 50.71424806 190.0703125 52.8828125 C206.54220814 57.60607896 223.05642884 62.18059949 239.56280327 66.78154373 C267.83927754 74.66341764 296.10966977 82.56171129 324.32714844 90.65283203 C326.29751756 91.21780302 328.26789529 91.782744 330.23828125 92.34765625 C331.23076874 92.6322168 332.22325623 92.91677734 333.24581909 93.20996094 C347.57245785 97.31420527 361.91185645 101.37367423 376.25 105.4375 C376.96324181 105.63966881 377.67648361 105.84183762 378.41133881 106.05013275 C388.27439638 108.84581913 398.13783669 111.64015322 408.00144196 114.43390656 C411.21567245 115.34434036 414.42985438 116.25494558 417.64404297 117.16552734 C443.42247615 124.46819782 469.20306476 131.76291872 495 139 C495 140.32 495 141.64 495 143 C494.34 143 493.68 143 493 143 C492.76667969 143.57105469 492.53335937 144.14210937 492.29296875 144.73046875 C490.68020564 147.56133088 488.77796297 149.17096647 486.3125 151.3125 C478.63499953 158.12103578 471.48118094 165.46491383 464.2746582 172.76293945 C456.26423505 180.85367309 456.26423505 180.85367309 452.078125 184.421875 C446.22295234 189.42734453 440.90944077 195.02351983 435.5 200.5 C423.39874904 212.7512222 423.39874904 212.7512222 417.12304688 218.09960938 C412.02896625 222.6594442 407.30331957 227.63715271 402.5 232.5 C390.39759067 244.75239493 390.39759067 244.75239493 386.0234375 248.47265625 C382.43853958 251.52607764 379.13064214 254.80809054 375.8203125 258.15234375 C375.27634827 258.70181671 374.73238403 259.25128967 374.17193604 259.81741333 C371.90822812 262.10889349 369.64833501 264.40406115 367.39257812 266.70336914 C365.7269587 268.39900186 364.05532413 270.08851301 362.3828125 271.77734375 C361.87138702 272.30222885 361.35996155 272.82711395 360.83303833 273.36790466 C359.59282171 274.61695159 358.30066105 275.81402517 357 277 C356.34 277 355.68 277 355 277 C354.73960937 277.598125 354.47921875 278.19625 354.2109375 278.8125 C352.90933899 281.16377472 351.70180804 282.3175226 349.625 284 C345.99797251 287.0705341 342.59529168 290.31567557 339.25 293.6875 C338.7432373 294.19756592 338.23647461 294.70763184 337.71435547 295.2331543 C336.14091753 296.82015211 334.57002339 298.40962446 333 300 C321.42963179 311.72035447 321.42963179 311.72035447 317.0234375 315.47265625 C313.52292118 318.45796466 310.27292177 321.66520996 307.0390625 324.93359375 C306.51729431 325.46087067 305.99552612 325.98814758 305.45794678 326.53140259 C303.28981105 328.72729663 301.12551557 330.92689755 298.96533203 333.13061523 C297.36921101 334.75674919 295.76707677 336.37675895 294.1640625 337.99609375 C293.6745108 338.49910507 293.18495911 339.00211639 292.68057251 339.52037048 C291.49116463 340.71861993 290.24975604 341.86483363 289 343 C288.34 343 287.68 343 287 343 C286.76007324 343.57766113 286.52014648 344.15532227 286.27294922 344.75048828 C284.74409458 347.45222718 282.99286042 348.9763232 280.6328125 350.9921875 C276.63410618 354.50237059 272.79986087 358.10800553 269.0546875 361.8828125 C268.54947571 362.39132751 268.04426392 362.89984253 267.52374268 363.42376709 C265.97214508 364.98886484 264.42312766 366.55647028 262.875 368.125 C251.43817756 379.71150974 251.43817756 379.71150974 247.0390625 383.4609375 C241.1944278 388.44974531 235.89618054 394.0369444 230.5 399.5 C218.38913218 411.76095825 218.38913218 411.76095825 212.13623047 417.09082031 C206.97761982 421.70114434 202.18417552 426.71574643 197.3125 431.625 C196.18708543 432.75544381 195.06143588 433.88565372 193.93554688 435.015625 C191.86744253 437.09182238 189.80071208 439.1693659 187.7355957 441.24853516 C186.83284912 442.15651855 185.93010254 443.06450195 185 444 C184.10007324 444.90516357 183.20014648 445.81032715 182.27294922 446.74291992 C180.18306193 448.81821616 178.03498396 450.75648934 175.8125 452.6875 C169.82792925 458.02411723 164.21937037 463.72615055 158.59692383 469.44018555 C155.15907983 472.91717722 151.71033869 476.30945438 148 479.49609375 C142.62827534 484.11144342 137.7626001 489.22588561 132.828125 494.29882812 C132.10367188 495.03423828 131.37921875 495.76964844 130.6328125 496.52734375 C129.65658936 497.52882446 129.65658936 497.52882446 128.66064453 498.55053711 C127 500 127 500 125 500 C120.05854278 481.85478348 115.30667073 463.66725791 110.6875 445.4375 C110.34581932 444.09137597 110.00408246 442.7452662 109.66229248 441.39916992 C103.85530235 418.52142009 98.18718281 395.61052469 92.55730438 372.68864441 C86.90189445 349.66418758 81.1606184 326.66376462 75.3125 303.6875 C68.02783109 275.06704153 60.84306018 246.42248789 53.69345856 217.76799774 C47.08115816 191.26809051 40.42403217 164.78064902 33.67822266 138.31442261 C27.24350323 113.06519361 20.97329127 87.77675974 14.77618504 62.46819019 C14.06577044 59.56743667 13.35447287 56.66690043 12.64272499 53.76647377 C12.29699049 52.35747217 11.95148679 50.94841391 11.60622215 49.5392971 C9.68809719 41.71738713 7.7301711 33.90778497 5.69580078 26.11523438 C5.50805745 25.39491405 5.32031412 24.67459373 5.1268816 23.93244553 C4.23024423 20.49628231 3.32758302 17.06188041 2.41490173 13.62994385 C2.09759598 12.42142761 1.78029022 11.21291138 1.45336914 9.96777344 C1.17191544 8.90798279 0.89046173 7.84819214 0.60047913 6.75628662 C0 4 0 4 0 0 Z " fill="#090909" transform="translate(0,0)"/>
<path d="M0 0 C0.21914063 0.88816406 0.43828125 1.77632812 0.6640625 2.69140625 C3.40875383 13.74827253 6.27791672 24.77068716 9.16162109 35.79199219 C12.96899184 50.36067351 16.77076861 64.93032468 20.38867188 79.54736328 C21.18453479 82.74035002 21.99108168 85.93059894 22.796875 89.12109375 C23.28476748 91.05809058 23.77265806 92.9950879 24.26025391 94.93215942 C24.7435988 96.84960621 25.22920621 98.76648221 25.71484375 100.68334961 C26.01003906 101.85776611 26.30523437 103.03218262 26.609375 104.2421875 C26.87717773 105.3029248 27.14498047 106.36366211 27.42089844 107.45654297 C28 110 28 110 28 112 C16.47003311 109.39336644 5.0997587 106.42447405 -6.25 103.125 C-7.80171788 102.67739498 -9.35355878 102.23021624 -10.90551758 101.78344727 C-13.93255067 100.91151362 -16.95901349 100.03765224 -19.98486328 99.16162109 C-24.88293965 97.74376064 -29.78445688 96.33808137 -34.6875 94.9375 C-35.46005127 94.71626465 -36.23260254 94.4950293 -37.02856445 94.26708984 C-42.40508898 92.73063062 -47.78757009 91.21593936 -53.171875 89.70703125 C-53.89256668 89.50492538 -54.61325836 89.30281952 -55.35578918 89.09458923 C-58.95824354 88.08444232 -62.56112043 87.07585394 -66.16479492 86.07006836 C-67.49399343 85.69780947 -68.82317704 85.32549738 -70.15234375 84.953125 C-71.32788818 84.62473633 -72.50343262 84.29634766 -73.71459961 83.95800781 C-76.83902236 83.04694035 -79.92024248 82.05123949 -83 81 C-81.39822218 77.01912835 -78.61769406 74.34506826 -75.6171875 71.38671875 C-75.08408966 70.85407913 -74.55099182 70.32143951 -74.0017395 69.7726593 C-72.87266483 68.64660079 -71.74116559 67.5229688 -70.60742188 66.40161133 C-68.89664129 64.70891256 -67.19382508 63.00852511 -65.4921875 61.30664062 C-56.50262682 52.34725511 -56.50262682 52.34725511 -52.0703125 48.58203125 C-45.68047739 43.12401227 -39.90520821 36.96986378 -34 31 C-19.81047135 16.65511155 -19.81047135 16.65511155 -13.62792969 11.40966797 C-10.23740937 8.47372551 -7.20984987 5.16998338 -4.1015625 1.94140625 C-2 0 -2 0 0 0 Z " fill="#FCFCFC" transform="translate(277,202)"/>
<path d="M0 0 C0.99 0.495 0.99 0.495 2 1 C2.71696499 3.73229937 3.32385572 6.4211366 3.875 9.1875 C5.31785579 16.05869386 7.01077443 22.77477123 9 29.51171875 C10.2775308 33.96810549 11.39149138 38.45640352 12.49560547 42.95825195 C13.63693921 47.59709463 14.86327395 52.20486337 16.125 56.8125 C17.26890948 61.05117233 18.27832805 65.23246832 19 69.5625 C19.88730696 74.82461607 21.34158541 79.83816742 22.84765625 84.953125 C24.26227996 89.83525645 25.50930586 94.7587817 26.75 99.6875 C26.97276611 100.56140381 27.19553223 101.43530762 27.42504883 102.33569336 C27.63025146 103.15690674 27.8354541 103.97812012 28.046875 104.82421875 C28.23088867 105.55729248 28.41490234 106.29036621 28.60449219 107.0456543 C29 109 29 109 29 112 C21.48643047 111.37464701 14.52824584 109.30570776 7.3125 107.1875 C6.12205078 106.84396484 4.93160156 106.50042969 3.70507812 106.14648438 C-2.0419861 104.48080453 -7.76978075 102.76679981 -13.48046875 100.98046875 C-20.47448044 98.81544077 -27.54061944 96.96818391 -34.625 95.125 C-44.12403906 92.63426035 -53.54486528 89.99675558 -62.88256836 86.95117188 C-68.85478444 85.00960681 -74.87495276 83.39372332 -81 82 C-81 78.23074454 -79.65179915 77.30120377 -77.08862305 74.7230835 C-76.52312744 74.16993469 -75.95763184 73.61678589 -75.375 73.046875 C-74.50452026 72.17920502 -74.50452026 72.17920502 -73.61645508 71.29400635 C-72.3823917 70.06667588 -71.14473083 68.84295382 -69.90380859 67.62255859 C-68.02850212 65.77803427 -66.16372248 63.92340982 -64.30078125 62.06640625 C-59.02295611 56.82374178 -53.72949441 51.68263339 -48.06542969 46.85595703 C-42.44753754 41.80782274 -37.25139299 36.26197564 -31.96533203 30.86938477 C-30.36921101 29.24325081 -28.76707677 27.62324105 -27.1640625 26.00390625 C-26.6745108 25.50089493 -26.18495911 24.99788361 -25.68057251 24.47962952 C-24.49116463 23.28138007 -23.24975604 22.13516637 -22 21 C-21.34 21 -20.68 21 -20 21 C-19.7421875 20.40445313 -19.484375 19.80890625 -19.21875 19.1953125 C-17.89188606 16.8052563 -16.60890657 15.59496888 -14.5 13.875 C-9.36862079 9.54539879 -4.7007809 4.78747563 0 0 Z " fill="#FCFCFC" transform="translate(154,167)"/>
<path d="M0 0 C4.29017794 15.12498027 8.08907015 30.35093347 11.75170898 45.63745117 C13.77122388 54.0503503 15.88742391 62.42424415 18.14257812 70.77709961 C19.16150959 74.60708658 20.06631937 78.44638503 20.9375 82.3125 C22.54418414 89.34133071 24.41423503 96.27682098 26.42553711 103.20043945 C27.29393628 106.22874696 28 108.83199979 28 112 C21.51941556 110.81194922 15.2813129 109.29049852 9 107.3125 C0.98142998 104.84483336 -7.07975077 102.59333471 -15.1875 100.4375 C-22.99414206 98.35899493 -30.77436626 96.23238437 -38.51367188 93.91601562 C-45.96187625 91.69385941 -53.45084895 89.61919211 -60.9375 87.53100586 C-68.6338677 85.38421811 -76.32194318 83.21139025 -84 81 C-79.89905772 76.1137709 -75.64960462 71.49450747 -71.125 67 C-70.55136719 66.4225 -69.97773437 65.845 -69.38671875 65.25 C-66.44889548 62.31871977 -63.46115534 59.50732423 -60.3046875 56.8125 C-54.57093498 51.85477526 -49.32157001 46.39055333 -44 41 C-38.17464852 35.0991347 -32.38734455 29.23976978 -26.07324219 23.85498047 C-23.44239992 21.50110158 -20.95725726 19.01345597 -18.4765625 16.50390625 C-17.99910583 16.02094086 -17.52164917 15.53797546 -17.02972412 15.04037476 C-15.05281335 13.03573402 -13.07979844 11.02734478 -11.11083984 9.01489258 C-9.65371557 7.52775618 -8.19058243 6.04674995 -6.7265625 4.56640625 C-5.86627441 3.68927979 -5.00598633 2.81215332 -4.11962891 1.90844727 C-2 0 -2 0 0 0 Z " fill="#FCFCFC" transform="translate(186,290)"/>
<path d="M0 0 C2.72416066 2.72416066 2.92223085 5.10551737 3.8046875 8.8515625 C3.96993927 9.54325531 4.13519104 10.23494812 4.30545044 10.94760132 C4.83538384 13.17186264 5.35546626 15.39828901 5.875 17.625 C6.2167692 19.07047314 6.55921059 20.51578753 6.90234375 21.9609375 C7.41696717 24.12852142 7.93136288 26.29615159 8.4437561 28.46426392 C11.8748388 42.99473808 11.8748388 42.99473808 15.875 57.375 C18.18390052 65.29252895 19.95477398 73.32669132 21.77758789 81.36767578 C23.43418588 88.64613852 25.22037104 95.86073062 27.23828125 103.046875 C28.00469443 106.01819993 28.54145379 108.9672389 29 112 C23.72092156 111.3634663 18.79128331 110.22310035 13.6875 108.75 C12.08337414 108.29542887 10.47920632 107.84100584 8.875 107.38671875 C8.06289062 107.1551709 7.25078125 106.92362305 6.4140625 106.68505859 C3.40672251 105.83164071 0.39393821 104.99883257 -2.61962891 104.16772461 C-19.10941618 99.61660207 -35.53489481 94.8576078 -51.93066406 89.97924805 C-62.26537785 86.90895086 -72.626248 83.93533819 -83 81 C-79.40499484 76.65289843 -75.72588604 72.69319817 -71.5 68.9375 C-64.01174439 62.18323163 -56.94757948 55.00531771 -49.8671875 47.82983398 C-42.23039581 40.12271061 -42.23039581 40.12271061 -38.09375 36.59375 C-32.34668971 31.67467455 -27.12372866 26.19160379 -21.8125 20.8125 C-19.69697823 18.67021157 -17.57803696 16.5313888 -15.45703125 14.39453125 C-14.98296341 13.91216507 -14.50889557 13.42979889 -14.02046204 12.93281555 C-11.16593738 10.05753555 -8.18318137 7.50147527 -5 5 C-3.31471312 3.35216394 -1.64302953 1.68997323 0 0 Z " fill="#FCFCFC" transform="translate(245,79)"/>
<path d="M0 0 C0.66 0 1.32 0 2 0 C4.44443503 9.65483558 6.81506704 19.32382127 9.07299805 29.02416992 C10.23228301 33.95295074 11.48694224 38.84652278 12.80859375 43.734375 C15.57981554 54.0052787 18.05231882 64.35041687 20.5625 74.6875 C21.28743752 77.6668843 22.01283639 80.64615509 22.73886108 83.62527466 C23.20201276 85.52815788 23.66381607 87.43136987 24.12417603 89.33493042 C25.06273762 93.20787454 26.00701618 97.07600762 27.04248047 100.92431641 C27.32623535 101.9869873 27.60999023 103.0496582 27.90234375 104.14453125 C28.14331787 105.01053955 28.38429199 105.87654785 28.63256836 106.76879883 C29.02955854 109.17949201 28.77026506 110.70177249 28 113 C21.91584644 111.29457953 15.83258191 109.58601753 9.75 107.875 C8.84887482 107.6215683 7.94774963 107.3681366 7.01931763 107.10702515 C-12.1050519 101.72418758 -12.1050519 101.72418758 -21.5625 98.8125 C-30.38304798 96.09992531 -39.30119402 93.7647086 -48.22436523 91.41833496 C-56.91721542 89.13054227 -65.52760552 86.71834601 -74.06640625 83.91015625 C-76.7049334 83.0915453 -79.28212628 82.48081565 -82 82 C-80.66198588 78.9350908 -79.29092019 77.14639067 -76.6875 75.0625 C-73.58117596 72.55649926 -70.81324916 69.83198896 -68 67 C-60.33333333 59.33333333 -52.66666667 51.66666667 -45 44 C-43.73881348 42.72334473 -43.73881348 42.72334473 -42.45214844 41.42089844 C-40.17075141 39.16857536 -37.82977835 37.03729578 -35.421875 34.921875 C-29.46386855 29.59102712 -23.86205168 23.93885395 -18.25 18.25 C-16.25822916 16.23135657 -14.26295449 14.21626693 -12.265625 12.203125 C-11.39711914 11.32301758 -10.52861328 10.44291016 -9.63378906 9.53613281 C-7.70541223 7.67925679 -5.80138434 5.9840946 -3.73339844 4.29980469 C-0.98108702 2.29257837 -0.98108702 2.29257837 0 0 Z " fill="#FCFCFC" transform="translate(366,113)"/>
<path d="M0 0 C0.22139648 0.92111572 0.44279297 1.84223145 0.67089844 2.79125977 C1.51149001 6.28633741 2.35453836 9.78081896 3.19824219 13.27514648 C3.55956508 14.77303772 3.92026596 16.27107918 4.28027344 17.76928711 C6.4322807 26.7229598 8.67440899 35.64031155 11.07128906 44.53198242 C12.43715559 49.63243825 13.72510873 54.75116779 15 59.875 C15.38454346 61.41607422 15.38454346 61.41607422 15.77685547 62.98828125 C17.43456786 69.65659325 19.0439662 76.33442659 20.5949707 83.02832031 C21.39666627 86.4782709 22.22459728 89.91890543 23.09765625 93.3515625 C23.27989746 94.06828125 23.46213867 94.785 23.64990234 95.5234375 C24.15242307 97.48787818 24.66000667 99.4510218 25.16796875 101.4140625 C25.98930585 104.95390972 26.5418118 108.3992887 27 112 C20.90967717 110.73736114 14.99854409 109.16148215 9.0625 107.3125 C1.10371668 104.87785269 -6.89519874 102.64185406 -14.9375 100.5 C-25.22481247 97.75701434 -35.47133074 94.90220264 -45.70019531 91.94970703 C-52.25638175 90.0627904 -58.81753344 88.19318742 -65.37771606 86.32022095 C-69.27929915 85.20617454 -73.18065862 84.09134566 -77.08203125 82.9765625 C-78.42814018 82.59195579 -79.77425009 82.20735253 -81.12036133 81.82275391 C-82.07064209 81.55124512 -83.02092285 81.27973633 -84 81 C-82.47457589 77.58044737 -80.72357629 75.74441393 -77.73046875 73.44140625 C-73.82950046 70.19206697 -70.38876861 66.38602899 -66.82563782 62.77433777 C-64.71370562 60.63552231 -62.5963191 58.50213912 -60.47875977 56.36889648 C-59.36078156 55.24076229 -58.24459037 54.11085457 -57.13012695 52.97924805 C-55.51457175 51.33956243 -53.89275424 49.70630931 -52.26953125 48.07421875 C-51.77056839 47.56493332 -51.27160553 47.05564789 -50.75752258 46.53092957 C-49.54239138 45.31540293 -48.27535639 44.15217834 -47 43 C-46.34 43 -45.68 43 -45 43 C-44.76667969 42.42894531 -44.53335938 41.85789063 -44.29296875 41.26953125 C-42.68020564 38.43866912 -40.77796297 36.82903353 -38.3125 34.6875 C-30.57205269 27.82568457 -23.36405867 20.4171779 -16.09887695 13.0612793 C-15.61086105 12.56910416 -15.12284515 12.07692902 -14.62004089 11.56983948 C-13.27858084 10.21679963 -11.94021207 8.86069696 -10.60205078 7.50439453 C-2.80503022 0 -2.80503022 0 0 0 Z " fill="#FCFCFC" transform="translate(125,45)"/>
<path d="M0 0 C5.70068036 0.6542549 10.97963207 2.02565769 16.47265625 3.66015625 C17.38045334 3.92568802 18.28825043 4.19121979 19.22355652 4.46479797 C21.16484921 5.03273116 23.10557492 5.60260534 25.04577637 6.17425537 C30.13776203 7.67354051 35.23455481 9.15622502 40.33203125 10.63671875 C41.3416391 10.93000061 42.35124695 11.22328247 43.39144897 11.52545166 C52.82668699 14.25673767 62.29994293 16.81292079 71.80053711 19.30712891 C82.81306813 22.19849183 93.77403542 25.26239019 104.72705078 28.37084961 C106.81095231 28.94767176 108.89976633 29.48625425 111 30 C109.38275849 34.08207345 106.45615199 36.80398063 103.375 39.8125 C102.87871094 40.30814453 102.38242187 40.80378906 101.87109375 41.31445312 C99.15968326 43.99481693 96.38209602 46.54348583 93.4765625 49.01171875 C86.97864744 54.64443495 81.0436382 60.89019058 75 67 C61.21849726 80.93239511 61.21849726 80.93239511 55.06542969 86.15283203 C52.2834351 88.64084279 49.6630818 91.28163793 47.0390625 93.93359375 C46.51713318 94.4610318 45.99520386 94.98846985 45.4574585 95.53189087 C43.28948875 97.7276253 41.12535443 99.92706193 38.96533203 102.13061523 C37.36921101 103.75674919 35.76707677 105.37675895 34.1640625 106.99609375 C33.6745108 107.49910507 33.18495911 108.00211639 32.68057251 108.52037048 C31.49116463 109.71861993 30.24975604 110.86483363 29 112 C28.34 112 27.68 112 27 112 C26.76925781 110.90945313 26.53851563 109.81890625 26.30078125 108.6953125 C24.5796292 100.69016262 22.73355034 92.75396716 20.5 84.875 C17.12773382 72.97544367 14.21041205 61.00396697 11.5 48.9375 C9.54158636 40.22478479 7.36482264 31.61218993 5 23 C4.07473238 19.60643684 3.16023264 16.21012332 2.25 12.8125 C2.02699219 11.9975708 1.80398437 11.1826416 1.57421875 10.34301758 C1.36925781 9.57626709 1.16429687 8.8095166 0.953125 8.01953125 C0.76911133 7.33995361 0.58509766 6.66037598 0.39550781 5.96020508 C0 4 0 4 0 0 Z " fill="#FDFDFD" transform="translate(161,166)"/>
<path d="M0 0 C7.77493515 1.65406288 15.44528143 3.63937971 23.125 5.6875 C23.78771912 5.86396057 24.45043823 6.04042114 25.13323975 6.222229 C34.4126136 8.69845158 43.62249477 11.34564672 52.79101562 14.20703125 C63.53388144 17.53095628 74.38243068 20.47783669 85.22705078 23.44873047 C93.86782209 25.82061919 102.45494544 28.29895553 111 31 C109.17236588 34.96270089 106.58081926 37.71694538 103.5 40.75 C103.00113281 41.25660156 102.50226563 41.76320312 101.98828125 42.28515625 C98.25341139 46 98.25341139 46 96 46 C95.73960937 46.598125 95.47921875 47.19625 95.2109375 47.8125 C93.90933899 50.16377472 92.70180804 51.3175226 90.625 53 C86.99797251 56.0705341 83.59529168 59.31567557 80.25 62.6875 C79.48985596 63.45259888 79.48985596 63.45259888 78.71435547 64.2331543 C77.14091753 65.82015211 75.57002339 67.40962446 74 69 C62.42963179 80.72035447 62.42963179 80.72035447 58.0234375 84.47265625 C54.52292118 87.45796466 51.27292177 90.66520996 48.0390625 93.93359375 C47.51729431 94.46087067 46.99552612 94.98814758 46.45794678 95.53140259 C44.28981105 97.72729663 42.12551557 99.92689755 39.96533203 102.13061523 C38.36921101 103.75674919 36.76707677 105.37675895 35.1640625 106.99609375 C34.6745108 107.49910507 34.18495911 108.00211639 33.68057251 108.52037048 C32.49116463 109.71861993 31.24975604 110.86483363 30 112 C29.34 112 28.68 112 28 112 C23.16626334 93.39555376 18.41546797 74.77289013 13.77453613 56.11927795 C12.13313611 49.52557732 10.48079615 42.93463325 8.828125 36.34375 C7.99531463 33.02043815 7.16261585 29.69709836 6.32995605 26.37374878 C5.77734297 24.16900627 5.22436536 21.9643551 4.67102051 19.75979614 C3.89418396 16.66435225 3.11880717 13.56854608 2.34375 10.47265625 C2.10666321 9.52946533 1.86957642 8.58627441 1.62530518 7.61450195 C1.41057556 6.75566406 1.19584595 5.89682617 0.97460938 5.01196289 C0.7855603 4.25798721 0.59651123 3.50401154 0.4017334 2.72718811 C0 1 0 1 0 0 Z " fill="#FDFDFD" transform="translate(282,200)"/>
<path d="M0 0 C10.50413937 2.54572285 20.89801453 5.35678137 31.28125 8.35546875 C38.49065378 10.43636484 45.71906048 12.44881953 52.94702148 14.46411133 C59.98013119 16.42733955 67.00342999 18.42329853 74.02310181 20.434021 C77.68941767 21.48367434 81.35649224 22.53067302 85.0234375 23.578125 C86.57291974 24.02082256 88.1223989 24.46353094 89.671875 24.90625 C90.44337891 25.12667969 91.21488281 25.34710938 92.00976562 25.57421875 C98.33984375 27.3828125 104.66992188 29.19140625 111 31 C109.29358151 34.6425656 107.25681802 36.97975319 104.375 39.8125 C103.55773437 40.62332031 102.74046875 41.43414062 101.8984375 42.26953125 C99.8214193 44.22618317 97.74177042 46.07578451 95.5703125 47.91796875 C88.86763685 53.73996053 82.74087688 60.19334726 76.5 66.5 C62.15684343 80.9943266 62.15684343 80.9943266 56.04785156 86.17041016 C53.27078667 88.65149317 50.65724631 91.28755478 48.0390625 93.93359375 C47.5170929 94.46107208 46.99512329 94.98855042 46.45733643 95.53201294 C44.28940818 97.72770747 42.12531415 99.92710303 39.96533203 102.13061523 C38.36921101 103.75674919 36.76707677 105.37675895 35.1640625 106.99609375 C34.6745108 107.49910507 34.18495911 108.00211639 33.68057251 108.52037048 C32.49116463 109.71861993 31.24975604 110.86483363 30 112 C29.34 112 28.68 112 28 112 C26.05355108 107.64202145 25.09617012 103.26946959 24.125 98.625 C22.66051128 91.83874274 21.00942511 85.14085749 19.18359375 78.44140625 C16.63484752 68.98767242 14.35117235 59.46184825 11.98828125 49.96044922 C10.95845423 45.82709569 9.91694441 41.69671853 8.875 37.56640625 C8.34017249 35.44209745 7.80559117 33.31772688 7.27111816 31.19332886 C6.93007094 29.83970531 6.58822415 28.48628289 6.2454834 27.13308716 C3.96439029 18.12390004 1.88562075 9.09978804 0 0 Z " fill="#FDFDFD" transform="translate(39,131)"/>
<path d="M0 0 C0.99966797 0.27263672 0.99966797 0.27263672 2.01953125 0.55078125 C3.40205078 0.92783203 3.40205078 0.92783203 4.8125 1.3125 C7.90625 2.15625 7.90625 2.15625 11 3 C11.73968018 3.19916016 12.47936035 3.39832031 13.24145508 3.60351562 C22.62073814 6.13946492 31.95400441 8.83466334 41.29272461 11.51513672 C51.74510037 14.51400456 62.2101911 17.46207441 72.69076538 20.36083984 C76.67227026 21.46285835 80.65245903 22.5696127 84.6328125 23.67578125 C86.21483779 24.11525583 87.79686901 24.55470907 89.37890625 24.99414062 C96.5859375 26.99609375 103.79296875 28.99804688 111 31 C109.56160439 34.03350208 108.31919127 35.83097994 105.6875 37.9375 C102.58135665 40.44335497 99.81299492 43.16817204 97 46 C89.66666667 53.33333333 82.33333333 60.66666667 75 68 C74.16388184 68.84643066 73.32776367 69.69286133 72.46630859 70.56494141 C70.17756416 72.82468571 67.82958228 74.96339296 65.4140625 77.0859375 C59.50409648 82.37403233 53.94101047 87.98204008 48.375 93.625 C33.49460144 108.70963933 33.49460144 108.70963933 29 112 C28.34 112 27.68 112 27 112 C26.86948242 111.43716309 26.73896484 110.87432617 26.60449219 110.29443359 C23.53304045 96.98554709 23.53304045 96.98554709 19.9375 83.8125 C18.20121043 77.92724538 16.82453674 72.00819624 15.57006836 66.00512695 C14.4279289 60.62898945 13.04306668 55.33380329 11.6111145 50.02783203 C9.60133175 42.56374814 7.73870389 35.06412897 5.875 27.5625 C5.35306547 25.46725029 4.83079642 23.37208426 4.30841064 21.27694702 C3.82096571 19.31928241 3.33573742 17.36106627 2.85058594 15.40283203 C2.34892329 13.39589347 1.83974099 11.39076501 1.31347656 9.39013672 C0.44453818 6.08618559 0 3.45680249 0 0 Z " fill="#FDFDFD" transform="translate(101,376)"/>
<path d="M0 0 C7.92332375 1.68122756 15.73886983 3.72080656 23.5625 5.8125 C24.23516907 5.99185089 24.90783813 6.17120178 25.60089111 6.35598755 C33.94394214 8.58424737 42.21628684 10.92891561 50.43359375 13.58984375 C57.21584241 15.73254698 64.08785775 17.5864368 70.9375 19.5 C73.73704157 20.28232909 76.53655515 21.06475757 79.3359375 21.84765625 C80.34284889 22.12925095 80.34284889 22.12925095 81.37010193 22.41653442 C87.83854233 24.22886453 94.28460157 26.11035628 100.72265625 28.02734375 C104.14208636 29.04216866 107.56894584 30.02531837 111 31 C109.47400136 34.74717443 107.28100369 36.73820199 104.25 39.375 C96.82329152 45.96543165 89.88983305 53.0547265 82.91894531 60.11865234 C75.22521226 67.88212951 75.22521226 67.88212951 71.140625 71.359375 C65.08666874 76.54102097 59.59720439 82.33635056 54 88 C45.66275333 96.43621907 37.36475428 104.68378572 28 112 C25.66948248 105.40491997 23.85703708 98.76278826 22.22265625 91.96484375 C21.84372475 90.40945641 21.84372475 90.40945641 21.45713806 88.82264709 C20.65535218 85.52845411 19.85875731 82.23303321 19.0625 78.9375 C18.53226239 76.75316746 18.00166637 74.56892189 17.47070312 72.38476562 C16.69461887 69.19212408 15.91856494 65.99947595 15.14334106 62.80662537 C11.05613541 45.87346282 11.05613541 45.87346282 6.5 29.0625 C4.76765117 22.92459141 3.15912505 16.7682522 1.6875 10.5625 C1.51605469 9.84650635 1.34460938 9.1305127 1.16796875 8.39282227 C0.49960369 5.52128925 0 2.95959653 0 0 Z " fill="#FDFDFD" transform="translate(130,43)"/>
<path d="M0 0 C9.187504 1.63151113 18.05339696 4.21060492 27 6.8125 C29.39032233 7.50265659 31.78106192 8.19135209 34.171875 8.87980652 C35.67215576 9.3121933 37.17217655 9.74548369 38.671875 10.17988586 C44.46833227 11.8572273 50.28071986 13.47389653 56.09761047 15.07870483 C63.56136379 17.13908382 71.00635047 19.26635404 78.45239258 21.38964844 C79.99946014 21.83070752 81.5466562 22.27131618 83.09399414 22.71142578 C92.43084168 25.36802854 101.7357273 28.09841323 111 31 C109.28779346 34.67352216 107.39334635 36.63643639 104.3125 39.3125 C96.63499953 46.12103578 89.48118094 53.46491383 82.2746582 60.76293945 C74.26452843 68.85337929 74.26452843 68.85337929 70.08984375 72.41015625 C64.16195107 77.47713279 58.78904087 83.1440068 53.3125 88.6875 C51.10322092 90.9235312 48.89053287 93.15610937 46.67578125 95.38671875 C46.17983963 95.89095871 45.68389801 96.39519867 45.17292786 96.91471863 C42.26659879 99.84128774 39.24157116 102.4547892 36 105 C35.13375 105.86625 34.2675 106.7325 33.375 107.625 C31 110 31 110 28 112 C26.91543305 107.83365345 25.83235305 103.66692223 24.75 99.5 C24.42789551 98.26000244 24.10579102 97.02000488 23.77392578 95.74243164 C22.1076207 89.31519494 20.46220502 82.88470055 18.875 76.4375 C17.52302007 70.96602566 16.03891926 65.54567947 14.5 60.125 C12.57762472 53.33280203 10.9406525 46.5150819 9.44921875 39.61645508 C6.92412828 27.95191167 3.88433236 16.42352208 0.734375 4.9140625 C0 2 0 2 0 0 Z " fill="#FDFDFD" transform="translate(373,112)"/>
<path d="M0 0 C8.90914218 1.55169803 17.55592064 3.99363811 26.25 6.4375 C27.83028642 6.87870914 29.41060946 7.31978713 30.9909668 7.76074219 C43.42837929 11.24008819 55.83180573 14.83454653 68.22854614 18.45574951 C78.93620725 21.58209188 89.65768192 24.59224968 100.4934082 27.25097656 C101.32445068 27.45819336 102.15549316 27.66541016 103.01171875 27.87890625 C104.07072388 28.13522827 104.07072388 28.13522827 105.15112305 28.39672852 C107 29 107 29 110 31 C108.91074753 34.2677574 108.29532429 34.81328716 105.71875 36.90625 C101.97674145 40.08128756 98.48513171 43.42607242 95.03125 46.90625 C94.50241211 47.43839111 93.97357422 47.97053223 93.42871094 48.51879883 C91.78382586 50.1772515 90.14147985 51.83817723 88.5 53.5 C76.39759067 65.75239493 76.39759067 65.75239493 72.0234375 69.47265625 C68.43853958 72.52607764 65.13064214 75.80809054 61.8203125 79.15234375 C61.27634827 79.70181671 60.73238403 80.25128967 60.17193604 80.81741333 C57.90822812 83.10889349 55.64833501 85.40406115 53.39257812 87.70336914 C51.7269587 89.39900186 50.05532413 91.08851301 48.3828125 92.77734375 C47.87138702 93.30222885 47.35996155 93.82711395 46.83303833 94.36790466 C45.59282171 95.61695159 44.30066105 96.81402517 43 98 C42.34 98 41.68 98 41 98 C40.74992187 98.58652344 40.49984375 99.17304687 40.2421875 99.77734375 C38.83560368 102.29415569 37.32306294 103.70866201 35.125 105.5625 C34.44695313 106.14128906 33.76890625 106.72007813 33.0703125 107.31640625 C31.0833755 108.93219841 29.05280843 110.46936902 27 112 C22.30761719 93.23046875 17.61523438 74.4609375 12.92285156 55.69140625 C12.60943817 54.43840729 12.29602478 53.18540833 11.97311401 51.8944397 C11.28635403 49.14775581 10.60158817 46.40058174 9.91775513 43.65316772 C9.7384483 42.93364929 9.55914146 42.21413086 9.37440109 41.47280884 C9.0319351 40.09845182 8.68993678 38.72397814 8.3484993 37.34936523 C7.11756399 32.41269619 5.78055281 27.51422954 4.375 22.625 C0 7.11348496 0 7.11348496 0 0 Z " fill="#FDFDFD" transform="translate(9,9)"/>
<path d="M0 0 C7.49645425 1.38692207 14.83238225 3.18887496 22.1875 5.1875 C23.32606445 5.49502197 24.46462891 5.80254395 25.63769531 6.11938477 C33.81757298 8.35072539 41.92214861 10.7783059 50.01660156 13.29907227 C58.10168709 15.78908445 66.25694524 17.97664941 74.4375 20.125 C86.77712959 23.36626123 98.90077338 26.95477664 111 31 C106.02639952 37.00093435 100.64642579 42.50318681 95.125 48 C93.83529297 49.29550781 93.83529297 49.29550781 92.51953125 50.6171875 C88.8142787 54.31681751 85.11110243 57.96537358 81.12890625 61.3671875 C75.38786404 66.29922527 70.1391764 71.75537306 64.8125 77.125 C63.73526293 78.20726709 62.65779039 79.28929986 61.58007812 80.37109375 C59.59985746 82.35940254 57.62127988 84.34929366 55.64379883 86.34033203 C51.59169399 90.41675923 47.56080986 94.44634424 43.25 98.25 C38.31581779 102.65816579 33.6270205 107.2723921 29 112 C26.4117812 109.4117812 26.19304891 107.45607747 25.328125 103.8984375 C25.16924301 103.25441986 25.01036102 102.61040222 24.84666443 101.9468689 C24.30803349 99.75776464 23.77924955 97.56638966 23.25 95.375 C22.86644569 93.81002398 22.48206188 92.24525108 22.09692383 90.68066406 C21.45918823 88.08909731 20.82215161 85.49737195 20.18757629 82.9050293 C17.37463296 71.416965 14.49345545 59.9459438 11.61975098 48.47296143 C10.70370012 44.81469546 9.78863344 41.15618504 8.87402344 37.49755859 C8.58377289 36.33650604 8.29352234 35.17545349 7.99447632 33.97921753 C7.43011743 31.72091858 6.8660034 29.46255842 6.30215454 27.20413208 C5.10640307 22.41618262 3.90805513 17.62900895 2.69384766 12.84570312 C2.50289017 12.09089661 2.31193268 11.33609009 2.1151886 10.55841064 C1.62516776 8.62345874 1.13265047 6.6891395 0.63989258 4.75488281 C0 2 0 2 0 0 Z " fill="#FDFDFD" transform="translate(70,254)"/>
<path d="M0 0 C5.04563348 1.04392417 9.99182781 2.25089197 14.94140625 3.68359375 C21.1401757 5.4674996 27.34360536 7.233841 33.55078125 8.98828125 C34.49256226 9.25456329 35.43434326 9.52084534 36.40466309 9.79519653 C39.37386899 10.63455648 42.34317149 11.47357389 45.3125 12.3125 C46.33234985 12.60068604 47.35219971 12.88887207 48.4029541 13.18579102 C69.58867119 19.17184761 90.78448388 25.12034866 112 31 C107.18265487 36.83920621 101.94778471 42.20596276 96.58740234 47.54296875 C95.1313326 48.99369065 93.68067224 50.44966659 92.23046875 51.90625 C88.29246341 55.84677787 84.36081075 59.76113311 80.1171875 63.375 C74.07367995 68.5538282 68.59038944 74.34324641 63 80 C49.99390701 93.1604898 49.99390701 93.1604898 43.72558594 98.49267578 C40.30265388 101.48265633 37.19730196 104.8008234 34.05078125 108.07617188 C32.7360282 109.41980193 31.37183112 110.71469976 30 112 C29.34 112 28.68 112 28 112 C18.66666667 74.66666667 9.33333333 37.33333333 0 0 Z " fill="#FDFDFD" transform="translate(191,288)"/>
<path d="M0 0 C5.1575066 0.62741754 10.03295481 1.72415541 15.02734375 3.1640625 C15.80005112 3.38277008 16.57275848 3.60147766 17.36888123 3.82681274 C19.03997207 4.30018477 20.71051334 4.77550035 22.3805542 5.25256348 C25.04147309 6.01183399 27.70424782 6.76422984 30.36767578 7.51464844 C35.10991517 8.85105131 39.85091465 10.19178734 44.59152222 11.53396606 C49.65701089 12.96792087 54.72303544 14.39997985 59.7890625 15.83203125 C60.77267258 16.11008102 61.75628265 16.3881308 62.7696991 16.67460632 C86.8420141 23.49339293 86.8420141 23.49339293 111 30 C109.65347826 33.0866613 108.27558726 34.85108339 105.66796875 36.9609375 C99.53294906 42.15541116 93.97035789 47.92349978 88.3125 53.625 C87.18708543 54.75544381 86.06143588 55.88565372 84.93554688 57.015625 C82.86744253 59.09182238 80.80071208 61.1693659 78.7355957 63.24853516 C77.83284912 64.15651855 76.93010254 65.06450195 76 66 C75.15252197 66.85851562 74.30504395 67.71703125 73.43188477 68.6015625 C71.15427728 70.84784459 68.81658829 72.97481092 66.4140625 75.0859375 C60.50409648 80.37403233 54.94101047 85.98204008 49.375 91.625 C31.86059078 109.37980307 31.86059078 109.37980307 27 111 C18.328125 76.3125 18.328125 76.3125 17.38427734 72.53683472 C16.76563472 70.0624467 16.1468208 67.5881015 15.52783203 65.11380005 C14.26201123 60.05323599 12.99668056 54.99258474 11.7421875 49.92919922 C10.09733452 43.29571323 8.39929499 36.69039423 6.5 30.125 C4.71111881 23.80912569 3.11728576 17.4693389 1.6875 11.0625 C1.51605469 10.2988916 1.34460938 9.5352832 1.16796875 8.74853516 C0.51930907 5.7721332 0 3.0558074 0 0 Z " fill="#FDFDFD" transform="translate(252,78)"/>
</svg>
